<svg width="257" height="24" viewBox="0 0 257 24" fill="none" xmlns="http://www.w3.org/2000/svg">
<path d="M10.2031 23.8906C6.97396 23.8906 4.55729 23.1667 2.95312 21.7188C1.35938 20.2708 0.520833 18.4115 0.4375 16.1406H3.35938C3.51562 17.849 4.22396 19.1146 5.48438 19.9375C6.75521 20.75 8.28646 21.1562 10.0781 21.1562C11.776 21.1562 13.1406 20.8073 14.1719 20.1094C15.2135 19.4115 15.7344 18.4635 15.7344 17.2656C15.7344 16.0052 15.1979 15.0885 14.125 14.5156C13.0521 13.9427 11.2031 13.3802 8.57812 12.8281C5.96354 12.2656 4.08333 11.4896 2.9375 10.5C1.80208 9.51042 1.23438 8.19271 1.23438 6.54688C1.23438 4.69271 1.97396 3.17188 3.45312 1.98438C4.94271 0.796875 6.91667 0.203125 9.375 0.203125C11.9583 0.203125 14.0417 0.802083 15.625 2C17.2083 3.19792 18.0469 4.89062 18.1406 7.07812H15.1875C14.8854 4.30729 12.9896 2.92188 9.5 2.92188C7.8125 2.92188 6.50521 3.23958 5.57812 3.875C4.65104 4.51042 4.1875 5.35417 4.1875 6.40625C4.1875 7.36458 4.55729 8.08333 5.29688 8.5625C6.04688 9.04167 7.4375 9.50521 9.46875 9.95312C11.5104 10.401 13.1302 10.8438 14.3281 11.2812C15.526 11.7188 16.5521 12.401 17.4062 13.3281C18.2604 14.2448 18.6875 15.4792 18.6875 17.0312C18.6875 19 17.901 20.6354 16.3281 21.9375C14.7656 23.2396 12.724 23.8906 10.2031 23.8906ZM23.4896 0.59375H30.7552C38.5365 0.59375 42.4271 4.36979 42.4271 11.9219C42.4271 19.6406 38.5365 23.5 30.7552 23.5H23.4896V0.59375ZM26.5208 20.7812H30.6927C34.0156 20.7812 36.2813 20.0104 37.4896 18.4688C38.6979 16.9167 39.3021 14.7344 39.3021 11.9219C39.3021 9.18229 38.6979 7.0625 37.4896 5.5625C36.2917 4.0625 34.026 3.3125 30.6927 3.3125H26.5208V20.7812ZM57.2135 23.8906C53.9219 23.8906 51.25 22.8125 49.1979 20.6562C47.1563 18.5 46.1354 15.6302 46.1354 12.0469C46.1354 8.45312 47.1458 5.58333 49.1667 3.4375C51.1875 1.28125 53.8385 0.203125 57.1198 0.203125C59.8802 0.203125 62.1719 0.869792 63.9948 2.20312C65.8281 3.52604 66.8542 5.30208 67.0729 7.53125H63.9323C63.8073 6.05208 63.1406 4.89583 61.9323 4.0625C60.724 3.21875 59.1302 2.79688 57.151 2.79688C54.7865 2.79688 52.8802 3.60417 51.4323 5.21875C49.9948 6.83333 49.276 9.10938 49.276 12.0469C49.276 14.974 50.0052 17.25 51.4635 18.875C52.9219 20.4896 54.8281 21.2969 57.1823 21.2969C60.4844 21.2969 62.9375 20.2083 64.5417 18.0312V14.5469H58.4948V11.8125H67.4792V23.5H65.3385L64.5417 21.0938C62.9896 22.9583 60.5469 23.8906 57.2135 23.8906ZM91.2083 23.5H88.2708V5.48438C87.0833 6.27604 85.2448 6.67188 82.7552 6.67188V4.35938C86.349 4.35938 88.4115 2.97396 88.9427 0.203125H91.2083V23.5ZM109.667 10.9219C111.062 11.2865 112.135 11.9948 112.885 13.0469C113.646 14.099 114.026 15.3333 114.026 16.75C114.026 18.8646 113.302 20.5833 111.854 21.9062C110.406 23.2292 108.609 23.8906 106.464 23.8906C104.307 23.8906 102.552 23.3021 101.198 22.125C99.8437 20.9479 99.1146 19.3906 99.0104 17.4531H102.057C102.057 18.5781 102.437 19.5469 103.198 20.3594C103.958 21.1719 105.047 21.5781 106.464 21.5781C107.839 21.5781 108.932 21.1354 109.745 20.25C110.568 19.3646 110.979 18.2188 110.979 16.8125C110.979 15.375 110.552 14.2708 109.698 13.5C108.854 12.7188 107.62 12.3281 105.995 12.3281H104.87V10.0312H105.542C108.396 10.0312 109.823 8.71875 109.823 6.09375C109.823 4.9375 109.51 4.05208 108.885 3.4375C108.26 2.82292 107.38 2.51562 106.245 2.51562C103.911 2.51562 102.609 3.72917 102.339 6.15625H99.3073C99.526 4.21875 100.266 2.74479 101.526 1.73438C102.786 0.713542 104.339 0.203125 106.182 0.203125C108.224 0.203125 109.849 0.760417 111.057 1.875C112.266 2.97917 112.87 4.40625 112.87 6.15625C112.87 7.13542 112.604 8.0625 112.073 8.9375C111.552 9.80208 110.75 10.4635 109.667 10.9219ZM146.208 0.59375L137.302 23.5H134.177L125.271 0.59375H128.505L135.74 20.2344L142.974 0.59375H146.208ZM156.229 23.8906C153.792 23.8906 151.833 23.1302 150.354 21.6094C148.875 20.0781 148.135 17.9479 148.135 15.2188C148.135 12.5104 148.849 10.3906 150.276 8.85938C151.714 7.31771 153.589 6.54688 155.901 6.54688C158.266 6.54688 160.151 7.30208 161.557 8.8125C162.974 10.3229 163.682 12.4583 163.682 15.2188V15.9219H151.198C151.323 17.8385 151.849 19.2604 152.776 20.1875C153.714 21.1146 154.865 21.5781 156.229 21.5781C157.26 21.5781 158.188 21.3177 159.01 20.7969C159.844 20.2656 160.281 19.5156 160.323 18.5469H163.37C163.141 20.2552 162.365 21.5729 161.042 22.5C159.729 23.4271 158.125 23.8906 156.229 23.8906ZM160.573 13.6094C160.333 12.0156 159.797 10.8229 158.964 10.0312C158.13 9.23958 157.109 8.84375 155.901 8.84375C154.724 8.84375 153.714 9.23958 152.87 10.0312C152.026 10.8125 151.49 12.0052 151.26 13.6094H160.573ZM170.531 9.03125C172 7.375 173.651 6.54688 175.484 6.54688C179.224 6.54688 181.094 8.58333 181.094 12.6562V23.5H178.141V12.7812C178.141 11.4271 177.896 10.4531 177.406 9.85938C176.927 9.26562 176.135 8.96875 175.031 8.96875C173.531 8.96875 172.031 9.85417 170.531 11.625V23.5H167.578V6.92188H170.531V9.03125ZM192.411 23.5312C191.766 23.6562 191.062 23.7188 190.302 23.7188C189.094 23.7188 188.208 23.5052 187.646 23.0781C187.083 22.6406 186.734 22.0833 186.599 21.4062C186.464 20.7292 186.396 19.8073 186.396 18.6406V9.23438H184.349V6.92188H186.396V2.79688H189.333V6.92188H192.021V9.23438H189.333V18.7969C189.333 19.9323 189.474 20.6562 189.755 20.9688C190.047 21.2708 190.443 21.4219 190.943 21.4219C191.453 21.4219 191.943 21.3802 192.411 21.2969V23.5312ZM205.964 21.3906C204.495 23.0573 202.844 23.8906 201.01 23.8906C197.271 23.8906 195.401 21.849 195.401 17.7656V6.92188H198.354V17.6406C198.354 18.9948 198.594 19.9688 199.073 20.5625C199.552 21.1562 200.344 21.4531 201.448 21.4531C203.094 21.4531 204.599 20.5677 205.964 18.7969V6.92188H208.901V23.5H205.964V21.3906ZM222.469 9.60938C222.052 9.48438 221.453 9.42188 220.672 9.42188C219.172 9.42188 217.885 10.2083 216.812 11.7812V23.5H213.859V6.92188H216.812V9.23438C218.052 7.44271 219.49 6.54688 221.125 6.54688C221.542 6.54688 221.99 6.58854 222.469 6.67188V9.60938ZM232.146 23.8906C229.708 23.8906 227.75 23.1302 226.271 21.6094C224.792 20.0781 224.052 17.9479 224.052 15.2188C224.052 12.5104 224.766 10.3906 226.193 8.85938C227.63 7.31771 229.505 6.54688 231.818 6.54688C234.182 6.54688 236.068 7.30208 237.474 8.8125C238.891 10.3229 239.599 12.4583 239.599 15.2188V15.9219H227.115C227.24 17.8385 227.766 19.2604 228.693 20.1875C229.63 21.1146 230.781 21.5781 232.146 21.5781C233.177 21.5781 234.104 21.3177 234.927 20.7969C235.76 20.2656 236.198 19.5156 236.24 18.5469H239.286C239.057 20.2552 238.281 21.5729 236.958 22.5C235.646 23.4271 234.042 23.8906 232.146 23.8906ZM236.49 13.6094C236.25 12.0156 235.714 10.8229 234.88 10.0312C234.047 9.23958 233.026 8.84375 231.818 8.84375C230.641 8.84375 229.63 9.23958 228.786 10.0312C227.943 10.8125 227.406 12.0052 227.177 13.6094H236.49ZM249.417 23.8906C244.885 23.8906 242.516 22.1094 242.307 18.5469H245.26C245.281 20.5677 246.656 21.5781 249.385 21.5781C250.604 21.5781 251.531 21.3281 252.167 20.8281C252.813 20.3177 253.135 19.6823 253.135 18.9219C253.135 18.1719 252.823 17.6458 252.198 17.3438C251.573 17.0312 250.281 16.6302 248.323 16.1406C246.375 15.651 244.948 15.1042 244.042 14.5C243.146 13.8958 242.698 12.8333 242.698 11.3125C242.698 9.9375 243.255 8.80208 244.37 7.90625C245.495 7 246.995 6.54688 248.87 6.54688C253.214 6.54688 255.432 8.09375 255.526 11.1875H252.589C252.484 9.625 251.313 8.84375 249.073 8.84375C248.083 8.84375 247.26 9.03125 246.604 9.40625C245.958 9.78125 245.635 10.3281 245.635 11.0469C245.635 11.6927 245.885 12.1615 246.385 12.4531C246.885 12.7344 248.135 13.1198 250.135 13.6094C252.146 14.0885 253.635 14.651 254.604 15.2969C255.583 15.9427 256.073 17.0573 256.073 18.6406C256.073 20.151 255.469 21.4062 254.26 22.4062C253.063 23.3958 251.448 23.8906 249.417 23.8906Z" fill="#0E1F58"/>
</svg>
