<svg width="36" height="37" viewBox="0 0 36 37" fill="none" xmlns="http://www.w3.org/2000/svg">
<g clip-path="url(#clip0_906_6804)">
<path d="M31.5 12.5C29.325 12.5 28.11 14.66 28.605 16.265L23.28 21.605C22.83 21.47 22.17 21.47 21.72 21.605L17.895 17.78C18.405 16.175 17.19 14 15 14C12.825 14 11.595 16.16 12.105 17.78L5.265 24.605C3.66 24.11 1.5 25.325 1.5 27.5C1.5 29.15 2.85 30.5 4.5 30.5C6.675 30.5 7.89 28.34 7.395 26.735L14.22 19.895C14.67 20.03 15.33 20.03 15.78 19.895L19.605 23.72C19.095 25.325 20.31 27.5 22.5 27.5C24.675 27.5 25.905 25.34 25.395 23.72L30.735 18.395C32.34 18.89 34.5 17.675 34.5 15.5C34.5 13.85 33.15 12.5 31.5 12.5Z" fill="#5B70AF"/>
<path d="M22.5 14L23.91 10.895L27 9.5L23.91 8.105L22.5 5L21.12 8.105L18 9.5L21.12 10.895L22.5 14Z" fill="#5B70AF"/>
<path d="M5.25 17L6 14L9 13.25L6 12.5L5.25 9.5L4.5 12.5L1.5 13.25L4.5 14L5.25 17Z" fill="#5B70AF"/>
</g>
<defs>
<clipPath id="clip0_906_6804">
<rect width="36" height="36" fill="white" transform="translate(0 0.5)"/>
</clipPath>
</defs>
</svg>
