<svg width="36" height="36" viewBox="0 0 36 36" fill="none" xmlns="http://www.w3.org/2000/svg">
<g clip-path="url(#clip0_906_6767)">
<g opacity="0.3">
<path d="M10.65 10.515C8.61 12.48 7.5 15.15 7.5 18C7.5 23.79 12.21 28.5 18 28.5C20.805 28.5 23.445 27.405 25.425 25.425C27.405 23.445 28.5 20.805 28.5 18V7.5H18C15.24 7.5 12.63 8.565 10.65 10.515ZM20.82 10.68C21.03 10.89 21.06 11.22 20.88 11.46L17.22 16.455L23.295 17.055C23.955 17.115 24.24 17.94 23.745 18.39L16.005 25.335C15.765 25.56 15.39 25.545 15.165 25.32C14.955 25.11 14.925 24.78 15.105 24.54L18.765 19.545L12.69 18.945C12.03 18.885 11.745 18.06 12.24 17.61L19.98 10.665C20.22 10.44 20.595 10.455 20.82 10.68Z" fill="#5B70AF"/>
</g>
<path d="M18 4.5C10.8 4.5 4.5 10.29 4.5 18C4.5 21.18 5.61 24.105 7.455 26.415L4.5 29.385L6.615 31.5L9.57 28.545C11.895 30.39 14.82 31.5 18 31.5C21.45 31.5 24.915 30.18 27.54 27.54C30.18 24.915 31.5 21.45 31.5 18V4.5H18ZM28.5 18C28.5 20.805 27.405 23.445 25.425 25.425C23.445 27.405 20.805 28.5 18 28.5C12.21 28.5 7.5 23.79 7.5 18C7.5 15.15 8.61 12.48 10.65 10.515C12.63 8.565 15.24 7.5 18 7.5H28.5V18Z" fill="#5B70AF"/>
<path d="M12.6899 18.9453L18.7649 19.5453L15.1049 24.5403C14.9399 24.7803 14.9549 25.1103 15.1649 25.3203C15.3899 25.5453 15.7649 25.5603 16.0049 25.3353L23.7449 18.3903C24.2399 17.9403 23.9699 17.1153 23.2949 17.0553L17.2199 16.4553L20.8799 11.4603C21.0449 11.2203 21.0299 10.8903 20.8199 10.6803C20.5949 10.4553 20.2199 10.4403 19.9799 10.6653L12.2399 17.6103C11.7599 18.0603 12.0299 18.8853 12.6899 18.9453Z" fill="#5B70AF"/>
</g>
<defs>
<clipPath id="clip0_906_6767">
<rect width="36" height="36" fill="white"/>
</clipPath>
</defs>
</svg>
