<svg width="36" height="36" viewBox="0 0 36 36" fill="none" xmlns="http://www.w3.org/2000/svg">
<path opacity="0.2" d="M19.4826 19.8926C14.9939 12.4099 20.9789 4.92868 33.6984 5.67681C34.4536 18.3963 26.9653 24.3827 19.4826 19.8926ZM2.287 11.2863C1.75262 20.3721 7.09778 24.6457 12.4415 21.4409C15.6478 16.0971 11.3728 10.752 2.287 11.2863Z" fill="#5B70AF"/>
<path d="M34.823 5.61047C34.8069 5.33525 34.6903 5.07551 34.4954 4.88056C34.3004 4.68562 34.0407 4.56904 33.7655 4.55297C26.4867 4.1311 20.6423 6.34453 18.1308 10.4902C16.4714 13.2295 16.4742 16.5595 18.1083 19.7348C17.1792 20.8401 16.4995 22.1328 16.1156 23.5247L13.8276 21.2353C14.9273 18.9389 14.8851 16.5441 13.687 14.557C11.8251 11.4942 7.5403 9.84469 2.22046 10.1639C1.94524 10.18 1.68549 10.2966 1.49055 10.4915C1.29561 10.6864 1.17903 10.9462 1.16296 11.2214C0.849366 16.5413 2.49327 20.8261 5.55749 22.6823C6.57045 23.3006 7.73449 23.6272 8.92124 23.6259C10.0714 23.6118 11.2037 23.3393 12.2344 22.8286L15.75 26.3442V30.3759C15.75 30.6743 15.8685 30.9605 16.0795 31.1714C16.2905 31.3824 16.5766 31.5009 16.875 31.5009C17.1734 31.5009 17.4595 31.3824 17.6705 31.1714C17.8815 30.9605 18 30.6743 18 30.3759V26.2289C17.995 24.4392 18.604 22.7019 19.7255 21.307C21.1724 22.0632 22.7772 22.4679 24.4097 22.4883C25.988 22.4934 27.5371 22.0622 28.8858 21.2423C33.0314 18.7336 35.2505 12.8892 34.823 5.61047ZM12.1022 19.5113L8.66952 16.08C8.45683 15.8779 8.17361 15.7669 7.88025 15.7707C7.58689 15.7745 7.30661 15.8927 7.09916 16.1001C6.89171 16.3076 6.7735 16.5878 6.76975 16.8812C6.76599 17.1746 6.87698 17.4578 7.07905 17.6705L10.5117 21.1031C9.1603 21.5503 7.84968 21.4392 6.72327 20.7572C4.56608 19.4508 3.34546 16.3584 3.37499 12.3759C7.35608 12.3408 10.4498 13.567 11.7562 15.7242C12.4383 16.8506 12.5494 18.1613 12.1022 19.5113ZM27.72 19.32C25.8356 20.4605 23.6208 20.5477 21.3708 19.6013L28.9209 12.0497C29.132 11.8388 29.2507 11.5527 29.2508 11.2543C29.251 10.9558 29.1325 10.6696 28.9216 10.4585C28.7107 10.2474 28.4246 10.1288 28.1262 10.1286C27.8278 10.1285 27.5416 10.2469 27.3305 10.4578L19.7789 18.0009C18.8283 15.7509 18.9141 13.5347 20.0601 11.6517C22.0205 8.41735 26.6695 6.61735 32.6222 6.75375C32.7572 12.705 30.9572 17.3597 27.72 19.32Z" fill="#5B70AF"/>
</svg>
