<svg width="24" height="24" viewBox="0 0 24 24" fill="none" xmlns="http://www.w3.org/2000/svg">
<rect width="24" height="24" rx="5" fill="#97B80C" fill-opacity="0.16"/>
<path d="M6.50284 13.7448V14.4264V17.4315V18.113C6.50284 18.2989 6.34803 18.4538 6.16226 18.4538H4.52125C4.33547 18.4538 4.18066 18.2989 4.18066 18.113V17.4315V14.4264V13.7448C4.18066 13.5589 4.33547 13.404 4.52125 13.404H6.16226C6.34803 13.404 6.50284 13.5589 6.50284 13.7448ZM9.84678 11.7621V14.4264V15.4797V18.144C9.84678 18.3299 9.69197 18.4848 9.5062 18.4848H7.86519C7.67941 18.4848 7.5246 18.3299 7.5246 18.144V15.4797V14.4264V11.7621C7.5246 11.5762 7.67941 11.4213 7.86519 11.4213H9.5062C9.69197 11.4213 9.84678 11.5762 9.84678 11.7621ZM13.1598 18.144C13.1598 18.3299 13.0049 18.4848 12.8192 18.4848H11.1782C10.9924 18.4848 10.8376 18.3299 10.8376 18.144V9.53148H9.69197C9.47523 9.53148 9.35138 9.31462 9.47523 9.12874L11.7974 5.4111C11.8903 5.2562 12.138 5.2562 12.2618 5.4111L14.584 9.12874C14.7079 9.31462 14.5531 9.53148 14.3673 9.53148H13.2217V12.4746C12.5715 13.2181 12.169 14.2095 12.169 15.2938C12.107 16.3781 12.5095 17.3695 13.1598 18.144ZM16.4108 11.917C14.5531 11.917 13.0359 13.435 13.0359 15.2938C13.0359 17.1526 14.5531 18.6707 16.4108 18.6707C18.2686 18.6707 19.7857 17.1526 19.7857 15.2938C19.7857 13.435 18.2686 11.917 16.4108 11.917ZM17.3706 16.626C17.2158 16.8119 17.0301 16.9358 16.8133 16.9977C16.7204 17.0287 16.6585 17.0907 16.6895 17.1836C16.6895 17.2766 16.6895 17.3695 16.6895 17.4934C16.6895 17.5864 16.6585 17.6173 16.5656 17.6173C16.4727 17.6173 16.3489 17.6173 16.256 17.6173C16.1631 17.6173 16.1321 17.5554 16.1012 17.4624C16.1012 17.4005 16.1012 17.3075 16.1012 17.2456C16.1012 17.0907 16.1012 17.0907 15.9464 17.0597C15.7606 17.0287 15.5439 16.9977 15.3581 16.9048C15.2033 16.8428 15.2033 16.8119 15.2342 16.657C15.2652 16.533 15.2962 16.4401 15.3271 16.3162C15.3581 16.1923 15.3891 16.1613 15.5129 16.2232C15.6987 16.3162 15.9154 16.3781 16.1631 16.4091C16.3179 16.4401 16.4418 16.4091 16.5656 16.3472C16.8133 16.2232 16.8443 15.9444 16.6585 15.7895C16.5966 15.7275 16.5037 15.6966 16.4108 15.6346C16.1941 15.5417 15.9773 15.4797 15.7606 15.3558C15.42 15.1699 15.2033 14.8911 15.2342 14.4883C15.2652 14.0236 15.5129 13.7448 15.9464 13.5899C16.1321 13.5279 16.1321 13.5279 16.1321 13.3421C16.1321 13.2801 16.1321 13.2181 16.1321 13.1562C16.1321 13.0323 16.1631 13.0013 16.287 13.0013C16.3179 13.0013 16.3798 13.0013 16.4108 13.0013C16.6895 13.0013 16.6895 13.0013 16.6895 13.2801C16.6895 13.497 16.6895 13.497 16.9062 13.5279C17.061 13.5589 17.2158 13.5899 17.3706 13.6519C17.4635 13.6828 17.4945 13.7448 17.4635 13.8378C17.4326 13.9617 17.4016 14.0856 17.3397 14.2095C17.3087 14.3334 17.2778 14.3334 17.1539 14.3025C16.9372 14.1785 16.6895 14.1476 16.4418 14.1476C16.3798 14.1476 16.3179 14.1475 16.256 14.1785C16.0393 14.2715 16.0083 14.5193 16.1941 14.6742C16.287 14.7362 16.3798 14.7981 16.5037 14.8601C16.6895 14.953 16.8752 15.015 17.061 15.1079C17.6493 15.4177 17.8041 16.1303 17.3706 16.626Z" fill="#97B80C"/>
</svg>
