<svg width="37" height="37" viewBox="0 0 37 37" fill="none" xmlns="http://www.w3.org/2000/svg">
<g clip-path="url(#clip0_906_6850)">
<path opacity="0.3" d="M6.09082 27.5H30.0908V9.5H6.09082V27.5ZM27.0908 24.5H24.0908V21.5H27.0908V24.5ZM15.0908 15.5H27.0908V18.5H15.0908V15.5ZM9.09082 15.5H12.0908V18.5H9.09082V15.5ZM9.09082 21.5H21.0908V24.5H9.09082V21.5Z" fill="#5B70AF"/>
<path d="M30.0908 6.5H6.09082C4.44082 6.5 3.09082 7.85 3.09082 9.5V27.5C3.09082 29.15 4.44082 30.5 6.09082 30.5H30.0908C31.7408 30.5 33.0908 29.15 33.0908 27.5V9.5C33.0908 7.85 31.7408 6.5 30.0908 6.5ZM30.0908 27.5H6.09082V9.5H30.0908V27.5ZM9.09082 15.5H12.0908V18.5H9.09082V15.5ZM9.09082 21.5H21.0908V24.5H9.09082V21.5ZM24.0908 21.5H27.0908V24.5H24.0908V21.5ZM15.0908 15.5H27.0908V18.5H15.0908V15.5Z" fill="#5B70AF"/>
</g>
<defs>
<clipPath id="clip0_906_6850">
<rect width="36" height="36" fill="white" transform="translate(0.0908203 0.5)"/>
</clipPath>
</defs>
</svg>
