<svg width="24" height="24" viewBox="0 0 24 24" fill="none" xmlns="http://www.w3.org/2000/svg">
<rect width="24" height="24" rx="5" fill="#ED975D" fill-opacity="0.19"/>
<path d="M18.2362 17.8687C18.1787 18.3537 17.7737 18.7147 17.3 18.7147C16.8138 18.7147 16.4088 18.3537 16.3637 17.8687V14.1688C16.3186 13.8067 16.4867 13.4694 16.7924 13.2776C17.1082 13.0858 17.4917 13.0858 17.7952 13.2776C18.1009 13.4694 18.2689 13.8067 18.2362 14.1688V17.8687Z" fill="#ED975D"/>
<path d="M13.0465 17.8684C13.0014 18.3535 12.5964 18.7144 12.1102 18.7144C11.6364 18.7144 11.2315 18.3535 11.174 17.8684V6.37383C11.1412 6.02414 11.3093 5.67333 11.615 5.48269C11.9185 5.29093 12.302 5.29093 12.619 5.48269C12.9235 5.67333 13.0916 6.02414 13.0465 6.37383V17.8684Z" fill="#ED975D"/>
<path d="M7.78975 17.8687C7.74463 18.3537 7.33967 18.7147 6.85349 18.7147C6.36844 18.7147 5.96235 18.3537 5.91835 17.8687V10.074C5.88451 9.72321 6.05259 9.37465 6.35829 9.18289C6.66172 8.99112 7.04638 8.99112 7.35095 9.18289C7.65439 9.37465 7.82472 9.72321 7.78975 10.074V17.8687Z" fill="#ED975D"/>
</svg>
