<svg width="445" height="324" viewBox="0 0 445 324" fill="none" xmlns="http://www.w3.org/2000/svg">
<g clip-path="url(#clip0_1620_10256)">
<rect x="5.41309" y="5.16016" width="434" height="313" rx="8.9053" fill="white"/>
<rect x="27.04" y="26.1523" width="74.5494" height="9.70163" rx="4.85081" fill="#E5E8F0"/>
<rect x="27.04" y="42.4922" width="127.653" height="7.65918" rx="3.82959" fill="#E5E8F0"/>
<line x1="27.04" y1="67.902" x2="439.228" y2="67.9019" stroke="#E5E8F0" stroke-width="0.461707"/>
<g clip-path="url(#clip1_1620_10256)">
<line x1="57.4478" y1="85.3572" x2="414.412" y2="85.3572" stroke="#9EA5BD" stroke-width="0.230853"/>
<line x1="57.4478" y1="119.396" x2="414.412" y2="119.396" stroke="#9EA5BD" stroke-width="0.230853"/>
<line x1="57.4478" y1="154.308" x2="414.412" y2="154.308" stroke="#9EA5BD" stroke-width="0.230853"/>
<line x1="57.4478" y1="189.221" x2="414.412" y2="189.221" stroke="#9EA5BD" stroke-width="0.230853"/>
<line x1="57.4478" y1="224.133" x2="414.412" y2="224.133" stroke="#9EA5BD" stroke-width="0.230853"/>
<line x1="57.4478" y1="259.045" x2="414.412" y2="259.045" stroke="#9EA5BD" stroke-width="0.230853"/>
<rect x="64.4126" y="146.16" width="27" height="32.5595" rx="0.69256" fill="#8FBFF6"/>
<rect x="64.4126" y="179.678" width="27" height="45.0088" rx="0.69256" fill="#5598E6"/>
<rect x="64.4126" y="225.643" width="27" height="33.5172" rx="0.69256" fill="#5A78E5"/>
<rect x="106.413" y="128.16" width="27" height="21.9925" rx="0.69256" fill="#8FBFF6"/>
<rect x="106.413" y="151.109" width="27" height="59.2842" rx="0.69256" fill="#5598E6"/>
<rect x="106.413" y="211.35" width="27" height="47.8099" rx="0.69256" fill="#5A78E5"/>
<rect x="148.413" y="112.16" width="27" height="33.4091" rx="0.69256" fill="#8FBFF6"/>
<rect x="148.413" y="146.523" width="27" height="81.1365" rx="0.69256" fill="#5598E6"/>
<rect x="148.413" y="228.615" width="27" height="30.5455" rx="0.69256" fill="#5A78E5"/>
<rect x="190.413" y="138.16" width="27" height="32.394" rx="0.69256" fill="#8FBFF6"/>
<rect x="190.413" y="171.508" width="27" height="35.2523" rx="0.69256" fill="#5598E6"/>
<rect x="190.413" y="207.711" width="27" height="51.4492" rx="0.69256" fill="#5A78E5"/>
<rect x="231.413" y="95.1602" width="27" height="39.0928" rx="0.69256" fill="#8FBFF6"/>
<rect x="231.413" y="135.207" width="27" height="55.302" rx="0.69256" fill="#5598E6"/>
<rect x="231.413" y="191.463" width="27" height="67.6973" rx="0.69256" fill="#5A78E5"/>
<rect x="273.413" y="89.1602" width="27" height="54.4383" rx="0.69256" fill="#8FBFF6"/>
<rect x="273.413" y="144.553" width="27" height="55.3934" rx="0.69256" fill="#5598E6"/>
<rect x="273.413" y="200.902" width="27" height="58.2585" rx="0.69256" fill="#5A78E5"/>
<rect x="315.413" y="138.16" width="27" height="48.5902" rx="0.69256" fill="#8FBFF6"/>
<rect x="315.413" y="187.703" width="27" height="19.055" rx="0.69256" fill="#5598E6"/>
<rect x="315.413" y="207.711" width="27" height="51.4485" rx="0.69256" fill="#5A78E5"/>
<rect x="357.413" y="163.16" width="27" height="22.0799" rx="0.69256" fill="#8FBFF6"/>
<rect x="357.413" y="186.201" width="27" height="30.7199" rx="0.69256" fill="#5598E6"/>
<rect x="357.413" y="217.881" width="27" height="41.2799" rx="0.69256" fill="#5A78E5"/>
<rect x="26.4126" y="86.1602" width="24" height="5" rx="2.5" fill="#E5E8F0"/>
<rect x="26.4126" y="110.16" width="24" height="5" rx="2.5" fill="#E5E8F0"/>
<rect x="26.4126" y="134.16" width="24" height="5" rx="2.5" fill="#E5E8F0"/>
<rect x="26.4126" y="158.16" width="24" height="5" rx="2.5" fill="#E5E8F0"/>
<rect x="26.4126" y="182.16" width="24" height="5" rx="2.5" fill="#E5E8F0"/>
<rect x="26.4126" y="206.16" width="24" height="5" rx="2.5" fill="#E5E8F0"/>
<rect x="26.4126" y="230.16" width="24" height="5" rx="2.5" fill="#E5E8F0"/>
<rect x="26.4126" y="254.16" width="24" height="5" rx="2.5" fill="#E5E8F0"/>
</g>
<rect x="66.4131" y="265.16" width="24" height="5" rx="2.5" fill="#E5E8F0"/>
<rect x="108.413" y="265.16" width="24" height="5" rx="2.5" fill="#E5E8F0"/>
<rect x="150.413" y="265.16" width="24" height="5" rx="2.5" fill="#E5E8F0"/>
<rect x="192.413" y="265.16" width="24" height="5" rx="2.5" fill="#E5E8F0"/>
<rect x="234.413" y="265.16" width="24" height="5" rx="2.5" fill="#E5E8F0"/>
<rect x="276.413" y="265.16" width="24" height="5" rx="2.5" fill="#E5E8F0"/>
<rect x="318.413" y="265.16" width="24" height="5" rx="2.5" fill="#E5E8F0"/>
<rect x="360.413" y="265.16" width="24" height="5" rx="2.5" fill="#E5E8F0"/>
<circle cx="139.913" cy="289.705" r="2.5" fill="#8FBFF6"/>
<rect x="146.413" y="287.16" width="33" height="5.08874" rx="2.54437" fill="#E5E8F0"/>
<circle cx="205.246" cy="289.705" r="2.5" fill="#5598E6"/>
<rect x="211.746" y="287.16" width="29" height="5.08874" rx="2.54437" fill="#E5E8F0"/>
<circle cx="271.913" cy="289.66" r="2.5" fill="#5A78E5"/>
<rect x="278.413" y="287.16" width="34" height="5.08874" rx="2.54437" fill="#E5E8F0"/>
</g>
<rect x="2.86871" y="2.61578" width="439.089" height="318.089" rx="11.4497" stroke="url(#paint0_linear_1620_10256)" stroke-opacity="0.32" stroke-width="5.08874"/>
<defs>
<linearGradient id="paint0_linear_1620_10256" x1="234.232" y1="318.16" x2="234.232" y2="37.3357" gradientUnits="userSpaceOnUse">
<stop stop-color="#5F73F9" stop-opacity="0.46"/>
<stop offset="1" stop-color="#ABB5F8" stop-opacity="0"/>
</linearGradient>
<clipPath id="clip0_1620_10256">
<rect x="5.41309" y="5.16016" width="434" height="313" rx="8.9053" fill="white"/>
</clipPath>
<clipPath id="clip1_1620_10256">
<rect width="393.332" height="187" fill="white" transform="translate(26.0513 80.8555)"/>
</clipPath>
</defs>
</svg>
