<svg width="48" height="48" viewBox="0 0 48 48" fill="none" xmlns="http://www.w3.org/2000/svg">
<path opacity="0.2" d="M21 10.5V19.5C21 19.8978 20.842 20.2794 20.5607 20.5607C20.2794 20.842 19.8978 21 19.5 21H10.5C10.1022 21 9.72064 20.842 9.43934 20.5607C9.15804 20.2794 9 19.8978 9 19.5V10.5C9 10.1022 9.15804 9.72064 9.43934 9.43934C9.72064 9.15804 10.1022 9 10.5 9H19.5C19.8978 9 20.2794 9.15804 20.5607 9.43934C20.842 9.72064 21 10.1022 21 10.5ZM37.5 9H28.5C28.1022 9 27.7206 9.15804 27.4393 9.43934C27.158 9.72064 27 10.1022 27 10.5V19.5C27 19.8978 27.158 20.2794 27.4393 20.5607C27.7206 20.842 28.1022 21 28.5 21H37.5C37.8978 21 38.2794 20.842 38.5607 20.5607C38.842 20.2794 39 19.8978 39 19.5V10.5C39 10.1022 38.842 9.72064 38.5607 9.43934C38.2794 9.15804 37.8978 9 37.5 9ZM19.5 27H10.5C10.1022 27 9.72064 27.158 9.43934 27.4393C9.15804 27.7206 9 28.1022 9 28.5V37.5C9 37.8978 9.15804 38.2794 9.43934 38.5607C9.72064 38.842 10.1022 39 10.5 39H19.5C19.8978 39 20.2794 38.842 20.5607 38.5607C20.842 38.2794 21 37.8978 21 37.5V28.5C21 28.1022 20.842 27.7206 20.5607 27.4393C20.2794 27.158 19.8978 27 19.5 27ZM37.5 27H28.5C28.1022 27 27.7206 27.158 27.4393 27.4393C27.158 27.7206 27 28.1022 27 28.5V37.5C27 37.8978 27.158 38.2794 27.4393 38.5607C27.7206 38.842 28.1022 39 28.5 39H37.5C37.8978 39 38.2794 38.842 38.5607 38.5607C38.842 38.2794 39 37.8978 39 37.5V28.5C39 28.1022 38.842 27.7206 38.5607 27.4393C38.2794 27.158 37.8978 27 37.5 27Z" fill="#5B70AF"/>
<path d="M37.5 25.5H28.5C27.7044 25.5 26.9413 25.8161 26.3787 26.3787C25.8161 26.9413 25.5 27.7044 25.5 28.5V37.5C25.5 38.2956 25.8161 39.0587 26.3787 39.6213C26.9413 40.1839 27.7044 40.5 28.5 40.5H37.5C38.2956 40.5 39.0587 40.1839 39.6213 39.6213C40.1839 39.0587 40.5 38.2956 40.5 37.5V28.5C40.5 27.7044 40.1839 26.9413 39.6213 26.3787C39.0587 25.8161 38.2956 25.5 37.5 25.5ZM37.5 37.5H28.5V28.5H37.5V37.5ZM19.5 7.5H10.5C9.70435 7.5 8.94129 7.81607 8.37868 8.37868C7.81607 8.94129 7.5 9.70435 7.5 10.5V19.5C7.5 20.2956 7.81607 21.0587 8.37868 21.6213C8.94129 22.1839 9.70435 22.5 10.5 22.5H19.5C20.2956 22.5 21.0587 22.1839 21.6213 21.6213C22.1839 21.0587 22.5 20.2956 22.5 19.5V10.5C22.5 9.70435 22.1839 8.94129 21.6213 8.37868C21.0587 7.81607 20.2956 7.5 19.5 7.5ZM19.5 19.5H10.5V10.5H19.5V19.5ZM37.5 7.5H28.5C27.7044 7.5 26.9413 7.81607 26.3787 8.37868C25.8161 8.94129 25.5 9.70435 25.5 10.5V19.5C25.5 20.2956 25.8161 21.0587 26.3787 21.6213C26.9413 22.1839 27.7044 22.5 28.5 22.5H37.5C38.2956 22.5 39.0587 22.1839 39.6213 21.6213C40.1839 21.0587 40.5 20.2956 40.5 19.5V10.5C40.5 9.70435 40.1839 8.94129 39.6213 8.37868C39.0587 7.81607 38.2956 7.5 37.5 7.5ZM37.5 19.5H28.5V10.5H37.5V19.5ZM19.5 25.5H10.5C9.70435 25.5 8.94129 25.8161 8.37868 26.3787C7.81607 26.9413 7.5 27.7044 7.5 28.5V37.5C7.5 38.2956 7.81607 39.0587 8.37868 39.6213C8.94129 40.1839 9.70435 40.5 10.5 40.5H19.5C20.2956 40.5 21.0587 40.1839 21.6213 39.6213C22.1839 39.0587 22.5 38.2956 22.5 37.5V28.5C22.5 27.7044 22.1839 26.9413 21.6213 26.3787C21.0587 25.8161 20.2956 25.5 19.5 25.5ZM19.5 37.5H10.5V28.5H19.5V37.5Z" fill="#5B70AF"/>
</svg>
