<svg width="48" height="48" viewBox="0 0 48 48" fill="none" xmlns="http://www.w3.org/2000/svg">
<path opacity="0.2" d="M17.9998 7.03125V20.5312L6.29976 27.2812C5.51873 23.0656 6.2681 18.7096 8.413 14.9972C10.5579 11.2849 13.9574 8.46011 17.9998 7.03125Z" fill="#5B70AF"/>
<path d="M18.7498 21.8306C18.9779 21.6989 19.1673 21.5095 19.2989 21.2814C19.4306 21.0533 19.4998 20.7946 19.4998 20.5312V7.03125C19.4984 6.7921 19.4399 6.55674 19.3292 6.3448C19.2184 6.13285 19.0585 5.95047 18.8629 5.81286C18.6673 5.67524 18.4417 5.58639 18.2048 5.55372C17.9679 5.52104 17.7266 5.54548 17.501 5.625C13.1229 7.17453 9.44101 10.235 7.11732 14.2561C4.79363 18.2773 3.98052 22.9955 4.82416 27.5625C4.86789 27.7987 4.96769 28.0209 5.11517 28.2105C5.26265 28.4 5.4535 28.5514 5.67166 28.6519C5.86827 28.7438 6.08275 28.7912 6.29979 28.7906C6.56306 28.7907 6.82172 28.7215 7.04979 28.59L18.7498 21.8306ZM16.4998 9.30375V19.665L7.52229 24.8456C7.49979 24.5625 7.49979 24.2775 7.49979 24C7.50245 20.9594 8.34408 17.9786 9.93202 15.3856C11.52 12.7926 13.7926 10.6881 16.4998 9.30375ZM40.9385 14.3475C40.9217 14.3137 40.9048 14.2781 40.8842 14.2444C40.8635 14.2106 40.8467 14.1825 40.826 14.1525C39.1068 11.2159 36.6493 8.78002 33.6976 7.08676C30.7459 5.3935 27.4027 4.50174 23.9998 4.5C23.602 4.5 23.2204 4.65804 22.9391 4.93934C22.6578 5.22064 22.4998 5.60218 22.4998 6V23.2181L7.72291 31.8244C7.55144 31.9238 7.40136 32.0562 7.28136 32.2139C7.16136 32.3717 7.07381 32.5516 7.02377 32.7434C6.97373 32.9352 6.9622 33.135 6.98984 33.3313C7.01747 33.5275 7.08373 33.7164 7.18479 33.8869C9.35279 37.5787 12.6755 40.4544 16.6403 42.0703C20.605 43.6861 24.9913 43.9522 29.1223 42.8275C33.2533 41.7029 36.8993 39.2499 39.4977 35.8473C42.0961 32.4446 43.5025 28.2813 43.4998 24C43.5041 20.614 42.621 17.2859 40.9385 14.3475ZM25.4998 7.5675C27.8788 7.78648 30.1819 8.51917 32.2502 9.71499C34.3184 10.9108 36.1025 12.5413 37.4792 14.4938L25.4998 21.4706V7.5675ZM23.9998 40.5C21.3812 40.4933 18.8014 39.8666 16.4716 38.6712C14.1417 37.4758 12.1281 35.7457 10.5954 33.6225L24.7329 25.3894L24.7742 25.3631L38.981 17.0887C40.1406 19.6026 40.6491 22.3679 40.4595 25.1299C40.2699 27.8918 39.3884 30.5617 37.8962 32.8936C36.404 35.2254 34.3491 37.1444 31.9206 38.4736C29.4921 39.8029 26.7682 40.4997 23.9998 40.5Z" fill="#5B70AF"/>
</svg>
