<svg width="24" height="25" viewBox="0 0 24 25" fill="none" xmlns="http://www.w3.org/2000/svg">
<path d="M19.4119 8.39293C18.4397 7.41854 17.2842 6.64625 16.0121 6.12057C14.74 5.5949 13.3764 5.32625 12 5.33012H11.9625C6.19406 5.34981 1.5 10.1114 1.5 15.9361V18.0801C1.5 18.4779 1.65804 18.8595 1.93934 19.1408C2.22064 19.4221 2.60218 19.5801 3 19.5801H21C21.3978 19.5801 21.7794 19.4221 22.0607 19.1408C22.342 18.8595 22.5 18.4779 22.5 18.0801V15.8301C22.5039 14.4477 22.2328 13.0782 21.7027 11.8015C21.1725 10.5247 20.3938 9.36606 19.4119 8.39293ZM21 18.0801H11.2228L16.3566 11.0207C16.4737 10.8599 16.5221 10.6591 16.4911 10.4625C16.4602 10.2659 16.3524 10.0897 16.1916 9.97262C16.0307 9.85551 15.8299 9.8071 15.6333 9.83805C15.4368 9.86899 15.2605 9.97675 15.1434 10.1376L9.3675 18.0801H3V15.9361C3 15.6473 3.01406 15.3623 3.04031 15.0801H5.25C5.44891 15.0801 5.63968 15.0011 5.78033 14.8605C5.92098 14.7198 6 14.529 6 14.3301C6 14.1312 5.92098 13.9404 5.78033 13.7998C5.63968 13.6591 5.44891 13.5801 5.25 13.5801H3.30656C4.27406 9.93699 7.43156 7.18262 11.25 6.86199V9.08012C11.25 9.27903 11.329 9.4698 11.4697 9.61045C11.6103 9.7511 11.8011 9.83012 12 9.83012C12.1989 9.83012 12.3897 9.7511 12.5303 9.61045C12.671 9.4698 12.75 9.27903 12.75 9.08012V6.86106C14.6106 7.01764 16.3767 7.74821 17.8042 8.95183C19.2316 10.1555 20.2501 11.7727 20.7188 13.5801H18.75C18.5511 13.5801 18.3603 13.6591 18.2197 13.7998C18.079 13.9404 18 14.1312 18 14.3301C18 14.529 18.079 14.7198 18.2197 14.8605C18.3603 15.0011 18.5511 15.0801 18.75 15.0801H20.9691C20.9888 15.3286 21 15.5779 21 15.8301V18.0801Z" fill="#343434"/>
</svg>
