<svg width="41" height="41" viewBox="0 0 41 41" fill="none" xmlns="http://www.w3.org/2000/svg">
<g clip-path="url(#clip0_1620_10363)">
<path d="M32.1966 8.87747L29.8466 11.2275C32.2466 13.6441 33.7466 16.9775 33.7466 20.6608C33.7466 28.0275 27.7799 33.9941 20.4132 33.9941C13.0466 33.9941 7.07992 28.0275 7.07992 20.6608C7.07992 13.8608 12.1632 8.26081 18.7466 7.44414V10.8108C14.0132 11.6108 10.4132 15.7108 10.4132 20.6608C10.4132 26.1775 14.8966 30.6608 20.4132 30.6608C25.9299 30.6608 30.4132 26.1775 30.4132 20.6608C30.4132 17.8941 29.2966 15.3941 27.4799 13.5941L25.1299 15.9441C26.3299 17.1608 27.0799 18.8275 27.0799 20.6608C27.0799 24.3441 24.0966 27.3275 20.4132 27.3275C16.7299 27.3275 13.7466 24.3441 13.7466 20.6608C13.7466 17.5608 15.8799 14.9775 18.7466 14.2275V17.7941C17.7466 18.3775 17.0799 19.4275 17.0799 20.6608C17.0799 22.4941 18.5799 23.9941 20.4132 23.9941C22.2466 23.9941 23.7466 22.4941 23.7466 20.6608C23.7466 19.4275 23.0799 18.3608 22.0799 17.7941V3.99414H20.4132C11.2132 3.99414 3.74658 11.4608 3.74658 20.6608C3.74658 29.8608 11.2132 37.3275 20.4132 37.3275C29.6132 37.3275 37.0799 29.8608 37.0799 20.6608C37.0799 16.0608 35.2132 11.8941 32.1966 8.87747Z" fill="#5B70AF"/>
</g>
<defs>
<clipPath id="clip0_1620_10363">
<rect width="40" height="40" fill="white" transform="translate(0.413086 0.660156)"/>
</clipPath>
</defs>
</svg>
