<svg width="24" height="25" viewBox="0 0 24 25" fill="none" xmlns="http://www.w3.org/2000/svg">
<g clip-path="url(#clip0_1731_5193)">
<path d="M20 4.83008H4C2.9 4.83008 2 5.73008 2 6.83008V9.83008H4V6.83008H20V9.83008H22V6.83008C22 5.73008 21.1 4.83008 20 4.83008Z" fill="#343434"/>
<path d="M20 18.8301H4V15.8301H2V18.8301C2 19.9301 2.9 20.8301 4 20.8301H20C21.1 20.8301 22 19.9301 22 18.8301V15.8301H20V18.8301Z" fill="#343434"/>
<path d="M14.89 8.37914C14.55 7.69914 13.44 7.69914 13.1 8.37914L10 14.5891L8.89 12.3791C8.72 12.0391 8.38 11.8291 8 11.8291H2V13.8291H7.38L9.1 17.2791C9.28 17.6191 9.62 17.8291 10 17.8291C10.38 17.8291 10.72 17.6191 10.89 17.2791L14 11.0691L15.11 13.2791C15.28 13.6191 15.62 13.8291 16 13.8291H22V11.8291H16.62L14.89 8.37914Z" fill="#343434"/>
</g>
<defs>
<clipPath id="clip0_1731_5193">
<rect width="24" height="24" fill="white" transform="translate(0 0.830078)"/>
</clipPath>
</defs>
</svg>
