<svg width="41" height="41" viewBox="0 0 41 41" fill="none" xmlns="http://www.w3.org/2000/svg">
<g clip-path="url(#clip0_1620_10353)">
<path opacity="0.3" d="M5.41309 25.6602H6.71309C7.62975 24.6435 8.94642 23.9935 10.4131 23.9935C11.8798 23.9935 13.1964 24.6435 14.1131 25.6602H25.4131V10.6602H5.41309V25.6602Z" fill="#5B70AF"/>
<path d="M28.7463 13.9928V7.32617H5.41292C3.57959 7.32617 2.07959 8.82617 2.07959 10.6595V28.9928H5.41292C5.41292 31.7595 7.64626 33.9928 10.4129 33.9928C13.1796 33.9928 15.4129 31.7595 15.4129 28.9928H25.4129C25.4129 31.7595 27.6463 33.9928 30.4129 33.9928C33.1796 33.9928 35.4129 31.7595 35.4129 28.9928H38.7463V20.6595L33.7463 13.9928H28.7463ZM10.4129 30.6595C9.49626 30.6595 8.74626 29.9095 8.74626 28.9928C8.74626 28.0762 9.49626 27.3262 10.4129 27.3262C11.3296 27.3262 12.0796 28.0762 12.0796 28.9928C12.0796 29.9095 11.3296 30.6595 10.4129 30.6595ZM25.4129 25.6595H14.1129C13.1963 24.6428 11.8963 23.9928 10.4129 23.9928C8.92959 23.9928 7.62959 24.6428 6.71292 25.6595H5.41292V10.6595H25.4129V25.6595ZM30.4129 30.6595C29.4963 30.6595 28.7463 29.9095 28.7463 28.9928C28.7463 28.0762 29.4963 27.3262 30.4129 27.3262C31.3296 27.3262 32.0796 28.0762 32.0796 28.9928C32.0796 29.9095 31.3296 30.6595 30.4129 30.6595ZM28.7463 20.6595V16.4928H32.9129L36.1796 20.6595H28.7463Z" fill="#5B70AF"/>
</g>
<defs>
<clipPath id="clip0_1620_10353">
<rect width="40" height="40" fill="white" transform="translate(0.413086 0.660156)"/>
</clipPath>
</defs>
</svg>
