<svg width="591" height="431" viewBox="0 0 591 431" fill="none" xmlns="http://www.w3.org/2000/svg">
<rect x="25.4019" y="145.969" width="354" height="251" rx="12" fill="#9585F3" fill-opacity="0.05"/>
<g filter="url(#filter0_d_1620_10203)">
<rect x="41" y="161.66" width="322.511" height="219.307" rx="6.45022" fill="white"/>
</g>
<line opacity="0.2" x1="90.9892" y1="335.279" x2="342.548" y2="335.279" stroke="#B4B6C4" stroke-width="1.07504" stroke-linecap="round"/>
<line opacity="0.2" x1="90.9892" y1="306.252" x2="342.548" y2="306.252" stroke="#B4B6C4" stroke-width="1.07504" stroke-linecap="round"/>
<line opacity="0.2" x1="90.9892" y1="277.226" x2="342.548" y2="277.226" stroke="#B4B6C4" stroke-width="1.07504" stroke-linecap="round"/>
<line opacity="0.2" x1="90.9892" y1="248.201" x2="342.548" y2="248.201" stroke="#B4B6C4" stroke-width="1.07504" stroke-linecap="round"/>
<line opacity="0.2" x1="90.9892" y1="219.175" x2="342.548" y2="219.175" stroke="#B4B6C4" stroke-width="1.07504" stroke-linecap="round"/>
<path d="M61.6065 252.396C61.2858 252.391 60.9651 252.33 60.6444 252.213C60.3238 252.096 60.0311 251.898 59.7664 251.621C59.5017 251.341 59.2892 250.963 59.1288 250.487C58.9685 250.009 58.8883 249.408 58.8883 248.685C58.8883 247.993 58.9532 247.38 59.083 246.845C59.2128 246.308 59.4012 245.856 59.648 245.49C59.8949 245.121 60.1927 244.841 60.5414 244.65C60.8926 244.459 61.2883 244.364 61.7286 244.364C62.1664 244.364 62.5558 244.452 62.8968 244.627C63.2404 244.8 63.5204 245.042 63.7367 245.352C63.953 245.663 64.093 246.021 64.1566 246.425H63.2251C63.1386 246.074 62.9706 245.783 62.7212 245.551C62.4718 245.319 62.1409 245.204 61.7286 245.204C61.1229 245.204 60.6457 245.467 60.297 245.994C59.9509 246.521 59.7766 247.26 59.774 248.212H59.8351C59.9776 247.996 60.1469 247.811 60.3428 247.658C60.5414 247.503 60.7602 247.383 60.9995 247.299C61.2387 247.215 61.4919 247.173 61.7592 247.173C62.2071 247.173 62.6169 247.285 62.9884 247.509C63.36 247.731 63.6578 248.038 63.8818 248.429C64.1057 248.819 64.2177 249.266 64.2177 249.769C64.2177 250.253 64.1095 250.696 63.8932 251.098C63.6769 251.498 63.3727 251.816 62.9808 252.052C62.5914 252.287 62.1333 252.401 61.6065 252.396ZM61.6065 251.556C61.9272 251.556 62.2147 251.476 62.4693 251.316C62.7263 251.155 62.9286 250.94 63.0762 250.67C63.2264 250.401 63.3015 250.1 63.3015 249.769C63.3015 249.446 63.229 249.152 63.0839 248.888C62.9414 248.62 62.7441 248.408 62.4922 248.25C62.2427 248.092 61.9577 248.013 61.637 248.013C61.3952 248.013 61.17 248.062 60.9613 248.158C60.7526 248.253 60.5694 248.382 60.4116 248.548C60.2563 248.713 60.1342 248.903 60.0451 249.117C59.956 249.328 59.9115 249.551 59.9115 249.785C59.9115 250.095 59.984 250.385 60.1291 250.655C60.2767 250.925 60.4777 251.143 60.7322 251.308C60.9893 251.473 61.2807 251.556 61.6065 251.556ZM68.2691 252.396C67.694 252.396 67.204 252.239 66.7994 251.926C66.3947 251.611 66.0855 251.154 65.8717 250.556C65.6579 249.955 65.551 249.23 65.551 248.38C65.551 247.535 65.6579 246.813 65.8717 246.215C66.088 245.615 66.3985 245.157 66.8032 244.841C67.2104 244.523 67.699 244.364 68.2691 244.364C68.8392 244.364 69.3266 244.523 69.7313 244.841C70.1385 245.157 70.449 245.615 70.6628 246.215C70.8791 246.813 70.9873 247.535 70.9873 248.38C70.9873 249.23 70.8804 249.955 70.6666 250.556C70.4528 251.154 70.1436 251.611 69.7389 251.926C69.3343 252.239 68.8443 252.396 68.2691 252.396ZM68.2691 251.556C68.8392 251.556 69.2821 251.281 69.5977 250.731C69.9133 250.182 70.071 249.398 70.071 248.38C70.071 247.703 69.9985 247.126 69.8534 246.65C69.7109 246.175 69.5048 245.812 69.235 245.562C68.9678 245.313 68.6458 245.188 68.2691 245.188C67.7041 245.188 67.2626 245.467 66.9444 246.024C66.6263 246.579 66.4672 247.364 66.4672 248.38C66.4672 249.057 66.5385 249.632 66.681 250.105C66.8235 250.579 67.0284 250.939 67.2957 251.186C67.5654 251.433 67.8899 251.556 68.2691 251.556ZM73.2931 250.151L73.2778 249.036H73.4611L76.0265 246.425H77.1412L74.4078 249.189H74.3315L73.2931 250.151ZM72.4532 252.289V244.471H73.3542V252.289H72.4532ZM76.1792 252.289L73.8886 249.388L74.53 248.762L77.3245 252.289H76.1792Z" fill="#5D6180"/>
<path d="M61.6523 281.421C61.1484 281.421 60.6992 281.335 60.3047 281.162C59.9127 280.989 59.601 280.748 59.3694 280.44C59.1403 280.13 59.0156 279.77 58.9952 279.36H59.9573C59.9776 279.612 60.0642 279.829 60.2169 280.013C60.3696 280.193 60.5694 280.333 60.8162 280.433C61.0631 280.532 61.3367 280.581 61.637 280.581C61.973 280.581 62.2707 280.523 62.5303 280.406C62.7899 280.289 62.9935 280.126 63.1411 279.917C63.2888 279.709 63.3626 279.467 63.3626 279.192C63.3626 278.904 63.2913 278.651 63.1488 278.432C63.0063 278.211 62.7976 278.038 62.5227 277.913C62.2478 277.788 61.9119 277.726 61.5149 277.726H60.8888V276.886H61.5149C61.8253 276.886 62.0977 276.83 62.3318 276.718C62.5685 276.606 62.753 276.448 62.8854 276.245C63.0203 276.041 63.0877 275.802 63.0877 275.527C63.0877 275.262 63.0292 275.032 62.9121 274.836C62.795 274.64 62.6296 274.487 62.4158 274.378C62.2046 274.268 61.9551 274.214 61.6676 274.214C61.3978 274.214 61.1433 274.263 60.904 274.363C60.6673 274.459 60.4739 274.601 60.3238 274.786C60.1736 274.97 60.0922 275.191 60.0794 275.451H59.1632C59.1785 275.041 59.3019 274.682 59.5335 274.374C59.7651 274.064 60.068 273.822 60.4421 273.649C60.8188 273.476 61.2323 273.389 61.6828 273.389C62.1664 273.389 62.5812 273.487 62.9274 273.683C63.2735 273.876 63.5395 274.132 63.7252 274.45C63.911 274.769 64.0039 275.112 64.0039 275.481C64.0039 275.921 63.8881 276.297 63.6565 276.607C63.4275 276.918 63.1157 277.133 62.7212 277.253V277.314C63.215 277.395 63.6005 277.605 63.8779 277.944C64.1554 278.279 64.2941 278.696 64.2941 279.192C64.2941 279.617 64.1783 279.999 63.9467 280.337C63.7176 280.673 63.4046 280.938 63.0075 281.131C62.6105 281.325 62.1588 281.421 61.6523 281.421ZM68.4056 281.421C67.8304 281.421 67.3405 281.265 66.9358 280.952C66.5312 280.636 66.222 280.179 66.0082 279.581C65.7944 278.981 65.6875 278.255 65.6875 277.405C65.6875 276.56 65.7944 275.839 66.0082 275.241C66.2245 274.64 66.535 274.182 66.9397 273.866C67.3469 273.548 67.8355 273.389 68.4056 273.389C68.9757 273.389 69.4631 273.548 69.8678 273.866C70.275 274.182 70.5855 274.64 70.7993 275.241C71.0156 275.839 71.1238 276.56 71.1238 277.405C71.1238 278.255 71.0169 278.981 70.8031 279.581C70.5893 280.179 70.2801 280.636 69.8754 280.952C69.4707 281.265 68.9808 281.421 68.4056 281.421ZM68.4056 280.581C68.9757 280.581 69.4186 280.307 69.7341 279.757C70.0497 279.207 70.2075 278.423 70.2075 277.405C70.2075 276.728 70.135 276.152 69.9899 275.676C69.8474 275.2 69.6413 274.837 69.3715 274.588C69.1042 274.338 68.7823 274.214 68.4056 274.214C67.8406 274.214 67.399 274.492 67.0809 275.05C66.7628 275.605 66.6037 276.39 66.6037 277.405C66.6037 278.082 66.675 278.657 66.8175 279.131C66.96 279.604 67.1649 279.964 67.4321 280.211C67.7019 280.458 68.0264 280.581 68.4056 280.581ZM73.4296 279.177L73.4143 278.062H73.5976L76.163 275.451H77.2777L74.5443 278.215H74.468L73.4296 279.177ZM72.5897 281.314V273.496H73.4907V281.314H72.5897ZM76.3157 281.314L74.0251 278.413L74.6665 277.787L77.461 281.314H76.3157Z" fill="#5D6180"/>
<path d="M61.7592 302.521V310.34H60.8124V303.514H60.7666L58.8578 304.781V303.819L60.8124 302.521H61.7592ZM66.5579 310.447C65.9827 310.447 65.4928 310.29 65.0881 309.977C64.6835 309.662 64.3742 309.205 64.1604 308.607C63.9467 308.006 63.8398 307.281 63.8398 306.431C63.8398 305.586 63.9467 304.864 64.1604 304.266C64.3768 303.665 64.6873 303.207 65.0919 302.892C65.4992 302.574 65.9878 302.415 66.5579 302.415C67.128 302.415 67.6154 302.574 68.02 302.892C68.4273 303.207 68.7378 303.665 68.9515 304.266C69.1679 304.864 69.276 305.586 69.276 306.431C69.276 307.281 69.1691 308.006 68.9554 308.607C68.7416 309.205 68.4323 309.662 68.0277 309.977C67.623 310.29 67.1331 310.447 66.5579 310.447ZM66.5579 309.607C67.128 309.607 67.5708 309.332 67.8864 308.782C68.202 308.233 68.3598 307.449 68.3598 306.431C68.3598 305.754 68.2873 305.177 68.1422 304.701C67.9997 304.225 67.7935 303.863 67.5238 303.613C67.2565 303.364 66.9346 303.239 66.5579 303.239C65.9929 303.239 65.5513 303.518 65.2332 304.075C64.9151 304.63 64.756 305.415 64.756 306.431C64.756 307.108 64.8273 307.683 64.9698 308.156C65.1123 308.63 65.3172 308.99 65.5844 309.237C65.8542 309.483 66.1787 309.607 66.5579 309.607ZM71.5819 308.202L71.5666 307.087H71.7498L74.3153 304.476H75.43L72.6966 307.24H72.6203L71.5819 308.202ZM70.742 310.34V302.521H71.6429V310.34H70.742ZM74.468 310.34L72.1774 307.438L72.8188 306.812L75.6133 310.34H74.468Z" fill="#5D6180"/>
<path d="M61.5607 339.472C60.9855 339.472 60.4956 339.316 60.0909 339.003C59.6862 338.687 59.377 338.23 59.1632 337.632C58.9494 337.031 58.8425 336.306 58.8425 335.456C58.8425 334.611 58.9494 333.89 59.1632 333.291C59.3795 332.691 59.69 332.233 60.0947 331.917C60.5019 331.599 60.9906 331.44 61.5607 331.44C62.1308 331.44 62.6181 331.599 63.0228 331.917C63.43 332.233 63.7405 332.691 63.9543 333.291C64.1706 333.89 64.2788 334.611 64.2788 335.456C64.2788 336.306 64.1719 337.031 63.9581 337.632C63.7443 338.23 63.4351 338.687 63.0304 339.003C62.6258 339.316 62.1358 339.472 61.5607 339.472ZM61.5607 338.632C62.1308 338.632 62.5736 338.357 62.8892 337.808C63.2048 337.258 63.3626 336.474 63.3626 335.456C63.3626 334.779 63.29 334.203 63.145 333.727C63.0024 333.251 62.7963 332.888 62.5265 332.639C62.2593 332.389 61.9373 332.264 61.5607 332.264C60.9957 332.264 60.5541 332.543 60.236 333.101C59.9178 333.655 59.7588 334.441 59.7588 335.456C59.7588 336.133 59.83 336.708 59.9725 337.182C60.1151 337.655 60.3199 338.015 60.5872 338.262C60.8569 338.509 61.1814 338.632 61.5607 338.632Z" fill="#5D6180"/>
<path d="M61.4996 215.336C61.8203 215.339 62.1409 215.4 62.4616 215.52C62.7823 215.639 63.075 215.838 63.3397 216.115C63.6044 216.39 63.8169 216.765 63.9772 217.241C64.1375 217.717 64.2177 218.314 64.2177 219.032C64.2177 219.727 64.1515 220.344 64.0192 220.883C63.8894 221.42 63.7011 221.873 63.4542 222.242C63.2099 222.611 62.9121 222.891 62.5609 223.082C62.2122 223.273 61.8177 223.369 61.3774 223.369C60.9397 223.369 60.549 223.282 60.2054 223.109C59.8644 222.933 59.5844 222.69 59.3655 222.38C59.1492 222.067 59.0105 221.704 58.9494 221.292H59.8809C59.9649 221.651 60.1316 221.947 60.381 222.181C60.633 222.413 60.9651 222.529 61.3774 222.529C61.9806 222.529 62.4565 222.265 62.8052 221.738C63.1564 221.212 63.332 220.467 63.332 219.505H63.2709C63.1284 219.719 62.9592 219.904 62.7632 220.059C62.5672 220.214 62.3496 220.334 62.1104 220.418C61.8712 220.502 61.6167 220.544 61.3469 220.544C60.8989 220.544 60.4879 220.433 60.1138 220.211C59.7422 219.987 59.4444 219.681 59.2205 219.291C58.9991 218.899 58.8883 218.452 58.8883 217.948C58.8883 217.469 58.9952 217.031 59.209 216.634C59.4253 216.235 59.7282 215.917 60.1176 215.68C60.5095 215.443 60.9702 215.329 61.4996 215.336ZM61.4996 216.176C61.1789 216.176 60.89 216.256 60.633 216.417C60.3785 216.575 60.1761 216.788 60.026 217.058C59.8784 217.325 59.8046 217.622 59.8046 217.948C59.8046 218.273 59.8758 218.57 60.0184 218.837C60.1634 219.102 60.3607 219.313 60.6101 219.471C60.862 219.626 61.1484 219.704 61.469 219.704C61.7108 219.704 61.9361 219.657 62.1448 219.562C62.3534 219.466 62.5354 219.335 62.6907 219.169C62.8485 219.001 62.9719 218.812 63.061 218.6C63.1501 218.387 63.1946 218.164 63.1946 217.932C63.1946 217.627 63.1208 217.341 62.9732 217.073C62.8281 216.806 62.627 216.59 62.37 216.424C62.1155 216.259 61.8253 216.176 61.4996 216.176ZM68.2691 223.369C67.694 223.369 67.204 223.212 66.7994 222.899C66.3947 222.583 66.0855 222.127 65.8717 221.529C65.6579 220.928 65.551 220.203 65.551 219.352C65.551 218.508 65.6579 217.786 65.8717 217.188C66.088 216.587 66.3985 216.129 66.8032 215.814C67.2104 215.495 67.699 215.336 68.2691 215.336C68.8392 215.336 69.3266 215.495 69.7313 215.814C70.1385 216.129 70.449 216.587 70.6628 217.188C70.8791 217.786 70.9873 218.508 70.9873 219.352C70.9873 220.203 70.8804 220.928 70.6666 221.529C70.4528 222.127 70.1436 222.583 69.7389 222.899C69.3343 223.212 68.8443 223.369 68.2691 223.369ZM68.2691 222.529C68.8392 222.529 69.2821 222.254 69.5977 221.704C69.9133 221.154 70.071 220.371 70.071 219.352C70.071 218.676 69.9985 218.099 69.8534 217.623C69.7109 217.147 69.5048 216.785 69.235 216.535C68.9678 216.286 68.6458 216.161 68.2691 216.161C67.7041 216.161 67.2626 216.44 66.9444 216.997C66.6263 217.552 66.4672 218.337 66.4672 219.352C66.4672 220.029 66.5385 220.605 66.681 221.078C66.8235 221.551 67.0284 221.912 67.2957 222.158C67.5654 222.405 67.8899 222.529 68.2691 222.529ZM73.2931 221.124L73.2778 220.009H73.4611L76.0265 217.398H77.1412L74.4078 220.162H74.3315L73.2931 221.124ZM72.4532 223.262V215.443H73.3542V223.262H72.4532ZM76.1792 223.262L73.8886 220.36L74.53 219.734L77.3245 223.262H76.1792Z" fill="#5D6180"/>
<path d="M91.3984 353.049H92.5284L95.1855 359.539H95.2771L97.9342 353.049H99.0642V360.867H98.1785V354.927H98.1021L95.6589 360.867H94.8037L92.3605 354.927H92.2841V360.867H91.3984V353.049ZM102.566 361.005C102.194 361.005 101.857 360.935 101.554 360.795C101.251 360.652 101.011 360.447 100.833 360.18C100.655 359.91 100.565 359.584 100.565 359.203C100.565 358.867 100.632 358.594 100.764 358.386C100.896 358.175 101.073 358.009 101.295 357.889C101.516 357.77 101.76 357.681 102.028 357.622C102.297 357.561 102.568 357.513 102.841 357.477C103.197 357.431 103.486 357.397 103.707 357.374C103.931 357.349 104.094 357.307 104.196 357.248C104.3 357.19 104.353 357.088 104.353 356.943V356.912C104.353 356.535 104.249 356.243 104.043 356.034C103.84 355.825 103.53 355.721 103.116 355.721C102.685 355.721 102.348 355.815 102.104 356.004C101.86 356.192 101.688 356.393 101.589 356.607L100.733 356.301C100.886 355.945 101.09 355.668 101.344 355.469C101.601 355.268 101.881 355.128 102.184 355.049C102.49 354.968 102.79 354.927 103.085 354.927C103.273 354.927 103.49 354.95 103.734 354.996C103.981 355.039 104.219 355.129 104.448 355.267C104.68 355.404 104.872 355.612 105.024 355.889C105.177 356.166 105.253 356.538 105.253 357.004V360.867H104.353V360.073H104.307C104.246 360.2 104.144 360.337 104.001 360.482C103.859 360.627 103.669 360.75 103.432 360.852C103.196 360.954 102.907 361.005 102.566 361.005ZM102.703 360.195C103.06 360.195 103.36 360.125 103.604 359.985C103.851 359.845 104.037 359.665 104.162 359.443C104.289 359.222 104.353 358.989 104.353 358.745V357.92C104.314 357.966 104.23 358.008 104.101 358.046C103.973 358.082 103.826 358.113 103.658 358.141C103.492 358.167 103.331 358.19 103.173 358.21C103.018 358.228 102.892 358.243 102.795 358.256C102.561 358.286 102.342 358.336 102.138 358.405C101.937 358.471 101.774 358.572 101.65 358.706C101.527 358.839 101.466 359.019 101.466 359.249C101.466 359.562 101.582 359.798 101.814 359.959C102.048 360.116 102.344 360.195 102.703 360.195ZM106.898 360.867V355.003H107.768V355.889H107.829C107.936 355.599 108.13 355.363 108.41 355.183C108.69 355.002 109.005 354.912 109.356 354.912C109.423 354.912 109.505 354.913 109.605 354.916C109.704 354.918 109.779 354.922 109.83 354.927V355.843C109.799 355.836 109.729 355.824 109.62 355.809C109.513 355.791 109.4 355.782 109.28 355.782C108.995 355.782 108.741 355.842 108.517 355.962C108.295 356.079 108.12 356.242 107.99 356.45C107.862 356.656 107.799 356.892 107.799 357.156V360.867H106.898Z" fill="#5D6180"/>
<path d="M150.846 360.867H149.853L152.724 353.049H153.702L156.572 360.867H155.58L153.244 354.286H153.182L150.846 360.867ZM151.213 357.813H155.213V358.653H151.213V357.813ZM157.668 363.066V355.003H158.539V355.935H158.645C158.712 355.833 158.803 355.703 158.92 355.545C159.04 355.385 159.21 355.243 159.432 355.118C159.656 354.991 159.959 354.927 160.34 354.927C160.834 354.927 161.269 355.05 161.646 355.297C162.023 355.544 162.317 355.894 162.528 356.347C162.739 356.8 162.845 357.335 162.845 357.951C162.845 358.572 162.739 359.11 162.528 359.565C162.317 360.018 162.024 360.37 161.65 360.619C161.276 360.866 160.844 360.989 160.356 360.989C159.979 360.989 159.677 360.927 159.451 360.802C159.224 360.675 159.05 360.531 158.928 360.371C158.806 360.208 158.712 360.073 158.645 359.966H158.569V363.066H157.668ZM158.554 357.935C158.554 358.378 158.619 358.769 158.748 359.107C158.878 359.443 159.068 359.707 159.317 359.898C159.567 360.086 159.872 360.18 160.234 360.18C160.61 360.18 160.925 360.081 161.176 359.882C161.431 359.681 161.622 359.411 161.749 359.073C161.879 358.732 161.944 358.353 161.944 357.935C161.944 357.523 161.88 357.151 161.753 356.821C161.628 356.487 161.439 356.224 161.184 356.03C160.932 355.834 160.615 355.736 160.234 355.736C159.867 355.736 159.559 355.829 159.31 356.015C159.06 356.198 158.872 356.455 158.745 356.786C158.617 357.114 158.554 357.498 158.554 357.935ZM164.219 360.867V355.003H165.09V355.889H165.151C165.258 355.599 165.451 355.363 165.731 355.183C166.011 355.002 166.326 354.912 166.678 354.912C166.744 354.912 166.827 354.913 166.926 354.916C167.025 354.918 167.1 354.922 167.151 354.927V355.843C167.12 355.836 167.051 355.824 166.941 355.809C166.834 355.791 166.721 355.782 166.601 355.782C166.316 355.782 166.062 355.842 165.838 355.962C165.616 356.079 165.441 356.242 165.311 356.45C165.184 356.656 165.12 356.892 165.12 357.156V360.867H164.219Z" fill="#5D6180"/>
<path d="M206.427 353.049H207.557L210.214 359.539H210.306L212.963 353.049H214.093V360.867H213.207V354.927H213.131L210.688 360.867H209.833L207.389 354.927H207.313V360.867H206.427V353.049ZM217.595 361.005C217.223 361.005 216.886 360.935 216.583 360.795C216.28 360.652 216.04 360.447 215.861 360.18C215.683 359.91 215.594 359.584 215.594 359.203C215.594 358.867 215.66 358.594 215.793 358.386C215.925 358.175 216.102 358.009 216.323 357.889C216.545 357.77 216.789 357.681 217.056 357.622C217.326 357.561 217.597 357.513 217.87 357.477C218.226 357.431 218.515 357.397 218.736 357.374C218.96 357.349 219.123 357.307 219.225 357.248C219.329 357.19 219.381 357.088 219.381 356.943V356.912C219.381 356.535 219.278 356.243 219.072 356.034C218.868 355.825 218.559 355.721 218.144 355.721C217.714 355.721 217.377 355.815 217.133 356.004C216.888 356.192 216.717 356.393 216.617 356.607L215.762 356.301C215.915 355.945 216.119 355.668 216.373 355.469C216.63 355.268 216.91 355.128 217.213 355.049C217.518 354.968 217.819 354.927 218.114 354.927C218.302 354.927 218.519 354.95 218.763 354.996C219.01 355.039 219.248 355.129 219.477 355.267C219.708 355.404 219.901 355.612 220.053 355.889C220.206 356.166 220.282 356.538 220.282 357.004V360.867H219.381V360.073H219.335C219.274 360.2 219.173 360.337 219.03 360.482C218.888 360.627 218.698 360.75 218.461 360.852C218.225 360.954 217.936 361.005 217.595 361.005ZM217.732 360.195C218.088 360.195 218.389 360.125 218.633 359.985C218.88 359.845 219.066 359.665 219.19 359.443C219.318 359.222 219.381 358.989 219.381 358.745V357.92C219.343 357.966 219.259 358.008 219.129 358.046C219.002 358.082 218.854 358.113 218.687 358.141C218.521 358.167 218.359 358.19 218.202 358.21C218.046 358.228 217.92 358.243 217.824 358.256C217.59 358.286 217.371 358.336 217.167 358.405C216.966 358.471 216.803 358.572 216.678 358.706C216.556 358.839 216.495 359.019 216.495 359.249C216.495 359.562 216.611 359.798 216.843 359.959C217.077 360.116 217.373 360.195 217.732 360.195ZM222.297 363.066C222.144 363.066 222.008 363.053 221.889 363.028C221.769 363.005 221.686 362.982 221.64 362.959L221.869 362.165C222.088 362.221 222.282 362.242 222.45 362.226C222.618 362.211 222.767 362.136 222.896 362.001C223.029 361.869 223.15 361.654 223.259 361.356L223.427 360.898L221.259 355.003H222.236L223.855 359.676H223.916L225.534 355.003H226.512L224.023 361.722C223.911 362.025 223.772 362.276 223.606 362.474C223.441 362.675 223.249 362.824 223.03 362.921C222.814 363.018 222.569 363.066 222.297 363.066Z" fill="#5D6180"/>
<path d="M268.548 353.049H269.494V358.638C269.494 359.137 269.403 359.56 269.22 359.909C269.036 360.258 268.778 360.522 268.445 360.703C268.111 360.884 267.718 360.974 267.265 360.974C266.837 360.974 266.457 360.896 266.123 360.741C265.79 360.583 265.528 360.359 265.337 360.069C265.146 359.779 265.051 359.434 265.051 359.035H265.982C265.982 359.256 266.037 359.45 266.146 359.615C266.258 359.778 266.411 359.905 266.605 359.997C266.798 360.088 267.018 360.134 267.265 360.134C267.537 360.134 267.769 360.077 267.96 359.962C268.151 359.848 268.296 359.68 268.395 359.458C268.497 359.235 268.548 358.961 268.548 358.638V353.049ZM274.965 358.47V355.003H275.866V360.867H274.965V359.875H274.904C274.767 360.172 274.553 360.426 274.263 360.634C273.972 360.84 273.606 360.944 273.163 360.944C272.797 360.944 272.471 360.863 272.186 360.703C271.901 360.54 271.677 360.296 271.514 359.97C271.351 359.642 271.27 359.228 271.27 358.729V355.003H272.171V358.668C272.171 359.096 272.29 359.437 272.529 359.691C272.771 359.946 273.079 360.073 273.453 360.073C273.677 360.073 273.905 360.016 274.137 359.901C274.371 359.787 274.567 359.611 274.725 359.375C274.885 359.138 274.965 358.836 274.965 358.47ZM278.417 357.34V360.867H277.516V355.003H278.387V355.92H278.463C278.6 355.622 278.809 355.383 279.089 355.202C279.369 355.019 279.73 354.927 280.173 354.927C280.57 354.927 280.918 355.008 281.215 355.171C281.513 355.332 281.745 355.576 281.91 355.904C282.076 356.23 282.158 356.642 282.158 357.141V360.867H281.257V357.202C281.257 356.742 281.138 356.383 280.899 356.126C280.659 355.866 280.331 355.736 279.914 355.736C279.626 355.736 279.369 355.799 279.142 355.923C278.919 356.048 278.742 356.23 278.612 356.469C278.482 356.709 278.417 356.999 278.417 357.34Z" fill="#5D6180"/>
<path d="M324.45 353.049H325.396V358.638C325.396 359.137 325.305 359.56 325.121 359.909C324.938 360.258 324.68 360.522 324.346 360.703C324.013 360.884 323.62 360.974 323.167 360.974C322.739 360.974 322.359 360.896 322.025 360.741C321.692 360.583 321.43 360.359 321.239 360.069C321.048 359.779 320.953 359.434 320.953 359.035H321.884C321.884 359.256 321.939 359.45 322.048 359.615C322.16 359.778 322.313 359.905 322.506 359.997C322.7 360.088 322.92 360.134 323.167 360.134C323.439 360.134 323.671 360.077 323.862 359.962C324.052 359.848 324.198 359.68 324.297 359.458C324.399 359.235 324.45 358.961 324.45 358.638V353.049ZM330.867 358.47V355.003H331.768V360.867H330.867V359.875H330.806C330.668 360.172 330.455 360.426 330.164 360.634C329.874 360.84 329.508 360.944 329.065 360.944C328.699 360.944 328.373 360.863 328.088 360.703C327.803 360.54 327.579 360.296 327.416 359.97C327.253 359.642 327.171 359.228 327.171 358.729V355.003H328.072V358.668C328.072 359.096 328.192 359.437 328.431 359.691C328.673 359.946 328.981 360.073 329.355 360.073C329.579 360.073 329.807 360.016 330.038 359.901C330.273 359.787 330.469 359.611 330.626 359.375C330.787 359.138 330.867 358.836 330.867 358.47ZM334.319 353.049V360.867H333.418V353.049H334.319Z" fill="#5D6180"/>
<path d="M63.1503 188.558C63.5215 188.558 63.8451 188.513 64.1211 188.423C64.397 188.327 64.6252 188.194 64.8058 188.024C64.9915 187.848 65.1294 187.638 65.2197 187.392C65.31 187.141 65.3552 186.862 65.3552 186.556C65.3552 186.265 65.31 186.002 65.2197 185.766C65.1294 185.53 64.994 185.33 64.8134 185.164C64.6328 184.999 64.4045 184.873 64.1286 184.788C63.8526 184.698 63.5266 184.652 63.1503 184.652H61.6377V188.558H63.1503ZM63.1503 183.087C63.8777 183.087 64.5073 183.173 65.0391 183.343C65.5709 183.514 66.0099 183.752 66.3561 184.058C66.7022 184.364 66.9581 184.73 67.1236 185.157C67.2942 185.583 67.3795 186.05 67.3795 186.556C67.3795 187.083 67.2917 187.567 67.1161 188.009C66.9405 188.445 66.6771 188.821 66.326 189.138C65.9748 189.454 65.5333 189.699 65.0015 189.875C64.4747 190.051 63.8577 190.138 63.1503 190.138H61.6377V193.969H59.6134V183.087H63.1503ZM70.2741 187.587C70.5149 187.126 70.8009 186.765 71.132 186.504C71.4631 186.238 71.8544 186.105 72.3059 186.105C72.6621 186.105 72.9481 186.183 73.1638 186.338L73.0434 187.73C73.0183 187.821 72.9807 187.886 72.9305 187.926C72.8854 187.961 72.8227 187.979 72.7424 187.979C72.6672 187.979 72.5543 187.966 72.4038 187.941C72.2583 187.916 72.1153 187.903 71.9748 187.903C71.7691 187.903 71.586 187.933 71.4255 187.994C71.2649 188.054 71.1195 188.142 70.989 188.257C70.8636 188.367 70.7507 188.503 70.6504 188.663C70.5551 188.824 70.4648 189.007 70.3795 189.213V193.969H68.5207V186.248H69.6119C69.8025 186.248 69.9355 186.283 70.0107 186.353C70.086 186.418 70.1362 186.539 70.1612 186.714L70.2741 187.587ZM77.3313 186.127C77.9032 186.127 78.4224 186.22 78.889 186.406C79.3606 186.591 79.7619 186.855 80.0931 187.196C80.4292 187.537 80.6875 187.954 80.8682 188.445C81.0488 188.937 81.1391 189.486 81.1391 190.093C81.1391 190.705 81.0488 191.257 80.8682 191.749C80.6875 192.24 80.4292 192.659 80.0931 193.006C79.7619 193.352 79.3606 193.618 78.889 193.803C78.4224 193.989 77.9032 194.082 77.3313 194.082C76.7543 194.082 76.2301 193.989 75.7585 193.803C75.2869 193.618 74.8831 193.352 74.5469 193.006C74.2158 192.659 73.9575 192.24 73.7718 191.749C73.5912 191.257 73.5009 190.705 73.5009 190.093C73.5009 189.486 73.5912 188.937 73.7718 188.445C73.9575 187.954 74.2158 187.537 74.5469 187.196C74.8831 186.855 75.2869 186.591 75.7585 186.406C76.2301 186.22 76.7543 186.127 77.3313 186.127ZM77.3313 192.652C77.9734 192.652 78.4475 192.436 78.7536 192.005C79.0646 191.573 79.2201 190.941 79.2201 190.108C79.2201 189.275 79.0646 188.641 78.7536 188.204C78.4475 187.768 77.9734 187.55 77.3313 187.55C76.6791 187.55 76.195 187.77 75.8789 188.212C75.5679 188.648 75.4123 189.281 75.4123 190.108C75.4123 190.936 75.5679 191.568 75.8789 192.005C76.195 192.436 76.6791 192.652 77.3313 192.652ZM85.3203 189.92C85.5511 189.92 85.7517 189.89 85.9223 189.83C86.0929 189.765 86.2333 189.677 86.3437 189.566C86.4591 189.456 86.5444 189.323 86.5996 189.168C86.6598 189.012 86.6899 188.842 86.6899 188.656C86.6899 188.275 86.5745 187.974 86.3437 187.753C86.118 187.527 85.7768 187.414 85.3203 187.414C84.8638 187.414 84.5201 187.527 84.2893 187.753C84.0636 187.974 83.9507 188.275 83.9507 188.656C83.9507 188.837 83.9783 189.005 84.0335 189.16C84.0937 189.316 84.179 189.451 84.2893 189.566C84.4047 189.677 84.5477 189.765 84.7183 189.83C84.8939 189.89 85.0945 189.92 85.3203 189.92ZM87.4198 194.315C87.4198 194.164 87.3747 194.041 87.2844 193.946C87.1941 193.851 87.0712 193.778 86.9156 193.728C86.7601 193.673 86.577 193.633 86.3663 193.608C86.1606 193.582 85.9399 193.565 85.7041 193.555C85.4733 193.54 85.2325 193.527 84.9816 193.517C84.7358 193.507 84.495 193.487 84.2592 193.457C84.0535 193.572 83.8855 193.708 83.755 193.863C83.6296 194.019 83.5669 194.2 83.5669 194.405C83.5669 194.541 83.5995 194.666 83.6647 194.781C83.735 194.902 83.8428 195.005 83.9883 195.09C84.1388 195.175 84.332 195.241 84.5678 195.286C84.8035 195.336 85.092 195.361 85.4332 195.361C85.7793 195.361 86.0778 195.333 86.3287 195.278C86.5795 195.228 86.7852 195.155 86.9457 195.06C87.1113 194.97 87.2317 194.859 87.307 194.729C87.3822 194.603 87.4198 194.465 87.4198 194.315ZM89.271 186.511V187.204C89.271 187.424 89.1381 187.56 88.8722 187.61L88.1799 187.738C88.2852 188.004 88.3379 188.295 88.3379 188.611C88.3379 188.992 88.2601 189.338 88.1046 189.649C87.9541 189.955 87.7434 190.216 87.4725 190.432C87.2016 190.648 86.8805 190.816 86.5093 190.936C86.143 191.051 85.7467 191.109 85.3203 191.109C85.1698 191.109 85.0243 191.102 84.8838 191.087C84.7433 191.072 84.6054 191.051 84.4699 191.026C84.2291 191.172 84.1087 191.335 84.1087 191.516C84.1087 191.671 84.179 191.786 84.3194 191.862C84.4649 191.932 84.6556 191.982 84.8913 192.012C85.1271 192.042 85.3955 192.062 85.6965 192.072C85.9976 192.077 86.3061 192.092 86.6222 192.118C86.9382 192.143 87.2467 192.188 87.5478 192.253C87.8488 192.313 88.1172 192.411 88.353 192.546C88.5888 192.682 88.7769 192.868 88.9174 193.103C89.0628 193.334 89.1356 193.633 89.1356 193.999C89.1356 194.34 89.0503 194.671 88.8797 194.992C88.7142 195.313 88.4709 195.599 88.1498 195.85C87.8337 196.101 87.4424 196.302 86.9758 196.452C86.5143 196.608 85.9875 196.685 85.3955 196.685C84.8136 196.685 84.3069 196.628 83.8754 196.512C83.444 196.402 83.0853 196.251 82.7993 196.061C82.5134 195.875 82.3001 195.659 82.1597 195.414C82.0192 195.168 81.949 194.912 81.949 194.646C81.949 194.285 82.0568 193.984 82.2726 193.743C82.4933 193.497 82.7943 193.302 83.1756 193.156C82.9699 193.051 82.8068 192.91 82.6864 192.735C82.566 192.559 82.5058 192.328 82.5058 192.042C82.5058 191.927 82.5259 191.809 82.566 191.689C82.6112 191.563 82.6739 191.44 82.7542 191.32C82.8395 191.199 82.9448 191.087 83.0702 190.981C83.1957 190.871 83.3436 190.773 83.5142 190.688C83.1229 190.477 82.8144 190.196 82.5886 189.845C82.3679 189.494 82.2575 189.082 82.2575 188.611C82.2575 188.229 82.3328 187.886 82.4833 187.58C82.6388 187.269 82.852 187.005 83.1229 186.79C83.3988 186.569 83.7224 186.401 84.0937 186.285C84.4699 186.17 84.8788 186.112 85.3203 186.112C85.6514 186.112 85.9624 186.148 86.2534 186.218C86.5444 186.283 86.8103 186.381 87.0511 186.511H89.271ZM92.2032 187.587C92.444 187.126 92.73 186.765 93.0611 186.504C93.3922 186.238 93.7835 186.105 94.235 186.105C94.5912 186.105 94.8772 186.183 95.0929 186.338L94.9725 187.73C94.9474 187.821 94.9098 187.886 94.8596 187.926C94.8145 187.961 94.7517 187.979 94.6715 187.979C94.5962 187.979 94.4833 187.966 94.3328 187.941C94.1873 187.916 94.0444 187.903 93.9039 187.903C93.6982 187.903 93.5151 187.933 93.3546 187.994C93.194 188.054 93.0485 188.142 92.9181 188.257C92.7927 188.367 92.6798 188.503 92.5795 188.663C92.4841 188.824 92.3938 189.007 92.3085 189.213V193.969H90.4498V186.248H91.541C91.7316 186.248 91.8646 186.283 91.9398 186.353C92.0151 186.418 92.0652 186.539 92.0903 186.714L92.2032 187.587ZM100.818 189.22C100.818 188.98 100.783 188.754 100.713 188.543C100.648 188.327 100.547 188.139 100.412 187.979C100.276 187.818 100.103 187.693 99.8925 187.602C99.6868 187.507 99.446 187.459 99.17 187.459C98.6332 187.459 98.2093 187.612 97.8983 187.918C97.5922 188.224 97.3966 188.658 97.3113 189.22H100.818ZM97.2737 190.342C97.3038 190.738 97.374 191.082 97.4844 191.373C97.5948 191.658 97.7402 191.897 97.9209 192.087C98.1015 192.273 98.3147 192.414 98.5605 192.509C98.8113 192.599 99.0873 192.644 99.3883 192.644C99.6893 192.644 99.9477 192.609 100.163 192.539C100.384 192.469 100.575 192.391 100.735 192.306C100.901 192.22 101.044 192.143 101.164 192.072C101.29 192.002 101.41 191.967 101.525 191.967C101.681 191.967 101.796 192.025 101.872 192.14L102.406 192.817C102.2 193.058 101.969 193.261 101.714 193.427C101.458 193.587 101.189 193.718 100.908 193.818C100.632 193.914 100.349 193.981 100.058 194.021C99.7721 194.062 99.4936 194.082 99.2227 194.082C98.6859 194.082 98.1867 193.994 97.7252 193.818C97.2636 193.638 96.8623 193.374 96.5212 193.028C96.18 192.677 95.9116 192.245 95.716 191.734C95.5203 191.217 95.4225 190.62 95.4225 189.943C95.4225 189.416 95.5078 188.922 95.6783 188.46C95.8489 187.994 96.0922 187.59 96.4083 187.249C96.7294 186.903 97.1182 186.629 97.5747 186.428C98.0362 186.228 98.5555 186.127 99.1324 186.127C99.6191 186.127 100.068 186.205 100.479 186.361C100.891 186.516 101.245 186.745 101.541 187.046C101.836 187.342 102.067 187.708 102.233 188.144C102.403 188.576 102.489 189.07 102.489 189.627C102.489 189.908 102.459 190.098 102.398 190.199C102.338 190.294 102.223 190.342 102.052 190.342H97.2737ZM108.594 187.753C108.544 187.833 108.492 187.891 108.436 187.926C108.381 187.956 108.311 187.971 108.226 187.971C108.135 187.971 108.038 187.946 107.932 187.896C107.832 187.846 107.714 187.791 107.578 187.73C107.443 187.665 107.287 187.607 107.112 187.557C106.941 187.507 106.738 187.482 106.502 187.482C106.136 187.482 105.848 187.56 105.637 187.715C105.431 187.871 105.328 188.074 105.328 188.325C105.328 188.49 105.381 188.631 105.486 188.746C105.597 188.857 105.74 188.954 105.915 189.04C106.096 189.125 106.299 189.203 106.525 189.273C106.751 189.338 106.979 189.411 107.21 189.491C107.446 189.571 107.676 189.664 107.902 189.77C108.128 189.87 108.328 190 108.504 190.161C108.685 190.316 108.828 190.505 108.933 190.725C109.043 190.946 109.099 191.212 109.099 191.523C109.099 191.894 109.031 192.238 108.895 192.554C108.765 192.865 108.569 193.136 108.308 193.367C108.048 193.592 107.724 193.771 107.338 193.901C106.956 194.026 106.515 194.089 106.013 194.089C105.747 194.089 105.486 194.064 105.231 194.014C104.98 193.969 104.736 193.904 104.501 193.818C104.27 193.733 104.054 193.633 103.853 193.517C103.658 193.402 103.485 193.276 103.334 193.141L103.763 192.434C103.818 192.348 103.884 192.283 103.959 192.238C104.034 192.193 104.129 192.17 104.245 192.17C104.36 192.17 104.468 192.203 104.568 192.268C104.674 192.333 104.794 192.403 104.93 192.479C105.065 192.554 105.223 192.624 105.404 192.689C105.589 192.755 105.823 192.787 106.104 192.787C106.324 192.787 106.512 192.762 106.668 192.712C106.828 192.657 106.959 192.587 107.059 192.501C107.165 192.416 107.24 192.318 107.285 192.208C107.335 192.092 107.36 191.975 107.36 191.854C107.36 191.674 107.305 191.526 107.195 191.41C107.089 191.295 106.946 191.194 106.766 191.109C106.59 191.024 106.387 190.949 106.156 190.883C105.93 190.813 105.697 190.738 105.456 190.658C105.221 190.577 104.987 190.485 104.756 190.379C104.531 190.269 104.328 190.131 104.147 189.965C103.971 189.8 103.828 189.597 103.718 189.356C103.613 189.115 103.56 188.824 103.56 188.483C103.56 188.167 103.623 187.866 103.748 187.58C103.874 187.294 104.057 187.046 104.297 186.835C104.543 186.619 104.847 186.449 105.208 186.323C105.574 186.193 105.996 186.127 106.472 186.127C107.004 186.127 107.488 186.215 107.925 186.391C108.361 186.566 108.725 186.797 109.016 187.083L108.594 187.753ZM115.208 187.753C115.158 187.833 115.106 187.891 115.05 187.926C114.995 187.956 114.925 187.971 114.84 187.971C114.749 187.971 114.651 187.946 114.546 187.896C114.446 187.846 114.328 187.791 114.192 187.73C114.057 187.665 113.901 187.607 113.726 187.557C113.555 187.507 113.352 187.482 113.116 187.482C112.75 187.482 112.462 187.56 112.251 187.715C112.045 187.871 111.942 188.074 111.942 188.325C111.942 188.49 111.995 188.631 112.1 188.746C112.211 188.857 112.354 188.954 112.529 189.04C112.71 189.125 112.913 189.203 113.139 189.273C113.365 189.338 113.593 189.411 113.824 189.491C114.06 189.571 114.29 189.664 114.516 189.77C114.742 189.87 114.942 190 115.118 190.161C115.299 190.316 115.442 190.505 115.547 190.725C115.657 190.946 115.713 191.212 115.713 191.523C115.713 191.894 115.645 192.238 115.509 192.554C115.379 192.865 115.183 193.136 114.922 193.367C114.662 193.592 114.338 193.771 113.952 193.901C113.57 194.026 113.129 194.089 112.627 194.089C112.361 194.089 112.1 194.064 111.845 194.014C111.594 193.969 111.35 193.904 111.115 193.818C110.884 193.733 110.668 193.633 110.467 193.517C110.272 193.402 110.099 193.276 109.948 193.141L110.377 192.434C110.432 192.348 110.498 192.283 110.573 192.238C110.648 192.193 110.743 192.17 110.859 192.17C110.974 192.17 111.082 192.203 111.182 192.268C111.288 192.333 111.408 192.403 111.544 192.479C111.679 192.554 111.837 192.624 112.018 192.689C112.203 192.755 112.437 192.787 112.718 192.787C112.938 192.787 113.126 192.762 113.282 192.712C113.442 192.657 113.573 192.587 113.673 192.501C113.779 192.416 113.854 192.318 113.899 192.208C113.949 192.092 113.974 191.975 113.974 191.854C113.974 191.674 113.919 191.526 113.809 191.41C113.703 191.295 113.56 191.194 113.38 191.109C113.204 191.024 113.001 190.949 112.77 190.883C112.544 190.813 112.311 190.738 112.07 190.658C111.835 190.577 111.601 190.485 111.37 190.379C111.145 190.269 110.942 190.131 110.761 189.965C110.585 189.8 110.442 189.597 110.332 189.356C110.227 189.115 110.174 188.824 110.174 188.483C110.174 188.167 110.237 187.866 110.362 187.58C110.488 187.294 110.671 187.046 110.911 186.835C111.157 186.619 111.461 186.449 111.822 186.323C112.188 186.193 112.61 186.127 113.086 186.127C113.618 186.127 114.102 186.215 114.539 186.391C114.975 186.566 115.339 186.797 115.63 187.083L115.208 187.753Z" fill="#060C3C"/>
<path opacity="0.4" d="M124.522 312.402C113.111 312.402 102.691 318.576 93.6772 342.266H346.311V233.688C335.365 233.688 324.975 253.752 313.354 253.752C302.648 253.752 299.594 266.198 295.205 266.198C291.236 266.198 289.251 263.527 286.274 263.527C283.297 263.527 283.297 277.418 277.343 277.418C273.374 277.418 269.404 273.302 262.954 273.302C256.504 273.302 252.499 284.62 247.077 284.62C232.688 284.62 239.138 261.469 229.711 261.469C221.772 261.469 220.283 275.36 211.352 275.36C199.94 275.36 202.917 256.324 195.475 256.324C186.048 256.324 191.507 288.736 176.124 288.736C163.72 288.736 162.95 298.958 156.277 299.026C149.605 299.093 142.881 292.871 136.927 292.871C127.996 292.871 134.446 312.402 124.522 312.402Z" fill="url(#paint0_linear_1620_10203)"/>
<path d="M93.6772 342.266C102.691 318.576 113.111 312.402 124.522 312.402C134.446 312.402 127.996 292.871 136.927 292.871C142.881 292.871 149.605 299.093 156.277 299.026C162.95 298.958 163.72 288.736 176.124 288.736C191.507 288.736 186.048 256.324 195.475 256.324C202.917 256.324 199.94 275.36 211.352 275.36C220.283 275.36 221.772 261.469 229.711 261.469C239.138 261.469 232.688 284.62 247.077 284.62C252.499 284.62 256.504 273.302 262.954 273.302C269.404 273.302 273.374 277.418 277.343 277.418C283.297 277.418 283.297 263.527 286.274 263.527C289.251 263.527 291.236 266.198 295.205 266.198C299.594 266.198 302.648 253.752 313.354 253.752C324.975 253.752 335.365 233.688 346.311 233.688" stroke="#6241D4" stroke-width="2.15007" stroke-linecap="round" stroke-linejoin="round"/>
<path d="M93.6772 342.267C102.691 318.576 113.845 322.619 125.256 322.619C135.18 322.619 134.872 306.591 143.803 306.591C149.757 306.591 156.679 309.243 163.352 309.176C170.025 309.108 171.499 294.182 183.904 294.182C199.287 294.182 192.522 276.085 201.949 276.085C209.391 276.085 207.078 280.222 218.49 280.222C227.421 280.222 233.609 263.527 241.548 263.527C250.975 263.527 239.691 294.182 254.08 294.182C259.502 294.182 265.675 309.176 272.125 309.176C278.575 309.176 277.178 286.943 281.147 286.943C287.101 286.943 284.656 274.017 290.671 274.017C296.686 274.017 297.228 274.017 301.198 274.017C305.587 274.017 303.524 269.881 314.23 269.881C325.852 269.881 334.864 280.222 345.81 280.222" stroke="#FFD43D" stroke-width="2.15007" stroke-linecap="round" stroke-linejoin="round"/>
<path d="M228.745 252.466C228.347 252.798 227.768 252.798 227.369 252.466L219.719 246.091C218.174 244.803 219.084 242.289 221.095 242.289L235.019 242.289C237.03 242.289 237.94 244.803 236.395 246.091L228.745 252.466Z" fill="#9374FF"/>
<rect x="190.431" y="213.262" width="75.2526" height="35.4762" rx="4.30015" fill="#9374FF"/>
<path d="M203.571 231.095C202.942 231.095 202.38 230.987 201.885 230.77C201.393 230.553 201.004 230.252 200.717 229.867C200.433 229.479 200.28 229.031 200.259 228.52H201.697C201.715 228.798 201.808 229.04 201.976 229.244C202.147 229.446 202.37 229.602 202.645 229.712C202.92 229.822 203.226 229.876 203.562 229.876C203.931 229.876 204.258 229.812 204.542 229.684C204.829 229.556 205.053 229.377 205.215 229.148C205.377 228.916 205.458 228.649 205.458 228.346C205.458 228.032 205.377 227.755 205.215 227.517C205.056 227.276 204.823 227.087 204.514 226.949C204.209 226.812 203.839 226.743 203.406 226.743H202.613V225.589H203.406C203.754 225.589 204.059 225.526 204.322 225.401C204.588 225.276 204.795 225.101 204.945 224.878C205.095 224.652 205.169 224.388 205.169 224.086C205.169 223.796 205.104 223.544 204.972 223.33C204.844 223.113 204.661 222.944 204.423 222.822C204.188 222.699 203.91 222.638 203.589 222.638C203.284 222.638 202.998 222.695 202.732 222.808C202.47 222.918 202.256 223.077 202.091 223.284C201.926 223.489 201.837 223.735 201.825 224.022H200.456C200.471 223.515 200.62 223.069 200.904 222.684C201.192 222.299 201.57 221.998 202.041 221.782C202.511 221.565 203.033 221.456 203.607 221.456C204.209 221.456 204.728 221.574 205.165 221.809C205.605 222.041 205.944 222.351 206.182 222.739C206.423 223.127 206.542 223.551 206.539 224.013C206.542 224.538 206.396 224.984 206.099 225.35C205.806 225.717 205.415 225.963 204.927 226.088V226.161C205.55 226.256 206.032 226.503 206.374 226.903C206.719 227.303 206.89 227.8 206.887 228.392C206.89 228.908 206.747 229.371 206.457 229.78C206.17 230.19 205.777 230.512 205.279 230.747C204.782 230.979 204.212 231.095 203.571 231.095ZM208.619 230.967V229.941L211.794 226.651C212.133 226.294 212.412 225.981 212.632 225.712C212.855 225.44 213.022 225.182 213.131 224.938C213.241 224.694 213.296 224.434 213.296 224.159C213.296 223.848 213.223 223.579 213.077 223.353C212.93 223.124 212.73 222.948 212.476 222.826C212.223 222.701 211.937 222.638 211.62 222.638C211.284 222.638 210.991 222.707 210.74 222.844C210.49 222.982 210.297 223.176 210.163 223.426C210.029 223.677 209.961 223.97 209.961 224.306H208.61C208.61 223.735 208.741 223.235 209.004 222.808C209.267 222.38 209.627 222.049 210.085 221.814C210.543 221.575 211.064 221.456 211.647 221.456C212.237 221.456 212.756 221.574 213.205 221.809C213.657 222.041 214.01 222.359 214.263 222.762C214.517 223.162 214.643 223.614 214.643 224.118C214.643 224.466 214.578 224.807 214.446 225.14C214.318 225.473 214.094 225.844 213.773 226.253C213.452 226.659 213.006 227.152 212.435 227.733L210.571 229.684V229.753H214.794V230.967H208.619ZM221.428 229.208V228.713C221.428 228.359 221.501 228.035 221.648 227.742C221.797 227.445 222.014 227.209 222.298 227.032C222.585 226.851 222.932 226.761 223.338 226.761C223.754 226.761 224.102 226.85 224.383 227.027C224.664 227.204 224.876 227.441 225.019 227.737C225.166 228.033 225.239 228.359 225.239 228.713V229.208C225.239 229.562 225.166 229.887 225.019 230.183C224.873 230.477 224.658 230.713 224.374 230.893C224.093 231.071 223.747 231.159 223.338 231.159C222.926 231.159 222.578 231.071 222.294 230.893C222.01 230.713 221.794 230.477 221.648 230.183C221.501 229.887 221.428 229.562 221.428 229.208ZM222.495 228.713V229.208C222.495 229.47 222.558 229.709 222.683 229.922C222.808 230.136 223.027 230.243 223.338 230.243C223.647 230.243 223.862 230.136 223.984 229.922C224.106 229.709 224.167 229.47 224.167 229.208V228.713C224.167 228.45 224.108 228.212 223.989 227.998C223.873 227.784 223.656 227.678 223.338 227.678C223.033 227.678 222.816 227.784 222.688 227.998C222.559 228.212 222.495 228.45 222.495 228.713ZM216.709 223.839V223.344C216.709 222.99 216.783 222.664 216.929 222.368C217.079 222.072 217.296 221.835 217.58 221.658C217.867 221.481 218.213 221.392 218.62 221.392C219.035 221.392 219.383 221.481 219.664 221.658C219.945 221.835 220.157 222.072 220.301 222.368C220.444 222.664 220.516 222.99 220.516 223.344V223.839C220.516 224.193 220.443 224.518 220.296 224.814C220.153 225.108 219.939 225.344 219.655 225.524C219.374 225.702 219.029 225.79 218.62 225.79C218.204 225.79 217.855 225.702 217.571 225.524C217.29 225.344 217.076 225.108 216.929 224.814C216.783 224.518 216.709 224.193 216.709 223.839ZM217.781 223.344V223.839C217.781 224.101 217.842 224.339 217.965 224.553C218.09 224.767 218.308 224.874 218.62 224.874C218.925 224.874 219.139 224.767 219.261 224.553C219.386 224.339 219.449 224.101 219.449 223.839V223.344C219.449 223.081 219.389 222.843 219.27 222.629C219.151 222.415 218.934 222.308 218.62 222.308C218.314 222.308 218.097 222.415 217.969 222.629C217.844 222.843 217.781 223.081 217.781 223.344ZM217.145 230.967L223.595 221.585H224.69L218.239 230.967H217.145Z" fill="white"/>
<circle cx="249.557" cy="230.463" r="7.52526" fill="white"/>
<path d="M250.109 228.575C249.825 228.272 249.289 228.272 249.005 228.575L246.189 231.583C245.814 231.983 246.144 232.581 246.741 232.581L252.374 232.581C252.97 232.581 253.301 231.983 252.926 231.583L250.109 228.575Z" fill="#38E7B2"/>
<circle cx="228.057" cy="261.638" r="3.76263" fill="#9374FF" stroke="#6241D4" stroke-width="1.07504"/>
<rect x="298" y="0.660156" width="293" height="207" rx="12" fill="#9585F3" fill-opacity="0.05"/>
<g clip-path="url(#clip0_1620_10203)">
<rect x="313" y="13.6602" width="263" height="182" rx="6" fill="white"/>
<g clip-path="url(#clip1_1620_10203)">
<path d="M338.036 54.6602V44.8602H341.256C342.021 44.8602 342.651 44.9862 343.146 45.2382C343.641 45.4902 344.005 45.8308 344.238 46.2602C344.481 46.6895 344.602 47.1748 344.602 47.7162C344.602 48.2482 344.485 48.7288 344.252 49.1582C344.019 49.5875 343.655 49.9328 343.16 50.1942C342.665 50.4462 342.031 50.5722 341.256 50.5722H339.212V54.6602H338.036ZM339.212 49.5782H341.228C342.012 49.5782 342.567 49.4148 342.894 49.0882C343.23 48.7522 343.398 48.2948 343.398 47.7162C343.398 47.1282 343.23 46.6708 342.894 46.3442C342.567 46.0082 342.012 45.8402 341.228 45.8402H339.212V49.5782ZM346.073 54.6602V47.7162H347.137L347.235 49.0462C347.45 48.5888 347.777 48.2248 348.215 47.9542C348.654 47.6835 349.195 47.5482 349.839 47.5482V48.7802H349.517C349.107 48.7802 348.729 48.8548 348.383 49.0042C348.038 49.1442 347.763 49.3868 347.557 49.7322C347.352 50.0775 347.249 50.5535 347.249 51.1602V54.6602H346.073ZM354.064 54.8282C353.41 54.8282 352.822 54.6788 352.3 54.3802C351.777 54.0815 351.362 53.6615 351.054 53.1202C350.755 52.5695 350.606 51.9255 350.606 51.1882C350.606 50.4508 350.76 49.8115 351.068 49.2702C351.376 48.7195 351.791 48.2948 352.314 47.9962C352.846 47.6975 353.438 47.5482 354.092 47.5482C354.745 47.5482 355.333 47.6975 355.856 47.9962C356.378 48.2948 356.789 48.7195 357.088 49.2702C357.396 49.8115 357.55 50.4508 357.55 51.1882C357.55 51.9255 357.396 52.5695 357.088 53.1202C356.78 53.6615 356.36 54.0815 355.828 54.3802C355.305 54.6788 354.717 54.8282 354.064 54.8282ZM354.064 53.8202C354.465 53.8202 354.838 53.7222 355.184 53.5262C355.529 53.3302 355.809 53.0362 356.024 52.6442C356.238 52.2522 356.346 51.7668 356.346 51.1882C356.346 50.6095 356.238 50.1242 356.024 49.7322C355.818 49.3402 355.543 49.0462 355.198 48.8502C354.852 48.6542 354.484 48.5562 354.092 48.5562C353.69 48.5562 353.317 48.6542 352.972 48.8502C352.626 49.0462 352.346 49.3402 352.132 49.7322C351.917 50.1242 351.81 50.6095 351.81 51.1882C351.81 51.7668 351.917 52.2522 352.132 52.6442C352.346 53.0362 352.622 53.3302 352.958 53.5262C353.303 53.7222 353.672 53.8202 354.064 53.8202ZM361.628 52.4762C361.236 52.4762 360.877 52.4248 360.55 52.3222L359.85 52.9802C359.953 53.0548 360.079 53.1202 360.228 53.1762C360.387 53.2228 360.611 53.2695 360.9 53.3162C361.189 53.3535 361.595 53.3955 362.118 53.4422C363.051 53.5075 363.719 53.7222 364.12 54.0862C364.521 54.4502 364.722 54.9262 364.722 55.5142C364.722 55.9155 364.61 56.2982 364.386 56.6622C364.171 57.0262 363.835 57.3248 363.378 57.5582C362.93 57.7915 362.351 57.9082 361.642 57.9082C361.017 57.9082 360.461 57.8242 359.976 57.6562C359.491 57.4975 359.113 57.2502 358.842 56.9142C358.571 56.5875 358.436 56.1722 358.436 55.6682C358.436 55.4068 358.506 55.1222 358.646 54.8142C358.786 54.5155 359.047 54.2308 359.43 53.9602C359.225 53.8762 359.047 53.7875 358.898 53.6942C358.758 53.5915 358.627 53.4795 358.506 53.3582V53.0362L359.696 51.8602C359.145 51.3935 358.87 50.7775 358.87 50.0122C358.87 49.5548 358.977 49.1395 359.192 48.7662C359.407 48.3928 359.719 48.0988 360.13 47.8842C360.541 47.6602 361.04 47.5482 361.628 47.5482C362.029 47.5482 362.393 47.6042 362.72 47.7162H365.282V48.5982L363.98 48.6542C364.251 49.0462 364.386 49.4988 364.386 50.0122C364.386 50.4695 364.274 50.8848 364.05 51.2582C363.835 51.6315 363.523 51.9302 363.112 52.1542C362.711 52.3688 362.216 52.4762 361.628 52.4762ZM361.628 51.5102C362.123 51.5102 362.515 51.3842 362.804 51.1322C363.103 50.8708 363.252 50.4975 363.252 50.0122C363.252 49.5362 363.103 49.1722 362.804 48.9202C362.515 48.6588 362.123 48.5282 361.628 48.5282C361.124 48.5282 360.723 48.6588 360.424 48.9202C360.135 49.1722 359.99 49.5362 359.99 50.0122C359.99 50.4975 360.135 50.8708 360.424 51.1322C360.723 51.3842 361.124 51.5102 361.628 51.5102ZM359.584 55.5562C359.584 56.0228 359.78 56.3682 360.172 56.5922C360.564 56.8255 361.054 56.9422 361.642 56.9422C362.221 56.9422 362.683 56.8162 363.028 56.5642C363.383 56.3122 363.56 55.9762 363.56 55.5562C363.56 55.2575 363.439 54.9962 363.196 54.7722C362.953 54.5575 362.505 54.4315 361.852 54.3942C361.339 54.3568 360.895 54.3102 360.522 54.2542C360.139 54.4595 359.887 54.6788 359.766 54.9122C359.645 55.1548 359.584 55.3695 359.584 55.5562ZM366.609 54.6602V47.7162H367.673L367.771 49.0462C367.985 48.5888 368.312 48.2248 368.751 47.9542C369.189 47.6835 369.731 47.5482 370.375 47.5482V48.7802H370.053C369.642 48.7802 369.264 48.8548 368.919 49.0042C368.573 49.1442 368.298 49.3868 368.093 49.7322C367.887 50.0775 367.785 50.5535 367.785 51.1602V54.6602H366.609ZM374.557 54.8282C373.894 54.8282 373.306 54.6788 372.793 54.3802C372.279 54.0722 371.873 53.6475 371.575 53.1062C371.285 52.5648 371.141 51.9255 371.141 51.1882C371.141 50.4602 371.285 49.8255 371.575 49.2842C371.864 48.7335 372.265 48.3088 372.779 48.0102C373.301 47.7022 373.903 47.5482 374.585 47.5482C375.257 47.5482 375.835 47.7022 376.321 48.0102C376.815 48.3088 377.193 48.7055 377.455 49.2002C377.716 49.6948 377.847 50.2268 377.847 50.7962C377.847 50.8988 377.842 51.0015 377.833 51.1042C377.833 51.2068 377.833 51.3235 377.833 51.4542H372.303C372.331 51.9862 372.452 52.4295 372.667 52.7842C372.891 53.1295 373.166 53.3908 373.493 53.5682C373.829 53.7455 374.183 53.8342 374.557 53.8342C375.042 53.8342 375.448 53.7222 375.775 53.4982C376.101 53.2742 376.339 52.9708 376.489 52.5882H377.651C377.464 53.2322 377.105 53.7688 376.573 54.1982C376.05 54.6182 375.378 54.8282 374.557 54.8282ZM374.557 48.5422C373.997 48.5422 373.497 48.7148 373.059 49.0602C372.629 49.3962 372.382 49.8908 372.317 50.5442H376.685C376.657 49.9188 376.442 49.4288 376.041 49.0742C375.639 48.7195 375.145 48.5422 374.557 48.5422ZM382.065 54.8282C381.235 54.8282 380.544 54.6182 379.993 54.1982C379.443 53.7782 379.121 53.2088 379.027 52.4902H380.231C380.306 52.8542 380.497 53.1715 380.805 53.4422C381.123 53.7035 381.547 53.8342 382.079 53.8342C382.574 53.8342 382.938 53.7315 383.171 53.5262C383.405 53.3115 383.521 53.0595 383.521 52.7702C383.521 52.3502 383.367 52.0702 383.059 51.9302C382.761 51.7902 382.336 51.6642 381.785 51.5522C381.412 51.4775 381.039 51.3702 380.665 51.2302C380.292 51.0902 379.979 50.8942 379.727 50.6422C379.475 50.3808 379.349 50.0402 379.349 49.6202C379.349 49.0135 379.573 48.5188 380.021 48.1362C380.479 47.7442 381.095 47.5482 381.869 47.5482C382.607 47.5482 383.209 47.7348 383.675 48.1082C384.151 48.4722 384.427 48.9948 384.501 49.6762H383.339C383.293 49.3215 383.139 49.0462 382.877 48.8502C382.625 48.6448 382.285 48.5422 381.855 48.5422C381.435 48.5422 381.109 48.6308 380.875 48.8082C380.651 48.9855 380.539 49.2188 380.539 49.5082C380.539 49.7882 380.684 50.0075 380.973 50.1662C381.272 50.3248 381.673 50.4602 382.177 50.5722C382.607 50.6655 383.013 50.7822 383.395 50.9222C383.787 51.0528 384.105 51.2535 384.347 51.5242C384.599 51.7855 384.725 52.1682 384.725 52.6722C384.735 53.2975 384.497 53.8155 384.011 54.2262C383.535 54.6275 382.887 54.8282 382.065 54.8282ZM389.065 54.8282C388.235 54.8282 387.544 54.6182 386.993 54.1982C386.443 53.7782 386.121 53.2088 386.027 52.4902H387.231C387.306 52.8542 387.497 53.1715 387.805 53.4422C388.123 53.7035 388.547 53.8342 389.079 53.8342C389.574 53.8342 389.938 53.7315 390.171 53.5262C390.405 53.3115 390.521 53.0595 390.521 52.7702C390.521 52.3502 390.367 52.0702 390.059 51.9302C389.761 51.7902 389.336 51.6642 388.785 51.5522C388.412 51.4775 388.039 51.3702 387.665 51.2302C387.292 51.0902 386.979 50.8942 386.727 50.6422C386.475 50.3808 386.349 50.0402 386.349 49.6202C386.349 49.0135 386.573 48.5188 387.021 48.1362C387.479 47.7442 388.095 47.5482 388.869 47.5482C389.607 47.5482 390.209 47.7348 390.675 48.1082C391.151 48.4722 391.427 48.9948 391.501 49.6762H390.339C390.293 49.3215 390.139 49.0462 389.877 48.8502C389.625 48.6448 389.285 48.5422 388.855 48.5422C388.435 48.5422 388.109 48.6308 387.875 48.8082C387.651 48.9855 387.539 49.2188 387.539 49.5082C387.539 49.7882 387.684 50.0075 387.973 50.1662C388.272 50.3248 388.673 50.4602 389.177 50.5722C389.607 50.6655 390.013 50.7822 390.395 50.9222C390.787 51.0528 391.105 51.2535 391.347 51.5242C391.599 51.7855 391.725 52.1682 391.725 52.6722C391.735 53.2975 391.497 53.8155 391.011 54.2262C390.535 54.6275 389.887 54.8282 389.065 54.8282Z" fill="black" fill-opacity="0.45"/>
</g>
<g clip-path="url(#clip2_1620_10203)">
<rect width="16" height="16" transform="translate(536 41.6602)" fill="white" fill-opacity="0.01"/>
<path d="M544 42.6602C540.134 42.6602 537 45.7945 537 49.6602C537 53.5258 540.134 56.6602 544 56.6602C547.866 56.6602 551 53.5258 551 49.6602C551 45.7945 547.866 42.6602 544 42.6602ZM544 55.4727C540.791 55.4727 538.188 52.8695 538.188 49.6602C538.188 46.4508 540.791 43.8477 544 43.8477C547.209 43.8477 549.812 46.4508 549.812 49.6602C549.812 52.8695 547.209 55.4727 544 55.4727Z" fill="black" fill-opacity="0.85"/>
<path d="M543.25 46.9102C543.25 47.1091 543.329 47.2998 543.469 47.4405C543.61 47.5811 543.801 47.6602 544 47.6602C544.199 47.6602 544.389 47.5811 544.53 47.4405C544.671 47.2998 544.75 47.1091 544.75 46.9102C544.75 46.7112 544.671 46.5205 544.53 46.3798C544.389 46.2392 544.199 46.1602 544 46.1602C543.801 46.1602 543.61 46.2392 543.469 46.3798C543.329 46.5205 543.25 46.7112 543.25 46.9102ZM544.375 48.6602H543.625C543.556 48.6602 543.5 48.7164 543.5 48.7852V53.0352C543.5 53.1039 543.556 53.1602 543.625 53.1602H544.375C544.444 53.1602 544.5 53.1039 544.5 53.0352V48.7852C544.5 48.7164 544.444 48.6602 544.375 48.6602Z" fill="black" fill-opacity="0.85"/>
</g>
<path d="M340.6 95.6602L348.73 77.3902H337.81V74.6602H352V76.9702L343.93 95.6602H340.6ZM361.945 96.0202C360.545 96.0202 359.275 95.7702 358.135 95.2702C357.015 94.7502 356.115 94.0302 355.435 93.1102C354.775 92.1902 354.445 91.1102 354.445 89.8702C354.445 88.6102 354.795 87.4802 355.495 86.4802C356.215 85.4802 357.165 84.8002 358.345 84.4402C357.285 84.0202 356.465 83.4102 355.885 82.6102C355.305 81.7902 355.015 80.8902 355.015 79.9102C355.015 78.8902 355.285 77.9602 355.825 77.1202C356.365 76.2602 357.145 75.5802 358.165 75.0802C359.205 74.5602 360.465 74.3002 361.945 74.3002C363.425 74.3002 364.675 74.5602 365.695 75.0802C366.735 75.5802 367.525 76.2602 368.065 77.1202C368.605 77.9602 368.875 78.8902 368.875 79.9102C368.875 80.8702 368.575 81.7702 367.975 82.6102C367.395 83.4302 366.575 84.0402 365.515 84.4402C366.695 84.8202 367.635 85.5102 368.335 86.5102C369.055 87.4902 369.415 88.6102 369.415 89.8702C369.415 91.1102 369.085 92.1902 368.425 93.1102C367.765 94.0302 366.865 94.7502 365.725 95.2702C364.605 95.7702 363.345 96.0202 361.945 96.0202ZM361.945 83.4202C363.105 83.4202 364.015 83.1202 364.675 82.5202C365.355 81.9202 365.695 81.1502 365.695 80.2102C365.695 79.1502 365.365 78.3402 364.705 77.7802C364.045 77.2202 363.125 76.9402 361.945 76.9402C360.765 76.9402 359.845 77.2202 359.185 77.7802C358.525 78.3402 358.195 79.1502 358.195 80.2102C358.195 81.1502 358.525 81.9202 359.185 82.5202C359.845 83.1202 360.765 83.4202 361.945 83.4202ZM361.945 93.3202C363.385 93.3202 364.465 92.9802 365.185 92.3002C365.905 91.6002 366.265 90.7102 366.265 89.6302C366.265 88.4302 365.875 87.5102 365.095 86.8702C364.335 86.2102 363.285 85.8802 361.945 85.8802C360.605 85.8802 359.545 86.2102 358.765 86.8702C357.985 87.5102 357.595 88.4302 357.595 89.6302C357.595 90.7102 357.955 91.6002 358.675 92.3002C359.415 92.9802 360.505 93.3202 361.945 93.3202ZM377.428 84.6802C376.488 84.6802 375.638 84.4702 374.878 84.0502C374.138 83.6302 373.548 83.0402 373.108 82.2802C372.668 81.5002 372.448 80.5702 372.448 79.4902C372.448 78.4302 372.668 77.5202 373.108 76.7602C373.548 75.9802 374.148 75.3802 374.908 74.9602C375.668 74.5402 376.518 74.3302 377.458 74.3302C378.378 74.3302 379.208 74.5402 379.948 74.9602C380.708 75.3802 381.308 75.9802 381.748 76.7602C382.188 77.5202 382.408 78.4302 382.408 79.4902C382.408 80.5702 382.188 81.5002 381.748 82.2802C381.308 83.0402 380.708 83.6302 379.948 84.0502C379.208 84.4702 378.368 84.6802 377.428 84.6802ZM375.928 95.6602L387.958 74.6602H391.078L379.078 95.6602H375.928ZM377.428 82.4002C378.068 82.4002 378.618 82.1602 379.078 81.6802C379.558 81.1802 379.798 80.4502 379.798 79.4902C379.798 78.5302 379.568 77.8102 379.108 77.3302C378.648 76.8302 378.088 76.5802 377.428 76.5802C376.788 76.5802 376.228 76.8302 375.748 77.3302C375.268 77.8102 375.028 78.5302 375.028 79.4902C375.028 80.4502 375.258 81.1802 375.718 81.6802C376.198 82.1602 376.768 82.4002 377.428 82.4002ZM389.758 96.0202C388.818 96.0202 387.968 95.8102 387.208 95.3902C386.468 94.9702 385.878 94.3802 385.438 93.6202C384.998 92.8402 384.778 91.9102 384.778 90.8302C384.778 89.7702 384.998 88.8502 385.438 88.0702C385.878 87.2902 386.478 86.6902 387.238 86.2702C387.998 85.8502 388.848 85.6402 389.788 85.6402C390.708 85.6402 391.538 85.8502 392.278 86.2702C393.038 86.6902 393.638 87.2902 394.078 88.0702C394.518 88.8502 394.738 89.7702 394.738 90.8302C394.738 91.9102 394.518 92.8402 394.078 93.6202C393.638 94.3802 393.038 94.9702 392.278 95.3902C391.538 95.8102 390.698 96.0202 389.758 96.0202ZM389.758 93.7102C390.398 93.7102 390.948 93.4702 391.408 92.9902C391.888 92.5102 392.128 91.7902 392.128 90.8302C392.128 89.8702 391.898 89.1502 391.438 88.6702C390.978 88.1702 390.418 87.9202 389.758 87.9202C389.118 87.9202 388.558 88.1702 388.078 88.6702C387.598 89.1502 387.358 89.8702 387.358 90.8302C387.358 91.7902 387.588 92.5102 388.048 92.9902C388.528 93.4702 389.098 93.7102 389.758 93.7102Z" fill="black" fill-opacity="0.85"/>
<path d="M337 154.66H552" stroke="black" stroke-opacity="0.06"/>
<rect x="337" y="129.66" width="157.148" height="10" rx="5" fill="#939393" fill-opacity="0.24"/>
<rect x="337.191" y="130.082" width="132" height="10" rx="5" fill="#13C2C2"/>
<rect x="337" y="163.66" width="140" height="7" rx="3.5" fill="#D9D9D9"/>
<rect x="337" y="176.66" width="120" height="7" rx="3.5" fill="#D9D9D9"/>
</g>
<defs>
<filter id="filter0_d_1620_10203" x="0.148612" y="129.409" width="404.214" height="301.009" filterUnits="userSpaceOnUse" color-interpolation-filters="sRGB">
<feFlood flood-opacity="0" result="BackgroundImageFix"/>
<feColorMatrix in="SourceAlpha" type="matrix" values="0 0 0 0 0 0 0 0 0 0 0 0 0 0 0 0 0 0 127 0" result="hardAlpha"/>
<feMorphology radius="2.15007" operator="erode" in="SourceAlpha" result="effect1_dropShadow_1620_10203"/>
<feOffset dy="8.60029"/>
<feGaussianBlur stdDeviation="21.5007"/>
<feColorMatrix type="matrix" values="0 0 0 0 0.0235294 0 0 0 0 0.0470588 0 0 0 0 0.231373 0 0 0 0.08 0"/>
<feBlend mode="normal" in2="BackgroundImageFix" result="effect1_dropShadow_1620_10203"/>
<feBlend mode="normal" in="SourceGraphic" in2="effect1_dropShadow_1620_10203" result="shape"/>
</filter>
<linearGradient id="paint0_linear_1620_10203" x1="219.994" y1="201.631" x2="219.994" y2="342.266" gradientUnits="userSpaceOnUse">
<stop stop-color="#9374FF"/>
<stop offset="1" stop-color="#9374FF" stop-opacity="0"/>
</linearGradient>
<clipPath id="clip0_1620_10203">
<rect x="313" y="13.6602" width="263" height="182" rx="6" fill="white"/>
</clipPath>
<clipPath id="clip1_1620_10203">
<rect width="56" height="22" fill="white" transform="translate(337 38.6602)"/>
</clipPath>
<clipPath id="clip2_1620_10203">
<rect width="16" height="16" fill="white" transform="translate(536 41.6602)"/>
</clipPath>
</defs>
</svg>
