<svg width="445" height="406" viewBox="0 0 445 406" fill="none" xmlns="http://www.w3.org/2000/svg">
<g clip-path="url(#clip0_1620_10410)">
<rect y="0.330078" width="445" height="405" rx="24" fill="#9FB4F3"/>
<g clip-path="url(#clip1_1620_10410)">
<rect width="1297.2" height="552" transform="translate(-426 0.330078)" fill="#9FB4F3"/>
<path opacity="0.4" d="M-572.05 402.036L-509.4 416.914C-503.208 418.384 -496.702 417.745 -490.914 415.098L-415.737 380.714C-412.007 379.008 -407.954 378.125 -403.852 378.125H-344.384C-337.657 378.125 -331.145 375.751 -325.996 371.422L-267.177 321.967C-260.106 316.022 -250.598 313.863 -241.654 316.169L-199.035 327.16C-191.716 329.047 -183.948 327.958 -177.43 324.13L-122.448 291.84C-114.368 287.095 -104.474 286.613 -95.9712 290.551L-49.3678 312.134C-37.6626 317.554 -23.7768 314.46 -15.4806 304.583L26.9799 254.028C33.1238 246.713 42.5171 242.952 52.0118 244.006L153.315 255.25C159.4 255.926 165.542 254.629 170.834 251.55L270.568 193.536C273.431 191.87 276.562 190.715 279.821 190.123L488.799 152.111C494.383 151.096 500.143 151.766 505.344 154.036L570.504 182.481C582.103 187.545 595.651 184.374 603.799 174.69L662.443 104.992C668.98 97.2218 679.15 93.5053 689.157 95.2293L807.282 115.58C816.662 117.196 826.23 114.036 832.801 107.151L875.254 62.6785C882.839 54.7332 894.306 51.839 904.753 55.2335L949.049 69.6273C955.996 71.8848 963.544 71.3957 970.142 68.2606L1026.14 41.6542C1031.28 39.2111 1037.03 38.3594 1042.66 39.2085L1105.4 48.6714C1109.79 49.3347 1114.29 48.9624 1118.51 47.5841L1182.34 26.7793" stroke="url(#paint0_linear_1620_10410)" stroke-width="3.45" stroke-linecap="round" stroke-linejoin="round"/>
<path fill-rule="evenodd" clip-rule="evenodd" d="M-706.322 633.759L-706.322 809.5H-704.022L-704.022 633.759H-592.687V809.5H-590.387V633.759H-479.052V809.5H-476.752V633.759H-365.417V809.5H-363.117V633.759H-253.504V809.5H-251.204V633.759H-139.869V809.5H-137.569V633.759H-26.234V809.5H-23.934V633.759H87.4008V809.5H89.7008V633.759H199.314V809.5H201.614V633.759H312.949V809.5H315.249V633.759H426.584V809.5H428.884V633.759H538.497V809.5H540.797V633.759H652.132V809.5H654.432V633.759H765.767V809.5H768.067V633.759H879.402V809.5H881.702V633.759H991.315V809.5H993.615V633.759H1104.95V809.5H1107.25V633.759H1263.35V631.459H1107.25V519.662H1263.35V517.362H1107.25V405.565H1263.35V403.265H1107.25V291.468H1263.35V289.168H1107.25L1107.25 177.371H1263.35V175.071H1107.25V63.2745H1263.35V60.9745H1107.25V-50.8223H1263.35V-53.1223H1107.25V-164.919H1263.35V-167.219H1107.25V-328.57L1104.95 -328.57V-167.219H993.615V-328.57L991.315 -328.57V-167.219H881.702V-328.57L879.402 -328.57V-167.219H768.067V-328.57L765.767 -328.57V-167.219H654.432V-328.57L652.132 -328.57V-167.219H540.797V-328.57L538.497 -328.57V-167.219H428.884V-328.57L426.584 -328.57V-167.219H315.249V-328.57L312.949 -328.57V-167.219H201.614V-328.57L199.314 -328.57V-167.219H89.7009V-328.57L87.4009 -328.57V-167.219H-23.934V-328.57L-26.2339 -328.57V-167.219H-137.569V-328.57L-139.869 -328.57V-167.219H-251.204V-328.57L-253.504 -328.57V-167.219H-363.117V-328.57L-365.417 -328.57V-167.219H-476.752V-328.57L-479.052 -328.57V-167.219H-590.387V-328.57L-592.687 -328.57V-167.219H-704.022L-704.022 -328.57L-706.322 -328.57L-706.322 -167.219H-863V-164.919H-706.322V-53.1223H-863V-50.8223H-706.322V60.9745H-863V63.2745H-706.322L-706.322 175.071H-863V177.371H-706.322V289.168H-863V291.468H-706.322L-706.322 403.265H-863V405.565H-706.322V517.362H-863V519.662H-706.322V631.459H-863V633.759H-706.322ZM1104.95 -164.919H993.615V-53.1223H1104.95V-164.919ZM1104.95 -50.8223H993.615V60.9745H1104.95V-50.8223ZM1104.95 63.2745H993.615V175.071H1104.95V63.2745ZM1104.95 177.371H993.615L993.615 289.168H1104.95V177.371ZM1104.95 291.468H993.615V403.265H1104.95V291.468ZM1104.95 405.565H993.615V517.362H1104.95V405.565ZM1104.95 519.662H993.615V631.459H1104.95V519.662ZM991.315 519.662V631.459H881.702V519.662H991.315ZM991.315 405.565V517.362H881.702V405.565H991.315ZM991.315 291.468V403.265H881.702V291.468H991.315ZM991.315 177.371V289.168H881.702L881.702 177.371H991.315ZM991.315 63.2745V175.071H881.702V63.2745H991.315ZM991.315 -50.8223V60.9745H881.702V-50.8223H991.315ZM991.315 -164.919V-53.1223H881.702V-164.919H991.315ZM879.402 -164.919H768.067V-53.1223H879.402V-164.919ZM879.402 -50.8223H768.067V60.9745H879.402V-50.8223ZM879.402 63.2745H768.067V175.071H879.402V63.2745ZM879.402 177.371H768.067L768.067 289.168H879.402V177.371ZM879.402 291.468H768.067V403.265H879.402V291.468ZM879.402 405.565H768.067V517.362H879.402V405.565ZM879.402 519.662H768.067V631.459H879.402V519.662ZM765.767 519.662V631.459H654.432V519.662H765.767ZM765.767 405.565V517.362H654.432V405.565H765.767ZM765.767 291.468V403.265H654.432V291.468H765.767ZM765.767 177.371V289.168H654.432L654.432 177.371H765.767ZM765.767 63.2745V175.071H654.432V63.2745H765.767ZM765.767 -50.8223V60.9745H654.432V-50.8223H765.767ZM765.767 -164.919V-53.1223H654.432V-164.919H765.767ZM652.132 -164.919H540.797V-53.1223H652.132V-164.919ZM652.132 -50.8223H540.797V60.9745H652.132V-50.8223ZM652.132 63.2745H540.797V175.071H652.132V63.2745ZM652.132 177.371H540.797L540.797 289.168H652.132V177.371ZM652.132 291.468H540.797V403.265H652.132V291.468ZM652.132 405.565H540.797V517.362H652.132V405.565ZM652.132 519.662H540.797V631.459H652.132V519.662ZM538.497 519.662V631.459H428.884V519.662H538.497ZM538.497 405.565V517.362H428.884V405.565H538.497ZM538.497 291.468V403.265H428.884V291.468H538.497ZM538.497 177.371V289.168H428.884L428.884 177.371H538.497ZM538.497 63.2745V175.071H428.884V63.2745H538.497ZM538.497 -50.8223V60.9745H428.884V-50.8223H538.497ZM538.497 -164.919V-53.1223H428.884V-164.919H538.497ZM426.584 -164.919H315.249V-53.1223H426.584V-164.919ZM426.584 -50.8223H315.249V60.9745H426.584V-50.8223ZM426.584 63.2745H315.249V175.071H426.584V63.2745ZM426.584 177.371H315.249L315.249 289.168H426.584V177.371ZM426.584 291.468H315.249V403.265H426.584V291.468ZM426.584 405.565H315.249V517.362H426.584V405.565ZM426.584 519.662H315.249V631.459H426.584V519.662ZM312.949 519.662V631.459H201.614V519.662H312.949ZM312.949 405.565V517.362H201.614V405.565H312.949ZM312.949 291.468V403.265H201.614V291.468H312.949ZM312.949 177.371V289.168H201.614L201.614 177.371H312.949ZM312.949 63.2745V175.071H201.614V63.2745H312.949ZM312.949 -50.8223V60.9745H201.614V-50.8223H312.949ZM312.949 -164.919V-53.1223H201.614V-164.919H312.949ZM199.314 -164.919H89.7009V-53.1223H199.314V-164.919ZM199.314 -50.8223H89.7009V60.9745H199.314V-50.8223ZM199.314 63.2745H89.7009V175.071H199.314V63.2745ZM199.314 177.371H89.7009L89.7008 289.168H199.314V177.371ZM199.314 291.468H89.7008V403.265H199.314V291.468ZM199.314 405.565H89.7008V517.362H199.314V405.565ZM199.314 519.662H89.7008V631.459H199.314V519.662ZM87.4008 519.662V631.459H-23.934V519.662H87.4008ZM87.4008 405.565V517.362H-23.934V405.565H87.4008ZM87.4008 291.468V403.265H-23.934V291.468H87.4008ZM87.4009 177.371L87.4008 289.168H-23.934L-23.934 177.371H87.4009ZM87.4009 63.2745V175.071H-23.934V63.2745H87.4009ZM87.4009 -50.8223V60.9745H-23.934V-50.8223H87.4009ZM87.4009 -164.919V-53.1223H-23.934V-164.919H87.4009ZM-26.2339 -164.919H-137.569V-53.1223H-26.2339V-164.919ZM-26.2339 -50.8223H-137.569V60.9745H-26.2339V-50.8223ZM-26.2339 63.2745H-137.569V175.071H-26.2339V63.2745ZM-26.2339 177.371H-137.569L-137.569 289.168H-26.234L-26.2339 177.371ZM-26.234 291.468H-137.569V403.265H-26.234V291.468ZM-26.234 405.565H-137.569V517.362H-26.234V405.565ZM-26.234 519.662H-137.569V631.459H-26.234V519.662ZM-139.869 519.662V631.459H-251.204V519.662H-139.869ZM-139.869 405.565V517.362H-251.204V405.565H-139.869ZM-139.869 291.468V403.265H-251.204V291.468H-139.869ZM-139.869 177.371L-139.869 289.168H-251.204L-251.204 177.371H-139.869ZM-139.869 63.2745V175.071H-251.204V63.2745H-139.869ZM-139.869 -50.8223V60.9745H-251.204V-50.8223H-139.869ZM-139.869 -164.919V-53.1223H-251.204V-164.919H-139.869ZM-253.504 -164.919H-363.117V-53.1223H-253.504V-164.919ZM-253.504 -50.8223H-363.117L-363.117 60.9745H-253.504V-50.8223ZM-253.504 63.2745H-363.117V175.071H-253.504V63.2745ZM-253.504 177.371H-363.117V289.168H-253.504L-253.504 177.371ZM-253.504 291.468H-363.117V403.265H-253.504V291.468ZM-253.504 405.565H-363.117V517.362H-253.504V405.565ZM-253.504 519.662H-363.117L-363.117 631.459H-253.504V519.662ZM-365.417 519.662L-365.417 631.459H-476.752V519.662H-365.417ZM-365.417 405.565V517.362H-476.752V405.565H-365.417ZM-365.417 291.468V403.265H-476.752V291.468H-365.417ZM-365.417 177.371V289.168H-476.752L-476.752 177.371H-365.417ZM-365.417 63.2745V175.071H-476.752V63.2745H-365.417ZM-365.417 -50.8223L-365.417 60.9745H-476.752V-50.8223H-365.417ZM-365.417 -164.919V-53.1223H-476.752V-164.919H-365.417ZM-479.052 -164.919H-590.387V-53.1223H-479.052V-164.919ZM-479.052 -50.8223H-590.387V60.9745H-479.052L-479.052 -50.8223ZM-479.052 63.2745H-590.387V175.071H-479.052V63.2745ZM-479.052 177.371H-590.387L-590.387 289.168H-479.052V177.371ZM-479.052 291.468H-590.387V403.265H-479.052V291.468ZM-479.052 405.565H-590.387V517.362H-479.052V405.565ZM-479.052 519.662H-590.387V631.459H-479.052L-479.052 519.662ZM-592.687 519.662L-592.687 631.459H-704.022V519.662H-592.687ZM-592.687 405.565V517.362H-704.022V405.565H-592.687ZM-592.687 291.468V403.265H-704.022L-704.022 291.468H-592.687ZM-592.687 177.371V289.168H-704.022V177.371H-592.687ZM-592.687 63.2745V175.071H-704.022L-704.022 63.2745H-592.687ZM-592.687 -50.8223L-592.687 60.9745H-704.022V-50.8223H-592.687ZM-592.687 -164.919V-53.1223H-704.022V-164.919H-592.687Z" fill="url(#paint1_radial_1620_10410)"/>
<path opacity="0.7" d="M-539.885 457.693L-476.538 441.214C-473.261 440.362 -470.161 438.933 -467.384 436.996L-393.084 385.163C-388.289 381.818 -382.583 380.025 -376.736 380.025H-330.261C-323.245 380.025 -316.474 377.443 -311.239 372.773L-249.404 317.606C-239.97 309.189 -226.126 307.973 -215.369 314.616L-90.4063 391.788C-79.7592 398.363 -66.0723 397.245 -56.6333 389.03L-8.10982 346.794C-1.34759 340.908 7.78514 338.537 16.5565 340.39L71.1517 351.926C78.5114 353.481 86.1875 352.071 92.5142 348.002L163.904 302.089C173.75 295.757 186.463 296.071 195.985 302.883L238.936 333.611C249.7 341.311 264.343 340.612 274.324 331.922L295.868 313.163C302.885 307.054 312.436 304.743 321.469 306.969L369.473 318.8C378.106 320.928 387.237 318.915 394.176 313.356L450.115 268.539C454.802 264.784 460.553 262.601 466.552 262.301L530.215 259.114C533.633 258.942 537.055 259.387 540.316 260.426L593.568 277.389C604.445 280.853 616.34 277.512 623.821 268.89L676.101 208.642C684.139 199.379 697.191 196.279 708.536 200.938L740.514 214.069C807.338 241.511 883.936 228.791 938.304 181.223L974.098 149.906C984.485 140.818 999.883 140.454 1010.69 149.04L1052.82 182.522C1061.06 189.063 1072.21 190.555 1081.87 186.406L1138.07 162.276C1142.13 160.531 1145.74 157.867 1148.59 154.494L1214.5 76.7188" stroke="url(#paint2_linear_1620_10410)" stroke-width="3.80974" stroke-linecap="round" stroke-linejoin="round"/>
<path opacity="0.4" d="M-534.171 417.692L-467.731 390.605C-460.895 387.818 -453.246 387.785 -446.387 390.512L-390.456 412.752C-382.583 415.882 -373.727 415.357 -366.279 411.319L-317.89 385.082C-311.397 381.561 -303.793 380.691 -296.672 382.656L-245.347 396.814C-235.644 399.49 -225.249 396.864 -217.981 389.901L-171.702 345.558C-162.208 336.461 -147.731 335.018 -136.628 342.062L-97.0242 367.187C-85.6229 374.419 -70.7148 372.684 -61.2794 363.026L-11.8667 312.447C-3.2574 303.635 10.0309 301.333 21.1028 306.736L55.7921 323.664C64.0334 327.686 73.7042 327.508 81.7917 323.185L132.342 296.168C143.373 290.272 156.956 292.236 165.865 301.015L228.858 363.087C241.262 375.309 261.62 373.689 271.935 359.659L371.784 223.84C374.751 219.804 378.726 216.62 383.311 214.605L589.741 123.898C597.357 120.552 606.054 120.69 613.559 124.278L793.007 210.061L857.078 235.074C884.143 245.64 914.686 242.104 938.62 225.632L1052.59 147.2" stroke="url(#paint3_linear_1620_10410)" stroke-width="3.80974" stroke-linecap="round" stroke-linejoin="round"/>
<g filter="url(#filter0_b_1620_10410)">
<path d="M441.1 240.68C441.595 242.984 443.395 244.785 445.7 245.28C443.395 245.775 441.595 247.575 441.1 249.88C440.605 247.575 438.805 245.775 436.5 245.28C438.805 244.785 440.605 242.984 441.1 240.68Z" fill="url(#paint4_linear_1620_10410)"/>
</g>
<g filter="url(#filter1_b_1620_10410)">
<path d="M458.153 246.97C459.148 255.73 465.187 263.093 473.584 265.783C464.824 266.778 457.461 272.817 454.772 281.213C453.777 272.453 447.737 265.09 439.341 262.401C448.101 261.406 455.464 255.367 458.153 246.97Z" fill="url(#paint5_linear_1620_10410)"/>
</g>
<g filter="url(#filter2_b_1620_10410)">
<path d="M-6.825 329.23C-5.03094 337.585 1.49534 344.111 9.85 345.905C1.49534 347.7 -5.03094 354.226 -6.825 362.58C-8.61906 354.226 -15.1453 347.7 -23.5 345.905C-15.1453 344.111 -8.61906 337.585 -6.825 329.23Z" fill="url(#paint6_linear_1620_10410)"/>
</g>
<g filter="url(#filter3_b_1620_10410)">
<g style="mix-blend-mode:screen" opacity="0.05" filter="url(#filter4_b_1620_10410)">
<circle cx="94.8745" cy="176.205" r="76.875" fill="white" fill-opacity="0.4"/>
</g>
<g style="mix-blend-mode:screen" opacity="0.15" filter="url(#filter5_b_1620_10410)">
<circle cx="94.8748" cy="176.206" r="54.0203" fill="white" fill-opacity="0.4"/>
</g>
<circle opacity="0.2" cx="93.7133" cy="174.89" r="27.1323" fill="white" fill-opacity="0.6"/>
<circle cx="93.7131" cy="174.892" r="9.17741" fill="white" fill-opacity="0.6"/>
</g>
<g style="mix-blend-mode:color-burn">
<rect width="1297.2" height="552" transform="translate(-426 0.330078)" fill="white" fill-opacity="0.3"/>
</g>
<rect x="57" y="128.33" width="349.6" height="95.45" rx="47.725" fill="white" fill-opacity="0.2"/>
<g filter="url(#filter6_b_1620_10410)">
<rect x="74.0664" y="144.43" width="282.2" height="63.6" rx="31.8" fill="white"/>
<path fill-rule="evenodd" clip-rule="evenodd" d="M116.616 164.73C116.988 166.459 118.338 167.809 120.066 168.18C118.338 168.552 116.988 169.902 116.616 171.63C116.245 169.902 114.895 168.552 113.166 168.18C114.895 167.809 116.245 166.459 116.616 164.73ZM105.199 164.96C106.248 169.842 110.061 173.655 114.942 174.703C110.061 175.751 106.248 179.565 105.199 184.446C104.151 179.565 100.338 175.751 95.4565 174.703C100.338 173.655 104.151 169.842 105.199 164.96ZM120.066 183.13C117.762 182.636 115.961 180.835 115.466 178.53C114.972 180.835 113.171 182.636 110.866 183.13C113.171 183.625 114.972 185.426 115.466 187.73C115.961 185.426 117.762 183.625 120.066 183.13Z" fill="#387FF5"/>
<path d="M151.151 168.67V185.23H148.782V173.88C148.782 173.696 148.786 173.497 148.793 173.282C148.809 173.06 148.828 172.837 148.851 172.615L143.526 182.447C143.319 182.854 143.001 183.057 142.572 183.057H142.192C141.755 183.057 141.437 182.854 141.238 182.447L135.833 172.592C135.856 172.814 135.871 173.037 135.879 173.259C135.894 173.481 135.902 173.688 135.902 173.88V185.23H133.533V168.67H135.545C135.783 168.67 135.967 168.693 136.097 168.739C136.228 168.778 136.347 168.904 136.454 169.119L141.767 178.744C141.882 178.967 141.989 179.197 142.089 179.434C142.196 179.664 142.292 179.902 142.376 180.147C142.468 179.902 142.564 179.661 142.664 179.423C142.771 179.178 142.882 178.944 142.997 178.721L148.23 169.119C148.337 168.904 148.456 168.778 148.586 168.739C148.717 168.693 148.901 168.67 149.138 168.67H151.151ZM159.325 173.316C160.191 173.316 160.973 173.458 161.671 173.742C162.376 174.026 162.974 174.428 163.465 174.949C163.963 175.471 164.347 176.103 164.615 176.847C164.883 177.591 165.018 178.426 165.018 179.354C165.018 180.282 164.883 181.117 164.615 181.861C164.347 182.605 163.963 183.241 163.465 183.77C162.974 184.291 162.376 184.694 161.671 184.977C160.973 185.261 160.191 185.403 159.325 185.403C158.451 185.403 157.661 185.261 156.956 184.977C156.258 184.694 155.66 184.291 155.162 183.77C154.664 183.241 154.28 182.605 154.012 181.861C153.744 181.117 153.61 180.282 153.61 179.354C153.61 178.426 153.744 177.591 154.012 176.847C154.28 176.103 154.664 175.471 155.162 174.949C155.66 174.428 156.258 174.026 156.956 173.742C157.661 173.458 158.451 173.316 159.325 173.316ZM159.325 183.471C160.383 183.471 161.169 183.118 161.683 182.413C162.204 181.7 162.465 180.684 162.465 179.365C162.465 178.047 162.204 177.031 161.683 176.318C161.169 175.597 160.383 175.237 159.325 175.237C158.252 175.237 157.454 175.597 156.933 176.318C156.412 177.031 156.151 178.047 156.151 179.365C156.151 180.684 156.412 181.7 156.933 182.413C157.454 183.118 158.252 183.471 159.325 183.471ZM169.705 175.053C169.958 174.792 170.218 174.558 170.487 174.351C170.763 174.137 171.054 173.953 171.361 173.799C171.667 173.646 171.993 173.527 172.338 173.443C172.683 173.359 173.059 173.316 173.465 173.316C174.109 173.316 174.673 173.424 175.156 173.638C175.646 173.853 176.057 174.156 176.386 174.547C176.724 174.938 176.977 175.409 177.145 175.961C177.314 176.506 177.398 177.108 177.398 177.767V185.23H174.937V177.767C174.937 176.977 174.753 176.364 174.385 175.927C174.025 175.49 173.473 175.271 172.729 175.271C172.177 175.271 171.664 175.398 171.188 175.651C170.721 175.904 170.28 176.249 169.866 176.686V185.23H167.393V173.5H168.888C169.226 173.5 169.44 173.658 169.532 173.972L169.705 175.053ZM182.862 173.5V185.23H180.389V173.5H182.862ZM183.276 169.958C183.276 170.181 183.23 170.392 183.138 170.591C183.053 170.79 182.935 170.967 182.781 171.12C182.628 171.266 182.448 171.384 182.241 171.476C182.041 171.561 181.827 171.603 181.597 171.603C181.374 171.603 181.164 171.561 180.964 171.476C180.773 171.384 180.604 171.266 180.458 171.12C180.313 170.967 180.194 170.79 180.102 170.591C180.017 170.392 179.975 170.181 179.975 169.958C179.975 169.728 180.017 169.514 180.102 169.314C180.194 169.115 180.313 168.943 180.458 168.797C180.604 168.644 180.773 168.525 180.964 168.44C181.164 168.348 181.374 168.302 181.597 168.302C181.827 168.302 182.041 168.348 182.241 168.44C182.448 168.525 182.628 168.644 182.781 168.797C182.935 168.943 183.053 169.115 183.138 169.314C183.23 169.514 183.276 169.728 183.276 169.958ZM189.729 185.414C188.755 185.414 188.004 185.142 187.475 184.598C186.954 184.046 186.693 183.272 186.693 182.275V175.444H185.405C185.267 175.444 185.148 175.402 185.048 175.317C184.949 175.225 184.899 175.091 184.899 174.915V173.914L186.796 173.638L187.337 170.246C187.375 170.116 187.44 170.012 187.532 169.935C187.624 169.851 187.747 169.809 187.9 169.809H189.165V173.661H192.42V175.444H189.165V182.102C189.165 182.524 189.269 182.846 189.476 183.068C189.683 183.291 189.959 183.402 190.304 183.402C190.496 183.402 190.66 183.379 190.798 183.333C190.936 183.279 191.055 183.226 191.155 183.172C191.255 183.111 191.339 183.057 191.408 183.011C191.485 182.957 191.557 182.93 191.626 182.93C191.764 182.93 191.876 183.007 191.96 183.16L192.696 184.368C192.313 184.705 191.86 184.966 191.339 185.15C190.818 185.326 190.281 185.414 189.729 185.414ZM199.35 173.316C200.217 173.316 200.999 173.458 201.696 173.742C202.402 174.026 203 174.428 203.49 174.949C203.989 175.471 204.372 176.103 204.64 176.847C204.909 177.591 205.043 178.426 205.043 179.354C205.043 180.282 204.909 181.117 204.64 181.861C204.372 182.605 203.989 183.241 203.49 183.77C203 184.291 202.402 184.694 201.696 184.977C200.999 185.261 200.217 185.403 199.35 185.403C198.476 185.403 197.687 185.261 196.981 184.977C196.284 184.694 195.686 184.291 195.187 183.77C194.689 183.241 194.306 182.605 194.037 181.861C193.769 181.117 193.635 180.282 193.635 179.354C193.635 178.426 193.769 177.591 194.037 176.847C194.306 176.103 194.689 175.471 195.187 174.949C195.686 174.428 196.284 174.026 196.981 173.742C197.687 173.458 198.476 173.316 199.35 173.316ZM199.35 183.471C200.408 183.471 201.194 183.118 201.708 182.413C202.229 181.7 202.49 180.684 202.49 179.365C202.49 178.047 202.229 177.031 201.708 176.318C201.194 175.597 200.408 175.237 199.35 175.237C198.277 175.237 197.48 175.597 196.958 176.318C196.437 177.031 196.176 178.047 196.176 179.365C196.176 180.684 196.437 181.7 196.958 182.413C197.48 183.118 198.277 183.471 199.35 183.471ZM209.753 175.674C210.121 174.93 210.566 174.348 211.087 173.926C211.608 173.497 212.233 173.282 212.962 173.282C213.215 173.282 213.452 173.313 213.675 173.374C213.897 173.428 214.096 173.512 214.273 173.627L214.1 175.49C214.069 175.62 214.02 175.712 213.951 175.766C213.889 175.812 213.805 175.835 213.698 175.835C213.583 175.835 213.418 175.816 213.203 175.777C212.988 175.731 212.762 175.708 212.525 175.708C212.18 175.708 211.873 175.758 211.605 175.858C211.344 175.958 211.106 176.103 210.892 176.295C210.685 176.487 210.501 176.72 210.34 176.996C210.179 177.272 210.029 177.587 209.891 177.939V185.23H207.419V173.5H208.856C209.117 173.5 209.297 173.55 209.397 173.65C209.496 173.742 209.565 173.907 209.604 174.144L209.753 175.674ZM225.144 177.295C224.439 177.709 223.918 178.192 223.58 178.744C223.243 179.296 223.074 179.894 223.074 180.538C223.074 180.991 223.155 181.397 223.316 181.757C223.484 182.11 223.703 182.409 223.971 182.654C224.247 182.9 224.562 183.088 224.914 183.218C225.275 183.348 225.646 183.413 226.03 183.413C226.789 183.413 227.479 183.287 228.1 183.034C228.721 182.773 229.273 182.424 229.756 181.987L225.144 177.295ZM236.023 185.23H233.62C233.489 185.23 233.371 185.223 233.263 185.207C233.164 185.192 233.068 185.169 232.976 185.138C232.891 185.1 232.807 185.05 232.723 184.989C232.646 184.928 232.562 184.847 232.47 184.747L231.09 183.344C230.361 183.988 229.533 184.494 228.606 184.862C227.686 185.23 226.685 185.414 225.604 185.414C224.976 185.414 224.358 185.307 223.753 185.092C223.155 184.878 222.618 184.571 222.143 184.172C221.667 183.766 221.284 183.275 220.993 182.7C220.701 182.118 220.556 181.462 220.556 180.734C220.556 180.205 220.64 179.707 220.809 179.239C220.985 178.771 221.227 178.338 221.533 177.939C221.848 177.533 222.216 177.169 222.637 176.847C223.059 176.525 223.523 176.249 224.029 176.019C223.592 175.436 223.274 174.869 223.074 174.317C222.875 173.765 222.775 173.205 222.775 172.638C222.775 172.071 222.879 171.534 223.086 171.028C223.293 170.522 223.592 170.081 223.983 169.705C224.381 169.33 224.861 169.035 225.42 168.82C225.988 168.598 226.628 168.486 227.341 168.486C227.985 168.486 228.564 168.586 229.077 168.785C229.599 168.985 230.043 169.253 230.411 169.59C230.787 169.928 231.078 170.315 231.285 170.752C231.5 171.189 231.626 171.641 231.665 172.109L230.101 172.431C229.963 172.462 229.832 172.442 229.71 172.373C229.595 172.304 229.507 172.189 229.445 172.028C229.384 171.829 229.296 171.634 229.181 171.442C229.066 171.243 228.924 171.066 228.755 170.913C228.587 170.76 228.383 170.637 228.146 170.545C227.916 170.445 227.647 170.395 227.341 170.395C226.988 170.395 226.67 170.453 226.386 170.568C226.11 170.683 225.873 170.844 225.673 171.051C225.482 171.25 225.332 171.484 225.225 171.752C225.125 172.021 225.075 172.308 225.075 172.615C225.075 172.86 225.102 173.098 225.156 173.328C225.209 173.558 225.298 173.788 225.42 174.018C225.543 174.248 225.696 174.486 225.88 174.731C226.072 174.969 226.302 175.225 226.57 175.501L231.136 180.205C231.412 179.699 231.63 179.174 231.791 178.629C231.952 178.077 232.06 177.522 232.113 176.962C232.129 176.801 232.182 176.674 232.274 176.582C232.366 176.483 232.489 176.433 232.642 176.433H234.172C234.164 177.391 234.018 178.315 233.735 179.204C233.459 180.086 233.068 180.906 232.562 181.665L236.023 185.23ZM259.398 176.95C259.398 178.177 259.199 179.308 258.8 180.343C258.401 181.378 257.838 182.271 257.11 183.022C256.389 183.766 255.519 184.349 254.499 184.77C253.487 185.192 252.36 185.403 251.118 185.403C249.884 185.403 248.757 185.192 247.737 184.77C246.725 184.349 245.855 183.766 245.127 183.022C244.398 182.271 243.835 181.378 243.436 180.343C243.037 179.308 242.838 178.177 242.838 176.95C242.838 175.724 243.037 174.593 243.436 173.558C243.835 172.523 244.398 171.63 245.127 170.878C245.855 170.127 246.725 169.541 247.737 169.119C248.757 168.697 249.884 168.486 251.118 168.486C252.36 168.486 253.487 168.697 254.499 169.119C255.519 169.541 256.389 170.127 257.11 170.878C257.838 171.63 258.401 172.523 258.8 173.558C259.199 174.593 259.398 175.724 259.398 176.95ZM256.65 176.95C256.65 176 256.519 175.145 256.259 174.386C256.006 173.627 255.638 172.983 255.155 172.454C254.679 171.925 254.1 171.519 253.418 171.235C252.736 170.951 251.969 170.809 251.118 170.809C250.275 170.809 249.512 170.951 248.83 171.235C248.147 171.519 247.565 171.925 247.082 172.454C246.599 172.983 246.227 173.627 245.966 174.386C245.705 175.145 245.575 176 245.575 176.95C245.575 177.909 245.705 178.767 245.966 179.526C246.227 180.285 246.599 180.929 247.082 181.458C247.565 181.98 248.147 182.382 248.83 182.666C249.512 182.942 250.275 183.08 251.118 183.08C251.969 183.08 252.736 182.942 253.418 182.666C254.1 182.382 254.679 181.98 255.155 181.458C255.638 180.929 256.006 180.285 256.259 179.526C256.519 178.767 256.65 177.909 256.65 176.95ZM264.157 182.286C264.502 182.731 264.877 183.045 265.284 183.229C265.698 183.406 266.154 183.494 266.652 183.494C267.618 183.494 268.37 183.141 268.906 182.436C269.451 181.731 269.723 180.68 269.723 179.285C269.723 178.564 269.661 177.951 269.539 177.445C269.416 176.931 269.24 176.513 269.01 176.191C268.78 175.869 268.5 175.636 268.17 175.49C267.841 175.344 267.469 175.271 267.055 175.271C266.426 175.271 265.882 175.409 265.422 175.685C264.969 175.954 264.548 176.341 264.157 176.847V182.286ZM264.03 175.202C264.521 174.627 265.077 174.164 265.698 173.811C266.326 173.458 267.055 173.282 267.883 173.282C268.542 173.282 269.14 173.416 269.677 173.684C270.213 173.945 270.673 174.328 271.057 174.834C271.44 175.34 271.735 175.969 271.942 176.72C272.157 177.464 272.264 178.319 272.264 179.285C272.264 180.151 272.145 180.96 271.908 181.711C271.678 182.455 271.344 183.103 270.907 183.655C270.47 184.199 269.941 184.629 269.32 184.943C268.699 185.25 267.998 185.403 267.216 185.403C266.526 185.403 265.939 185.292 265.456 185.069C264.981 184.847 264.548 184.54 264.157 184.149V189.129H261.684V173.5H263.179C263.517 173.5 263.731 173.658 263.823 173.972L264.03 175.202ZM285.894 185.23H283.422V175.444H277.706V182.102C277.706 182.524 277.81 182.846 278.017 183.068C278.224 183.291 278.5 183.402 278.845 183.402C279.037 183.402 279.201 183.379 279.339 183.333C279.477 183.279 279.596 183.226 279.696 183.172C279.796 183.111 279.88 183.057 279.949 183.011C280.026 182.957 280.098 182.93 280.167 182.93C280.305 182.93 280.417 183.007 280.501 183.16L281.237 184.368C280.854 184.705 280.401 184.966 279.88 185.15C279.359 185.326 278.822 185.414 278.27 185.414C277.296 185.414 276.545 185.142 276.016 184.598C275.495 184.046 275.234 183.272 275.234 182.275V175.444H273.946C273.808 175.444 273.689 175.402 273.589 175.317C273.49 175.225 273.44 175.091 273.44 174.915V173.914L275.337 173.638L275.878 170.246C275.916 170.116 275.981 170.012 276.073 169.935C276.165 169.851 276.288 169.809 276.441 169.809H277.706V173.661H285.894V185.23ZM286.4 169.901C286.4 170.123 286.354 170.334 286.262 170.533C286.178 170.725 286.059 170.898 285.906 171.051C285.753 171.197 285.572 171.315 285.365 171.407C285.166 171.492 284.955 171.534 284.733 171.534C284.511 171.534 284.3 171.492 284.1 171.407C283.909 171.315 283.736 171.197 283.583 171.051C283.437 170.898 283.318 170.725 283.226 170.533C283.142 170.334 283.1 170.123 283.1 169.901C283.1 169.671 283.142 169.456 283.226 169.257C283.318 169.05 283.437 168.874 283.583 168.728C283.736 168.575 283.909 168.456 284.1 168.371C284.3 168.279 284.511 168.233 284.733 168.233C284.955 168.233 285.166 168.279 285.365 168.371C285.572 168.456 285.753 168.575 285.906 168.728C286.059 168.874 286.178 169.05 286.262 169.257C286.354 169.456 286.4 169.671 286.4 169.901ZM289.019 185.23V173.5H290.514C290.852 173.5 291.066 173.658 291.158 173.972L291.319 174.995C291.534 174.75 291.756 174.528 291.986 174.328C292.216 174.121 292.462 173.945 292.722 173.799C292.991 173.646 293.274 173.527 293.573 173.443C293.88 173.359 294.21 173.316 294.562 173.316C294.938 173.316 295.283 173.37 295.597 173.477C295.912 173.585 296.188 173.738 296.425 173.937C296.671 174.137 296.881 174.378 297.058 174.662C297.234 174.946 297.38 175.264 297.495 175.616C297.671 175.21 297.893 174.861 298.162 174.57C298.43 174.279 298.729 174.041 299.059 173.857C299.388 173.673 299.737 173.539 300.105 173.454C300.481 173.362 300.86 173.316 301.244 173.316C301.872 173.316 302.432 173.416 302.923 173.615C303.421 173.815 303.839 174.106 304.176 174.489C304.521 174.865 304.782 175.329 304.958 175.881C305.135 176.433 305.223 177.062 305.223 177.767V185.23H302.75V177.767C302.75 176.939 302.57 176.318 302.21 175.904C301.857 175.482 301.332 175.271 300.634 175.271C300.32 175.271 300.025 175.325 299.749 175.432C299.473 175.54 299.231 175.697 299.024 175.904C298.817 176.111 298.652 176.372 298.53 176.686C298.415 176.993 298.357 177.353 298.357 177.767V185.23H295.885V177.767C295.885 176.908 295.712 176.28 295.367 175.881C295.022 175.475 294.516 175.271 293.849 175.271C293.389 175.271 292.964 175.39 292.573 175.628C292.182 175.858 291.821 176.176 291.492 176.582V185.23H289.019ZM310.687 173.5V185.23H308.214V173.5H310.687ZM311.101 169.958C311.101 170.181 311.055 170.392 310.963 170.591C310.879 170.79 310.76 170.967 310.606 171.12C310.453 171.266 310.273 171.384 310.066 171.476C309.867 171.561 309.652 171.603 309.422 171.603C309.2 171.603 308.989 171.561 308.789 171.476C308.598 171.384 308.429 171.266 308.283 171.12C308.138 170.967 308.019 170.79 307.927 170.591C307.843 170.392 307.8 170.181 307.8 169.958C307.8 169.728 307.843 169.514 307.927 169.314C308.019 169.115 308.138 168.943 308.283 168.797C308.429 168.644 308.598 168.525 308.789 168.44C308.989 168.348 309.2 168.302 309.422 168.302C309.652 168.302 309.867 168.348 310.066 168.44C310.273 168.525 310.453 168.644 310.606 168.797C310.76 168.943 310.879 169.115 310.963 169.314C311.055 169.514 311.101 169.728 311.101 169.958ZM322.062 174.535C322.062 174.712 322.031 174.884 321.97 175.053C321.916 175.222 321.836 175.363 321.729 175.478L315.783 183.31H321.867V185.23H312.92V184.195C312.92 184.08 312.946 183.942 313 183.781C313.054 183.62 313.134 183.467 313.242 183.321L319.233 175.421H313.265V173.5H322.062V174.535ZM331.774 178.043C331.774 177.629 331.713 177.246 331.59 176.893C331.475 176.533 331.303 176.222 331.073 175.961C330.843 175.693 330.555 175.486 330.21 175.34C329.873 175.187 329.482 175.11 329.037 175.11C328.14 175.11 327.435 175.367 326.921 175.881C326.408 176.395 326.082 177.115 325.944 178.043H331.774ZM325.875 179.561C325.905 180.228 326.009 180.807 326.185 181.297C326.362 181.78 326.595 182.183 326.887 182.505C327.186 182.827 327.538 183.068 327.945 183.229C328.359 183.383 328.819 183.459 329.325 183.459C329.808 183.459 330.226 183.406 330.578 183.298C330.931 183.183 331.238 183.061 331.498 182.93C331.759 182.792 331.981 182.67 332.165 182.562C332.349 182.447 332.518 182.39 332.671 182.39C332.871 182.39 333.024 182.467 333.131 182.62L333.833 183.528C333.541 183.873 333.212 184.165 332.844 184.402C332.476 184.64 332.085 184.836 331.671 184.989C331.257 185.135 330.831 185.238 330.394 185.299C329.957 185.368 329.532 185.403 329.118 185.403C328.305 185.403 327.55 185.269 326.852 185C326.162 184.724 325.56 184.322 325.047 183.793C324.541 183.264 324.142 182.608 323.851 181.826C323.567 181.044 323.425 180.144 323.425 179.124C323.425 178.311 323.552 177.552 323.805 176.847C324.065 176.142 324.433 175.528 324.909 175.007C325.392 174.486 325.974 174.075 326.657 173.776C327.347 173.47 328.125 173.316 328.991 173.316C329.712 173.316 330.379 173.435 330.992 173.673C331.606 173.903 332.135 174.244 332.579 174.696C333.024 175.149 333.369 175.705 333.614 176.364C333.867 177.016 333.994 177.759 333.994 178.595C333.994 178.978 333.952 179.235 333.867 179.365C333.783 179.496 333.63 179.561 333.407 179.561H325.875Z" fill="#1C1F25"/>
</g>
</g>
<g filter="url(#filter7_b_1620_10410)">
<path d="M330.6 241.33C331.095 243.635 332.895 245.435 335.2 245.93C332.895 246.425 331.095 248.225 330.6 250.53C330.105 248.225 328.305 246.425 326 245.93C328.305 245.435 330.105 243.635 330.6 241.33Z" fill="url(#paint7_linear_1620_10410)"/>
</g>
<g filter="url(#filter8_b_1620_10410)">
<path d="M347.653 247.621C348.648 256.381 354.687 263.744 363.083 266.433C354.323 267.428 346.96 273.467 344.271 281.864C343.276 273.103 337.237 265.74 328.84 263.051C337.601 262.056 344.964 256.017 347.653 247.621Z" fill="url(#paint8_linear_1620_10410)"/>
</g>
<g filter="url(#filter9_b_1620_10410)">
<path d="M24.7594 336.139C26.8608 335.071 28.1408 332.87 28.0297 330.515C29.0976 332.617 31.2986 333.897 33.6533 333.786C31.5518 334.854 30.2719 337.055 30.383 339.409C29.315 337.308 27.114 336.028 24.7594 336.139Z" fill="url(#paint9_linear_1620_10410)"/>
</g>
<g filter="url(#filter10_b_1620_10410)">
<path d="M26.4796 318.045C34.6939 314.842 40.267 307.12 40.719 298.315C43.9217 306.53 51.6434 312.103 60.4484 312.555C52.2341 315.758 46.661 323.479 46.209 332.284C43.0064 324.07 35.2846 318.497 26.4796 318.045Z" fill="url(#paint10_linear_1620_10410)"/>
</g>
</g>
<defs>
<filter id="filter0_b_1620_10410" x="427.3" y="231.48" width="27.6002" height="27.5992" filterUnits="userSpaceOnUse" color-interpolation-filters="sRGB">
<feFlood flood-opacity="0" result="BackgroundImageFix"/>
<feGaussianBlur in="BackgroundImageFix" stdDeviation="4.6"/>
<feComposite in2="SourceAlpha" operator="in" result="effect1_backgroundBlur_1620_10410"/>
<feBlend mode="normal" in="SourceGraphic" in2="effect1_backgroundBlur_1620_10410" result="shape"/>
</filter>
<filter id="filter1_b_1620_10410" x="430.141" y="237.771" width="52.6432" height="52.6422" filterUnits="userSpaceOnUse" color-interpolation-filters="sRGB">
<feFlood flood-opacity="0" result="BackgroundImageFix"/>
<feGaussianBlur in="BackgroundImageFix" stdDeviation="4.6"/>
<feComposite in2="SourceAlpha" operator="in" result="effect1_backgroundBlur_1620_10410"/>
<feBlend mode="normal" in="SourceGraphic" in2="effect1_backgroundBlur_1620_10410" result="shape"/>
</filter>
<filter id="filter2_b_1620_10410" x="-32.7" y="320.03" width="51.7501" height="51.7496" filterUnits="userSpaceOnUse" color-interpolation-filters="sRGB">
<feFlood flood-opacity="0" result="BackgroundImageFix"/>
<feGaussianBlur in="BackgroundImageFix" stdDeviation="4.6"/>
<feComposite in2="SourceAlpha" operator="in" result="effect1_backgroundBlur_1620_10410"/>
<feBlend mode="normal" in="SourceGraphic" in2="effect1_backgroundBlur_1620_10410" result="shape"/>
</filter>
<filter id="filter3_b_1620_10410" x="5.34951" y="86.6801" width="179.05" height="179.05" filterUnits="userSpaceOnUse" color-interpolation-filters="sRGB">
<feFlood flood-opacity="0" result="BackgroundImageFix"/>
<feGaussianBlur in="BackgroundImageFix" stdDeviation="6.325"/>
<feComposite in2="SourceAlpha" operator="in" result="effect1_backgroundBlur_1620_10410"/>
<feBlend mode="normal" in="SourceGraphic" in2="effect1_backgroundBlur_1620_10410" result="shape"/>
</filter>
<filter id="filter4_b_1620_10410" x="-9.60049" y="71.7301" width="208.95" height="208.95" filterUnits="userSpaceOnUse" color-interpolation-filters="sRGB">
<feFlood flood-opacity="0" result="BackgroundImageFix"/>
<feGaussianBlur in="BackgroundImageFix" stdDeviation="13.8"/>
<feComposite in2="SourceAlpha" operator="in" result="effect1_backgroundBlur_1620_10410"/>
<feBlend mode="normal" in="SourceGraphic" in2="effect1_backgroundBlur_1620_10410" result="shape"/>
</filter>
<filter id="filter5_b_1620_10410" x="13.2545" y="94.5855" width="163.241" height="163.241" filterUnits="userSpaceOnUse" color-interpolation-filters="sRGB">
<feFlood flood-opacity="0" result="BackgroundImageFix"/>
<feGaussianBlur in="BackgroundImageFix" stdDeviation="13.8"/>
<feComposite in2="SourceAlpha" operator="in" result="effect1_backgroundBlur_1620_10410"/>
<feBlend mode="normal" in="SourceGraphic" in2="effect1_backgroundBlur_1620_10410" result="shape"/>
</filter>
<filter id="filter6_b_1620_10410" x="63.7164" y="134.08" width="302.9" height="84.2996" filterUnits="userSpaceOnUse" color-interpolation-filters="sRGB">
<feFlood flood-opacity="0" result="BackgroundImageFix"/>
<feGaussianBlur in="BackgroundImageFix" stdDeviation="5.175"/>
<feComposite in2="SourceAlpha" operator="in" result="effect1_backgroundBlur_1620_10410"/>
<feBlend mode="normal" in="SourceGraphic" in2="effect1_backgroundBlur_1620_10410" result="shape"/>
</filter>
<filter id="filter7_b_1620_10410" x="316.8" y="232.13" width="27.6002" height="27.5992" filterUnits="userSpaceOnUse" color-interpolation-filters="sRGB">
<feFlood flood-opacity="0" result="BackgroundImageFix"/>
<feGaussianBlur in="BackgroundImageFix" stdDeviation="4.6"/>
<feComposite in2="SourceAlpha" operator="in" result="effect1_backgroundBlur_1620_10410"/>
<feBlend mode="normal" in="SourceGraphic" in2="effect1_backgroundBlur_1620_10410" result="shape"/>
</filter>
<filter id="filter8_b_1620_10410" x="319.64" y="238.421" width="52.6432" height="52.6422" filterUnits="userSpaceOnUse" color-interpolation-filters="sRGB">
<feFlood flood-opacity="0" result="BackgroundImageFix"/>
<feGaussianBlur in="BackgroundImageFix" stdDeviation="4.6"/>
<feComposite in2="SourceAlpha" operator="in" result="effect1_backgroundBlur_1620_10410"/>
<feBlend mode="normal" in="SourceGraphic" in2="effect1_backgroundBlur_1620_10410" result="shape"/>
</filter>
<filter id="filter9_b_1620_10410" x="15.5593" y="321.316" width="27.294" height="27.2945" filterUnits="userSpaceOnUse" color-interpolation-filters="sRGB">
<feFlood flood-opacity="0" result="BackgroundImageFix"/>
<feGaussianBlur in="BackgroundImageFix" stdDeviation="4.6"/>
<feComposite in2="SourceAlpha" operator="in" result="effect1_backgroundBlur_1620_10410"/>
<feBlend mode="normal" in="SourceGraphic" in2="effect1_backgroundBlur_1620_10410" result="shape"/>
</filter>
<filter id="filter10_b_1620_10410" x="17.2795" y="289.114" width="52.3687" height="52.3707" filterUnits="userSpaceOnUse" color-interpolation-filters="sRGB">
<feFlood flood-opacity="0" result="BackgroundImageFix"/>
<feGaussianBlur in="BackgroundImageFix" stdDeviation="4.6"/>
<feComposite in2="SourceAlpha" operator="in" result="effect1_backgroundBlur_1620_10410"/>
<feBlend mode="normal" in="SourceGraphic" in2="effect1_backgroundBlur_1620_10410" result="shape"/>
</filter>
<linearGradient id="paint0_linear_1620_10410" x1="-212.939" y1="541.822" x2="-130.663" y2="-155.159" gradientUnits="userSpaceOnUse">
<stop stop-color="white" stop-opacity="0.01"/>
<stop offset="0.177083" stop-color="white"/>
<stop offset="1" stop-color="white" stop-opacity="0.01"/>
</linearGradient>
<radialGradient id="paint1_radial_1620_10410" cx="0" cy="0" r="1" gradientUnits="userSpaceOnUse" gradientTransform="translate(194.841 1384.62) rotate(180) scale(1292.25 1226.4)">
<stop stop-color="#EDECF3"/>
<stop offset="1" stop-color="#E6E5F5" stop-opacity="0.01"/>
</radialGradient>
<linearGradient id="paint2_linear_1620_10410" x1="254.807" y1="648.18" x2="428.365" y2="-75.8864" gradientUnits="userSpaceOnUse">
<stop stop-color="white" stop-opacity="0.01"/>
<stop offset="0.0375866" stop-color="white" stop-opacity="0.615533"/>
<stop offset="0.0805049" stop-color="white" stop-opacity="0.767526"/>
<stop offset="0.146149" stop-color="white"/>
<stop offset="0.747659" stop-color="white"/>
<stop offset="0.842081" stop-color="white" stop-opacity="0.852977"/>
<stop offset="0.896184" stop-color="white" stop-opacity="0.768733"/>
<stop offset="0.927591" stop-color="white" stop-opacity="0.144475"/>
<stop offset="1" stop-color="white" stop-opacity="0.01"/>
</linearGradient>
<linearGradient id="paint3_linear_1620_10410" x1="-209.372" y1="511.159" x2="-156.322" y2="-22.1597" gradientUnits="userSpaceOnUse">
<stop stop-color="white" stop-opacity="0.01"/>
<stop offset="0.177083" stop-color="white"/>
<stop offset="1" stop-color="white" stop-opacity="0.01"/>
</linearGradient>
<linearGradient id="paint4_linear_1620_10410" x1="439.632" y1="240.873" x2="439.632" y2="249.72" gradientUnits="userSpaceOnUse">
<stop stop-color="white" stop-opacity="0.83"/>
<stop offset="1" stop-color="white" stop-opacity="0.21"/>
</linearGradient>
<linearGradient id="paint5_linear_1620_10410" x1="452.617" y1="247.15" x2="449.365" y2="280.079" gradientUnits="userSpaceOnUse">
<stop stop-color="white" stop-opacity="0.83"/>
<stop offset="1" stop-color="white" stop-opacity="0.21"/>
</linearGradient>
<linearGradient id="paint6_linear_1620_10410" x1="-12.1475" y1="329.931" x2="-12.1475" y2="362.002" gradientUnits="userSpaceOnUse">
<stop stop-color="white" stop-opacity="0.83"/>
<stop offset="1" stop-color="white" stop-opacity="0.21"/>
</linearGradient>
<linearGradient id="paint7_linear_1620_10410" x1="329.132" y1="241.523" x2="329.132" y2="250.37" gradientUnits="userSpaceOnUse">
<stop stop-color="white" stop-opacity="0.83"/>
<stop offset="1" stop-color="white" stop-opacity="0.21"/>
</linearGradient>
<linearGradient id="paint8_linear_1620_10410" x1="342.117" y1="247.8" x2="338.865" y2="280.73" gradientUnits="userSpaceOnUse">
<stop stop-color="white" stop-opacity="0.83"/>
<stop offset="1" stop-color="white" stop-opacity="0.21"/>
</linearGradient>
<linearGradient id="paint9_linear_1620_10410" x1="25.3217" y1="337.509" x2="33.8745" y2="335.246" gradientUnits="userSpaceOnUse">
<stop stop-color="white" stop-opacity="0.83"/>
<stop offset="1" stop-color="white" stop-opacity="0.21"/>
</linearGradient>
<linearGradient id="paint10_linear_1620_10410" x1="28.0692" y1="323.351" x2="60.7352" y2="318.071" gradientUnits="userSpaceOnUse">
<stop stop-color="white" stop-opacity="0.83"/>
<stop offset="1" stop-color="white" stop-opacity="0.21"/>
</linearGradient>
<clipPath id="clip0_1620_10410">
<rect y="0.330078" width="445" height="405" rx="24" fill="white"/>
</clipPath>
<clipPath id="clip1_1620_10410">
<rect width="1297.2" height="552" fill="white" transform="translate(-426 0.330078)"/>
</clipPath>
</defs>
</svg>
