<svg width="475" height="494" viewBox="0 0 475 494" fill="none" xmlns="http://www.w3.org/2000/svg">
<rect x="21" y="21" width="433" height="451.126" rx="8.9053" fill="white"/>
<rect x="10.5" y="10.5" width="454" height="472.126" rx="19.4053" stroke="url(#paint0_linear_1620_10127)" stroke-opacity="0.32" stroke-width="21"/>
<rect x="58" y="63" width="230" height="20" rx="10" fill="#E5E8F0"/>
<rect x="58" y="89.6387" width="160" height="12" rx="6" fill="#E5E8F0"/>
<path d="M64.6055 132.377L410.804 132.377" stroke="#E5E8F0" stroke-width="0.484748"/>
<rect x="136" y="426" width="8" height="8" rx="4" fill="#FFD082"/>
<rect x="148.848" y="426" width="53" height="8" rx="4" fill="#E5E8F0"/>
<rect x="213.481" y="426" width="8" height="8" rx="4" fill="#B59DF9"/>
<rect x="226.329" y="426" width="53" height="8" rx="4" fill="#E5E8F0"/>
<rect x="290.963" y="426" width="8" height="8" rx="4" fill="#FDAED0"/>
<rect x="303.811" y="426" width="53" height="8" rx="4" fill="#E5E8F0"/>
<rect x="44" y="176.863" width="26" height="7" rx="3.5" fill="#E5E8F0"/>
<rect x="44" y="203.863" width="26" height="7" rx="3.5" fill="#E5E8F0"/>
<rect x="44" y="230.863" width="26" height="7" rx="3.5" fill="#E5E8F0"/>
<rect x="44" y="257.863" width="26" height="7" rx="3.5" fill="#E5E8F0"/>
<rect x="44" y="284.863" width="26" height="7" rx="3.5" fill="#E5E8F0"/>
<rect x="44" y="311.863" width="26" height="7" rx="3.5" fill="#E5E8F0"/>
<rect x="44" y="338.863" width="26" height="7" rx="3.5" fill="#E5E8F0"/>
<rect x="92.4946" y="370.211" width="41" height="8" rx="4" fill="#E5E8F0"/>
<rect x="146.216" y="370.211" width="41" height="8" rx="4" fill="#E5E8F0"/>
<rect x="199.938" y="370.211" width="41" height="8" rx="4" fill="#E5E8F0"/>
<rect x="253.66" y="370.211" width="41" height="8" rx="4" fill="#E5E8F0"/>
<rect x="307.382" y="370.211" width="41" height="8" rx="4" fill="#E5E8F0"/>
<rect x="361.104" y="370.211" width="41" height="8" rx="4" fill="#E5E8F0"/>
<rect x="89.0485" y="176.242" width="340.286" height="184.256" stroke="#E5E8F0" stroke-width="0.484748"/>
<path d="M88.8062 236.844H429.577" stroke="#E5E8F0" stroke-width="0.484748"/>
<path d="M88.8062 206.975H429.577" stroke="#E5E8F0" stroke-width="0.484748"/>
<path d="M88.8062 266.711H429.577" stroke="#E5E8F0" stroke-width="0.484748"/>
<path d="M88.8062 296.58H429.577" stroke="#E5E8F0" stroke-width="0.484748"/>
<path d="M88.8062 326.447H429.577" stroke="#E5E8F0" stroke-width="0.484748"/>
<path d="M146.133 176L146.133 360.741" stroke="#E5E8F0" stroke-width="0.484748"/>
<path d="M202.396 176L202.396 360.741" stroke="#E5E8F0" stroke-width="0.484748"/>
<path d="M258.661 176L258.661 360.741" stroke="#E5E8F0" stroke-width="0.484748"/>
<path d="M314.926 176L314.926 360.741" stroke="#E5E8F0" stroke-width="0.484748"/>
<path d="M371.19 176L371.19 360.741" stroke="#E5E8F0" stroke-width="0.484748"/>
<path d="M89.3359 206.974V266.71H315.455L258.129 177.105L202.395 206.974L146.131 236.289L89.3359 206.974Z" fill="#FFD082"/>
<path d="M370.659 297.132L315.456 266.711H428.515V359.634L370.659 297.132Z" fill="#FFD082"/>
<ellipse cx="89.3372" cy="297.132" rx="3.71557" ry="3.87181" fill="#B59DF9"/>
<ellipse cx="146.663" cy="237.397" rx="3.71557" ry="3.87181" fill="#B59DF9"/>
<ellipse cx="202.927" cy="297.132" rx="3.71557" ry="3.87181" fill="#B59DF9"/>
<ellipse cx="259.192" cy="325.895" rx="3.71557" ry="3.87181" fill="#B59DF9"/>
<ellipse cx="315.455" cy="237.397" rx="3.71557" ry="3.87181" fill="#B59DF9"/>
<ellipse cx="371.721" cy="207.528" rx="3.71557" ry="3.87181" fill="#B59DF9"/>
<ellipse cx="429.046" cy="237.397" rx="3.71557" ry="3.87181" fill="#B59DF9"/>
<path d="M89.3359 297.686L146.662 237.396L202.926 297.686L259.19 325.895L315.986 237.396L372.25 206.975L427.983 237.396" stroke="#B59DF9" stroke-width="0.969495"/>
<path d="M89.3359 266.711L146.131 296.579L203.988 266.711L258.129 233.524L313.332 206.975L371.188 236.843L428.514 266.711" stroke="#FDAED0" stroke-width="0.969495" stroke-dasharray="1.94 1.94"/>
<ellipse cx="89.3372" cy="267.264" rx="3.71557" ry="3.87181" fill="#FDAED0"/>
<ellipse cx="146.663" cy="297.132" rx="3.71557" ry="3.87181" fill="#FDAED0"/>
<ellipse cx="202.927" cy="267.264" rx="3.71557" ry="3.87181" fill="#FDAED0"/>
<ellipse cx="259.192" cy="232.971" rx="3.71557" ry="3.87181" fill="#FDAED0"/>
<ellipse cx="315.455" cy="207.528" rx="3.71557" ry="3.87181" fill="#FDAED0"/>
<ellipse cx="370.658" cy="237.397" rx="3.71557" ry="3.87181" fill="#FDAED0"/>
<ellipse cx="429.046" cy="267.264" rx="3.71557" ry="3.87181" fill="#FDAED0"/>
<defs>
<linearGradient id="paint0_linear_1620_10127" x1="249.292" y1="472.126" x2="249.292" y2="67.3745" gradientUnits="userSpaceOnUse">
<stop stop-color="#5F73F9" stop-opacity="0.46"/>
<stop offset="1" stop-color="#ABB5F8" stop-opacity="0.12"/>
</linearGradient>
</defs>
</svg>
