<svg width="19" height="19" viewBox="0 0 19 19" fill="none" xmlns="http://www.w3.org/2000/svg">
<path d="M0.849609 2.96986C0.849609 2.39265 1.05232 1.91645 1.45772 1.54129C1.86312 1.1661 2.39016 0.978516 3.0388 0.978516C3.67587 0.978516 4.1913 1.16321 4.58513 1.53263C4.99053 1.91358 5.19324 2.40996 5.19324 3.0218C5.19324 3.57592 4.99633 4.03767 4.6025 4.40709C4.19711 4.78804 3.66428 4.97851 3.00405 4.97851H2.98668C2.3496 4.97851 1.83417 4.78804 1.44034 4.40709C1.04651 4.02613 0.849609 3.54705 0.849609 2.96986ZM1.07548 18.1214V6.55427H4.93262V18.1214H1.07548ZM7.06969 18.1214H10.9268V11.6625C10.9268 11.2584 10.9732 10.9468 11.0658 10.7274C11.228 10.3349 11.4741 10.003 11.8042 9.73176C12.1344 9.46047 12.5484 9.32483 13.0465 9.32483C14.3438 9.32483 14.9925 10.1964 14.9925 11.9396V18.1214H18.8496V11.4893C18.8496 9.78082 18.4442 8.48501 17.6334 7.60189C16.8226 6.71877 15.7512 6.27721 14.4191 6.27721C12.9249 6.27721 11.7608 6.91791 10.9268 8.19929V8.23392H10.9095L10.9268 8.19929V6.55427H7.06969C7.09285 6.92367 7.10444 8.0723 7.10444 10.0002C7.10444 11.928 7.09285 14.6351 7.06969 18.1214Z" fill="#5B70AF"/>
</svg>
