<svg width="19" height="16" viewBox="0 0 19 16" fill="none" xmlns="http://www.w3.org/2000/svg">
<path d="M12.8767 0.751289V0.748047H13.7207L14.029 0.809639C14.2346 0.849625 14.4213 0.902027 14.589 0.96686C14.7567 1.03169 14.9191 1.10734 15.0759 1.19378C15.2328 1.28022 15.3751 1.36829 15.5028 1.45798C15.6294 1.54659 15.743 1.6406 15.8437 1.74C15.9432 1.84049 16.0985 1.86643 16.3095 1.8178C16.5205 1.76918 16.7477 1.70164 16.9912 1.6152C17.2346 1.52876 17.4754 1.43151 17.7135 1.32345C17.9515 1.21538 18.0965 1.14677 18.1485 1.1176C18.1993 1.08735 18.2264 1.07115 18.2296 1.06897L18.2328 1.06411L18.2491 1.05601L18.2653 1.0479L18.2815 1.0398L18.2978 1.03169L18.301 1.02683L18.3059 1.02359L18.3108 1.02035L18.314 1.01549L18.3302 1.01062L18.3465 1.00738L18.3432 1.03169L18.3383 1.05601L18.3302 1.08032L18.3221 1.10463L18.314 1.12084L18.3059 1.13705L18.2978 1.16136C18.2924 1.17757 18.287 1.19918 18.2815 1.22619C18.2761 1.25321 18.2247 1.36126 18.1273 1.55036C18.03 1.73947 17.9082 1.93126 17.7621 2.12576C17.6161 2.32026 17.4851 2.46721 17.3694 2.56663C17.2525 2.66712 17.1751 2.73735 17.1373 2.77734C17.0994 2.8184 17.0534 2.85621 16.9993 2.8908L16.9181 2.94429L16.9019 2.95239L16.8857 2.96049L16.8824 2.96536L16.8776 2.9686L16.8727 2.97184L16.8694 2.9767L16.8532 2.98481L16.837 2.99291L16.8338 2.99777L16.8289 3.00102L16.824 3.00426L16.8208 3.00912L16.8175 3.01398L16.8126 3.01722L16.8078 3.02047L16.8045 3.02533H16.8857L17.3401 2.92808C17.6431 2.86324 17.9326 2.78491 18.2085 2.69306L18.6467 2.54718L18.6954 2.53097L18.7198 2.52287L18.736 2.51476L18.7522 2.50666L18.7685 2.49855L18.7847 2.49045L18.8171 2.48559L18.8496 2.48235V2.51476L18.8415 2.51801L18.8334 2.52287L18.8301 2.52773L18.8253 2.53097L18.8204 2.53421L18.8171 2.53908L18.8139 2.54394L18.809 2.54718L18.8042 2.55042L18.8009 2.55528L18.7977 2.56015L18.7928 2.56339L18.7847 2.5796L18.7766 2.59581L18.7717 2.59905C18.7695 2.60229 18.7008 2.69413 18.5656 2.87459C18.4303 3.05612 18.3573 3.14796 18.3465 3.15013C18.3356 3.15337 18.3205 3.16958 18.301 3.19876C18.2826 3.229 18.1679 3.3495 17.9569 3.56021C17.7459 3.77092 17.5393 3.95838 17.3369 4.12264C17.1335 4.28796 17.0307 4.4911 17.0285 4.73207C17.0253 4.97196 17.0128 5.24319 16.9912 5.54574C16.9695 5.8483 16.929 6.17516 16.8694 6.52634C16.8099 6.87753 16.718 7.27464 16.5935 7.71766C16.4691 8.16069 16.3176 8.59292 16.1391 9.01434C15.9605 9.43575 15.7739 9.81394 15.5791 10.1489C15.3843 10.4839 15.2058 10.7676 15.0435 10.9999C14.8812 11.2322 14.7162 11.451 14.5484 11.6563C14.3807 11.8616 14.1687 12.0929 13.9122 12.35C13.6547 12.6061 13.514 12.7466 13.4902 12.7714C13.4653 12.7952 13.3593 12.8838 13.1721 13.0373C12.986 13.1918 12.7858 13.3463 12.5715 13.5008C12.3584 13.6543 12.1625 13.7823 11.984 13.885C11.8054 13.9876 11.5901 14.1048 11.338 14.2367C11.087 14.3696 10.8153 14.4928 10.5232 14.6062C10.231 14.7197 9.92265 14.825 9.59803 14.9223C9.27341 15.0196 8.95962 15.0952 8.65664 15.1492C8.35368 15.2032 8.01012 15.2492 7.62598 15.287L7.04979 15.3437V15.3518H5.99479V15.3437L5.85682 15.3356C5.76486 15.3302 5.68911 15.3248 5.62959 15.3194C5.57009 15.314 5.34555 15.2843 4.95601 15.2303C4.56647 15.1762 4.2608 15.1222 4.03897 15.0682C3.81716 15.0142 3.48712 14.9115 3.04889 14.7602C2.61066 14.6089 2.23572 14.456 1.92409 14.3015C1.61355 14.1481 1.41878 14.0508 1.33978 14.0098C1.26187 13.9698 1.17423 13.9201 1.07684 13.8606L0.930764 13.7715L0.927534 13.7666L0.922648 13.7634L0.917779 13.7602L0.914533 13.7553L0.898302 13.7472L0.882071 13.7391L0.878841 13.7342L0.873956 13.731L0.869086 13.7277L0.86584 13.7229L0.86261 13.718L0.857725 13.7148H0.849609V13.6824L0.86584 13.6856L0.882071 13.6905L0.95511 13.6986C1.0038 13.704 1.13636 13.7121 1.35277 13.7229C1.56919 13.7337 1.79911 13.7337 2.04258 13.7229C2.28604 13.7121 2.53492 13.6878 2.78919 13.6499C3.04348 13.6121 3.34375 13.5473 3.69001 13.4554C4.03627 13.3636 4.3544 13.2545 4.6444 13.128C4.9333 13.0005 5.13888 12.9054 5.26117 12.8428C5.38235 12.7812 5.56738 12.6666 5.81625 12.4991L6.18956 12.2479L6.1928 12.2431L6.19767 12.2398L6.20256 12.2366L6.20579 12.2317L6.20903 12.2268L6.2139 12.2236L6.21879 12.2204L6.22202 12.2155L6.23825 12.2106L6.25448 12.2074L6.25772 12.1912L6.26259 12.175L6.26748 12.1717L6.27071 12.1669L6.14086 12.1588C6.0543 12.1534 5.97044 12.148 5.88928 12.1426C5.80813 12.1372 5.68099 12.1128 5.50786 12.0696C5.33474 12.0264 5.14809 11.9616 4.9479 11.8751C4.74772 11.7887 4.55295 11.686 4.36359 11.5672C4.17424 11.4483 4.03735 11.3494 3.95295 11.2705C3.86963 11.1927 3.76142 11.0825 3.62833 10.9399C3.49632 10.7962 3.38162 10.6487 3.28424 10.4974C3.18685 10.3461 3.0938 10.1716 3.00508 9.97387L2.87035 9.67888L2.86223 9.65457L2.85412 9.63025L2.84925 9.61405L2.846 9.59784L2.87035 9.60108L2.8947 9.60594L3.07323 9.63025C3.19227 9.64646 3.37893 9.65186 3.6332 9.64646C3.88749 9.64107 4.06332 9.63025 4.1607 9.61405C4.25809 9.59784 4.3176 9.58703 4.33924 9.58163L4.3717 9.57353L4.41228 9.56542L4.45286 9.55732L4.4561 9.55245L4.46097 9.54921L4.46586 9.54597L4.46909 9.54111L4.43662 9.533L4.40416 9.5249L4.3717 9.5168L4.33924 9.50869L4.30678 9.50059C4.28514 9.49519 4.24728 9.48438 4.19316 9.46817C4.13906 9.45196 3.99299 9.39253 3.75493 9.28988C3.51689 9.18723 3.32752 9.08727 3.18685 8.99002C3.04583 8.89249 2.91137 8.78583 2.78433 8.67072C2.65772 8.55402 2.51869 8.40381 2.36719 8.22012C2.21571 8.03643 2.08046 7.82302 1.96142 7.57989C1.8424 7.33676 1.75313 7.10445 1.69361 6.88293C1.63433 6.66271 1.59522 6.43757 1.57677 6.21028L1.54754 5.8699L1.56377 5.87315L1.58 5.87801L1.59623 5.88611L1.61246 5.89422L1.62869 5.90232L1.64492 5.91043L1.8965 6.02388C2.06423 6.09953 2.27252 6.16436 2.52139 6.21838C2.77027 6.27241 2.91904 6.30213 2.96773 6.30753L3.04077 6.31564H3.18685L3.18362 6.31077L3.17873 6.30753L3.17387 6.30429L3.17062 6.29943L3.16739 6.29456L3.1625 6.29132L3.15763 6.28808L3.15439 6.28322L3.13816 6.27511L3.12193 6.26701L3.1187 6.26215L3.11381 6.25891L3.10894 6.25566L3.1057 6.2508L3.08947 6.2427L3.07323 6.23459L3.07 6.22973C3.06676 6.22756 3.02022 6.19299 2.9304 6.126C2.84167 6.05792 2.74862 5.96986 2.65123 5.8618C2.55385 5.75374 2.45646 5.64028 2.35908 5.52142C2.26151 5.40229 2.17461 5.27484 2.09938 5.14053C2.02365 5.00546 1.94357 4.83364 1.85917 4.6251C1.77585 4.41763 1.71255 4.20854 1.66927 3.99783C1.626 3.78712 1.60165 3.57912 1.59623 3.37381C1.59082 3.1685 1.59623 2.99291 1.61246 2.84704C1.62869 2.70116 1.66115 2.53637 1.70984 2.35268C1.75854 2.16899 1.82888 1.97449 1.92084 1.76918L2.05881 1.46122L2.06692 1.4369L2.07504 1.41259L2.07992 1.40935L2.08315 1.40449L2.0864 1.39962L2.09127 1.39638L2.09615 1.39962L2.09938 1.40449L2.10263 1.40935L2.1075 1.41259L2.11238 1.41583L2.11561 1.4207L2.11886 1.42556L2.12373 1.4288L2.13185 1.44501L2.13996 1.46122L2.14485 1.46446L2.14808 1.46932L2.36719 1.71245C2.51327 1.87453 2.6864 2.05553 2.88658 2.25543C3.08677 2.45533 3.19768 2.55906 3.21931 2.56663C3.24096 2.57527 3.268 2.60012 3.30047 2.64119C3.33293 2.68118 3.44114 2.7768 3.62508 2.92808C3.80904 3.07935 4.0498 3.25495 4.34736 3.45485C4.64493 3.65475 4.97495 3.85196 5.33744 4.04646C5.69994 4.24096 6.08948 4.41654 6.50606 4.57323C6.92265 4.72992 7.21481 4.83257 7.38252 4.88119C7.55025 4.92982 7.83699 4.99194 8.24276 5.06759C8.64853 5.14323 8.95422 5.19186 9.1598 5.21346C9.36539 5.23507 9.50607 5.2475 9.5818 5.25074L9.69542 5.25398L9.69219 5.22967L9.6873 5.20536L9.65484 5.00275C9.6332 4.86769 9.62238 4.67859 9.62238 4.43546C9.62238 4.19233 9.64132 3.96812 9.67919 3.76281C9.71707 3.5575 9.77388 3.3495 9.84961 3.13879C9.92536 2.92808 9.99949 2.75896 10.072 2.63146C10.1456 2.50504 10.2419 2.36078 10.3609 2.1987C10.4799 2.03662 10.6341 1.86913 10.8235 1.69624C11.0128 1.52334 11.2292 1.36936 11.4727 1.2343C11.7162 1.09923 11.9407 0.99657 12.1463 0.926339C12.3519 0.856108 12.525 0.810174 12.6657 0.788568C12.8063 0.766962 12.8767 0.75453 12.8767 0.751289Z" fill="#5B70AF"/>
</svg>
