<svg width="21" height="16" viewBox="0 0 21 16" fill="none" xmlns="http://www.w3.org/2000/svg">
<path d="M11.2879 15.029L7.22568 14.9531C5.91044 14.9266 4.59191 14.9794 3.30246 14.7053C1.34089 14.2958 1.20193 12.2879 1.05652 10.6037C0.856153 8.23585 0.933719 5.82503 1.31183 3.47696C1.52528 2.15944 2.36532 1.37327 3.6644 1.28772C8.04975 0.977245 12.4643 1.01404 16.8399 1.15889C17.302 1.17217 17.7673 1.24474 18.223 1.32735C20.4723 1.73027 20.5271 4.00567 20.673 5.92112C20.8184 7.85635 20.757 9.8015 20.479 11.7235C20.2561 13.3149 19.8295 14.6495 18.0291 14.7783C15.7733 14.9468 13.5693 15.0824 11.3072 15.0392C11.3073 15.029 11.2943 15.029 11.2879 15.029ZM8.8997 11C10.5996 10.0026 12.2671 9.02182 13.9573 8.0311C12.2542 7.03369 10.5899 6.0529 8.8997 5.06217V11Z" fill="#5B70AF"/>
</svg>
