<svg width="40" height="40" viewBox="0 0 40 40" fill="none" xmlns="http://www.w3.org/2000/svg">
<path opacity="0.2" d="M33.75 7.5V25H28.0172C27.853 24.9999 27.6904 25.0321 27.5386 25.0948C27.3869 25.1576 27.249 25.2496 27.1328 25.3656L24.1156 28.3844C23.9995 28.5004 23.8616 28.5924 23.7098 28.6552C23.5581 28.7179 23.3954 28.7501 23.2312 28.75H16.7672C16.603 28.7501 16.4404 28.7179 16.2886 28.6552C16.1369 28.5924 15.999 28.5004 15.8828 28.3844L12.8656 25.3656C12.7495 25.2496 12.6116 25.1576 12.4598 25.0948C12.3081 25.0321 12.1455 24.9999 11.9812 25H6.25V7.5C6.25 7.16848 6.3817 6.85054 6.61612 6.61612C6.85054 6.3817 7.16848 6.25 7.5 6.25H32.5C32.8315 6.25 33.1495 6.3817 33.3839 6.61612C33.6183 6.85054 33.75 7.16848 33.75 7.5Z" fill="#5B70AF"/>
<path d="M32.5 5H7.5C6.83696 5 6.20107 5.26339 5.73223 5.73223C5.26339 6.20107 5 6.83696 5 7.5V32.5C5 33.163 5.26339 33.7989 5.73223 34.2678C6.20107 34.7366 6.83696 35 7.5 35H32.5C33.163 35 33.7989 34.7366 34.2678 34.2678C34.7366 33.7989 35 33.163 35 32.5V7.5C35 6.83696 34.7366 6.20107 34.2678 5.73223C33.7989 5.26339 33.163 5 32.5 5ZM32.5 7.5V23.75H28.0156C27.6875 23.7492 27.3624 23.8135 27.0593 23.9393C26.7562 24.0651 26.4811 24.2498 26.25 24.4828L23.2328 27.5H16.7672L13.75 24.4812C13.5184 24.2486 13.243 24.0642 12.9396 23.9386C12.6363 23.8131 12.3111 23.749 11.9828 23.75H7.5V7.5H32.5ZM32.5 32.5H7.5V26.25H11.9828L15 29.2688C15.2316 29.5014 15.507 29.6858 15.8104 29.8114C16.1137 29.9369 16.4389 30.001 16.7672 30H23.2328C23.5612 30.001 23.8866 29.9368 24.19 29.811C24.4934 29.6852 24.7687 29.5003 25 29.2672L28.0172 26.25H32.5V32.5ZM14.1156 19.6344C13.8811 19.3998 13.7493 19.0817 13.7493 18.75C13.7493 18.4183 13.8811 18.1002 14.1156 17.8656C14.3502 17.6311 14.6683 17.4993 15 17.4993C15.3317 17.4993 15.6498 17.6311 15.8844 17.8656L18.75 20.7328V11.25C18.75 10.9185 18.8817 10.6005 19.1161 10.3661C19.3505 10.1317 19.6685 10 20 10C20.3315 10 20.6495 10.1317 20.8839 10.3661C21.1183 10.6005 21.25 10.9185 21.25 11.25V20.7328L24.1156 17.8656C24.2318 17.7495 24.3696 17.6574 24.5214 17.5945C24.6731 17.5317 24.8358 17.4993 25 17.4993C25.1642 17.4993 25.3269 17.5317 25.4786 17.5945C25.6304 17.6574 25.7682 17.7495 25.8844 17.8656C26.0005 17.9818 26.0926 18.1196 26.1555 18.2714C26.2183 18.4231 26.2507 18.5858 26.2507 18.75C26.2507 18.9142 26.2183 19.0769 26.1555 19.2286C26.0926 19.3804 26.0005 19.5182 25.8844 19.6344L20.8844 24.6344C20.7683 24.7506 20.6304 24.8428 20.4787 24.9057C20.3269 24.9686 20.1643 25.001 20 25.001C19.8357 25.001 19.6731 24.9686 19.5213 24.9057C19.3696 24.8428 19.2317 24.7506 19.1156 24.6344L14.1156 19.6344Z" fill="#5B70AF"/>
</svg>
