<svg width="24" height="25" viewBox="0 0 24 25" fill="none" xmlns="http://www.w3.org/2000/svg">
<g clip-path="url(#clip0_1706_5456)">
<path opacity="0.3" d="M5 5.5H9V11.5H5V5.5ZM15 13.5H19V19.5H15V13.5ZM5 17.5H9V19.5H5V17.5ZM15 5.5H19V7.5H15V5.5Z" fill="#5B70AF"/>
<path d="M3 13.5H11V3.5H3V13.5ZM5 5.5H9V11.5H5V5.5ZM13 21.5H21V11.5H13V21.5ZM15 13.5H19V19.5H15V13.5ZM13 3.5V9.5H21V3.5H13ZM19 7.5H15V5.5H19V7.5ZM3 21.5H11V15.5H3V21.5ZM5 17.5H9V19.5H5V17.5Z" fill="#5B70AF"/>
</g>
<defs>
<clipPath id="clip0_1706_5456">
<rect width="24" height="24" fill="white" transform="translate(0 0.5)"/>
</clipPath>
</defs>
</svg>
