<svg xmlns="http://www.w3.org/2000/svg" width="40" height="41" viewBox="0 0 40 41" fill="none">
  <g clip-path="url(#clip0_1620_9526)">
    <path opacity="0.3" d="M15.2834 10.3301H6.66675V30.3301H33.3334V13.6634H18.6167L15.2834 10.3301Z" fill="#5B70AF"/>
    <path d="M33.3333 10.3294H19.9999L16.6666 6.99609H6.66659C4.83325 6.99609 3.34992 8.49609 3.34992 10.3294L3.33325 30.3294C3.33325 32.1628 4.83325 33.6628 6.66659 33.6628H33.3333C35.1666 33.6628 36.6666 32.1628 36.6666 30.3294V13.6628C36.6666 11.8294 35.1666 10.3294 33.3333 10.3294ZM33.3333 30.3294H6.66659V10.3294H15.2833L18.6166 13.6628H33.3333V30.3294ZM29.9999 20.3294H9.99992V16.9961H29.9999V20.3294ZM23.3333 26.9961H9.99992V23.6628H23.3333V26.9961Z" fill="#5B70AF"/>
  </g>
  <defs>
    <clipPath id="clip0_1620_9526">
      <rect width="40" height="40" fill="white" transform="translate(0 0.330078)"/>
    </clipPath>
  </defs>
</svg>