<svg width="57" height="40" viewBox="0 0 57 40" fill="none" xmlns="http://www.w3.org/2000/svg">
<g clip-path="url(#clip0_1620_8805)">
<path opacity="0.3" d="M22.0602 10H10.04V30H47.24V13.3333H26.7102L22.0602 10Z" fill="#5B70AF"/>
<path d="M47.24 9.99935H28.64L23.99 6.66602H10.04C7.48251 6.66602 5.41326 8.16602 5.41326 9.99935L5.39001 29.9993C5.39001 31.8327 7.48251 33.3327 10.04 33.3327H47.24C49.7975 33.3327 51.89 31.8327 51.89 29.9993V13.3327C51.89 11.4993 49.7975 9.99935 47.24 9.99935ZM47.24 29.9993H10.04V9.99935H22.0603L26.7103 13.3327H47.24V29.9993ZM42.59 19.9993H14.69V16.666H42.59V19.9993ZM33.29 26.666H14.69V23.3327H33.29V26.666Z" fill="#5B70AF"/>
</g>
<defs>
<clipPath id="clip0_1620_8805">
<rect width="55.8" height="40" fill="white" transform="translate(0.73999)"/>
</clipPath>
</defs>
</svg>
