<svg width="24" height="25" viewBox="0 0 24 25" fill="none" xmlns="http://www.w3.org/2000/svg">
<g clip-path="url(#clip0_1706_5561)">
<path opacity="0.3" d="M5 19.5H19V5.5H5V19.5ZM12 7.5H18V9.5H12V7.5ZM9 11.5H15V13.5H9V11.5ZM6 15.5H12V17.5H6V15.5Z" fill="#5B70AF"/>
<path d="M12 15.5H6V17.5H12V15.5Z" fill="#5B70AF"/>
<path d="M18 7.5H12V9.5H18V7.5Z" fill="#5B70AF"/>
<path d="M15 11.5H9V13.5H15V11.5Z" fill="#5B70AF"/>
<path d="M19 3.5H5C3.9 3.5 3 4.4 3 5.5V19.5C3 20.6 3.9 21.5 5 21.5H19C20.1 21.5 21 20.6 21 19.5V5.5C21 4.4 20.1 3.5 19 3.5ZM19 19.5H5V5.5H19V19.5Z" fill="#5B70AF"/>
</g>
<defs>
<clipPath id="clip0_1706_5561">
<rect width="24" height="24" fill="white" transform="translate(0 0.5)"/>
</clipPath>
</defs>
</svg>
