<svg width="39" height="38" viewBox="0 0 39 38" fill="none" xmlns="http://www.w3.org/2000/svg">
<rect x="0.5" width="38" height="38" rx="5" fill="#9FB4F3"/>
<path opacity="0.2" d="M28.5 12.25V23.5C28.5 23.6989 28.421 23.8897 28.2803 24.0303C28.1397 24.171 27.9489 24.25 27.75 24.25H11.25C11.0511 24.25 10.8603 24.171 10.7197 24.0303C10.579 23.8897 10.5 23.6989 10.5 23.5V12.25C10.5 12.0511 10.579 11.8603 10.7197 11.7197C10.8603 11.579 11.0511 11.5 11.25 11.5H27.75C27.9489 11.5 28.1397 11.579 28.2803 11.7197C28.421 11.8603 28.5 12.0511 28.5 12.25Z" fill="#F3F5FF"/>
<path d="M27.75 10.75H20.25V9.25C20.25 9.05109 20.171 8.86032 20.0303 8.71967C19.8897 8.57902 19.6989 8.5 19.5 8.5C19.3011 8.5 19.1103 8.57902 18.9697 8.71967C18.829 8.86032 18.75 9.05109 18.75 9.25V10.75H11.25C10.8522 10.75 10.4706 10.908 10.1893 11.1893C9.90804 11.4706 9.75 11.8522 9.75 12.25V23.5C9.75 23.8978 9.90804 24.2794 10.1893 24.5607C10.4706 24.842 10.8522 25 11.25 25H14.94L12.9141 27.5313C12.7897 27.6867 12.7322 27.8851 12.7542 28.0829C12.7762 28.2807 12.8758 28.4616 13.0312 28.5859C13.1867 28.7103 13.3851 28.7678 13.5829 28.7458C13.7807 28.7238 13.9616 28.6242 14.0859 28.4688L16.86 25H22.14L24.9141 28.4688C24.9756 28.5457 25.0517 28.6098 25.138 28.6573C25.2244 28.7048 25.3192 28.7349 25.4171 28.7458C25.5151 28.7567 25.6142 28.7481 25.7088 28.7207C25.8035 28.6933 25.8918 28.6475 25.9688 28.5859C26.0457 28.5244 26.1098 28.4483 26.1573 28.362C26.2048 28.2756 26.2349 28.1808 26.2458 28.0829C26.2567 27.9849 26.2481 27.8858 26.2207 27.7912C26.1933 27.6965 26.1475 27.6082 26.0859 27.5313L24.06 25H27.75C28.1478 25 28.5294 24.842 28.8107 24.5607C29.092 24.2794 29.25 23.8978 29.25 23.5V12.25C29.25 11.8522 29.092 11.4706 28.8107 11.1893C28.5294 10.908 28.1478 10.75 27.75 10.75ZM27.75 23.5H11.25V12.25H27.75V23.5ZM17.25 18.25V20.5C17.25 20.6989 17.171 20.8897 17.0303 21.0303C16.8897 21.171 16.6989 21.25 16.5 21.25C16.3011 21.25 16.1103 21.171 15.9697 21.0303C15.829 20.8897 15.75 20.6989 15.75 20.5V18.25C15.75 18.0511 15.829 17.8603 15.9697 17.7197C16.1103 17.579 16.3011 17.5 16.5 17.5C16.6989 17.5 16.8897 17.579 17.0303 17.7197C17.171 17.8603 17.25 18.0511 17.25 18.25ZM20.25 16.75V20.5C20.25 20.6989 20.171 20.8897 20.0303 21.0303C19.8897 21.171 19.6989 21.25 19.5 21.25C19.3011 21.25 19.1103 21.171 18.9697 21.0303C18.829 20.8897 18.75 20.6989 18.75 20.5V16.75C18.75 16.5511 18.829 16.3603 18.9697 16.2197C19.1103 16.079 19.3011 16 19.5 16C19.6989 16 19.8897 16.079 20.0303 16.2197C20.171 16.3603 20.25 16.5511 20.25 16.75ZM23.25 15.25V20.5C23.25 20.6989 23.171 20.8897 23.0303 21.0303C22.8897 21.171 22.6989 21.25 22.5 21.25C22.3011 21.25 22.1103 21.171 21.9697 21.0303C21.829 20.8897 21.75 20.6989 21.75 20.5V15.25C21.75 15.0511 21.829 14.8603 21.9697 14.7197C22.1103 14.579 22.3011 14.5 22.5 14.5C22.6989 14.5 22.8897 14.579 23.0303 14.7197C23.171 14.8603 23.25 15.0511 23.25 15.25Z" fill="#F3F5FF"/>
</svg>
