<svg width="38" height="38" viewBox="0 0 38 38" fill="none" xmlns="http://www.w3.org/2000/svg">
<rect width="38" height="38" rx="5" fill="#9FB4F3"/>
<g clip-path="url(#clip0_1790_9529)">
<path opacity="0.3" d="M24.5 13H10.5V21H24.5V13ZM17.5 20C15.84 20 14.5 18.66 14.5 17C14.5 15.34 15.84 14 17.5 14C19.16 14 20.5 15.34 20.5 17C20.5 18.66 19.16 20 17.5 20Z" fill="#F3F5FF"/>
<path d="M24.5 11H10.5C9.4 11 8.5 11.9 8.5 13V21C8.5 22.1 9.4 23 10.5 23H24.5C25.6 23 26.5 22.1 26.5 21V13C26.5 11.9 25.6 11 24.5 11ZM10.5 21V13H24.5V21H10.5Z" fill="#F3F5FF"/>
<path d="M17.5 14C15.84 14 14.5 15.34 14.5 17C14.5 18.66 15.84 20 17.5 20C19.16 20 20.5 18.66 20.5 17C20.5 15.34 19.16 14 17.5 14Z" fill="#F3F5FF"/>
<path d="M30.5 14V25C30.5 26.1 29.6 27 28.5 27H11.5V25H28.5V14H30.5Z" fill="#F3F5FF"/>
</g>
<defs>
<clipPath id="clip0_1790_9529">
<rect width="24" height="24" fill="white" transform="translate(7.5 7)"/>
</clipPath>
</defs>
</svg>
