<svg width="56" height="56" viewBox="0 0 56 56" fill="none" xmlns="http://www.w3.org/2000/svg">
<rect width="56" height="56" rx="5" fill="#9FB4F3" fill-opacity="0.7"/>
<path fill-rule="evenodd" clip-rule="evenodd" d="M26.6378 31.1348C24.5142 31.1348 23.5578 31.6143 23.0203 32.0206C22.9387 32.0823 22.8389 32.2371 22.8389 32.5076V38.3873C22.8389 38.7723 23.0801 39.0776 23.3958 39.1671C25.6832 39.8156 29.1827 40.4834 32.8576 39.8153C35.0596 39.4149 36.4532 38.6789 37.3608 37.9146C38.2681 37.1507 38.7475 36.3101 39.0492 35.6063C39.7832 33.8934 39.5378 33.0077 39.3338 32.6987C39.2312 32.5434 39.1305 32.5037 39.0877 32.4947C39.0465 32.4861 39.0197 32.4942 38.9933 32.5153C38.3602 33.0218 37.8846 33.4653 37.4782 33.8555C37.4131 33.918 37.3484 33.9805 37.2839 34.0429C36.9605 34.3554 36.6433 34.6619 36.3272 34.9148C35.9232 35.238 35.4836 35.5072 34.9242 35.6862C34.3769 35.8614 33.766 35.9337 33.0365 35.9337H28.2375C27.6852 35.9337 27.2375 35.486 27.2375 34.9337C27.2375 34.3814 27.6852 33.9337 28.2375 33.9337H31.6516C31.6204 33.8453 31.5881 33.751 31.5546 33.6503C31.2722 32.8034 30.8643 32.2283 30.2045 31.8341C29.5086 31.4184 28.4176 31.1348 26.6378 31.1348ZM33.7786 33.8939C33.6962 33.7022 33.5875 33.4246 33.4519 33.0178C33.0598 31.8414 32.4013 30.8168 31.2302 30.1172C30.095 29.439 28.5906 29.1348 26.6378 29.1348C24.1786 29.1348 22.771 29.7019 21.8143 30.4251C21.106 30.9605 20.8389 31.788 20.8389 32.5076V38.3873C20.8389 39.6092 21.6199 40.7424 22.8502 41.0912C25.2762 41.7791 29.1137 42.5288 33.2153 41.783C35.7057 41.3302 37.4352 40.4666 38.649 39.4445C39.8632 38.4222 40.5035 37.2899 40.8874 36.3941C41.753 34.3744 41.7318 32.7007 41.0027 31.5966C40.2689 30.4854 38.8134 30.098 37.744 30.9536C37.0441 31.5135 36.5198 32.0031 36.0931 32.4127C36.0148 32.4879 35.9414 32.5588 35.872 32.6257C35.5498 32.9367 35.3143 33.1639 35.0779 33.353C34.8154 33.563 34.5885 33.6937 34.3147 33.7814C34.1681 33.8283 33.9944 33.8671 33.7786 33.8939Z" fill="#5B70AF"/>
<path d="M16.5332 30.668C16.5332 29.4901 17.4881 28.5352 18.6661 28.5352H20.799C21.9769 28.5352 22.9318 29.4901 22.9318 30.668V39.1995C22.9318 40.3775 21.9769 41.3324 20.799 41.3324H18.6661C17.4881 41.3324 16.5332 40.3775 16.5332 39.1995V30.668Z" fill="#5B70AF"/>
<path fill-rule="evenodd" clip-rule="evenodd" d="M28.8102 13.666C27.0737 13.666 25.666 15.1778 25.666 17.0426V17.266H40.5593V17.0426C40.5593 15.1778 39.1517 13.666 37.4152 13.666H28.8102ZM40.5593 19.266H25.666V22.7294C25.666 24.5943 27.0737 26.106 28.8102 26.106H37.4152C39.1517 26.106 40.5593 24.5943 40.5593 22.7294V19.266Z" fill="#F3F5FF"/>
</svg>
