<svg width="39" height="38" viewBox="0 0 39 38" fill="none" xmlns="http://www.w3.org/2000/svg">
<rect x="0.5" width="38" height="38" rx="5" fill="#9FB4F3"/>
<g clip-path="url(#clip0_1790_9535)">
<path opacity="0.2" d="M9 22.2501H12V27.5001H9C8.80109 27.5001 8.61032 27.4211 8.46967 27.2804C8.32902 27.1398 8.25 26.949 8.25 26.7501V23.0001C8.25 22.8012 8.32902 22.6104 8.46967 22.4698C8.61032 22.3291 8.80109 22.2501 9 22.2501ZM26.625 13.2501C26.2358 13.2503 25.8515 13.3371 25.5 13.5042C25.4745 12.9412 25.2684 12.4013 24.9123 11.9645C24.5563 11.5277 24.069 11.217 23.5227 11.0785C22.9764 10.94 22.4001 10.9811 21.8789 11.1955C21.3577 11.4099 20.9194 11.7864 20.6287 12.2693C20.3381 12.7521 20.2105 13.3157 20.265 13.8766C20.3194 14.4376 20.5529 14.9661 20.931 15.384C21.3091 15.802 21.8116 16.0871 22.3643 16.1974C22.917 16.3076 23.4905 16.237 24 15.996C24.0237 16.5094 24.1975 17.0045 24.5 17.42C24.8024 17.8355 25.2202 18.153 25.7014 18.3333C26.1827 18.5136 26.7063 18.5486 27.2072 18.4341C27.7082 18.3195 28.1646 18.0605 28.5197 17.689C28.8748 17.3175 29.1131 16.85 29.2049 16.3443C29.2968 15.8387 29.2382 15.3172 29.0365 14.8446C28.8347 14.3719 28.4987 13.9689 28.07 13.6855C27.6413 13.402 27.1389 13.2506 26.625 13.2501Z" fill="#F3F5FF"/>
<path d="M29.0934 21.2244C28.8144 21.0096 28.4895 20.8622 28.1442 20.7934C27.7988 20.7246 27.4422 20.7364 27.1022 20.8278L23.1797 21.7297C23.2709 21.3442 23.2738 20.943 23.1879 20.5563C23.1021 20.1695 22.9298 19.8072 22.6841 19.4965C22.4383 19.1858 22.1254 18.9347 21.7688 18.7622C21.4122 18.5896 21.0212 18.5 20.625 18.5H15.9319C15.5377 18.499 15.1473 18.5761 14.7832 18.7269C14.419 18.8777 14.0884 19.0991 13.8103 19.3784L11.6897 21.5H9C8.60218 21.5 8.22064 21.658 7.93934 21.9393C7.65804 22.2206 7.5 22.6022 7.5 23V26.75C7.5 27.1478 7.65804 27.5294 7.93934 27.8107C8.22064 28.092 8.60218 28.25 9 28.25H18.75C18.8113 28.25 18.8724 28.2425 18.9319 28.2275L24.9319 26.7275C24.9701 26.7184 25.0075 26.7058 25.0434 26.69L28.6875 25.1394L28.7288 25.1206C29.079 24.9456 29.3789 24.6843 29.6002 24.3614C29.8215 24.0385 29.957 23.6645 29.9939 23.2747C30.0307 22.8849 29.9678 22.4922 29.8109 22.1335C29.654 21.7748 29.4084 21.4619 29.0972 21.2244H29.0934ZM9 23H11.25V26.75H9V23ZM28.0716 23.7697L24.5091 25.2866L18.6562 26.75H12.75V22.5603L14.8716 20.4397C15.0103 20.2998 15.1756 20.1889 15.3576 20.1134C15.5396 20.0379 15.7348 19.9994 15.9319 20H20.625C20.9234 20 21.2095 20.1185 21.4205 20.3295C21.6315 20.5405 21.75 20.8266 21.75 21.125C21.75 21.4234 21.6315 21.7095 21.4205 21.9205C21.2095 22.1315 20.9234 22.25 20.625 22.25H18C17.8011 22.25 17.6103 22.329 17.4697 22.4697C17.329 22.6103 17.25 22.8011 17.25 23C17.25 23.1989 17.329 23.3897 17.4697 23.5303C17.6103 23.671 17.8011 23.75 18 23.75H21C21.0565 23.7498 21.1127 23.7436 21.1678 23.7313L27.4491 22.2866L27.4781 22.2791C27.6699 22.2258 27.8745 22.2454 28.0527 22.334C28.2309 22.4226 28.37 22.5739 28.4433 22.7589C28.5167 22.9439 28.5189 23.1495 28.4498 23.3361C28.3806 23.5227 28.2449 23.6771 28.0687 23.7697H28.0716ZM22.875 17C23.0603 17.0002 23.2453 16.9852 23.4281 16.955C23.6338 17.5658 24.01 18.105 24.5124 18.5088C25.0147 18.9125 25.6222 19.164 26.263 19.2335C26.9037 19.3029 27.551 19.1875 28.1282 18.9008C28.7054 18.614 29.1884 18.168 29.5202 17.6155C29.852 17.0629 30.0186 16.4269 30.0004 15.7827C29.9821 15.1384 29.7798 14.5128 29.4173 13.9799C29.0548 13.447 28.5473 13.0291 27.9548 12.7754C27.3623 12.5218 26.7096 12.4432 26.0737 12.5488C25.8757 11.9602 25.5192 11.4377 25.0434 11.0388C24.5676 10.6398 23.9909 10.3799 23.3769 10.2875C22.7629 10.1952 22.1353 10.274 21.5631 10.5154C20.991 10.7567 20.4966 11.1512 20.1342 11.6555C19.7719 12.1597 19.5556 12.7541 19.5093 13.3734C19.463 13.9926 19.5885 14.6125 19.8718 15.1651C20.1552 15.7176 20.5854 16.1812 21.1153 16.505C21.6452 16.8287 22.2541 17 22.875 17ZM28.5 15.875C28.5 16.2458 28.39 16.6084 28.184 16.9167C27.978 17.225 27.6851 17.4654 27.3425 17.6073C26.9999 17.7492 26.6229 17.7863 26.2592 17.714C25.8955 17.6416 25.5614 17.463 25.2992 17.2008C25.037 16.9386 24.8584 16.6045 24.786 16.2408C24.7137 15.8771 24.7508 15.5001 24.8927 15.1575C25.0346 14.8149 25.275 14.522 25.5833 14.316C25.8916 14.11 26.2542 14 26.625 14C27.1223 14 27.5992 14.1975 27.9508 14.5492C28.3025 14.9008 28.5 15.3777 28.5 15.875ZM22.875 11.75C23.284 11.7502 23.6818 11.8842 24.0076 12.1314C24.3334 12.3787 24.5695 12.7258 24.6797 13.1197C24.2956 13.39 23.9721 13.7374 23.7299 14.1399C23.4878 14.5423 23.3323 14.9909 23.2734 15.4569C23.1425 15.4852 23.009 15.4996 22.875 15.5C22.3777 15.5 21.9008 15.3025 21.5492 14.9508C21.1975 14.5992 21 14.1223 21 13.625C21 13.1277 21.1975 12.6508 21.5492 12.2992C21.9008 11.9475 22.3777 11.75 22.875 11.75Z" fill="#F3F5FF"/>
</g>
<defs>
<clipPath id="clip0_1790_9535">
<rect width="24" height="24" fill="white" transform="translate(7.5 8)"/>
</clipPath>
</defs>
</svg>
