<svg width="57" height="56" viewBox="0 0 57 56" fill="none" xmlns="http://www.w3.org/2000/svg">
<rect x="0.5" width="56" height="56" rx="5" fill="#9FB4F3" fill-opacity="0.7"/>
<path fill-rule="evenodd" clip-rule="evenodd" d="M14.167 21.3327C14.167 17.0985 17.5995 13.666 21.8337 13.666H35.167C39.4012 13.666 42.8337 17.0985 42.8337 21.3327V34.666C42.8337 38.9002 39.4012 42.3327 35.167 42.3327H21.8337C17.5995 42.3327 14.167 38.9002 14.167 34.666V21.3327Z" fill="#F3F5FF"/>
<path d="M32.3672 26.4661C32.3672 25.7298 32.9641 25.1328 33.7005 25.1328H36.0872C36.8236 25.1328 37.4205 25.7298 37.4205 26.4661V35.1995H32.3672V26.4661Z" fill="#5B70AF"/>
<path d="M19.5938 29.5326C19.5938 28.7962 20.1907 28.1992 20.9271 28.1992H23.3138C24.0501 28.1992 24.6471 28.7962 24.6471 29.5326V35.2126H19.5938V29.5326Z" fill="#5B70AF"/>
<path d="M29.5154 20.7988H27.4887C26.6487 20.7988 25.9688 21.4788 25.9688 22.3188V35.1989H31.0221V22.3188C31.0221 21.4788 30.3554 20.7988 29.5154 20.7988Z" fill="#5B70AF"/>
</svg>
