<svg width="57" height="56" viewBox="0 0 57 56" fill="none" xmlns="http://www.w3.org/2000/svg">
<rect x="0.5" width="56" height="56" rx="5" fill="#9FB4F3" fill-opacity="0.7"/>
<path fill-rule="evenodd" clip-rule="evenodd" d="M14.2998 17.4238C14.3003 16.8651 14.8003 16.119 16.2208 15.4505C17.5927 14.8049 19.5711 14.373 21.8227 14.373C24.0744 14.373 26.0528 14.8049 27.4246 15.4505C28.8459 16.1194 29.3457 16.8659 29.3457 17.4247C29.3457 17.9834 28.8459 18.73 27.4246 19.3988C26.0528 20.0445 24.0744 20.4763 21.8227 20.4763C19.5711 20.4763 17.5927 20.0445 16.2208 19.3988C14.7996 18.73 14.2998 17.9826 14.2998 17.4238ZM26.1535 26.9275V25.7154C26.1535 23.4643 27.8123 21.9565 29.3136 21.1481C29.3243 21.1423 29.335 21.1366 29.3457 21.1309V20.8558C29.0978 21.0031 28.8391 21.1393 28.5738 21.2642C26.7843 22.1064 24.3952 22.5949 21.8227 22.5949C19.2502 22.5949 16.8612 22.1064 15.0716 21.2642C14.8064 21.1393 14.5477 21.0031 14.2998 20.8558V24.4711C14.3001 25.0298 14.8 25.7766 16.2208 26.4453C17.5927 27.0909 19.5711 27.5227 21.8227 27.5227C23.4513 27.5227 24.9369 27.2968 26.1535 26.9275ZM26.1535 29.1462C24.8349 29.467 23.3617 29.6418 21.8227 29.6418C19.2502 29.6418 16.8612 29.1534 15.0716 28.3111C14.8064 28.1863 14.5477 28.0501 14.2998 27.9028V31.5189C14.3001 32.0776 14.8 32.8244 16.2208 33.4931C17.5927 34.1387 19.5711 34.5705 21.8227 34.5705C23.4513 34.5705 24.9369 34.3446 26.1535 33.9753V29.1462ZM26.1535 36.194C24.8349 36.5148 23.3617 36.6896 21.8227 36.6896C19.2502 36.6896 16.8612 36.2011 15.0716 35.3589C14.8064 35.234 14.5477 35.0978 14.2998 34.9505V38.5666C14.2998 39.1254 14.7996 39.8719 16.2208 40.5408C17.5927 41.1864 19.5711 41.6183 21.8227 41.6183C23.9179 41.6183 25.7765 41.2444 27.13 40.6722C26.5497 39.922 26.1535 38.9994 26.1535 37.8993V36.194Z" fill="#F3F5FF"/>
<path d="M42.6923 32.352V28.7367C42.4444 28.884 42.1858 29.0202 41.9205 29.1451C40.1309 29.9873 37.7419 30.4757 35.1694 30.4757C32.5969 30.4757 30.2079 29.9873 28.4183 29.1451C28.153 29.0202 27.8944 28.884 27.6465 28.7367V32.352C27.6468 32.9107 28.1467 33.6575 29.5675 34.3261C30.9394 34.9718 32.9178 35.4036 35.1694 35.4036C37.4211 35.4036 39.3995 34.9718 40.7713 34.3261C42.1921 33.6575 42.692 32.9107 42.6923 32.352Z" fill="#5B70AF"/>
<path d="M42.6923 39.4002V35.7836C42.4444 35.9309 42.1858 36.0672 41.9205 36.192C40.1309 37.0342 37.7419 37.5227 35.1694 37.5227C32.5969 37.5227 30.2079 37.0342 28.4183 36.192C28.153 36.0672 27.8944 35.9309 27.6465 35.7836V39.3998C27.6468 39.9585 28.1467 40.7052 29.5675 41.3739C30.9394 42.0196 32.9178 42.4514 35.1694 42.4514C37.4211 42.4514 39.3995 42.0196 40.7713 41.3739C42.1921 40.7052 42.6921 39.9589 42.6923 39.4002Z" fill="#5B70AF"/>
<path d="M27.6465 25.3047C27.647 24.746 28.147 23.9999 29.5675 23.3313C30.9394 22.6857 32.9178 22.2539 35.1694 22.2539C37.4211 22.2539 39.3995 22.6857 40.7713 23.3313C42.1925 24.0002 42.6923 24.7467 42.6923 25.3055C42.6923 25.8643 42.1925 26.6108 40.7713 27.2797C39.3995 27.9253 37.4211 28.3571 35.1694 28.3571C32.9178 28.3571 30.9394 27.9253 29.5675 27.2797C28.1463 26.6108 27.6465 25.8635 27.6465 25.3047Z" fill="#5B70AF"/>
</svg>
