<svg width="364" height="430" viewBox="0 0 364 430" fill="none" xmlns="http://www.w3.org/2000/svg">
<g clip-path="url(#clip0_1620_10948)">
<rect width="364" height="430" rx="20" fill="#F9F8FE"/>
<rect x="20" y="98" width="353" height="351" rx="10" fill="#E9EFFC"/>
<rect x="38" y="116" width="326" height="314" fill="#F5FAFA"/>
<g filter="url(#filter0_d_1620_10948)">
<g clip-path="url(#clip1_1620_10948)">
<rect x="58" y="64" width="267" height="174" rx="10" fill="#9FB4F3"/>
<path d="M324.5 64.5L54.5 239H324.5V64.5Z" fill="#A6B8EE"/>
<rect x="78" y="84" width="42" height="42" rx="10" fill="#FCFCFC"/>
<rect x="89" y="95" width="20" height="20" rx="4" fill="#A6B8EE"/>
<path d="M104 111.667V103.334" stroke="#F9F8FE" stroke-width="1.66667" stroke-linecap="round" stroke-linejoin="round"/>
<path d="M99 111.667V98.334" stroke="#F9F8FE" stroke-width="1.66667" stroke-linecap="round" stroke-linejoin="round"/>
<path d="M94 111.666V106.666" stroke="#F9F8FE" stroke-width="1.66667" stroke-linecap="round" stroke-linejoin="round"/>
<path d="M83.3097 162.636V183H80.2372V162.636H83.3097ZM90.5185 173.932V183H87.5455V167.727H90.3991V170.213H90.5881C90.9394 169.404 91.4896 168.755 92.2386 168.264C92.9943 167.774 93.9455 167.528 95.0923 167.528C96.133 167.528 97.0445 167.747 97.8267 168.185C98.6089 168.616 99.2154 169.259 99.6463 170.114C100.077 170.969 100.293 172.026 100.293 173.286V183H97.3196V173.643C97.3196 172.536 97.0313 171.671 96.4545 171.048C95.8778 170.419 95.0857 170.104 94.0781 170.104C93.3887 170.104 92.7756 170.253 92.2386 170.551C91.7083 170.849 91.2874 171.287 90.9759 171.864C90.6709 172.434 90.5185 173.123 90.5185 173.932ZM116.798 167.727L111.26 183H108.078L102.53 167.727H105.722L109.589 179.48H109.749L113.607 167.727H116.798ZM125.655 183.308C124.15 183.308 122.855 182.987 121.767 182.344C120.687 181.694 119.852 180.783 119.262 179.609C118.678 178.429 118.387 177.047 118.387 175.463C118.387 173.899 118.678 172.52 119.262 171.327C119.852 170.134 120.674 169.202 121.728 168.533C122.788 167.863 124.028 167.528 125.446 167.528C126.308 167.528 127.143 167.671 127.952 167.956C128.761 168.241 129.487 168.688 130.13 169.298C130.773 169.908 131.28 170.7 131.651 171.675C132.022 172.643 132.208 173.819 132.208 175.205V176.259H120.067V174.031H129.294C129.294 173.249 129.135 172.556 128.817 171.953C128.499 171.343 128.051 170.863 127.475 170.511C126.905 170.16 126.235 169.984 125.466 169.984C124.631 169.984 123.902 170.19 123.279 170.601C122.662 171.005 122.185 171.536 121.847 172.192C121.516 172.841 121.35 173.547 121.35 174.31V176.05C121.35 177.071 121.529 177.939 121.887 178.655C122.251 179.371 122.758 179.918 123.408 180.295C124.058 180.667 124.817 180.852 125.685 180.852C126.248 180.852 126.762 180.773 127.226 180.614C127.69 180.448 128.091 180.203 128.429 179.878C128.767 179.553 129.026 179.152 129.205 178.675L132.019 179.182C131.793 180.01 131.389 180.736 130.806 181.359C130.229 181.976 129.503 182.456 128.628 182.801C127.76 183.139 126.769 183.308 125.655 183.308ZM146.951 171.456L144.256 171.933C144.144 171.589 143.965 171.26 143.719 170.949C143.481 170.637 143.156 170.382 142.745 170.183C142.334 169.984 141.82 169.885 141.204 169.885C140.362 169.885 139.659 170.074 139.096 170.452C138.532 170.823 138.251 171.304 138.251 171.893C138.251 172.404 138.44 172.815 138.817 173.126C139.195 173.438 139.805 173.693 140.647 173.892L143.073 174.449C144.478 174.774 145.526 175.274 146.215 175.95C146.905 176.626 147.249 177.505 147.249 178.585C147.249 179.5 146.984 180.315 146.454 181.031C145.93 181.741 145.198 182.297 144.256 182.702C143.322 183.106 142.238 183.308 141.005 183.308C139.295 183.308 137.899 182.944 136.819 182.214C135.738 181.479 135.076 180.435 134.83 179.082L137.704 178.645C137.883 179.394 138.251 179.961 138.808 180.345C139.364 180.723 140.09 180.912 140.985 180.912C141.96 180.912 142.738 180.71 143.322 180.305C143.905 179.894 144.197 179.394 144.197 178.804C144.197 178.327 144.018 177.926 143.66 177.601C143.308 177.276 142.768 177.031 142.039 176.865L139.454 176.298C138.029 175.973 136.975 175.456 136.292 174.747C135.616 174.038 135.278 173.14 135.278 172.053C135.278 171.151 135.53 170.362 136.033 169.686C136.537 169.01 137.233 168.483 138.121 168.105C139.01 167.721 140.027 167.528 141.174 167.528C142.825 167.528 144.124 167.886 145.072 168.602C146.02 169.312 146.646 170.263 146.951 171.456ZM157.647 167.727V170.114H149.305V167.727H157.647ZM151.542 164.068H154.515V178.516C154.515 179.092 154.601 179.527 154.774 179.818C154.946 180.103 155.168 180.299 155.44 180.405C155.718 180.504 156.02 180.554 156.345 180.554C156.583 180.554 156.792 180.537 156.971 180.504C157.15 180.471 157.289 180.445 157.389 180.425L157.926 182.881C157.753 182.947 157.508 183.013 157.19 183.08C156.872 183.152 156.474 183.192 155.997 183.199C155.215 183.212 154.485 183.073 153.809 182.781C153.133 182.49 152.586 182.039 152.169 181.429C151.751 180.819 151.542 180.054 151.542 179.132V164.068ZM167.205 183.308C165.773 183.308 164.524 182.98 163.457 182.324C162.389 181.668 161.561 180.75 160.971 179.57C160.381 178.39 160.086 177.011 160.086 175.433C160.086 173.849 160.381 172.464 160.971 171.277C161.561 170.09 162.389 169.169 163.457 168.513C164.524 167.857 165.773 167.528 167.205 167.528C168.637 167.528 169.887 167.857 170.954 168.513C172.021 169.169 172.85 170.09 173.44 171.277C174.03 172.464 174.325 173.849 174.325 175.433C174.325 177.011 174.03 178.39 173.44 179.57C172.85 180.75 172.021 181.668 170.954 182.324C169.887 182.98 168.637 183.308 167.205 183.308ZM167.215 180.812C168.143 180.812 168.912 180.567 169.522 180.077C170.132 179.586 170.583 178.933 170.874 178.118C171.173 177.303 171.322 176.404 171.322 175.423C171.322 174.449 171.173 173.554 170.874 172.739C170.583 171.917 170.132 171.257 169.522 170.76C168.912 170.263 168.143 170.014 167.215 170.014C166.281 170.014 165.505 170.263 164.888 170.76C164.279 171.257 163.825 171.917 163.526 172.739C163.235 173.554 163.089 174.449 163.089 175.423C163.089 176.404 163.235 177.303 163.526 178.118C163.825 178.933 164.279 179.586 164.888 180.077C165.505 180.567 166.281 180.812 167.215 180.812ZM177.643 183V167.727H180.517V170.153H180.676C180.954 169.331 181.445 168.685 182.147 168.214C182.857 167.737 183.659 167.499 184.554 167.499C184.739 167.499 184.958 167.505 185.21 167.518C185.468 167.532 185.671 167.548 185.816 167.568V170.412C185.697 170.379 185.485 170.342 185.18 170.303C184.875 170.256 184.57 170.233 184.265 170.233C183.563 170.233 182.936 170.382 182.386 170.68C181.842 170.972 181.412 171.38 181.093 171.903C180.775 172.42 180.616 173.01 180.616 173.673V183H177.643ZM196.038 183V162.636H203.297C204.874 162.636 206.183 162.908 207.224 163.452C208.271 163.995 209.054 164.748 209.571 165.709C210.088 166.663 210.346 167.767 210.346 169.02C210.346 170.266 210.084 171.363 209.561 172.311C209.044 173.252 208.261 173.985 207.214 174.509C206.173 175.032 204.864 175.294 203.287 175.294H197.788V172.649H203.008C204.002 172.649 204.811 172.507 205.434 172.222C206.064 171.937 206.525 171.522 206.816 170.979C207.108 170.435 207.254 169.782 207.254 169.02C207.254 168.251 207.105 167.585 206.806 167.021C206.515 166.458 206.054 166.027 205.424 165.729C204.801 165.424 203.983 165.271 202.968 165.271H199.11V183H196.038ZM206.091 173.812L211.122 183H207.622L202.69 173.812H206.091ZM220.237 183.308C218.732 183.308 217.437 182.987 216.349 182.344C215.269 181.694 214.434 180.783 213.844 179.609C213.26 178.429 212.969 177.047 212.969 175.463C212.969 173.899 213.26 172.52 213.844 171.327C214.434 170.134 215.256 169.202 216.31 168.533C217.37 167.863 218.61 167.528 220.028 167.528C220.89 167.528 221.725 167.671 222.534 167.956C223.343 168.241 224.069 168.688 224.712 169.298C225.355 169.908 225.862 170.7 226.233 171.675C226.604 172.643 226.79 173.819 226.79 175.205V176.259H214.649V174.031H223.876C223.876 173.249 223.717 172.556 223.399 171.953C223.081 171.343 222.634 170.863 222.057 170.511C221.487 170.16 220.817 169.984 220.048 169.984C219.213 169.984 218.484 170.19 217.861 170.601C217.244 171.005 216.767 171.536 216.429 172.192C216.098 172.841 215.932 173.547 215.932 174.31V176.05C215.932 177.071 216.111 177.939 216.469 178.655C216.833 179.371 217.34 179.918 217.99 180.295C218.64 180.667 219.399 180.852 220.267 180.852C220.83 180.852 221.344 180.773 221.808 180.614C222.272 180.448 222.673 180.203 223.011 179.878C223.349 179.553 223.608 179.152 223.787 178.675L226.601 179.182C226.375 180.01 225.971 180.736 225.388 181.359C224.811 181.976 224.085 182.456 223.21 182.801C222.342 183.139 221.351 183.308 220.237 183.308ZM230.088 188.727V167.727H232.992V170.203H233.24C233.413 169.885 233.661 169.517 233.986 169.099C234.311 168.682 234.762 168.317 235.338 168.006C235.915 167.688 236.677 167.528 237.625 167.528C238.858 167.528 239.959 167.84 240.926 168.463C241.894 169.086 242.653 169.984 243.203 171.158C243.76 172.331 244.039 173.743 244.039 175.393C244.039 177.044 243.764 178.459 243.213 179.639C242.663 180.812 241.908 181.717 240.946 182.354C239.985 182.983 238.888 183.298 237.655 183.298C236.727 183.298 235.968 183.143 235.378 182.831C234.795 182.519 234.337 182.155 234.006 181.737C233.675 181.32 233.419 180.948 233.24 180.624H233.061V188.727H230.088ZM233.002 175.364C233.002 176.437 233.158 177.379 233.469 178.188C233.781 178.996 234.231 179.629 234.821 180.087C235.411 180.537 236.134 180.763 236.989 180.763C237.877 180.763 238.62 180.527 239.216 180.057C239.813 179.58 240.264 178.933 240.569 178.118C240.88 177.303 241.036 176.384 241.036 175.364C241.036 174.356 240.883 173.451 240.578 172.649C240.28 171.847 239.829 171.214 239.226 170.75C238.63 170.286 237.884 170.054 236.989 170.054C236.127 170.054 235.398 170.276 234.801 170.72C234.212 171.164 233.764 171.784 233.459 172.58C233.154 173.375 233.002 174.303 233.002 175.364ZM253.803 183.308C252.371 183.308 251.122 182.98 250.054 182.324C248.987 181.668 248.158 180.75 247.569 179.57C246.979 178.39 246.684 177.011 246.684 175.433C246.684 173.849 246.979 172.464 247.569 171.277C248.158 170.09 248.987 169.169 250.054 168.513C251.122 167.857 252.371 167.528 253.803 167.528C255.235 167.528 256.484 167.857 257.551 168.513C258.619 169.169 259.447 170.09 260.037 171.277C260.627 172.464 260.922 173.849 260.922 175.433C260.922 177.011 260.627 178.39 260.037 179.57C259.447 180.75 258.619 181.668 257.551 182.324C256.484 182.98 255.235 183.308 253.803 183.308ZM253.813 180.812C254.741 180.812 255.51 180.567 256.12 180.077C256.73 179.586 257.18 178.933 257.472 178.118C257.77 177.303 257.919 176.404 257.919 175.423C257.919 174.449 257.77 173.554 257.472 172.739C257.18 171.917 256.73 171.257 256.12 170.76C255.51 170.263 254.741 170.014 253.813 170.014C252.878 170.014 252.103 170.263 251.486 170.76C250.876 171.257 250.422 171.917 250.124 172.739C249.832 173.554 249.686 174.449 249.686 175.423C249.686 176.404 249.832 177.303 250.124 178.118C250.422 178.933 250.876 179.586 251.486 180.077C252.103 180.567 252.878 180.812 253.813 180.812ZM264.241 183V167.727H267.114V170.153H267.273C267.552 169.331 268.042 168.685 268.745 168.214C269.454 167.737 270.256 167.499 271.151 167.499C271.337 167.499 271.556 167.505 271.808 167.518C272.066 167.532 272.268 167.548 272.414 167.568V170.412C272.295 170.379 272.083 170.342 271.778 170.303C271.473 170.256 271.168 170.233 270.863 170.233C270.16 170.233 269.534 170.382 268.984 170.68C268.44 170.972 268.009 171.38 267.691 171.903C267.373 172.42 267.214 173.01 267.214 173.673V183H264.241ZM283.018 167.727V170.114H274.676V167.727H283.018ZM276.913 164.068H279.886V178.516C279.886 179.092 279.973 179.527 280.145 179.818C280.317 180.103 280.539 180.299 280.811 180.405C281.089 180.504 281.391 180.554 281.716 180.554C281.955 180.554 282.163 180.537 282.342 180.504C282.521 180.471 282.661 180.445 282.76 180.425L283.297 182.881C283.125 182.947 282.879 183.013 282.561 183.08C282.243 183.152 281.845 183.192 281.368 183.199C280.586 183.212 279.857 183.073 279.18 182.781C278.504 182.49 277.957 182.039 277.54 181.429C277.122 180.819 276.913 180.054 276.913 179.132V164.068ZM297.506 171.456L294.811 171.933C294.698 171.589 294.519 171.26 294.274 170.949C294.036 170.637 293.711 170.382 293.3 170.183C292.889 169.984 292.375 169.885 291.759 169.885C290.917 169.885 290.214 170.074 289.651 170.452C289.087 170.823 288.805 171.304 288.805 171.893C288.805 172.404 288.994 172.815 289.372 173.126C289.75 173.438 290.36 173.693 291.202 173.892L293.628 174.449C295.033 174.774 296.08 175.274 296.77 175.95C297.459 176.626 297.804 177.505 297.804 178.585C297.804 179.5 297.539 180.315 297.009 181.031C296.485 181.741 295.752 182.297 294.811 182.702C293.876 183.106 292.793 183.308 291.56 183.308C289.849 183.308 288.454 182.944 287.374 182.214C286.293 181.479 285.63 180.435 285.385 179.082L288.259 178.645C288.438 179.394 288.805 179.961 289.362 180.345C289.919 180.723 290.645 180.912 291.54 180.912C292.514 180.912 293.293 180.71 293.876 180.305C294.46 179.894 294.751 179.394 294.751 178.804C294.751 178.327 294.572 177.926 294.214 177.601C293.863 177.276 293.323 177.031 292.594 176.865L290.009 176.298C288.583 175.973 287.529 175.456 286.847 174.747C286.17 174.038 285.832 173.14 285.832 172.053C285.832 171.151 286.084 170.362 286.588 169.686C287.092 169.01 287.788 168.483 288.676 168.105C289.564 167.721 290.582 167.528 291.729 167.528C293.379 167.528 294.679 167.886 295.626 168.602C296.574 169.312 297.201 170.263 297.506 171.456Z" fill="white"/>
<path d="M83.5341 200.364V212H81.7727V202.125H81.7045L78.9205 203.943V202.261L81.8239 200.364H83.5341ZM86.6818 212V210.727L90.6193 206.648C91.0398 206.205 91.3864 205.816 91.6591 205.483C91.9356 205.146 92.142 204.826 92.2784 204.523C92.4148 204.22 92.483 203.898 92.483 203.557C92.483 203.17 92.392 202.837 92.2102 202.557C92.0284 202.273 91.7803 202.055 91.4659 201.903C91.1515 201.748 90.7973 201.67 90.4034 201.67C89.9867 201.67 89.6231 201.756 89.3125 201.926C89.0019 202.097 88.7633 202.337 88.5966 202.648C88.4299 202.958 88.3466 203.322 88.3466 203.739H86.6705C86.6705 203.03 86.8333 202.411 87.1591 201.881C87.4848 201.35 87.9318 200.939 88.5 200.648C89.0682 200.352 89.714 200.205 90.4375 200.205C91.1686 200.205 91.8125 200.35 92.3693 200.642C92.9299 200.93 93.3674 201.324 93.6818 201.824C93.9962 202.32 94.1534 202.881 94.1534 203.506C94.1534 203.938 94.072 204.36 93.9091 204.773C93.75 205.186 93.4716 205.646 93.0739 206.153C92.6761 206.657 92.1231 207.269 91.4148 207.989L89.1023 210.409V210.494H94.3409V212H86.6818ZM100.557 212.159C100.038 212.152 99.5265 212.057 99.0227 211.875C98.5227 211.693 98.0682 211.39 97.6591 210.966C97.25 210.542 96.9223 209.972 96.6761 209.256C96.4337 208.54 96.3125 207.646 96.3125 206.574C96.3125 205.559 96.4129 204.657 96.6136 203.869C96.8182 203.081 97.1117 202.417 97.4943 201.875C97.8769 201.33 98.339 200.915 98.8807 200.631C99.4223 200.347 100.03 200.205 100.705 200.205C101.398 200.205 102.013 200.341 102.551 200.614C103.089 200.886 103.525 201.263 103.858 201.744C104.195 202.225 104.409 202.773 104.5 203.386H102.767C102.65 202.902 102.417 202.506 102.068 202.199C101.72 201.892 101.265 201.739 100.705 201.739C99.8523 201.739 99.1875 202.11 98.7102 202.852C98.2367 203.595 97.9981 204.627 97.9943 205.949H98.0795C98.2803 205.619 98.5265 205.339 98.8182 205.108C99.1136 204.873 99.4432 204.693 99.8068 204.568C100.174 204.439 100.561 204.375 100.966 204.375C101.64 204.375 102.25 204.54 102.795 204.869C103.345 205.195 103.782 205.646 104.108 206.222C104.434 206.797 104.597 207.456 104.597 208.199C104.597 208.941 104.428 209.614 104.091 210.216C103.758 210.818 103.288 211.295 102.682 211.648C102.076 211.996 101.367 212.167 100.557 212.159ZM100.551 210.682C100.998 210.682 101.398 210.572 101.75 210.352C102.102 210.133 102.381 209.837 102.585 209.466C102.79 209.095 102.892 208.68 102.892 208.222C102.892 207.775 102.792 207.367 102.591 207C102.394 206.633 102.121 206.341 101.773 206.125C101.428 205.909 101.034 205.801 100.591 205.801C100.254 205.801 99.9413 205.866 99.6534 205.994C99.3693 206.123 99.1193 206.301 98.9034 206.528C98.6875 206.756 98.517 207.017 98.392 207.312C98.2708 207.604 98.2102 207.913 98.2102 208.239C98.2102 208.674 98.3106 209.078 98.5114 209.449C98.7159 209.82 98.9943 210.119 99.3466 210.347C99.7027 210.57 100.104 210.682 100.551 210.682ZM108.368 210.409L108.283 211.028C108.226 211.483 108.129 211.956 107.993 212.449C107.86 212.945 107.722 213.405 107.578 213.83C107.438 214.254 107.322 214.591 107.232 214.841H106.027C106.076 214.606 106.144 214.288 106.232 213.886C106.319 213.489 106.404 213.044 106.487 212.551C106.571 212.059 106.633 211.557 106.675 211.045L106.732 210.409H108.368ZM114.374 212.193C113.476 212.189 112.709 211.953 112.072 211.483C111.436 211.013 110.949 210.33 110.612 209.432C110.275 208.534 110.107 207.453 110.107 206.188C110.107 204.926 110.275 203.848 110.612 202.955C110.953 202.061 111.442 201.379 112.078 200.909C112.718 200.439 113.483 200.205 114.374 200.205C115.264 200.205 116.027 200.441 116.663 200.915C117.3 201.384 117.786 202.066 118.124 202.96C118.464 203.85 118.635 204.926 118.635 206.188C118.635 207.456 118.466 208.54 118.129 209.438C117.792 210.331 117.305 211.015 116.669 211.489C116.033 211.958 115.268 212.193 114.374 212.193ZM114.374 210.676C115.161 210.676 115.777 210.292 116.22 209.523C116.667 208.754 116.891 207.642 116.891 206.188C116.891 205.222 116.788 204.405 116.584 203.739C116.383 203.068 116.093 202.561 115.714 202.216C115.339 201.867 114.893 201.693 114.374 201.693C113.589 201.693 112.974 202.08 112.527 202.852C112.08 203.625 111.855 204.737 111.851 206.188C111.851 207.157 111.951 207.977 112.152 208.648C112.357 209.314 112.646 209.82 113.021 210.165C113.396 210.506 113.847 210.676 114.374 210.676ZM124.491 212.159C123.779 212.159 123.139 212.023 122.571 211.75C122.007 211.473 121.556 211.095 121.219 210.614C120.882 210.133 120.702 209.583 120.679 208.966H122.384C122.425 209.466 122.647 209.877 123.048 210.199C123.45 210.521 123.931 210.682 124.491 210.682C124.938 210.682 125.334 210.58 125.679 210.375C126.027 210.167 126.3 209.881 126.497 209.517C126.698 209.153 126.798 208.739 126.798 208.273C126.798 207.799 126.696 207.377 126.491 207.006C126.287 206.634 126.005 206.343 125.645 206.131C125.289 205.919 124.88 205.811 124.418 205.807C124.065 205.807 123.711 205.867 123.355 205.989C122.999 206.11 122.711 206.269 122.491 206.466L120.884 206.227L121.537 200.364H127.935V201.869H122.997L122.628 205.125H122.696C122.923 204.905 123.224 204.722 123.599 204.574C123.978 204.426 124.384 204.352 124.815 204.352C125.524 204.352 126.154 204.521 126.707 204.858C127.264 205.195 127.702 205.655 128.02 206.239C128.342 206.818 128.501 207.485 128.497 208.239C128.501 208.992 128.33 209.665 127.986 210.256C127.645 210.847 127.171 211.312 126.565 211.653C125.963 211.991 125.272 212.159 124.491 212.159ZM134.413 212.159C133.701 212.159 133.061 212.023 132.493 211.75C131.929 211.473 131.478 211.095 131.141 210.614C130.804 210.133 130.624 209.583 130.601 208.966H132.305C132.347 209.466 132.569 209.877 132.97 210.199C133.372 210.521 133.853 210.682 134.413 210.682C134.86 210.682 135.256 210.58 135.601 210.375C135.949 210.167 136.222 209.881 136.419 209.517C136.62 209.153 136.72 208.739 136.72 208.273C136.72 207.799 136.618 207.377 136.413 207.006C136.209 206.634 135.927 206.343 135.567 206.131C135.211 205.919 134.802 205.811 134.339 205.807C133.987 205.807 133.633 205.867 133.277 205.989C132.921 206.11 132.633 206.269 132.413 206.466L130.805 206.227L131.459 200.364H137.857V201.869H132.919L132.55 205.125H132.618C132.845 204.905 133.146 204.722 133.521 204.574C133.9 204.426 134.305 204.352 134.737 204.352C135.446 204.352 136.076 204.521 136.629 204.858C137.186 205.195 137.624 205.655 137.942 206.239C138.264 206.818 138.423 207.485 138.419 208.239C138.423 208.992 138.252 209.665 137.908 210.256C137.567 210.847 137.093 211.312 136.487 211.653C135.885 211.991 135.194 212.159 134.413 212.159ZM146.643 200.364V212H144.888V200.364H146.643ZM152.861 201.875V200.364H161.866V201.875H158.236V212H156.486V201.875H152.861ZM166.131 212.176C165.313 212.176 164.598 211.989 163.989 211.614C163.379 211.239 162.905 210.714 162.568 210.04C162.231 209.366 162.062 208.578 162.062 207.676C162.062 206.771 162.231 205.979 162.568 205.301C162.905 204.623 163.379 204.097 163.989 203.722C164.598 203.347 165.313 203.159 166.131 203.159C166.949 203.159 167.663 203.347 168.273 203.722C168.883 204.097 169.356 204.623 169.693 205.301C170.03 205.979 170.199 206.771 170.199 207.676C170.199 208.578 170.03 209.366 169.693 210.04C169.356 210.714 168.883 211.239 168.273 211.614C167.663 211.989 166.949 212.176 166.131 212.176ZM166.136 210.75C166.667 210.75 167.106 210.61 167.455 210.33C167.803 210.049 168.061 209.676 168.227 209.21C168.398 208.744 168.483 208.231 168.483 207.67C168.483 207.114 168.398 206.602 168.227 206.136C168.061 205.667 167.803 205.29 167.455 205.006C167.106 204.722 166.667 204.58 166.136 204.58C165.602 204.58 165.159 204.722 164.807 205.006C164.458 205.29 164.199 205.667 164.028 206.136C163.862 206.602 163.778 207.114 163.778 207.67C163.778 208.231 163.862 208.744 164.028 209.21C164.199 209.676 164.458 210.049 164.807 210.33C165.159 210.61 165.602 210.75 166.136 210.75ZM176.169 203.273V204.636H171.402V203.273H176.169ZM172.68 201.182H174.379V209.438C174.379 209.767 174.429 210.015 174.527 210.182C174.625 210.345 174.752 210.456 174.908 210.517C175.067 210.574 175.239 210.602 175.425 210.602C175.561 210.602 175.68 210.593 175.783 210.574C175.885 210.555 175.964 210.54 176.021 210.528L176.328 211.932C176.23 211.97 176.089 212.008 175.908 212.045C175.726 212.087 175.499 212.11 175.226 212.114C174.779 212.121 174.362 212.042 173.976 211.875C173.589 211.708 173.277 211.451 173.038 211.102C172.8 210.754 172.68 210.316 172.68 209.79V201.182ZM180.588 212.193C180.035 212.193 179.535 212.091 179.088 211.886C178.641 211.678 178.287 211.377 178.026 210.983C177.768 210.589 177.639 210.106 177.639 209.534C177.639 209.042 177.734 208.636 177.923 208.318C178.113 208 178.368 207.748 178.69 207.562C179.012 207.377 179.372 207.237 179.77 207.142C180.168 207.047 180.573 206.975 180.986 206.926C181.509 206.866 181.933 206.816 182.259 206.778C182.584 206.737 182.821 206.67 182.969 206.58C183.116 206.489 183.19 206.341 183.19 206.136V206.097C183.19 205.6 183.05 205.216 182.77 204.943C182.493 204.67 182.08 204.534 181.531 204.534C180.959 204.534 180.509 204.661 180.179 204.915C179.853 205.165 179.628 205.443 179.503 205.75L177.906 205.386C178.096 204.856 178.372 204.428 178.736 204.102C179.103 203.773 179.526 203.534 180.003 203.386C180.48 203.235 180.982 203.159 181.509 203.159C181.857 203.159 182.226 203.201 182.616 203.284C183.01 203.364 183.378 203.511 183.719 203.727C184.063 203.943 184.346 204.252 184.565 204.653C184.785 205.051 184.895 205.568 184.895 206.205V212H183.236V210.807H183.168C183.058 211.027 182.893 211.242 182.673 211.455C182.454 211.667 182.171 211.843 181.827 211.983C181.482 212.123 181.069 212.193 180.588 212.193ZM180.957 210.83C181.427 210.83 181.829 210.737 182.162 210.551C182.499 210.366 182.755 210.123 182.929 209.824C183.107 209.521 183.196 209.197 183.196 208.852V207.727C183.135 207.788 183.018 207.845 182.844 207.898C182.673 207.947 182.478 207.991 182.259 208.028C182.039 208.062 181.825 208.095 181.616 208.125C181.408 208.152 181.234 208.174 181.094 208.193C180.764 208.235 180.463 208.305 180.19 208.403C179.921 208.502 179.705 208.644 179.543 208.83C179.384 209.011 179.304 209.254 179.304 209.557C179.304 209.977 179.459 210.295 179.77 210.511C180.08 210.723 180.476 210.83 180.957 210.83ZM188.857 200.364V212H187.158V200.364H188.857ZM198.643 212.17C197.939 212.17 197.31 211.991 196.757 211.631C196.208 211.267 195.776 210.75 195.462 210.08C195.151 209.405 194.996 208.597 194.996 207.653C194.996 206.71 195.153 205.903 195.467 205.233C195.786 204.562 196.221 204.049 196.774 203.693C197.327 203.337 197.954 203.159 198.655 203.159C199.196 203.159 199.632 203.25 199.962 203.432C200.295 203.61 200.553 203.818 200.734 204.057C200.92 204.295 201.064 204.506 201.166 204.688H201.268V200.364H202.967V212H201.308V210.642H201.166C201.064 210.828 200.916 211.04 200.723 211.278C200.534 211.517 200.272 211.725 199.939 211.903C199.606 212.081 199.174 212.17 198.643 212.17ZM199.018 210.722C199.507 210.722 199.92 210.593 200.257 210.335C200.598 210.074 200.856 209.712 201.03 209.25C201.208 208.788 201.297 208.25 201.297 207.636C201.297 207.03 201.21 206.5 201.036 206.045C200.861 205.591 200.606 205.237 200.268 204.983C199.931 204.729 199.515 204.602 199.018 204.602C198.507 204.602 198.081 204.735 197.74 205C197.399 205.265 197.142 205.627 196.967 206.085C196.797 206.544 196.712 207.061 196.712 207.636C196.712 208.22 196.799 208.744 196.973 209.21C197.147 209.676 197.405 210.045 197.746 210.318C198.09 210.587 198.515 210.722 199.018 210.722ZM209.153 212.176C208.294 212.176 207.553 211.992 206.932 211.625C206.314 211.254 205.837 210.733 205.5 210.062C205.167 209.388 205 208.598 205 207.693C205 206.799 205.167 206.011 205.5 205.33C205.837 204.648 206.307 204.116 206.909 203.733C207.515 203.35 208.223 203.159 209.034 203.159C209.527 203.159 210.004 203.241 210.466 203.403C210.928 203.566 211.343 203.822 211.71 204.17C212.078 204.519 212.367 204.972 212.58 205.528C212.792 206.081 212.898 206.754 212.898 207.545V208.148H205.96V206.875H211.233C211.233 206.428 211.142 206.032 210.96 205.688C210.778 205.339 210.523 205.064 210.193 204.864C209.867 204.663 209.485 204.562 209.045 204.562C208.568 204.562 208.152 204.68 207.795 204.915C207.443 205.146 207.17 205.449 206.977 205.824C206.788 206.195 206.693 206.598 206.693 207.034V208.028C206.693 208.612 206.795 209.108 207 209.517C207.208 209.926 207.498 210.239 207.869 210.455C208.241 210.667 208.674 210.773 209.17 210.773C209.492 210.773 209.786 210.727 210.051 210.636C210.316 210.542 210.545 210.402 210.739 210.216C210.932 210.03 211.08 209.801 211.182 209.528L212.79 209.818C212.661 210.292 212.43 210.706 212.097 211.062C211.767 211.415 211.352 211.689 210.852 211.886C210.356 212.08 209.79 212.176 209.153 212.176ZM214.783 215.273V203.273H216.442V204.688H216.584C216.682 204.506 216.824 204.295 217.01 204.057C217.196 203.818 217.453 203.61 217.783 203.432C218.112 203.25 218.548 203.159 219.089 203.159C219.794 203.159 220.423 203.337 220.976 203.693C221.529 204.049 221.963 204.562 222.277 205.233C222.595 205.903 222.754 206.71 222.754 207.653C222.754 208.597 222.597 209.405 222.283 210.08C221.968 210.75 221.536 211.267 220.987 211.631C220.438 211.991 219.811 212.17 219.107 212.17C218.576 212.17 218.143 212.081 217.805 211.903C217.472 211.725 217.211 211.517 217.021 211.278C216.832 211.04 216.686 210.828 216.584 210.642H216.482V215.273H214.783ZM216.447 207.636C216.447 208.25 216.536 208.788 216.714 209.25C216.893 209.712 217.15 210.074 217.487 210.335C217.824 210.593 218.237 210.722 218.726 210.722C219.233 210.722 219.658 210.587 219.999 210.318C220.339 210.045 220.597 209.676 220.771 209.21C220.949 208.744 221.038 208.22 221.038 207.636C221.038 207.061 220.951 206.544 220.777 206.085C220.607 205.627 220.349 205.265 220.004 205C219.663 204.735 219.237 204.602 218.726 204.602C218.233 204.602 217.817 204.729 217.476 204.983C217.139 205.237 216.883 205.591 216.709 206.045C216.535 206.5 216.447 207.03 216.447 207.636ZM226.357 200.364V212H224.658V200.364H226.357ZM232.318 212.176C231.5 212.176 230.786 211.989 230.176 211.614C229.566 211.239 229.093 210.714 228.756 210.04C228.419 209.366 228.25 208.578 228.25 207.676C228.25 206.771 228.419 205.979 228.756 205.301C229.093 204.623 229.566 204.097 230.176 203.722C230.786 203.347 231.5 203.159 232.318 203.159C233.136 203.159 233.85 203.347 234.46 203.722C235.07 204.097 235.544 204.623 235.881 205.301C236.218 205.979 236.386 206.771 236.386 207.676C236.386 208.578 236.218 209.366 235.881 210.04C235.544 210.714 235.07 211.239 234.46 211.614C233.85 211.989 233.136 212.176 232.318 212.176ZM232.324 210.75C232.854 210.75 233.294 210.61 233.642 210.33C233.991 210.049 234.248 209.676 234.415 209.21C234.585 208.744 234.67 208.231 234.67 207.67C234.67 207.114 234.585 206.602 234.415 206.136C234.248 205.667 233.991 205.29 233.642 205.006C233.294 204.722 232.854 204.58 232.324 204.58C231.79 204.58 231.347 204.722 230.994 205.006C230.646 205.29 230.386 205.667 230.216 206.136C230.049 206.602 229.966 207.114 229.966 207.67C229.966 208.231 230.049 208.744 230.216 209.21C230.386 209.676 230.646 210.049 230.994 210.33C231.347 210.61 231.79 210.75 232.324 210.75ZM239.06 215.273C238.806 215.273 238.575 215.252 238.366 215.21C238.158 215.172 238.003 215.131 237.901 215.085L238.31 213.693C238.62 213.777 238.897 213.813 239.139 213.801C239.382 213.79 239.596 213.699 239.781 213.528C239.971 213.358 240.137 213.08 240.281 212.693L240.491 212.114L237.298 203.273H239.116L241.327 210.045H241.418L243.628 203.273H245.452L241.855 213.165C241.688 213.619 241.476 214.004 241.219 214.318C240.961 214.636 240.654 214.875 240.298 215.034C239.942 215.193 239.529 215.273 239.06 215.273ZM247.048 212V203.273H248.679V204.693H248.787C248.969 204.212 249.266 203.837 249.679 203.568C250.092 203.295 250.586 203.159 251.162 203.159C251.745 203.159 252.234 203.295 252.628 203.568C253.026 203.841 253.319 204.216 253.509 204.693H253.599C253.808 204.227 254.139 203.856 254.594 203.58C255.048 203.299 255.59 203.159 256.219 203.159C257.01 203.159 257.656 203.407 258.156 203.903C258.66 204.4 258.912 205.148 258.912 206.148V212H257.213V206.307C257.213 205.716 257.052 205.288 256.73 205.023C256.408 204.758 256.024 204.625 255.577 204.625C255.024 204.625 254.594 204.795 254.287 205.136C253.98 205.473 253.827 205.907 253.827 206.438V212H252.134V206.199C252.134 205.725 251.986 205.345 251.69 205.057C251.395 204.769 251.01 204.625 250.537 204.625C250.215 204.625 249.918 204.71 249.645 204.881C249.376 205.047 249.158 205.28 248.991 205.58C248.829 205.879 248.747 206.225 248.747 206.619V212H247.048ZM264.95 212.176C264.09 212.176 263.35 211.992 262.729 211.625C262.111 211.254 261.634 210.733 261.297 210.062C260.964 209.388 260.797 208.598 260.797 207.693C260.797 206.799 260.964 206.011 261.297 205.33C261.634 204.648 262.104 204.116 262.706 203.733C263.312 203.35 264.02 203.159 264.831 203.159C265.323 203.159 265.801 203.241 266.263 203.403C266.725 203.566 267.14 203.822 267.507 204.17C267.875 204.519 268.164 204.972 268.376 205.528C268.589 206.081 268.695 206.754 268.695 207.545V208.148H261.757V206.875H267.03C267.03 206.428 266.939 206.032 266.757 205.688C266.575 205.339 266.32 205.064 265.99 204.864C265.664 204.663 265.282 204.562 264.842 204.562C264.365 204.562 263.948 204.68 263.592 204.915C263.24 205.146 262.967 205.449 262.774 205.824C262.585 206.195 262.49 206.598 262.49 207.034V208.028C262.49 208.612 262.592 209.108 262.797 209.517C263.005 209.926 263.295 210.239 263.666 210.455C264.037 210.667 264.471 210.773 264.967 210.773C265.289 210.773 265.583 210.727 265.848 210.636C266.113 210.542 266.342 210.402 266.536 210.216C266.729 210.03 266.876 209.801 266.979 209.528L268.587 209.818C268.458 210.292 268.227 210.706 267.893 211.062C267.564 211.415 267.149 211.689 266.649 211.886C266.153 212.08 265.587 212.176 264.95 212.176ZM272.278 206.818V212H270.58V203.273H272.21V204.693H272.318C272.519 204.231 272.833 203.86 273.261 203.58C273.693 203.299 274.237 203.159 274.892 203.159C275.487 203.159 276.008 203.284 276.455 203.534C276.902 203.78 277.248 204.148 277.494 204.636C277.741 205.125 277.864 205.729 277.864 206.449V212H276.165V206.653C276.165 206.021 276 205.527 275.67 205.17C275.341 204.811 274.888 204.631 274.312 204.631C273.919 204.631 273.568 204.716 273.261 204.886C272.958 205.057 272.718 205.307 272.54 205.636C272.366 205.962 272.278 206.356 272.278 206.818ZM284.216 203.273V204.636H279.449V203.273H284.216ZM280.727 201.182H282.426V209.438C282.426 209.767 282.475 210.015 282.574 210.182C282.672 210.345 282.799 210.456 282.955 210.517C283.114 210.574 283.286 210.602 283.472 210.602C283.608 210.602 283.727 210.593 283.83 210.574C283.932 210.555 284.011 210.54 284.068 210.528L284.375 211.932C284.277 211.97 284.136 212.008 283.955 212.045C283.773 212.087 283.545 212.11 283.273 212.114C282.826 212.121 282.409 212.042 282.023 211.875C281.636 211.708 281.324 211.451 281.085 211.102C280.847 210.754 280.727 210.316 280.727 209.79V201.182ZM292.494 205.403L290.955 205.676C290.89 205.479 290.788 205.292 290.648 205.114C290.511 204.936 290.326 204.79 290.091 204.676C289.856 204.562 289.563 204.506 289.21 204.506C288.729 204.506 288.328 204.614 288.006 204.83C287.684 205.042 287.523 205.316 287.523 205.653C287.523 205.945 287.631 206.18 287.847 206.358C288.063 206.536 288.411 206.682 288.892 206.795L290.278 207.114C291.081 207.299 291.68 207.585 292.074 207.972C292.468 208.358 292.665 208.86 292.665 209.477C292.665 210 292.513 210.466 292.21 210.875C291.911 211.28 291.492 211.598 290.955 211.83C290.42 212.061 289.801 212.176 289.097 212.176C288.119 212.176 287.322 211.968 286.705 211.551C286.087 211.131 285.708 210.534 285.568 209.761L287.21 209.511C287.313 209.939 287.523 210.263 287.841 210.483C288.159 210.699 288.574 210.807 289.085 210.807C289.642 210.807 290.087 210.691 290.42 210.46C290.754 210.225 290.92 209.939 290.92 209.602C290.92 209.33 290.818 209.1 290.614 208.915C290.413 208.729 290.104 208.589 289.688 208.494L288.21 208.17C287.396 207.985 286.794 207.689 286.403 207.284C286.017 206.879 285.824 206.366 285.824 205.744C285.824 205.229 285.968 204.778 286.256 204.392C286.544 204.006 286.941 203.705 287.449 203.489C287.956 203.269 288.538 203.159 289.193 203.159C290.136 203.159 290.879 203.364 291.42 203.773C291.962 204.178 292.32 204.722 292.494 205.403Z" fill="white"/>
</g>
</g>
<g filter="url(#filter1_d_1620_10948)">
<rect x="276" y="33" width="66" height="66" rx="10" fill="white"/>
</g>
<path fill-rule="evenodd" clip-rule="evenodd" d="M319.586 66.0006C319.856 65.1148 320 64.1802 320 63.2143C320 57.5731 315.075 53 309 53C302.925 53 298 57.5731 298 63.2143C298 64.1802 298.144 65.1148 298.414 66.0006C294.864 66.0465 292 68.9388 292 72.5C292 76.0899 294.91 79 298.5 79H319.5C323.09 79 326 76.0899 326 72.5C326 68.9388 323.136 66.0465 319.586 66.0006Z" fill="#5B70AF"/>
<rect x="345" y="115" width="28" height="144" rx="14" fill="#0F8CE9"/>
<path d="M139 293.5H349.5" stroke="#E7ECF3" stroke-width="2" stroke-dasharray="12 12"/>
<path d="M139 332H349.5" stroke="#E7ECF3" stroke-width="2" stroke-dasharray="12 12"/>
<path d="M139 370.5H349.5" stroke="#E7ECF3" stroke-width="2" stroke-dasharray="12 12"/>
<rect x="94.5" y="268.5" width="265" height="133" rx="8.5" stroke="#E7ECF3"/>
<rect x="146" y="321" width="18" height="64" rx="9" fill="#54BD95"/>
<rect x="191" y="289" width="18" height="64" rx="9" fill="#54BD95"/>
<rect x="236" y="303" width="18" height="64" rx="9" fill="#54BD95"/>
<rect x="281" y="321" width="18" height="64" rx="9" fill="#54BD95"/>
<rect x="326" y="294" width="18" height="64" rx="9" fill="#54BD95"/>
</g>
<defs>
<filter id="filter0_d_1620_10948" x="14" y="34" width="355" height="262" filterUnits="userSpaceOnUse" color-interpolation-filters="sRGB">
<feFlood flood-opacity="0" result="BackgroundImageFix"/>
<feColorMatrix in="SourceAlpha" type="matrix" values="0 0 0 0 0 0 0 0 0 0 0 0 0 0 0 0 0 0 127 0" result="hardAlpha"/>
<feOffset dy="14"/>
<feGaussianBlur stdDeviation="22"/>
<feComposite in2="hardAlpha" operator="out"/>
<feColorMatrix type="matrix" values="0 0 0 0 0 0 0 0 0 0 0 0 0 0 0 0 0 0 0.15 0"/>
<feBlend mode="normal" in2="BackgroundImageFix" result="effect1_dropShadow_1620_10948"/>
<feBlend mode="normal" in="SourceGraphic" in2="effect1_dropShadow_1620_10948" result="shape"/>
</filter>
<filter id="filter1_d_1620_10948" x="267" y="28" width="84" height="84" filterUnits="userSpaceOnUse" color-interpolation-filters="sRGB">
<feFlood flood-opacity="0" result="BackgroundImageFix"/>
<feColorMatrix in="SourceAlpha" type="matrix" values="0 0 0 0 0 0 0 0 0 0 0 0 0 0 0 0 0 0 127 0" result="hardAlpha"/>
<feOffset dy="4"/>
<feGaussianBlur stdDeviation="4.5"/>
<feComposite in2="hardAlpha" operator="out"/>
<feColorMatrix type="matrix" values="0 0 0 0 0 0 0 0 0 0 0 0 0 0 0 0 0 0 0.05 0"/>
<feBlend mode="normal" in2="BackgroundImageFix" result="effect1_dropShadow_1620_10948"/>
<feBlend mode="normal" in="SourceGraphic" in2="effect1_dropShadow_1620_10948" result="shape"/>
</filter>
<clipPath id="clip0_1620_10948">
<rect width="364" height="430" rx="20" fill="white"/>
</clipPath>
<clipPath id="clip1_1620_10948">
<rect x="58" y="64" width="267" height="174" rx="10" fill="white"/>
</clipPath>
</defs>
</svg>
