<svg xmlns="http://www.w3.org/2000/svg" width="36" height="36" viewBox="0 0 36 36" fill="none">
  <g clip-path="url(#clip0_833_3326)">
    <g opacity="0.3">
      <path d="M32.265 27H22.5C21.675 27 21 26.325 21 25.5C21 24.675 21.675 24 22.5 24H24.375V23.625C24.375 22.17 25.545 21 27 21C28.455 21 29.625 22.17 29.625 23.625V25.5C29.625 25.5 32.25 25.5 32.265 25.5C32.685 25.5 33.015 25.83 33.015 26.25C33 26.655 32.67 27 32.265 27Z" fill="#5B70AF"/>
    </g>
    <path d="M32.25 22.47C32.22 22.47 32.205 22.47 32.175 22.485C31.8 19.95 29.64 18 27 18C24.9 18 23.1 19.245 22.26 21.03C19.89 21.15 18 23.1 18 25.5C18 27.99 20.01 30 22.5 30L32.25 29.97C34.32 29.97 36 28.29 36 26.22C36 24.15 34.32 22.47 32.25 22.47ZM32.265 27H22.5C21.675 27 21 26.325 21 25.5C21 24.675 21.675 24 22.5 24H24.375V23.625C24.375 22.17 25.545 21 27 21C28.455 21 29.625 22.17 29.625 23.625V25.5C29.625 25.5 32.25 25.5 32.265 25.5C32.685 25.5 33.015 25.83 33.015 26.25C33 26.655 32.67 27 32.265 27ZM15 6.39V9.525C11.505 10.77 9 14.085 9 18C9 20.655 10.17 23.01 12 24.66V21H15V30H6V27H10.095C7.59 24.81 6 21.6 6 18C6 12.405 9.825 7.725 15 6.39ZM30 9H25.905C28.05 10.89 29.52 13.515 29.895 16.5H26.865C26.52 14.46 25.47 12.675 24 11.34V15H21V6H30V9Z" fill="#5B70AF"/>
  </g>
  <defs>
    <clipPath id="clip0_833_3326">
      <rect width="36" height="36" fill="white"/>
    </clipPath>
  </defs>
</svg>