<svg width="40" height="40" viewBox="0 0 40 40" fill="none" xmlns="http://www.w3.org/2000/svg">
<g clip-path="url(#clip0_833_3398)">
<path opacity="0.3" d="M5 25H6.3C7.21667 23.9833 8.53333 23.3333 10 23.3333C11.4667 23.3333 12.7833 23.9833 13.7 25H25V10H5V25Z" fill="#5B70AF"/>
<path d="M28.3332 13.3337V6.66699H4.99984C3.1665 6.66699 1.6665 8.16699 1.6665 10.0003V28.3337H4.99984C4.99984 31.1003 7.23317 33.3337 9.99984 33.3337C12.7665 33.3337 14.9998 31.1003 14.9998 28.3337H24.9998C24.9998 31.1003 27.2332 33.3337 29.9998 33.3337C32.7665 33.3337 34.9998 31.1003 34.9998 28.3337H38.3332V20.0003L33.3332 13.3337H28.3332ZM9.99984 30.0003C9.08317 30.0003 8.33317 29.2503 8.33317 28.3337C8.33317 27.417 9.08317 26.667 9.99984 26.667C10.9165 26.667 11.6665 27.417 11.6665 28.3337C11.6665 29.2503 10.9165 30.0003 9.99984 30.0003ZM24.9998 25.0003H13.6998C12.7832 23.9837 11.4832 23.3337 9.99984 23.3337C8.5165 23.3337 7.2165 23.9837 6.29984 25.0003H4.99984V10.0003H24.9998V25.0003ZM29.9998 30.0003C29.0832 30.0003 28.3332 29.2503 28.3332 28.3337C28.3332 27.417 29.0832 26.667 29.9998 26.667C30.9165 26.667 31.6665 27.417 31.6665 28.3337C31.6665 29.2503 30.9165 30.0003 29.9998 30.0003ZM28.3332 20.0003V15.8337H32.4998L35.7665 20.0003H28.3332Z" fill="#5B70AF"/>
</g>
<defs>
<clipPath id="clip0_833_3398">
<rect width="40" height="40" fill="white"/>
</clipPath>
</defs>
</svg>
