<svg width="41" height="40" viewBox="0 0 41 40" fill="none" xmlns="http://www.w3.org/2000/svg">
<g clip-path="url(#clip0_833_3408)">
<path d="M32.0518 8.21634L29.7018 10.5663C32.1018 12.983 33.6018 16.3163 33.6018 19.9997C33.6018 27.3663 27.6351 33.333 20.2685 33.333C12.9018 33.333 6.93514 27.3663 6.93514 19.9997C6.93514 13.1997 12.0185 7.59967 18.6018 6.78301V10.1497C13.8685 10.9497 10.2685 15.0497 10.2685 19.9997C10.2685 25.5163 14.7518 29.9997 20.2685 29.9997C25.7851 29.9997 30.2685 25.5163 30.2685 19.9997C30.2685 17.233 29.1518 14.733 27.3351 12.933L24.9851 15.283C26.1851 16.4997 26.9351 18.1663 26.9351 19.9997C26.9351 23.683 23.9518 26.6663 20.2685 26.6663C16.5851 26.6663 13.6018 23.683 13.6018 19.9997C13.6018 16.8997 15.7351 14.3163 18.6018 13.5663V17.133C17.6018 17.7163 16.9351 18.7663 16.9351 19.9997C16.9351 21.833 18.4351 23.333 20.2685 23.333C22.1018 23.333 23.6018 21.833 23.6018 19.9997C23.6018 18.7663 22.9351 17.6997 21.9351 17.133V3.33301H20.2685C11.0685 3.33301 3.60181 10.7997 3.60181 19.9997C3.60181 29.1997 11.0685 36.6663 20.2685 36.6663C29.4685 36.6663 36.9351 29.1997 36.9351 19.9997C36.9351 15.3997 35.0685 11.233 32.0518 8.21634Z" fill="#5B70AF"/>
</g>
<defs>
<clipPath id="clip0_833_3408">
<rect width="40" height="40" fill="white" transform="translate(0.268555)"/>
</clipPath>
</defs>
</svg>
