<svg width="50" height="50" viewBox="0 0 50 50" fill="none" xmlns="http://www.w3.org/2000/svg">
<rect width="50" height="50" rx="25" fill="#5B70AF" fill-opacity="0.25"/>
<g clip-path="url(#clip0_1620_9342)">
<path d="M34 21C32.55 21 31.74 22.44 32.07 23.51L28.52 27.07C28.22 26.98 27.78 26.98 27.48 27.07L24.93 24.52C25.27 23.45 24.46 22 23 22C21.55 22 20.73 23.44 21.07 24.52L16.51 29.07C15.44 28.74 14 29.55 14 31C14 32.1 14.9 33 16 33C17.45 33 18.26 31.56 17.93 30.49L22.48 25.93C22.78 26.02 23.22 26.02 23.52 25.93L26.07 28.48C25.73 29.55 26.54 31 28 31C29.45 31 30.27 29.56 29.93 28.48L33.49 24.93C34.56 25.26 36 24.45 36 23C36 21.9 35.1 21 34 21Z" fill="#5B70AF"/>
<path d="M28 22L28.94 19.93L31 19L28.94 18.07L28 16L27.08 18.07L25 19L27.08 19.93L28 22Z" fill="#5B70AF"/>
<path d="M16.5 24L17 22L19 21.5L17 21L16.5 19L16 21L14 21.5L16 22L16.5 24Z" fill="#5B70AF"/>
</g>
<defs>
<clipPath id="clip0_1620_9342">
<rect width="24" height="24" fill="white" transform="translate(13 13)"/>
</clipPath>
</defs>
</svg>
