<svg width="273" height="85" viewBox="0 0 273 85" fill="none" xmlns="http://www.w3.org/2000/svg">
<path d="M24.25 29.0396C24.6312 28.8148 24.9472 28.4937 25.1665 28.1081C25.3858 27.7226 25.5008 27.2861 25.5 26.842V4.23841C25.5035 3.83384 25.4097 3.43441 25.2265 3.07411C25.0433 2.71381 24.7761 2.4033 24.4478 2.16902C24.1194 1.93473 23.7396 1.7836 23.3406 1.72849C22.9417 1.67338 22.5353 1.71591 22.1562 1.85247C15.827 4.11751 10.3491 8.29223 6.47244 13.8052C2.59579 19.3182 0.509806 25.9001 0.5 32.6499C0.503385 34.6499 0.681148 36.6459 1.03125 38.6147C1.10636 39.0081 1.27289 39.378 1.51726 39.6944C1.76163 40.0108 2.07693 40.2648 2.4375 40.4356C2.77024 40.5932 3.13223 40.6787 3.5 40.6867C3.93964 40.6841 4.37081 40.5649 4.75 40.3414L24.25 29.0396ZM20.5 8.03707V25.3979L5.53125 34.094C5.5 33.5917 5.5 33.1208 5.5 32.6499C5.5096 27.5592 6.91439 22.5695 9.56034 18.2279C12.2063 13.8863 15.9912 10.3605 20.5 8.03707Z" fill="#FFB545"/>
<path d="M61.22 16.4504C61.1877 16.4154 61.166 16.3718 61.1575 16.3248L61.0325 16.1679C58.1725 11.2484 54.0798 7.16732 49.1619 4.33073C44.2439 1.49414 38.6721 0.00102689 33.0013 0C32.3382 0 31.7023 0.264605 31.2335 0.735605C30.7647 1.2066 30.5013 1.84542 30.5013 2.51151V31.2055L5.78251 45.5526C5.49439 45.7125 5.24103 45.9287 5.03732 46.1885C4.83361 46.4482 4.68367 46.7463 4.59632 47.0652C4.50897 47.384 4.48597 47.7172 4.52868 48.0451C4.57139 48.373 4.67894 48.689 4.84501 48.9745V49.0373L4.93876 49.1942C8.54359 55.3935 14.0819 60.2263 20.6965 62.9445C27.3111 65.6628 34.6332 66.1149 41.5294 64.231C48.4256 62.3471 54.5114 58.2322 58.8449 52.5231C63.1784 46.814 65.5178 39.8292 65.5013 32.6497C65.5089 26.9667 64.0327 21.3811 61.22 16.4504Z" fill="#625FFB"/>
<g filter="url(#filter0_b_1620_9399)">
<rect x="31.5" y="37.1699" width="241" height="47.2164" rx="10" fill="#EDEDFF" fill-opacity="0.5"/>
<rect x="32" y="37.6699" width="240" height="46.2164" rx="9.5" stroke="#EAEAF7" style="mix-blend-mode:multiply"/>
</g>
<path d="M55.761 59.0466L52.071 68.2266H50.325L46.635 59.0466H48.228C48.378 59.0466 48.501 59.0856 48.597 59.1636C48.699 59.2356 48.765 59.3226 48.795 59.4246L50.829 64.7706C50.913 65.0226 50.988 65.2716 51.054 65.5176C51.12 65.7636 51.177 66.0126 51.225 66.2646C51.273 66.0126 51.33 65.7666 51.396 65.5266C51.468 65.2806 51.546 65.0286 51.63 64.7706L53.7 59.4246C53.736 59.3166 53.802 59.2266 53.898 59.1546C53.994 59.0826 54.111 59.0466 54.249 59.0466H55.761ZM59.0993 59.0466V68.2266H57.1643V59.0466H59.0993ZM59.4233 56.2746C59.4233 56.4486 59.3873 56.6136 59.3153 56.7696C59.2493 56.9256 59.1563 57.0636 59.0363 57.1836C58.9163 57.2976 58.7753 57.3906 58.6133 57.4626C58.4573 57.5286 58.2893 57.5616 58.1093 57.5616C57.9353 57.5616 57.7703 57.5286 57.6143 57.4626C57.4643 57.3906 57.3323 57.2976 57.2183 57.1836C57.1043 57.0636 57.0113 56.9256 56.9393 56.7696C56.8733 56.6136 56.8403 56.4486 56.8403 56.2746C56.8403 56.0946 56.8733 55.9266 56.9393 55.7706C57.0113 55.6146 57.1043 55.4796 57.2183 55.3656C57.3323 55.2456 57.4643 55.1526 57.6143 55.0866C57.7703 55.0146 57.9353 54.9786 58.1093 54.9786C58.2893 54.9786 58.4573 55.0146 58.6133 55.0866C58.7753 55.1526 58.9163 55.2456 59.0363 55.3656C59.1563 55.4796 59.2493 55.6146 59.3153 55.7706C59.3873 55.9266 59.4233 56.0946 59.4233 56.2746ZM63.3576 60.7476C63.6456 60.1656 63.9936 59.7096 64.4016 59.3796C64.8096 59.0436 65.2986 58.8756 65.8686 58.8756C66.0666 58.8756 66.2526 58.8996 66.4266 58.9476C66.6006 58.9896 66.7566 59.0556 66.8946 59.1456L66.7596 60.6036C66.7356 60.7056 66.6966 60.7776 66.6426 60.8196C66.5946 60.8556 66.5286 60.8736 66.4446 60.8736C66.3546 60.8736 66.2256 60.8586 66.0576 60.8286C65.8896 60.7926 65.7126 60.7746 65.5266 60.7746C65.2566 60.7746 65.0166 60.8136 64.8066 60.8916C64.6026 60.9696 64.4166 61.0836 64.2486 61.2336C64.0866 61.3836 63.9426 61.5666 63.8166 61.7826C63.6906 61.9986 63.5736 62.2446 63.4656 62.5206V68.2266H61.5306V59.0466H62.6556C62.8596 59.0466 63.0006 59.0856 63.0786 59.1636C63.1566 59.2356 63.2106 59.3646 63.2406 59.5506L63.3576 60.7476ZM71.1181 68.3706C70.3561 68.3706 69.7681 68.1576 69.3541 67.7316C68.9461 67.2996 68.7421 66.6936 68.7421 65.9136V60.5676H67.7341C67.6261 60.5676 67.5331 60.5346 67.4551 60.4686C67.3771 60.3966 67.3381 60.2916 67.3381 60.1536V59.3706L68.8231 59.1546L69.2461 56.4996C69.2761 56.3976 69.3271 56.3166 69.3991 56.2566C69.4711 56.1906 69.5671 56.1576 69.6871 56.1576H70.6771V59.1726H73.2241V60.5676H70.6771V65.7786C70.6771 66.1086 70.7581 66.3606 70.9201 66.5346C71.0821 66.7086 71.2981 66.7956 71.5681 66.7956C71.7181 66.7956 71.8471 66.7776 71.9551 66.7416C72.0631 66.6996 72.1561 66.6576 72.2341 66.6156C72.3121 66.5676 72.3781 66.5256 72.4321 66.4896C72.4921 66.4476 72.5491 66.4266 72.6031 66.4266C72.7111 66.4266 72.7981 66.4866 72.8641 66.6066L73.4401 67.5516C73.1401 67.8156 72.7861 68.0196 72.3781 68.1636C71.9701 68.3016 71.5501 68.3706 71.1181 68.3706ZM82.4893 59.0466V68.2266H81.3193C81.0613 68.2266 80.8963 68.1036 80.8243 67.8576L80.6803 67.0026C80.4883 67.2066 80.2843 67.3926 80.0683 67.5606C79.8583 67.7286 79.6333 67.8726 79.3933 67.9926C79.1533 68.1126 78.8953 68.2056 78.6193 68.2716C78.3493 68.3376 78.0583 68.3706 77.7463 68.3706C77.2423 68.3706 76.7983 68.2866 76.4143 68.1186C76.0303 67.9506 75.7063 67.7136 75.4423 67.4076C75.1843 67.1016 74.9893 66.7356 74.8573 66.3096C74.7253 65.8776 74.6593 65.4036 74.6593 64.8876V59.0466H76.5943V64.8876C76.5943 65.5056 76.7353 65.9856 77.0173 66.3276C77.3053 66.6696 77.7403 66.8406 78.3223 66.8406C78.7483 66.8406 79.1443 66.7446 79.5103 66.5526C79.8823 66.3546 80.2303 66.0846 80.5543 65.7426V59.0466H82.4893ZM89.7442 64.2126C89.0542 64.2366 88.4722 64.2936 87.9982 64.3836C87.5242 64.4676 87.1402 64.5786 86.8462 64.7166C86.5522 64.8486 86.3392 65.0076 86.2072 65.1936C86.0812 65.3796 86.0182 65.5836 86.0182 65.8056C86.0182 66.0216 86.0512 66.2076 86.1172 66.3636C86.1892 66.5136 86.2852 66.6396 86.4052 66.7416C86.5312 66.8376 86.6752 66.9096 86.8372 66.9576C87.0052 66.9996 87.1882 67.0206 87.3862 67.0206C87.8902 67.0206 88.3222 66.9276 88.6822 66.7416C89.0482 66.5496 89.4022 66.2736 89.7442 65.9136V64.2126ZM84.6142 60.3246C85.6522 59.3586 86.8882 58.8756 88.3222 58.8756C88.8502 58.8756 89.3182 58.9626 89.7262 59.1366C90.1402 59.3046 90.4852 59.5446 90.7612 59.8566C91.0432 60.1686 91.2562 60.5406 91.4002 60.9726C91.5502 61.3986 91.6252 61.8726 91.6252 62.3946V68.2266H90.7612C90.5752 68.2266 90.4342 68.1996 90.3382 68.1456C90.2422 68.0856 90.1612 67.9686 90.0952 67.7946L89.9062 67.0476C89.6722 67.2576 89.4412 67.4466 89.2132 67.6146C88.9852 67.7766 88.7482 67.9146 88.5022 68.0286C88.2622 68.1426 88.0012 68.2266 87.7192 68.2806C87.4432 68.3406 87.1372 68.3706 86.8012 68.3706C86.4292 68.3706 86.0812 68.3196 85.7572 68.2176C85.4392 68.1156 85.1632 67.9626 84.9292 67.7586C84.6952 67.5486 84.5092 67.2906 84.3712 66.9846C84.2392 66.6786 84.1732 66.3186 84.1732 65.9046C84.1732 65.5506 84.2662 65.2056 84.4522 64.8696C84.6442 64.5336 84.9562 64.2336 85.3882 63.9696C85.8262 63.6996 86.3992 63.4776 87.1072 63.3036C87.8212 63.1296 88.7002 63.0306 89.7442 63.0066V62.3946C89.7442 61.7346 89.6032 61.2426 89.3212 60.9186C89.0392 60.5946 88.6252 60.4326 88.0792 60.4326C87.7072 60.4326 87.3952 60.4806 87.1432 60.5766C86.8912 60.6666 86.6722 60.7656 86.4862 60.8736C86.3002 60.9816 86.1352 61.0836 85.9912 61.1796C85.8472 61.2696 85.6942 61.3146 85.5322 61.3146C85.4002 61.3146 85.2862 61.2816 85.1902 61.2156C85.1002 61.1436 85.0252 61.0566 84.9652 60.9546L84.6142 60.3246ZM95.8629 54.9066V68.2266H93.9279V54.9066H95.8629ZM106.703 58.9026C107.381 58.9026 107.993 59.0136 108.539 59.2356C109.091 59.4576 109.559 59.7726 109.943 60.1806C110.333 60.5886 110.633 61.0836 110.843 61.6656C111.053 62.2476 111.158 62.9016 111.158 63.6276C111.158 64.3536 111.053 65.0076 110.843 65.5896C110.633 66.1716 110.333 66.6696 109.943 67.0836C109.559 67.4916 109.091 67.8066 108.539 68.0286C107.993 68.2506 107.381 68.3616 106.703 68.3616C106.019 68.3616 105.401 68.2506 104.849 68.0286C104.303 67.8066 103.835 67.4916 103.445 67.0836C103.055 66.6696 102.755 66.1716 102.545 65.5896C102.335 65.0076 102.23 64.3536 102.23 63.6276C102.23 62.9016 102.335 62.2476 102.545 61.6656C102.755 61.0836 103.055 60.5886 103.445 60.1806C103.835 59.7726 104.303 59.4576 104.849 59.2356C105.401 59.0136 106.019 58.9026 106.703 58.9026ZM106.703 66.8496C107.531 66.8496 108.146 66.5736 108.548 66.0216C108.956 65.4636 109.16 64.6686 109.16 63.6366C109.16 62.6046 108.956 61.8096 108.548 61.2516C108.146 60.6876 107.531 60.4056 106.703 60.4056C105.863 60.4056 105.239 60.6876 104.831 61.2516C104.423 61.8096 104.219 62.6046 104.219 63.6366C104.219 64.6686 104.423 65.4636 104.831 66.0216C105.239 66.5736 105.863 66.8496 106.703 66.8496ZM114.844 60.7476C115.132 60.1656 115.48 59.7096 115.888 59.3796C116.296 59.0436 116.785 58.8756 117.355 58.8756C117.553 58.8756 117.739 58.8996 117.913 58.9476C118.087 58.9896 118.243 59.0556 118.381 59.1456L118.246 60.6036C118.222 60.7056 118.183 60.7776 118.129 60.8196C118.081 60.8556 118.015 60.8736 117.931 60.8736C117.841 60.8736 117.712 60.8586 117.544 60.8286C117.376 60.7926 117.199 60.7746 117.013 60.7746C116.743 60.7746 116.503 60.8136 116.293 60.8916C116.089 60.9696 115.903 61.0836 115.735 61.2336C115.573 61.3836 115.429 61.5666 115.303 61.7826C115.177 61.9986 115.06 62.2446 114.952 62.5206V68.2266H113.017V59.0466H114.142C114.346 59.0466 114.487 59.0856 114.565 59.1636C114.643 59.2356 114.697 59.3646 114.727 59.5506L114.844 60.7476ZM122.779 63.5556C123.379 63.5556 123.829 63.4026 124.129 63.0966C124.429 62.7906 124.579 62.3916 124.579 61.8996C124.579 61.3956 124.429 60.9966 124.129 60.7026C123.829 60.4086 123.379 60.2616 122.779 60.2616C122.185 60.2616 121.735 60.4086 121.429 60.7026C121.129 60.9966 120.979 61.3956 120.979 61.8996C120.979 62.1396 121.018 62.3616 121.096 62.5656C121.174 62.7696 121.288 62.9466 121.438 63.0966C121.588 63.2406 121.774 63.3546 121.996 63.4386C122.224 63.5166 122.485 63.5556 122.779 63.5556ZM125.47 68.6766C125.47 68.4726 125.41 68.3106 125.29 68.1906C125.176 68.0646 125.02 67.9686 124.822 67.9026C124.624 67.8306 124.393 67.7796 124.129 67.7496C123.865 67.7136 123.583 67.6896 123.283 67.6776C122.989 67.6596 122.686 67.6446 122.374 67.6326C122.068 67.6146 121.771 67.5846 121.483 67.5426C121.195 67.6926 120.958 67.8726 120.772 68.0826C120.592 68.2926 120.502 68.5356 120.502 68.8116C120.502 68.9916 120.547 69.1596 120.637 69.3156C120.733 69.4716 120.877 69.6066 121.069 69.7206C121.267 69.8346 121.516 69.9246 121.816 69.9906C122.122 70.0566 122.488 70.0896 122.914 70.0896C123.766 70.0896 124.405 69.9576 124.831 69.6936C125.257 69.4296 125.47 69.0906 125.47 68.6766ZM127.414 59.3796V60.0996C127.414 60.3396 127.27 60.4866 126.982 60.5406L126.064 60.6936C126.22 61.0416 126.298 61.4286 126.298 61.8546C126.298 62.3046 126.208 62.7126 126.028 63.0786C125.854 63.4446 125.611 63.7566 125.299 64.0146C124.987 64.2726 124.615 64.4706 124.183 64.6086C123.751 64.7466 123.283 64.8156 122.779 64.8156C122.587 64.8156 122.398 64.8066 122.212 64.7886C122.032 64.7646 121.855 64.7346 121.681 64.6986C121.507 64.8006 121.378 64.9086 121.294 65.0226C121.21 65.1366 121.168 65.2536 121.168 65.3736C121.168 65.5716 121.255 65.7186 121.429 65.8146C121.603 65.9106 121.831 65.9796 122.113 66.0216C122.401 66.0636 122.728 66.0906 123.094 66.1026C123.46 66.1146 123.832 66.1356 124.21 66.1656C124.588 66.1956 124.96 66.2466 125.326 66.3186C125.692 66.3846 126.016 66.4986 126.298 66.6606C126.586 66.8166 126.817 67.0296 126.991 67.2996C127.165 67.5696 127.252 67.9206 127.252 68.3526C127.252 68.7486 127.153 69.1356 126.955 69.5136C126.757 69.8916 126.469 70.2276 126.091 70.5216C125.719 70.8156 125.263 71.0496 124.723 71.2236C124.183 71.4036 123.568 71.4936 122.878 71.4936C122.194 71.4936 121.597 71.4276 121.087 71.2956C120.583 71.1636 120.16 70.9836 119.818 70.7556C119.482 70.5336 119.23 70.2756 119.062 69.9816C118.9 69.6876 118.819 69.3816 118.819 69.0636C118.819 68.6316 118.954 68.2626 119.224 67.9566C119.5 67.6506 119.872 67.4106 120.34 67.2366C120.088 67.1166 119.884 66.9516 119.728 66.7416C119.578 66.5316 119.503 66.2556 119.503 65.9136C119.503 65.6436 119.602 65.3616 119.8 65.0676C119.998 64.7736 120.295 64.5246 120.691 64.3206C120.235 64.0686 119.875 63.7356 119.611 63.3216C119.347 62.9016 119.215 62.4126 119.215 61.8546C119.215 61.3986 119.302 60.9876 119.476 60.6216C119.656 60.2556 119.905 59.9436 120.223 59.6856C120.541 59.4276 120.916 59.2296 121.348 59.0916C121.786 58.9536 122.263 58.8846 122.779 58.8846C123.571 58.8846 124.261 59.0496 124.849 59.3796H127.414ZM133.848 64.2126C133.158 64.2366 132.576 64.2936 132.102 64.3836C131.628 64.4676 131.244 64.5786 130.95 64.7166C130.656 64.8486 130.443 65.0076 130.311 65.1936C130.185 65.3796 130.122 65.5836 130.122 65.8056C130.122 66.0216 130.155 66.2076 130.221 66.3636C130.293 66.5136 130.389 66.6396 130.509 66.7416C130.635 66.8376 130.779 66.9096 130.941 66.9576C131.109 66.9996 131.292 67.0206 131.49 67.0206C131.994 67.0206 132.426 66.9276 132.786 66.7416C133.152 66.5496 133.506 66.2736 133.848 65.9136V64.2126ZM128.718 60.3246C129.756 59.3586 130.992 58.8756 132.426 58.8756C132.954 58.8756 133.422 58.9626 133.83 59.1366C134.244 59.3046 134.589 59.5446 134.865 59.8566C135.147 60.1686 135.36 60.5406 135.504 60.9726C135.654 61.3986 135.729 61.8726 135.729 62.3946V68.2266H134.865C134.679 68.2266 134.538 68.1996 134.442 68.1456C134.346 68.0856 134.265 67.9686 134.199 67.7946L134.01 67.0476C133.776 67.2576 133.545 67.4466 133.317 67.6146C133.089 67.7766 132.852 67.9146 132.606 68.0286C132.366 68.1426 132.105 68.2266 131.823 68.2806C131.547 68.3406 131.241 68.3706 130.905 68.3706C130.533 68.3706 130.185 68.3196 129.861 68.2176C129.543 68.1156 129.267 67.9626 129.033 67.7586C128.799 67.5486 128.613 67.2906 128.475 66.9846C128.343 66.6786 128.277 66.3186 128.277 65.9046C128.277 65.5506 128.37 65.2056 128.556 64.8696C128.748 64.5336 129.06 64.2336 129.492 63.9696C129.93 63.6996 130.503 63.4776 131.211 63.3036C131.925 63.1296 132.804 63.0306 133.848 63.0066V62.3946C133.848 61.7346 133.707 61.2426 133.425 60.9186C133.143 60.5946 132.729 60.4326 132.183 60.4326C131.811 60.4326 131.499 60.4806 131.247 60.5766C130.995 60.6666 130.776 60.7656 130.59 60.8736C130.404 60.9816 130.239 61.0836 130.095 61.1796C129.951 61.2696 129.798 61.3146 129.636 61.3146C129.504 61.3146 129.39 61.2816 129.294 61.2156C129.204 61.1436 129.129 61.0566 129.069 60.9546L128.718 60.3246ZM139.804 60.2616C140.002 60.0576 140.206 59.8746 140.416 59.7126C140.632 59.5446 140.86 59.4006 141.1 59.2806C141.34 59.1606 141.595 59.0676 141.865 59.0016C142.135 58.9356 142.429 58.9026 142.747 58.9026C143.251 58.9026 143.692 58.9866 144.07 59.1546C144.454 59.3226 144.775 59.5596 145.033 59.8656C145.297 60.1716 145.495 60.5406 145.627 60.9726C145.759 61.3986 145.825 61.8696 145.825 62.3856V68.2266H143.899V62.3856C143.899 61.7676 143.755 61.2876 143.467 60.9456C143.185 60.6036 142.753 60.4326 142.171 60.4326C141.739 60.4326 141.337 60.5316 140.965 60.7296C140.599 60.9276 140.254 61.1976 139.93 61.5396V68.2266H137.995V59.0466H139.165C139.429 59.0466 139.597 59.1696 139.669 59.4156L139.804 60.2616ZM150.101 59.0466V68.2266H148.166V59.0466H150.101ZM150.425 56.2746C150.425 56.4486 150.389 56.6136 150.317 56.7696C150.251 56.9256 150.158 57.0636 150.038 57.1836C149.918 57.2976 149.777 57.3906 149.615 57.4626C149.459 57.5286 149.291 57.5616 149.111 57.5616C148.937 57.5616 148.772 57.5286 148.616 57.4626C148.466 57.3906 148.334 57.2976 148.22 57.1836C148.106 57.0636 148.013 56.9256 147.941 56.7696C147.875 56.6136 147.842 56.4486 147.842 56.2746C147.842 56.0946 147.875 55.9266 147.941 55.7706C148.013 55.6146 148.106 55.4796 148.22 55.3656C148.334 55.2456 148.466 55.1526 148.616 55.0866C148.772 55.0146 148.937 54.9786 149.111 54.9786C149.291 54.9786 149.459 55.0146 149.615 55.0866C149.777 55.1526 149.918 55.2456 150.038 55.3656C150.158 55.4796 150.251 55.6146 150.317 55.7706C150.389 55.9266 150.425 56.0946 150.425 56.2746ZM159.004 59.8566C159.004 59.9946 158.98 60.1296 158.932 60.2616C158.89 60.3936 158.827 60.5046 158.743 60.5946L154.09 66.7236H158.851V68.2266H151.849V67.4166C151.849 67.3266 151.87 67.2186 151.912 67.0926C151.954 66.9666 152.017 66.8466 152.101 66.7326L156.79 60.5496H152.119V59.0466H159.004V59.8566ZM165.647 64.2126C164.957 64.2366 164.375 64.2936 163.901 64.3836C163.427 64.4676 163.043 64.5786 162.749 64.7166C162.455 64.8486 162.242 65.0076 162.11 65.1936C161.984 65.3796 161.921 65.5836 161.921 65.8056C161.921 66.0216 161.954 66.2076 162.02 66.3636C162.092 66.5136 162.188 66.6396 162.308 66.7416C162.434 66.8376 162.578 66.9096 162.74 66.9576C162.908 66.9996 163.091 67.0206 163.289 67.0206C163.793 67.0206 164.225 66.9276 164.585 66.7416C164.951 66.5496 165.305 66.2736 165.647 65.9136V64.2126ZM160.517 60.3246C161.555 59.3586 162.791 58.8756 164.225 58.8756C164.753 58.8756 165.221 58.9626 165.629 59.1366C166.043 59.3046 166.388 59.5446 166.664 59.8566C166.946 60.1686 167.159 60.5406 167.303 60.9726C167.453 61.3986 167.528 61.8726 167.528 62.3946V68.2266H166.664C166.478 68.2266 166.337 68.1996 166.241 68.1456C166.145 68.0856 166.064 67.9686 165.998 67.7946L165.809 67.0476C165.575 67.2576 165.344 67.4466 165.116 67.6146C164.888 67.7766 164.651 67.9146 164.405 68.0286C164.165 68.1426 163.904 68.2266 163.622 68.2806C163.346 68.3406 163.04 68.3706 162.704 68.3706C162.332 68.3706 161.984 68.3196 161.66 68.2176C161.342 68.1156 161.066 67.9626 160.832 67.7586C160.598 67.5486 160.412 67.2906 160.274 66.9846C160.142 66.6786 160.076 66.3186 160.076 65.9046C160.076 65.5506 160.169 65.2056 160.355 64.8696C160.547 64.5336 160.859 64.2336 161.291 63.9696C161.729 63.6996 162.302 63.4776 163.01 63.3036C163.724 63.1296 164.603 63.0306 165.647 63.0066V62.3946C165.647 61.7346 165.506 61.2426 165.224 60.9186C164.942 60.5946 164.528 60.4326 163.982 60.4326C163.61 60.4326 163.298 60.4806 163.046 60.5766C162.794 60.6666 162.575 60.7656 162.389 60.8736C162.203 60.9816 162.038 61.0836 161.894 61.1796C161.75 61.2696 161.597 61.3146 161.435 61.3146C161.303 61.3146 161.189 61.2816 161.093 61.2156C161.003 61.1436 160.928 61.0566 160.868 60.9546L160.517 60.3246ZM178.581 68.2266H176.646V60.5676H172.173V65.7786C172.173 66.1086 172.254 66.3606 172.416 66.5346C172.578 66.7086 172.794 66.7956 173.064 66.7956C173.214 66.7956 173.343 66.7776 173.451 66.7416C173.559 66.6996 173.652 66.6576 173.73 66.6156C173.808 66.5676 173.874 66.5256 173.928 66.4896C173.988 66.4476 174.045 66.4266 174.099 66.4266C174.207 66.4266 174.294 66.4866 174.36 66.6066L174.936 67.5516C174.636 67.8156 174.282 68.0196 173.874 68.1636C173.466 68.3016 173.046 68.3706 172.614 68.3706C171.852 68.3706 171.264 68.1576 170.85 67.7316C170.442 67.2996 170.238 66.6936 170.238 65.9136V60.5676H169.23C169.122 60.5676 169.029 60.5346 168.951 60.4686C168.873 60.3966 168.834 60.2916 168.834 60.1536V59.3706L170.319 59.1546L170.742 56.4996C170.772 56.3976 170.823 56.3166 170.895 56.2566C170.967 56.1906 171.063 56.1576 171.183 56.1576H172.173V59.1726H178.581V68.2266ZM178.977 56.2296C178.977 56.4036 178.941 56.5686 178.869 56.7246C178.803 56.8746 178.71 57.0096 178.59 57.1296C178.47 57.2436 178.329 57.3366 178.167 57.4086C178.011 57.4746 177.846 57.5076 177.672 57.5076C177.498 57.5076 177.333 57.4746 177.177 57.4086C177.027 57.3366 176.892 57.2436 176.772 57.1296C176.658 57.0096 176.565 56.8746 176.493 56.7246C176.427 56.5686 176.394 56.4036 176.394 56.2296C176.394 56.0496 176.427 55.8816 176.493 55.7256C176.565 55.5636 176.658 55.4256 176.772 55.3116C176.892 55.1916 177.027 55.0986 177.177 55.0326C177.333 54.9606 177.498 54.9246 177.672 54.9246C177.846 54.9246 178.011 54.9606 178.167 55.0326C178.329 55.0986 178.47 55.1916 178.59 55.3116C178.71 55.4256 178.803 55.5636 178.869 55.7256C178.941 55.8816 178.977 56.0496 178.977 56.2296ZM184.996 58.9026C185.674 58.9026 186.286 59.0136 186.832 59.2356C187.384 59.4576 187.852 59.7726 188.236 60.1806C188.626 60.5886 188.926 61.0836 189.136 61.6656C189.346 62.2476 189.451 62.9016 189.451 63.6276C189.451 64.3536 189.346 65.0076 189.136 65.5896C188.926 66.1716 188.626 66.6696 188.236 67.0836C187.852 67.4916 187.384 67.8066 186.832 68.0286C186.286 68.2506 185.674 68.3616 184.996 68.3616C184.312 68.3616 183.694 68.2506 183.142 68.0286C182.596 67.8066 182.128 67.4916 181.738 67.0836C181.348 66.6696 181.048 66.1716 180.838 65.5896C180.628 65.0076 180.523 64.3536 180.523 63.6276C180.523 62.9016 180.628 62.2476 180.838 61.6656C181.048 61.0836 181.348 60.5886 181.738 60.1806C182.128 59.7726 182.596 59.4576 183.142 59.2356C183.694 59.0136 184.312 58.9026 184.996 58.9026ZM184.996 66.8496C185.824 66.8496 186.439 66.5736 186.841 66.0216C187.249 65.4636 187.453 64.6686 187.453 63.6366C187.453 62.6046 187.249 61.8096 186.841 61.2516C186.439 60.6876 185.824 60.4056 184.996 60.4056C184.156 60.4056 183.532 60.6876 183.124 61.2516C182.716 61.8096 182.512 62.6046 182.512 63.6366C182.512 64.6686 182.716 65.4636 183.124 66.0216C183.532 66.5736 184.156 66.8496 184.996 66.8496ZM193.119 60.2616C193.317 60.0576 193.521 59.8746 193.731 59.7126C193.947 59.5446 194.175 59.4006 194.415 59.2806C194.655 59.1606 194.91 59.0676 195.18 59.0016C195.45 58.9356 195.744 58.9026 196.062 58.9026C196.566 58.9026 197.007 58.9866 197.385 59.1546C197.769 59.3226 198.09 59.5596 198.348 59.8656C198.612 60.1716 198.81 60.5406 198.942 60.9726C199.074 61.3986 199.14 61.8696 199.14 62.3856V68.2266H197.214V62.3856C197.214 61.7676 197.07 61.2876 196.782 60.9456C196.5 60.6036 196.068 60.4326 195.486 60.4326C195.054 60.4326 194.652 60.5316 194.28 60.7296C193.914 60.9276 193.569 61.1976 193.245 61.5396V68.2266H191.31V59.0466H192.48C192.744 59.0466 192.912 59.1696 192.984 59.4156L193.119 60.2616ZM211.741 61.3056C211.471 60.9576 211.174 60.7146 210.85 60.5766C210.526 60.4386 210.175 60.3696 209.797 60.3696C209.041 60.3696 208.45 60.6486 208.024 61.2066C207.598 61.7586 207.385 62.5776 207.385 63.6636C207.385 64.2276 207.433 64.7106 207.529 65.1126C207.625 65.5086 207.763 65.8326 207.943 66.0846C208.123 66.3366 208.342 66.5196 208.6 66.6336C208.858 66.7476 209.149 66.8046 209.473 66.8046C209.965 66.8046 210.388 66.6996 210.742 66.4896C211.102 66.2736 211.435 65.9706 211.741 65.5806V61.3056ZM213.676 54.9066V68.2266H212.506C212.248 68.2266 212.083 68.1036 212.011 67.8576L211.84 66.8586C211.456 67.3086 211.018 67.6716 210.526 67.9476C210.04 68.2236 209.473 68.3616 208.825 68.3616C208.309 68.3616 207.841 68.2596 207.421 68.0556C207.001 67.8456 206.641 67.5426 206.341 67.1466C206.041 66.7506 205.807 66.2616 205.639 65.6796C205.477 65.0916 205.396 64.4196 205.396 63.6636C205.396 62.9796 205.486 62.3466 205.666 61.7646C205.852 61.1826 206.116 60.6786 206.458 60.2526C206.8 59.8206 207.214 59.4846 207.7 59.2446C208.192 58.9986 208.741 58.8756 209.347 58.8756C209.887 58.8756 210.346 58.9626 210.724 59.1366C211.102 59.3046 211.441 59.5416 211.741 59.8476V54.9066H213.676ZM222.063 62.6016C222.063 62.2776 222.015 61.9776 221.919 61.7016C221.829 61.4196 221.694 61.1766 221.514 60.9726C221.334 60.7626 221.109 60.6006 220.839 60.4866C220.575 60.3666 220.269 60.3066 219.921 60.3066C219.219 60.3066 218.667 60.5076 218.265 60.9096C217.863 61.3116 217.608 61.8756 217.5 62.6016H222.063ZM217.446 63.7896C217.47 64.3116 217.551 64.7646 217.689 65.1486C217.827 65.5266 218.01 65.8416 218.238 66.0936C218.472 66.3456 218.748 66.5346 219.066 66.6606C219.39 66.7806 219.75 66.8406 220.146 66.8406C220.524 66.8406 220.851 66.7986 221.127 66.7146C221.403 66.6246 221.643 66.5286 221.847 66.4266C222.051 66.3186 222.225 66.2226 222.369 66.1386C222.513 66.0486 222.645 66.0036 222.765 66.0036C222.921 66.0036 223.041 66.0636 223.125 66.1836L223.674 66.8946C223.446 67.1646 223.188 67.3926 222.9 67.5786C222.612 67.7646 222.306 67.9176 221.982 68.0376C221.658 68.1516 221.325 68.2326 220.983 68.2806C220.641 68.3346 220.308 68.3616 219.984 68.3616C219.348 68.3616 218.757 68.2566 218.211 68.0466C217.671 67.8306 217.2 67.5156 216.798 67.1016C216.402 66.6876 216.09 66.1746 215.862 65.5626C215.64 64.9506 215.529 64.2456 215.529 63.4476C215.529 62.8116 215.628 62.2176 215.826 61.6656C216.03 61.1136 216.318 60.6336 216.69 60.2256C217.068 59.8176 217.524 59.4966 218.058 59.2626C218.598 59.0226 219.207 58.9026 219.885 58.9026C220.449 58.9026 220.971 58.9956 221.451 59.1816C221.931 59.3616 222.345 59.6286 222.693 59.9826C223.041 60.3366 223.311 60.7716 223.503 61.2876C223.701 61.7976 223.8 62.3796 223.8 63.0336C223.8 63.3336 223.767 63.5346 223.701 63.6366C223.635 63.7386 223.515 63.7896 223.341 63.7896H217.446ZM231.086 60.7116C231.038 60.7956 230.984 60.8556 230.924 60.8916C230.864 60.9276 230.789 60.9456 230.699 60.9456C230.597 60.9456 230.486 60.9156 230.366 60.8556C230.246 60.7896 230.105 60.7176 229.943 60.6396C229.781 60.5616 229.589 60.4926 229.367 60.4326C229.151 60.3666 228.896 60.3336 228.602 60.3336C228.362 60.3336 228.143 60.3636 227.945 60.4236C227.753 60.4776 227.588 60.5586 227.45 60.6666C227.318 60.7686 227.216 60.8916 227.144 61.0356C227.072 61.1736 227.036 61.3236 227.036 61.4856C227.036 61.7016 227.102 61.8816 227.234 62.0256C227.366 62.1696 227.54 62.2956 227.756 62.4036C227.972 62.5056 228.218 62.5986 228.494 62.6826C228.77 62.7666 229.052 62.8566 229.34 62.9526C229.628 63.0486 229.91 63.1596 230.186 63.2856C230.462 63.4116 230.708 63.5676 230.924 63.7536C231.14 63.9336 231.314 64.1556 231.446 64.4196C231.578 64.6776 231.644 64.9926 231.644 65.3646C231.644 65.7966 231.566 66.1956 231.41 66.5616C231.254 66.9276 231.026 67.2456 230.726 67.5156C230.426 67.7856 230.051 67.9956 229.601 68.1456C229.157 68.2956 228.647 68.3706 228.071 68.3706C227.753 68.3706 227.444 68.3406 227.144 68.2806C226.85 68.2266 226.568 68.1516 226.298 68.0556C226.034 67.9536 225.785 67.8336 225.551 67.6956C225.323 67.5576 225.119 67.4076 224.939 67.2456L225.389 66.5076C225.443 66.4176 225.509 66.3486 225.587 66.3006C225.671 66.2466 225.773 66.2196 225.893 66.2196C226.019 66.2196 226.142 66.2616 226.262 66.3456C226.388 66.4236 226.532 66.5106 226.694 66.6066C226.862 66.7026 227.063 66.7926 227.297 66.8766C227.531 66.9546 227.822 66.9936 228.17 66.9936C228.458 66.9936 228.707 66.9606 228.917 66.8946C229.127 66.8226 229.301 66.7266 229.439 66.6066C229.577 66.4866 229.679 66.3516 229.745 66.2016C229.811 66.0456 229.844 65.8806 229.844 65.7066C229.844 65.4726 229.778 65.2806 229.646 65.1306C229.514 64.9806 229.337 64.8516 229.115 64.7436C228.899 64.6356 228.65 64.5396 228.368 64.4556C228.092 64.3716 227.81 64.2816 227.522 64.1856C227.234 64.0896 226.949 63.9786 226.667 63.8526C226.391 63.7266 226.142 63.5676 225.92 63.3756C225.704 63.1776 225.53 62.9406 225.398 62.6646C225.266 62.3826 225.2 62.0406 225.2 61.6386C225.2 61.2726 225.272 60.9246 225.416 60.5946C225.566 60.2646 225.782 59.9736 226.064 59.7216C226.352 59.4696 226.703 59.2716 227.117 59.1276C227.537 58.9776 228.02 58.9026 228.566 58.9026C229.184 58.9026 229.745 59.0016 230.249 59.1996C230.753 59.3976 231.176 59.6676 231.518 60.0096L231.086 60.7116ZM235.478 59.0466V68.2266H233.543V59.0466H235.478ZM235.802 56.2746C235.802 56.4486 235.766 56.6136 235.694 56.7696C235.628 56.9256 235.535 57.0636 235.415 57.1836C235.295 57.2976 235.154 57.3906 234.992 57.4626C234.836 57.5286 234.668 57.5616 234.488 57.5616C234.314 57.5616 234.149 57.5286 233.993 57.4626C233.843 57.3906 233.711 57.2976 233.597 57.1836C233.483 57.0636 233.39 56.9256 233.318 56.7696C233.252 56.6136 233.219 56.4486 233.219 56.2746C233.219 56.0946 233.252 55.9266 233.318 55.7706C233.39 55.6146 233.483 55.4796 233.597 55.3656C233.711 55.2456 233.843 55.1526 233.993 55.0866C234.149 55.0146 234.314 54.9786 234.488 54.9786C234.668 54.9786 234.836 55.0146 234.992 55.0866C235.154 55.1526 235.295 55.2456 235.415 55.3656C235.535 55.4796 235.628 55.6146 235.694 55.7706C235.766 55.9266 235.802 56.0946 235.802 56.2746ZM241.185 63.5556C241.785 63.5556 242.235 63.4026 242.535 63.0966C242.835 62.7906 242.985 62.3916 242.985 61.8996C242.985 61.3956 242.835 60.9966 242.535 60.7026C242.235 60.4086 241.785 60.2616 241.185 60.2616C240.591 60.2616 240.141 60.4086 239.835 60.7026C239.535 60.9966 239.385 61.3956 239.385 61.8996C239.385 62.1396 239.424 62.3616 239.502 62.5656C239.58 62.7696 239.694 62.9466 239.844 63.0966C239.994 63.2406 240.18 63.3546 240.402 63.4386C240.63 63.5166 240.891 63.5556 241.185 63.5556ZM243.876 68.6766C243.876 68.4726 243.816 68.3106 243.696 68.1906C243.582 68.0646 243.426 67.9686 243.228 67.9026C243.03 67.8306 242.799 67.7796 242.535 67.7496C242.271 67.7136 241.989 67.6896 241.689 67.6776C241.395 67.6596 241.092 67.6446 240.78 67.6326C240.474 67.6146 240.177 67.5846 239.889 67.5426C239.601 67.6926 239.364 67.8726 239.178 68.0826C238.998 68.2926 238.908 68.5356 238.908 68.8116C238.908 68.9916 238.953 69.1596 239.043 69.3156C239.139 69.4716 239.283 69.6066 239.475 69.7206C239.673 69.8346 239.922 69.9246 240.222 69.9906C240.528 70.0566 240.894 70.0896 241.32 70.0896C242.172 70.0896 242.811 69.9576 243.237 69.6936C243.663 69.4296 243.876 69.0906 243.876 68.6766ZM245.82 59.3796V60.0996C245.82 60.3396 245.676 60.4866 245.388 60.5406L244.47 60.6936C244.626 61.0416 244.704 61.4286 244.704 61.8546C244.704 62.3046 244.614 62.7126 244.434 63.0786C244.26 63.4446 244.017 63.7566 243.705 64.0146C243.393 64.2726 243.021 64.4706 242.589 64.6086C242.157 64.7466 241.689 64.8156 241.185 64.8156C240.993 64.8156 240.804 64.8066 240.618 64.7886C240.438 64.7646 240.261 64.7346 240.087 64.6986C239.913 64.8006 239.784 64.9086 239.7 65.0226C239.616 65.1366 239.574 65.2536 239.574 65.3736C239.574 65.5716 239.661 65.7186 239.835 65.8146C240.009 65.9106 240.237 65.9796 240.519 66.0216C240.807 66.0636 241.134 66.0906 241.5 66.1026C241.866 66.1146 242.238 66.1356 242.616 66.1656C242.994 66.1956 243.366 66.2466 243.732 66.3186C244.098 66.3846 244.422 66.4986 244.704 66.6606C244.992 66.8166 245.223 67.0296 245.397 67.2996C245.571 67.5696 245.658 67.9206 245.658 68.3526C245.658 68.7486 245.559 69.1356 245.361 69.5136C245.163 69.8916 244.875 70.2276 244.497 70.5216C244.125 70.8156 243.669 71.0496 243.129 71.2236C242.589 71.4036 241.974 71.4936 241.284 71.4936C240.6 71.4936 240.003 71.4276 239.493 71.2956C238.989 71.1636 238.566 70.9836 238.224 70.7556C237.888 70.5336 237.636 70.2756 237.468 69.9816C237.306 69.6876 237.225 69.3816 237.225 69.0636C237.225 68.6316 237.36 68.2626 237.63 67.9566C237.906 67.6506 238.278 67.4106 238.746 67.2366C238.494 67.1166 238.29 66.9516 238.134 66.7416C237.984 66.5316 237.909 66.2556 237.909 65.9136C237.909 65.6436 238.008 65.3616 238.206 65.0676C238.404 64.7736 238.701 64.5246 239.097 64.3206C238.641 64.0686 238.281 63.7356 238.017 63.3216C237.753 62.9016 237.621 62.4126 237.621 61.8546C237.621 61.3986 237.708 60.9876 237.882 60.6216C238.062 60.2556 238.311 59.9436 238.629 59.6856C238.947 59.4276 239.322 59.2296 239.754 59.0916C240.192 58.9536 240.669 58.8846 241.185 58.8846C241.977 58.8846 242.667 59.0496 243.255 59.3796H245.82ZM249.158 60.2616C249.356 60.0576 249.56 59.8746 249.77 59.7126C249.986 59.5446 250.214 59.4006 250.454 59.2806C250.694 59.1606 250.949 59.0676 251.219 59.0016C251.489 58.9356 251.783 58.9026 252.101 58.9026C252.605 58.9026 253.046 58.9866 253.424 59.1546C253.808 59.3226 254.129 59.5596 254.387 59.8656C254.651 60.1716 254.849 60.5406 254.981 60.9726C255.113 61.3986 255.179 61.8696 255.179 62.3856V68.2266H253.253V62.3856C253.253 61.7676 253.109 61.2876 252.821 60.9456C252.539 60.6036 252.107 60.4326 251.525 60.4326C251.093 60.4326 250.691 60.5316 250.319 60.7296C249.953 60.9276 249.608 61.1976 249.284 61.5396V68.2266H247.349V59.0466H248.519C248.783 59.0466 248.951 59.1696 249.023 59.4156L249.158 60.2616Z" fill="#625FFB"/>
<defs>
<filter id="filter0_b_1620_9399" x="21.5" y="27.1699" width="261" height="67.2168" filterUnits="userSpaceOnUse" color-interpolation-filters="sRGB">
<feFlood flood-opacity="0" result="BackgroundImageFix"/>
<feGaussianBlur in="BackgroundImageFix" stdDeviation="5"/>
<feComposite in2="SourceAlpha" operator="in" result="effect1_backgroundBlur_1620_9399"/>
<feBlend mode="normal" in="SourceGraphic" in2="effect1_backgroundBlur_1620_9399" result="shape"/>
</filter>
</defs>
</svg>
