<svg width="214" height="82" viewBox="0 0 214 82" fill="none" xmlns="http://www.w3.org/2000/svg">
<path d="M19.3549 30.9341C19.3592 31.2738 19.2955 31.6109 19.1673 31.9256C19.0391 32.2403 18.8492 32.5262 18.6087 32.7664C18.3682 33.0067 18.082 33.1964 17.7669 33.3244C17.4519 33.4524 17.1144 33.5161 16.7743 33.5118H2.58074C2.10132 33.5079 1.63197 33.374 1.22288 33.1242C0.813782 32.8745 0.480325 32.5184 0.258163 32.0941C0.0515747 31.6619 -0.0335383 31.1818 0.0119167 30.7051C0.0573716 30.2283 0.231685 29.7729 0.516227 29.3875C2.80005 26.3253 5.84755 23.9145 9.35493 22.3954C7.84781 21.0174 6.68986 19.3016 5.97638 17.3892C5.2629 15.4768 5.01429 13.4224 5.25101 11.3953C5.48772 9.36817 6.20301 7.42617 7.33798 5.72913C8.47295 4.03208 9.99516 2.62852 11.7793 1.63396C13.5635 0.639397 15.5586 0.0822749 17.6005 0.00843863C19.6424 -0.0653976 21.6726 0.346165 23.5241 1.20926C25.3756 2.07235 26.9954 3.36229 28.2503 4.97291C29.5051 6.58354 30.3591 8.4688 30.742 10.4735C30.8374 10.9957 30.7712 11.5344 30.5522 12.018C30.3332 12.5016 29.9718 12.907 29.5162 13.1801C25.344 15.6513 22.1709 19.505 20.5485 24.0709C19.7487 26.2705 19.3446 28.594 19.3549 30.9341ZM79.4839 29.3875C77.2001 26.3253 74.1525 23.9145 70.6452 22.3954C72.1523 21.0174 73.3103 19.3016 74.0237 17.3892C74.7372 15.4768 74.9858 13.4224 74.7491 11.3953C74.5124 9.36817 73.7971 7.42617 72.6621 5.72913C71.5271 4.03208 70.0049 2.62852 68.2208 1.63396C66.4366 0.639397 64.4415 0.0822749 62.3996 0.00843863C60.3577 -0.0653976 58.3275 0.346165 56.476 1.20926C54.6245 2.07235 53.0046 3.36229 51.7498 4.97291C50.4949 6.58354 49.6409 8.4688 49.2581 10.4735C49.1627 10.9957 49.2289 11.5344 49.4479 12.018C49.6669 12.5016 50.0283 12.907 50.4839 13.1801C54.6615 15.645 57.8365 19.5009 59.4516 24.0709C60.2514 26.2705 60.6555 28.594 60.6452 30.9341C60.6408 31.2738 60.7046 31.6109 60.8328 31.9256C60.961 32.2403 61.1509 32.5262 61.3914 32.7664C61.6319 33.0067 61.9181 33.1964 62.2331 33.3244C62.5482 33.4524 62.8857 33.5161 63.2258 33.5118H77.4194C77.8986 33.5118 78.3684 33.3785 78.7761 33.1268C79.1838 32.8751 79.5132 32.5151 79.7276 32.0869C79.9419 31.6587 80.0326 31.1794 79.9896 30.7026C79.9465 30.2258 79.7714 29.7704 79.4839 29.3875ZM49.4194 43.2104C51.9877 41.2441 53.8748 38.5235 54.8154 35.4308C55.756 32.338 55.7029 29.0287 54.6635 25.9676C53.6242 22.9066 51.6508 20.2478 49.0207 18.3647C46.3906 16.4816 43.236 15.4689 40 15.4689C36.7641 15.4689 33.6094 16.4816 30.9793 18.3647C28.3493 20.2478 26.3759 22.9066 25.3366 25.9676C24.2972 29.0287 24.2441 32.338 25.1847 35.4308C26.1253 38.5235 28.0124 41.2441 30.5807 43.2104C25.5631 45.4355 21.4952 49.3618 19.0968 54.2946C18.906 54.6866 18.8206 55.1214 18.8488 55.5564C18.8771 55.9914 19.0182 56.4115 19.2581 56.7756C19.4815 57.1491 19.7981 57.4583 20.1769 57.6729C20.5558 57.8875 20.9839 58.0002 21.4194 58H58.5807C59.0162 58.0002 59.4443 57.8875 59.8232 57.6729C60.202 57.4583 60.5186 57.1491 60.742 56.7756C60.9819 56.4115 61.123 55.9914 61.1513 55.5564C61.1795 55.1214 61.0941 54.6866 60.9033 54.2946C58.5049 49.3618 54.437 45.4355 49.4194 43.2104Z" fill="#625FFB"/>
<path d="M19.3549 30.9341C19.3592 31.2738 19.2955 31.6109 19.1673 31.9256C19.0391 32.2403 18.8492 32.5262 18.6087 32.7664C18.3682 33.0067 18.082 33.1964 17.7669 33.3244C17.4519 33.4524 17.1144 33.5161 16.7743 33.5118H2.58074C2.10132 33.5079 1.63197 33.3739 1.22288 33.1242C0.813784 32.8745 0.480329 32.5184 0.258167 32.0941C0.0515786 31.6619 -0.0335386 31.1818 0.0119163 30.705C0.0573713 30.2283 0.231689 29.7729 0.516231 29.3875C2.80006 26.3252 5.84756 23.9145 9.35493 22.3954C7.84781 21.0174 6.68986 19.3016 5.97638 17.3892C5.2629 15.4768 5.01429 13.4225 5.25101 11.3953C5.48773 9.36818 6.20301 7.42617 7.33798 5.72913C8.47295 4.03208 9.99517 2.62852 11.7793 1.63396C13.5635 0.639399 15.5586 0.0822748 17.6005 0.00843861C19.6424 -0.0653976 21.6726 0.346166 23.5241 1.20926C25.3756 2.07235 26.9954 3.36229 28.2503 4.97291C29.5052 6.58354 30.3592 8.4688 30.742 10.4735C30.8374 10.9957 30.7712 11.5344 30.5522 12.018C30.3332 12.5016 29.9718 12.907 29.5162 13.1801C25.344 15.6514 22.1709 19.505 20.5485 24.0709C19.7487 26.2705 19.3446 28.594 19.3549 30.9341Z" fill="#FFB545"/>
<g filter="url(#filter0_b_1620_9512)">
<rect x="37" y="35" width="177" height="47" rx="10" fill="#EDEDFF" fill-opacity="0.5"/>
<rect x="37.5" y="35.5" width="176" height="46" rx="9.5" stroke="#EAEAF7" style="mix-blend-mode:multiply"/>
</g>
<path d="M67.076 56.82L64.133 66H62.594C62.414 66 62.288 65.883 62.216 65.649L60.389 59.934C60.341 59.772 60.296 59.61 60.254 59.448C60.218 59.286 60.185 59.127 60.155 58.971C60.089 59.295 60.008 59.619 59.912 59.943L58.058 65.649C57.992 65.883 57.851 66 57.635 66H56.168L53.225 56.82H54.755C54.905 56.82 55.028 56.859 55.124 56.937C55.226 57.009 55.292 57.096 55.322 57.198L56.852 62.544C56.912 62.79 56.963 63.03 57.005 63.264C57.053 63.492 57.095 63.72 57.131 63.948C57.191 63.72 57.254 63.492 57.32 63.264C57.386 63.03 57.455 62.79 57.527 62.544L59.246 57.171C59.276 57.063 59.336 56.976 59.426 56.91C59.522 56.838 59.636 56.802 59.768 56.802H60.614C60.752 56.802 60.869 56.838 60.965 56.91C61.061 56.976 61.124 57.063 61.154 57.171L62.828 62.544C62.9 62.79 62.966 63.03 63.026 63.264C63.092 63.498 63.152 63.732 63.206 63.966C63.248 63.738 63.293 63.507 63.341 63.273C63.389 63.039 63.446 62.796 63.512 62.544L65.069 57.198C65.105 57.09 65.171 57 65.267 56.928C65.363 56.856 65.48 56.82 65.618 56.82H67.076ZM72.316 56.676C72.994 56.676 73.606 56.787 74.152 57.009C74.704 57.231 75.172 57.546 75.556 57.954C75.946 58.362 76.246 58.857 76.456 59.439C76.666 60.021 76.771 60.675 76.771 61.401C76.771 62.127 76.666 62.781 76.456 63.363C76.246 63.945 75.946 64.443 75.556 64.857C75.172 65.265 74.704 65.58 74.152 65.802C73.606 66.024 72.994 66.135 72.316 66.135C71.632 66.135 71.014 66.024 70.462 65.802C69.916 65.58 69.448 65.265 69.058 64.857C68.668 64.443 68.368 63.945 68.158 63.363C67.948 62.781 67.843 62.127 67.843 61.401C67.843 60.675 67.948 60.021 68.158 59.439C68.368 58.857 68.668 58.362 69.058 57.954C69.448 57.546 69.916 57.231 70.462 57.009C71.014 56.787 71.632 56.676 72.316 56.676ZM72.316 64.623C73.144 64.623 73.759 64.347 74.161 63.795C74.569 63.237 74.773 62.442 74.773 61.41C74.773 60.378 74.569 59.583 74.161 59.025C73.759 58.461 73.144 58.179 72.316 58.179C71.476 58.179 70.852 58.461 70.444 59.025C70.036 59.583 69.832 60.378 69.832 61.41C69.832 62.442 70.036 63.237 70.444 63.795C70.852 64.347 71.476 64.623 72.316 64.623ZM80.4572 58.521C80.7452 57.939 81.0932 57.483 81.5012 57.153C81.9092 56.817 82.3982 56.649 82.9682 56.649C83.1662 56.649 83.3522 56.673 83.5262 56.721C83.7002 56.763 83.8562 56.829 83.9942 56.919L83.8592 58.377C83.8352 58.479 83.7962 58.551 83.7422 58.593C83.6942 58.629 83.6282 58.647 83.5442 58.647C83.4542 58.647 83.3252 58.632 83.1572 58.602C82.9892 58.566 82.8122 58.548 82.6262 58.548C82.3562 58.548 82.1162 58.587 81.9062 58.665C81.7022 58.743 81.5162 58.857 81.3482 59.007C81.1862 59.157 81.0422 59.34 80.9162 59.556C80.7902 59.772 80.6732 60.018 80.5652 60.294V66H78.6302V56.82H79.7552C79.9592 56.82 80.1002 56.859 80.1782 56.937C80.2562 57.009 80.3102 57.138 80.3402 57.324L80.4572 58.521ZM87.2097 52.68V60.402H87.6237C87.7557 60.402 87.8637 60.384 87.9477 60.348C88.0317 60.312 88.1187 60.237 88.2087 60.123L90.7827 57.18C90.8727 57.06 90.9717 56.97 91.0797 56.91C91.1877 56.85 91.3257 56.82 91.4937 56.82H93.2487L90.1527 60.312C89.9727 60.546 89.7747 60.732 89.5587 60.87C89.6787 60.954 89.7837 61.05 89.8737 61.158C89.9637 61.26 90.0507 61.377 90.1347 61.509L93.4377 66H91.7097C91.5537 66 91.4187 65.976 91.3047 65.928C91.1967 65.874 91.1007 65.778 91.0167 65.64L88.3617 62.04C88.2717 61.902 88.1817 61.815 88.0917 61.779C88.0017 61.737 87.8667 61.716 87.6867 61.716H87.2097V66H85.2747V52.68H87.2097ZM95.309 66V58.359L94.409 58.233C94.259 58.203 94.136 58.149 94.04 58.071C93.95 57.993 93.905 57.882 93.905 57.738V56.946H95.309V56.514C95.309 56.016 95.387 55.542 95.543 55.092C95.699 54.642 95.933 54.246 96.245 53.904C96.563 53.562 96.959 53.289 97.433 53.085C97.913 52.881 98.477 52.779 99.125 52.779C99.611 52.779 100.073 52.797 100.511 52.833C100.949 52.869 101.384 52.89 101.816 52.896H103.103V66H101.186V54.246C100.862 54.234 100.544 54.219 100.232 54.201C99.92 54.183 99.65 54.174 99.422 54.174C98.702 54.174 98.147 54.378 97.757 54.786C97.373 55.194 97.181 55.77 97.181 56.514V56.946H99.458V58.341H97.244V66H95.309ZM109.476 56.676C110.154 56.676 110.766 56.787 111.312 57.009C111.864 57.231 112.332 57.546 112.716 57.954C113.106 58.362 113.406 58.857 113.616 59.439C113.826 60.021 113.931 60.675 113.931 61.401C113.931 62.127 113.826 62.781 113.616 63.363C113.406 63.945 113.106 64.443 112.716 64.857C112.332 65.265 111.864 65.58 111.312 65.802C110.766 66.024 110.154 66.135 109.476 66.135C108.792 66.135 108.174 66.024 107.622 65.802C107.076 65.58 106.608 65.265 106.218 64.857C105.828 64.443 105.528 63.945 105.318 63.363C105.108 62.781 105.003 62.127 105.003 61.401C105.003 60.675 105.108 60.021 105.318 59.439C105.528 58.857 105.828 58.362 106.218 57.954C106.608 57.546 107.076 57.231 107.622 57.009C108.174 56.787 108.792 56.676 109.476 56.676ZM109.476 64.623C110.304 64.623 110.919 64.347 111.321 63.795C111.729 63.237 111.933 62.442 111.933 61.41C111.933 60.378 111.729 59.583 111.321 59.025C110.919 58.461 110.304 58.179 109.476 58.179C108.636 58.179 108.012 58.461 107.604 59.025C107.196 59.583 106.992 60.378 106.992 61.41C106.992 62.442 107.196 63.237 107.604 63.795C108.012 64.347 108.636 64.623 109.476 64.623ZM128.547 56.82L125.604 66H124.065C123.885 66 123.759 65.883 123.687 65.649L121.86 59.934C121.812 59.772 121.767 59.61 121.725 59.448C121.689 59.286 121.656 59.127 121.626 58.971C121.56 59.295 121.479 59.619 121.383 59.943L119.529 65.649C119.463 65.883 119.322 66 119.106 66H117.639L114.696 56.82H116.226C116.376 56.82 116.499 56.859 116.595 56.937C116.697 57.009 116.763 57.096 116.793 57.198L118.323 62.544C118.383 62.79 118.434 63.03 118.476 63.264C118.524 63.492 118.566 63.72 118.602 63.948C118.662 63.72 118.725 63.492 118.791 63.264C118.857 63.03 118.926 62.79 118.998 62.544L120.717 57.171C120.747 57.063 120.807 56.976 120.897 56.91C120.993 56.838 121.107 56.802 121.239 56.802H122.085C122.223 56.802 122.34 56.838 122.436 56.91C122.532 56.976 122.595 57.063 122.625 57.171L124.299 62.544C124.371 62.79 124.437 63.03 124.497 63.264C124.563 63.498 124.623 63.732 124.677 63.966C124.719 63.738 124.764 63.507 124.812 63.273C124.86 63.039 124.917 62.796 124.983 62.544L126.54 57.198C126.576 57.09 126.642 57 126.738 56.928C126.834 56.856 126.951 56.82 127.089 56.82H128.547ZM134.072 66V56.82H135.242C135.506 56.82 135.674 56.943 135.746 57.189L135.872 57.99C136.04 57.798 136.214 57.624 136.394 57.468C136.574 57.306 136.766 57.168 136.97 57.054C137.18 56.934 137.402 56.841 137.636 56.775C137.876 56.709 138.134 56.676 138.41 56.676C138.704 56.676 138.974 56.718 139.22 56.802C139.466 56.886 139.682 57.006 139.868 57.162C140.06 57.318 140.225 57.507 140.363 57.729C140.501 57.951 140.615 58.2 140.705 58.476C140.843 58.158 141.017 57.885 141.227 57.657C141.437 57.429 141.671 57.243 141.929 57.099C142.187 56.955 142.46 56.85 142.748 56.784C143.042 56.712 143.339 56.676 143.639 56.676C144.131 56.676 144.569 56.754 144.953 56.91C145.343 57.066 145.67 57.294 145.934 57.594C146.204 57.888 146.408 58.251 146.546 58.683C146.684 59.115 146.753 59.607 146.753 60.159V66H144.818V60.159C144.818 59.511 144.677 59.025 144.395 58.701C144.119 58.371 143.708 58.206 143.162 58.206C142.916 58.206 142.685 58.248 142.469 58.332C142.253 58.416 142.064 58.539 141.902 58.701C141.74 58.863 141.611 59.067 141.515 59.313C141.425 59.553 141.38 59.835 141.38 60.159V66H139.445V60.159C139.445 59.487 139.31 58.995 139.04 58.683C138.77 58.365 138.374 58.206 137.852 58.206C137.492 58.206 137.159 58.299 136.853 58.485C136.547 58.665 136.265 58.914 136.007 59.232V66H134.072ZM153.918 61.986C153.228 62.01 152.646 62.067 152.172 62.157C151.698 62.241 151.314 62.352 151.02 62.49C150.726 62.622 150.513 62.781 150.381 62.967C150.255 63.153 150.192 63.357 150.192 63.579C150.192 63.795 150.225 63.981 150.291 64.137C150.363 64.287 150.459 64.413 150.579 64.515C150.705 64.611 150.849 64.683 151.011 64.731C151.179 64.773 151.362 64.794 151.56 64.794C152.064 64.794 152.496 64.701 152.856 64.515C153.222 64.323 153.576 64.047 153.918 63.687V61.986ZM148.788 58.098C149.826 57.132 151.062 56.649 152.496 56.649C153.024 56.649 153.492 56.736 153.9 56.91C154.314 57.078 154.659 57.318 154.935 57.63C155.217 57.942 155.43 58.314 155.574 58.746C155.724 59.172 155.799 59.646 155.799 60.168V66H154.935C154.749 66 154.608 65.973 154.512 65.919C154.416 65.859 154.335 65.742 154.269 65.568L154.08 64.821C153.846 65.031 153.615 65.22 153.387 65.388C153.159 65.55 152.922 65.688 152.676 65.802C152.436 65.916 152.175 66 151.893 66.054C151.617 66.114 151.311 66.144 150.975 66.144C150.603 66.144 150.255 66.093 149.931 65.991C149.613 65.889 149.337 65.736 149.103 65.532C148.869 65.322 148.683 65.064 148.545 64.758C148.413 64.452 148.347 64.092 148.347 63.678C148.347 63.324 148.44 62.979 148.626 62.643C148.818 62.307 149.13 62.007 149.562 61.743C150 61.473 150.573 61.251 151.281 61.077C151.995 60.903 152.874 60.804 153.918 60.78V60.168C153.918 59.508 153.777 59.016 153.495 58.692C153.213 58.368 152.799 58.206 152.253 58.206C151.881 58.206 151.569 58.254 151.317 58.35C151.065 58.44 150.846 58.539 150.66 58.647C150.474 58.755 150.309 58.857 150.165 58.953C150.021 59.043 149.868 59.088 149.706 59.088C149.574 59.088 149.46 59.055 149.364 58.989C149.274 58.917 149.199 58.83 149.139 58.728L148.788 58.098ZM163.547 58.485C163.499 58.569 163.445 58.629 163.385 58.665C163.325 58.701 163.25 58.719 163.16 58.719C163.058 58.719 162.947 58.689 162.827 58.629C162.707 58.563 162.566 58.491 162.404 58.413C162.242 58.335 162.05 58.266 161.828 58.206C161.612 58.14 161.357 58.107 161.063 58.107C160.823 58.107 160.604 58.137 160.406 58.197C160.214 58.251 160.049 58.332 159.911 58.44C159.779 58.542 159.677 58.665 159.605 58.809C159.533 58.947 159.497 59.097 159.497 59.259C159.497 59.475 159.563 59.655 159.695 59.799C159.827 59.943 160.001 60.069 160.217 60.177C160.433 60.279 160.679 60.372 160.955 60.456C161.231 60.54 161.513 60.63 161.801 60.726C162.089 60.822 162.371 60.933 162.647 61.059C162.923 61.185 163.169 61.341 163.385 61.527C163.601 61.707 163.775 61.929 163.907 62.193C164.039 62.451 164.105 62.766 164.105 63.138C164.105 63.57 164.027 63.969 163.871 64.335C163.715 64.701 163.487 65.019 163.187 65.289C162.887 65.559 162.512 65.769 162.062 65.919C161.618 66.069 161.108 66.144 160.532 66.144C160.214 66.144 159.905 66.114 159.605 66.054C159.311 66 159.029 65.925 158.759 65.829C158.495 65.727 158.246 65.607 158.012 65.469C157.784 65.331 157.58 65.181 157.4 65.019L157.85 64.281C157.904 64.191 157.97 64.122 158.048 64.074C158.132 64.02 158.234 63.993 158.354 63.993C158.48 63.993 158.603 64.035 158.723 64.119C158.849 64.197 158.993 64.284 159.155 64.38C159.323 64.476 159.524 64.566 159.758 64.65C159.992 64.728 160.283 64.767 160.631 64.767C160.919 64.767 161.168 64.734 161.378 64.668C161.588 64.596 161.762 64.5 161.9 64.38C162.038 64.26 162.14 64.125 162.206 63.975C162.272 63.819 162.305 63.654 162.305 63.48C162.305 63.246 162.239 63.054 162.107 62.904C161.975 62.754 161.798 62.625 161.576 62.517C161.36 62.409 161.111 62.313 160.829 62.229C160.553 62.145 160.271 62.055 159.983 61.959C159.695 61.863 159.41 61.752 159.128 61.626C158.852 61.5 158.603 61.341 158.381 61.149C158.165 60.951 157.991 60.714 157.859 60.438C157.727 60.156 157.661 59.814 157.661 59.412C157.661 59.046 157.733 58.698 157.877 58.368C158.027 58.038 158.243 57.747 158.525 57.495C158.813 57.243 159.164 57.045 159.578 56.901C159.998 56.751 160.481 56.676 161.027 56.676C161.645 56.676 162.206 56.775 162.71 56.973C163.214 57.171 163.637 57.441 163.979 57.783L163.547 58.485ZM168.866 66.144C168.104 66.144 167.516 65.931 167.102 65.505C166.694 65.073 166.49 64.467 166.49 63.687V58.341H165.482C165.374 58.341 165.281 58.308 165.203 58.242C165.125 58.17 165.086 58.065 165.086 57.927V57.144L166.571 56.928L166.994 54.273C167.024 54.171 167.075 54.09 167.147 54.03C167.219 53.964 167.315 53.931 167.435 53.931H168.425V56.946H170.972V58.341H168.425V63.552C168.425 63.882 168.506 64.134 168.668 64.308C168.83 64.482 169.046 64.569 169.316 64.569C169.466 64.569 169.595 64.551 169.703 64.515C169.811 64.473 169.904 64.431 169.982 64.389C170.06 64.341 170.126 64.299 170.18 64.263C170.24 64.221 170.297 64.2 170.351 64.2C170.459 64.2 170.546 64.26 170.612 64.38L171.188 65.325C170.888 65.589 170.534 65.793 170.126 65.937C169.718 66.075 169.298 66.144 168.866 66.144ZM178.448 60.375C178.448 60.051 178.4 59.751 178.304 59.475C178.214 59.193 178.079 58.95 177.899 58.746C177.719 58.536 177.494 58.374 177.224 58.26C176.96 58.14 176.654 58.08 176.306 58.08C175.604 58.08 175.052 58.281 174.65 58.683C174.248 59.085 173.993 59.649 173.885 60.375H178.448ZM173.831 61.563C173.855 62.085 173.936 62.538 174.074 62.922C174.212 63.3 174.395 63.615 174.623 63.867C174.857 64.119 175.133 64.308 175.451 64.434C175.775 64.554 176.135 64.614 176.531 64.614C176.909 64.614 177.236 64.572 177.512 64.488C177.788 64.398 178.028 64.302 178.232 64.2C178.436 64.092 178.61 63.996 178.754 63.912C178.898 63.822 179.03 63.777 179.15 63.777C179.306 63.777 179.426 63.837 179.51 63.957L180.059 64.668C179.831 64.938 179.573 65.166 179.285 65.352C178.997 65.538 178.691 65.691 178.367 65.811C178.043 65.925 177.71 66.006 177.368 66.054C177.026 66.108 176.693 66.135 176.369 66.135C175.733 66.135 175.142 66.03 174.596 65.82C174.056 65.604 173.585 65.289 173.183 64.875C172.787 64.461 172.475 63.948 172.247 63.336C172.025 62.724 171.914 62.019 171.914 61.221C171.914 60.585 172.013 59.991 172.211 59.439C172.415 58.887 172.703 58.407 173.075 57.999C173.453 57.591 173.909 57.27 174.443 57.036C174.983 56.796 175.592 56.676 176.27 56.676C176.834 56.676 177.356 56.769 177.836 56.955C178.316 57.135 178.73 57.402 179.078 57.756C179.426 58.11 179.696 58.545 179.888 59.061C180.086 59.571 180.185 60.153 180.185 60.807C180.185 61.107 180.152 61.308 180.086 61.41C180.02 61.512 179.9 61.563 179.726 61.563H173.831ZM183.817 58.521C184.105 57.939 184.453 57.483 184.861 57.153C185.269 56.817 185.758 56.649 186.328 56.649C186.526 56.649 186.712 56.673 186.886 56.721C187.06 56.763 187.216 56.829 187.354 56.919L187.219 58.377C187.195 58.479 187.156 58.551 187.102 58.593C187.054 58.629 186.988 58.647 186.904 58.647C186.814 58.647 186.685 58.632 186.517 58.602C186.349 58.566 186.172 58.548 185.986 58.548C185.716 58.548 185.476 58.587 185.266 58.665C185.062 58.743 184.876 58.857 184.708 59.007C184.546 59.157 184.402 59.34 184.276 59.556C184.15 59.772 184.033 60.018 183.925 60.294V66H181.99V56.82H183.115C183.319 56.82 183.46 56.859 183.538 56.937C183.616 57.009 183.67 57.138 183.7 57.324L183.817 58.521ZM196.779 56.82L191.721 68.61C191.655 68.748 191.574 68.856 191.478 68.934C191.388 69.012 191.247 69.051 191.055 69.051H189.624L191.316 65.379L187.572 56.82H189.255C189.417 56.82 189.54 56.859 189.624 56.937C189.714 57.009 189.78 57.096 189.822 57.198L192.009 62.409C192.063 62.559 192.111 62.709 192.153 62.859C192.201 63.003 192.246 63.153 192.288 63.309C192.336 63.153 192.384 63 192.432 62.85C192.48 62.7 192.534 62.55 192.594 62.4L194.691 57.198C194.733 57.09 194.802 57 194.898 56.928C195 56.856 195.111 56.82 195.231 56.82H196.779Z" fill="#625FFB"/>
<defs>
<filter id="filter0_b_1620_9512" x="27" y="25" width="197" height="67" filterUnits="userSpaceOnUse" color-interpolation-filters="sRGB">
<feFlood flood-opacity="0" result="BackgroundImageFix"/>
<feGaussianBlur in="BackgroundImageFix" stdDeviation="5"/>
<feComposite in2="SourceAlpha" operator="in" result="effect1_backgroundBlur_1620_9512"/>
<feBlend mode="normal" in="SourceGraphic" in2="effect1_backgroundBlur_1620_9512" result="shape"/>
</filter>
</defs>
</svg>
