<svg width="215" height="106" viewBox="0 0 215 106" fill="none" xmlns="http://www.w3.org/2000/svg">
<g clip-path="url(#clip0_1620_9495)">
<path d="M16.3333 15.8327H22.6667V25.3327H54.3333V15.8327H60.6667V31.666H67V15.8327C67 12.3493 64.15 9.49935 60.6667 9.49935H47.43C46.1 5.82602 42.6167 3.16602 38.5 3.16602C34.3833 3.16602 30.9 5.82602 29.57 9.49935H16.3333C12.85 9.49935 10 12.3493 10 15.8327V60.166C10 63.6493 12.85 66.4994 16.3333 66.4994H32.1667V60.166H16.3333V15.8327ZM38.5 9.49935C40.2417 9.49935 41.6667 10.9243 41.6667 12.666C41.6667 14.4077 40.2417 15.8327 38.5 15.8327C36.7583 15.8327 35.3333 14.4077 35.3333 12.666C35.3333 10.9243 36.7583 9.49935 38.5 9.49935Z" fill="#625FFB"/>
<path d="M64.7833 59.85C66.05 57.6333 67 55.1 67 52.25C67 44.3333 60.6667 38 52.75 38C44.8333 38 38.5 44.3333 38.5 52.25C38.5 60.1667 44.8333 66.5 52.75 66.5C55.6 66.5 58.1333 65.55 60.35 64.2833L68.9 72.8333L73.3333 68.4L64.7833 59.85ZM52.75 60.1667C48.3167 60.1667 44.8333 56.6833 44.8333 52.25C44.8333 47.8167 48.3167 44.3333 52.75 44.3333C57.1833 44.3333 60.6667 47.8167 60.6667 52.25C60.6667 56.6833 57.1833 60.1667 52.75 60.1667Z" fill="#FFB545"/>
</g>
<g filter="url(#filter0_b_1620_9495)">
<rect x="41" y="59" width="174" height="47" rx="10" fill="#EDEDFF" fill-opacity="0.5"/>
<rect x="41.5" y="59.5" width="173" height="46" rx="9.5" stroke="#EAEAF7" style="mix-blend-mode:multiply"/>
</g>
<path d="M62.919 80.82V90H61.749C61.491 90 61.326 89.877 61.254 89.631L61.11 88.776C60.918 88.98 60.714 89.166 60.498 89.334C60.288 89.502 60.063 89.646 59.823 89.766C59.583 89.886 59.325 89.979 59.049 90.045C58.779 90.111 58.488 90.144 58.176 90.144C57.672 90.144 57.228 90.06 56.844 89.892C56.46 89.724 56.136 89.487 55.872 89.181C55.614 88.875 55.419 88.509 55.287 88.083C55.155 87.651 55.089 87.177 55.089 86.661V80.82H57.024V86.661C57.024 87.279 57.165 87.759 57.447 88.101C57.735 88.443 58.17 88.614 58.752 88.614C59.178 88.614 59.574 88.518 59.94 88.326C60.312 88.128 60.66 87.858 60.984 87.516V80.82H62.919ZM67.0778 82.035C67.2758 81.831 67.4798 81.648 67.6898 81.486C67.9058 81.318 68.1338 81.174 68.3738 81.054C68.6138 80.934 68.8688 80.841 69.1388 80.775C69.4088 80.709 69.7028 80.676 70.0208 80.676C70.5248 80.676 70.9658 80.76 71.3438 80.928C71.7278 81.096 72.0488 81.333 72.3068 81.639C72.5708 81.945 72.7688 82.314 72.9008 82.746C73.0328 83.172 73.0988 83.643 73.0988 84.159V90H71.1728V84.159C71.1728 83.541 71.0288 83.061 70.7408 82.719C70.4588 82.377 70.0268 82.206 69.4448 82.206C69.0128 82.206 68.6108 82.305 68.2388 82.503C67.8728 82.701 67.5278 82.971 67.2038 83.313V90H65.2688V80.82H66.4388C66.7028 80.82 66.8708 80.943 66.9428 81.189L67.0778 82.035ZM77.3747 80.82V90H75.4397V80.82H77.3747ZM77.6987 78.048C77.6987 78.222 77.6627 78.387 77.5907 78.543C77.5247 78.699 77.4317 78.837 77.3117 78.957C77.1917 79.071 77.0507 79.164 76.8887 79.236C76.7327 79.302 76.5647 79.335 76.3847 79.335C76.2107 79.335 76.0457 79.302 75.8897 79.236C75.7397 79.164 75.6077 79.071 75.4937 78.957C75.3797 78.837 75.2867 78.699 75.2147 78.543C75.1487 78.387 75.1157 78.222 75.1157 78.048C75.1157 77.868 75.1487 77.7 75.2147 77.544C75.2867 77.388 75.3797 77.253 75.4937 77.139C75.6077 77.019 75.7397 76.926 75.8897 76.86C76.0457 76.788 76.2107 76.752 76.3847 76.752C76.5647 76.752 76.7327 76.788 76.8887 76.86C77.0507 76.926 77.1917 77.019 77.3117 77.139C77.4317 77.253 77.5247 77.388 77.5907 77.544C77.6627 77.7 77.6987 77.868 77.6987 78.048ZM80.436 90V82.359L79.536 82.233C79.386 82.203 79.263 82.149 79.167 82.071C79.077 81.993 79.032 81.882 79.032 81.738V80.946H80.436V80.559C80.436 79.995 80.526 79.476 80.706 79.002C80.886 78.528 81.159 78.117 81.525 77.769C81.891 77.421 82.347 77.151 82.893 76.959C83.445 76.761 84.09 76.662 84.828 76.662C85.068 76.662 85.314 76.677 85.566 76.707C85.824 76.737 86.043 76.782 86.223 76.842L86.16 77.85C86.148 77.976 86.073 78.048 85.935 78.066C85.797 78.078 85.614 78.084 85.386 78.084C84.828 78.084 84.354 78.138 83.964 78.246C83.574 78.348 83.256 78.507 83.01 78.723C82.764 78.933 82.584 79.197 82.47 79.515C82.362 79.827 82.308 80.193 82.308 80.613V80.946H87.933V90H85.998V82.341H82.371V90H80.436ZM96.409 84.375C96.409 84.051 96.361 83.751 96.265 83.475C96.175 83.193 96.04 82.95 95.86 82.746C95.68 82.536 95.455 82.374 95.185 82.26C94.921 82.14 94.615 82.08 94.267 82.08C93.565 82.08 93.013 82.281 92.611 82.683C92.209 83.085 91.954 83.649 91.846 84.375H96.409ZM91.792 85.563C91.816 86.085 91.897 86.538 92.035 86.922C92.173 87.3 92.356 87.615 92.584 87.867C92.818 88.119 93.094 88.308 93.412 88.434C93.736 88.554 94.096 88.614 94.492 88.614C94.87 88.614 95.197 88.572 95.473 88.488C95.749 88.398 95.989 88.302 96.193 88.2C96.397 88.092 96.571 87.996 96.715 87.912C96.859 87.822 96.991 87.777 97.111 87.777C97.267 87.777 97.387 87.837 97.471 87.957L98.02 88.668C97.792 88.938 97.534 89.166 97.246 89.352C96.958 89.538 96.652 89.691 96.328 89.811C96.004 89.925 95.671 90.006 95.329 90.054C94.987 90.108 94.654 90.135 94.33 90.135C93.694 90.135 93.103 90.03 92.557 89.82C92.017 89.604 91.546 89.289 91.144 88.875C90.748 88.461 90.436 87.948 90.208 87.336C89.986 86.724 89.875 86.019 89.875 85.221C89.875 84.585 89.974 83.991 90.172 83.439C90.376 82.887 90.664 82.407 91.036 81.999C91.414 81.591 91.87 81.27 92.404 81.036C92.944 80.796 93.553 80.676 94.231 80.676C94.795 80.676 95.317 80.769 95.797 80.955C96.277 81.135 96.691 81.402 97.039 81.756C97.387 82.11 97.657 82.545 97.849 83.061C98.047 83.571 98.146 84.153 98.146 84.807C98.146 85.107 98.113 85.308 98.047 85.41C97.981 85.512 97.861 85.563 97.687 85.563H91.792ZM105.809 83.079C105.539 82.731 105.242 82.488 104.918 82.35C104.594 82.212 104.243 82.143 103.865 82.143C103.109 82.143 102.518 82.422 102.092 82.98C101.666 83.532 101.453 84.351 101.453 85.437C101.453 86.001 101.501 86.484 101.597 86.886C101.693 87.282 101.831 87.606 102.011 87.858C102.191 88.11 102.41 88.293 102.668 88.407C102.926 88.521 103.217 88.578 103.541 88.578C104.033 88.578 104.456 88.473 104.81 88.263C105.17 88.047 105.503 87.744 105.809 87.354V83.079ZM107.744 76.68V90H106.574C106.316 90 106.151 89.877 106.079 89.631L105.908 88.632C105.524 89.082 105.086 89.445 104.594 89.721C104.108 89.997 103.541 90.135 102.893 90.135C102.377 90.135 101.909 90.033 101.489 89.829C101.069 89.619 100.709 89.316 100.409 88.92C100.109 88.524 99.8755 88.035 99.7075 87.453C99.5455 86.865 99.4645 86.193 99.4645 85.437C99.4645 84.753 99.5545 84.12 99.7345 83.538C99.9205 82.956 100.184 82.452 100.526 82.026C100.868 81.594 101.282 81.258 101.768 81.018C102.26 80.772 102.809 80.649 103.415 80.649C103.955 80.649 104.414 80.736 104.792 80.91C105.17 81.078 105.509 81.315 105.809 81.621V76.68H107.744ZM114.593 90V80.82H115.763C116.027 80.82 116.195 80.943 116.267 81.189L116.393 81.99C116.561 81.798 116.735 81.624 116.915 81.468C117.095 81.306 117.287 81.168 117.491 81.054C117.701 80.934 117.923 80.841 118.157 80.775C118.397 80.709 118.655 80.676 118.931 80.676C119.225 80.676 119.495 80.718 119.741 80.802C119.987 80.886 120.203 81.006 120.389 81.162C120.581 81.318 120.746 81.507 120.884 81.729C121.022 81.951 121.136 82.2 121.226 82.476C121.364 82.158 121.538 81.885 121.748 81.657C121.958 81.429 122.192 81.243 122.45 81.099C122.708 80.955 122.981 80.85 123.269 80.784C123.563 80.712 123.86 80.676 124.16 80.676C124.652 80.676 125.09 80.754 125.474 80.91C125.864 81.066 126.191 81.294 126.455 81.594C126.725 81.888 126.929 82.251 127.067 82.683C127.205 83.115 127.274 83.607 127.274 84.159V90H125.339V84.159C125.339 83.511 125.198 83.025 124.916 82.701C124.64 82.371 124.229 82.206 123.683 82.206C123.437 82.206 123.206 82.248 122.99 82.332C122.774 82.416 122.585 82.539 122.423 82.701C122.261 82.863 122.132 83.067 122.036 83.313C121.946 83.553 121.901 83.835 121.901 84.159V90H119.966V84.159C119.966 83.487 119.831 82.995 119.561 82.683C119.291 82.365 118.895 82.206 118.373 82.206C118.013 82.206 117.68 82.299 117.374 82.485C117.068 82.665 116.786 82.914 116.528 83.232V90H114.593ZM133.503 80.676C134.181 80.676 134.793 80.787 135.339 81.009C135.891 81.231 136.359 81.546 136.743 81.954C137.133 82.362 137.433 82.857 137.643 83.439C137.853 84.021 137.958 84.675 137.958 85.401C137.958 86.127 137.853 86.781 137.643 87.363C137.433 87.945 137.133 88.443 136.743 88.857C136.359 89.265 135.891 89.58 135.339 89.802C134.793 90.024 134.181 90.135 133.503 90.135C132.819 90.135 132.201 90.024 131.649 89.802C131.103 89.58 130.635 89.265 130.245 88.857C129.855 88.443 129.555 87.945 129.345 87.363C129.135 86.781 129.03 86.127 129.03 85.401C129.03 84.675 129.135 84.021 129.345 83.439C129.555 82.857 129.855 82.362 130.245 81.954C130.635 81.546 131.103 81.231 131.649 81.009C132.201 80.787 132.819 80.676 133.503 80.676ZM133.503 88.623C134.331 88.623 134.946 88.347 135.348 87.795C135.756 87.237 135.96 86.442 135.96 85.41C135.96 84.378 135.756 83.583 135.348 83.025C134.946 82.461 134.331 82.179 133.503 82.179C132.663 82.179 132.039 82.461 131.631 83.025C131.223 83.583 131.019 84.378 131.019 85.41C131.019 86.442 131.223 87.237 131.631 87.795C132.039 88.347 132.663 88.623 133.503 88.623ZM141.627 82.035C141.825 81.831 142.029 81.648 142.239 81.486C142.455 81.318 142.683 81.174 142.923 81.054C143.163 80.934 143.418 80.841 143.688 80.775C143.958 80.709 144.252 80.676 144.57 80.676C145.074 80.676 145.515 80.76 145.893 80.928C146.277 81.096 146.598 81.333 146.856 81.639C147.12 81.945 147.318 82.314 147.45 82.746C147.582 83.172 147.648 83.643 147.648 84.159V90H145.722V84.159C145.722 83.541 145.578 83.061 145.29 82.719C145.008 82.377 144.576 82.206 143.994 82.206C143.562 82.206 143.16 82.305 142.788 82.503C142.422 82.701 142.077 82.971 141.753 83.313V90H139.818V80.82H140.988C141.252 80.82 141.42 80.943 141.492 81.189L141.627 82.035ZM151.924 80.82V90H149.989V80.82H151.924ZM152.248 78.048C152.248 78.222 152.212 78.387 152.14 78.543C152.074 78.699 151.981 78.837 151.861 78.957C151.741 79.071 151.6 79.164 151.438 79.236C151.282 79.302 151.114 79.335 150.934 79.335C150.76 79.335 150.595 79.302 150.439 79.236C150.289 79.164 150.157 79.071 150.043 78.957C149.929 78.837 149.836 78.699 149.764 78.543C149.698 78.387 149.665 78.222 149.665 78.048C149.665 77.868 149.698 77.7 149.764 77.544C149.836 77.388 149.929 77.253 150.043 77.139C150.157 77.019 150.289 76.926 150.439 76.86C150.595 76.788 150.76 76.752 150.934 76.752C151.114 76.752 151.282 76.788 151.438 76.86C151.6 76.926 151.741 77.019 151.861 77.139C151.981 77.253 152.074 77.388 152.14 77.544C152.212 77.7 152.248 77.868 152.248 78.048ZM157.298 90.144C156.536 90.144 155.948 89.931 155.534 89.505C155.126 89.073 154.922 88.467 154.922 87.687V82.341H153.914C153.806 82.341 153.713 82.308 153.635 82.242C153.557 82.17 153.518 82.065 153.518 81.927V81.144L155.003 80.928L155.426 78.273C155.456 78.171 155.507 78.09 155.579 78.03C155.651 77.964 155.747 77.931 155.867 77.931H156.857V80.946H159.404V82.341H156.857V87.552C156.857 87.882 156.938 88.134 157.1 88.308C157.262 88.482 157.478 88.569 157.748 88.569C157.898 88.569 158.027 88.551 158.135 88.515C158.243 88.473 158.336 88.431 158.414 88.389C158.492 88.341 158.558 88.299 158.612 88.263C158.672 88.221 158.729 88.2 158.783 88.2C158.891 88.2 158.978 88.26 159.044 88.38L159.62 89.325C159.32 89.589 158.966 89.793 158.558 89.937C158.15 90.075 157.73 90.144 157.298 90.144ZM164.828 80.676C165.506 80.676 166.118 80.787 166.664 81.009C167.216 81.231 167.684 81.546 168.068 81.954C168.458 82.362 168.758 82.857 168.968 83.439C169.178 84.021 169.283 84.675 169.283 85.401C169.283 86.127 169.178 86.781 168.968 87.363C168.758 87.945 168.458 88.443 168.068 88.857C167.684 89.265 167.216 89.58 166.664 89.802C166.118 90.024 165.506 90.135 164.828 90.135C164.144 90.135 163.526 90.024 162.974 89.802C162.428 89.58 161.96 89.265 161.57 88.857C161.18 88.443 160.88 87.945 160.67 87.363C160.46 86.781 160.355 86.127 160.355 85.401C160.355 84.675 160.46 84.021 160.67 83.439C160.88 82.857 161.18 82.362 161.57 81.954C161.96 81.546 162.428 81.231 162.974 81.009C163.526 80.787 164.144 80.676 164.828 80.676ZM164.828 88.623C165.656 88.623 166.271 88.347 166.673 87.795C167.081 87.237 167.285 86.442 167.285 85.41C167.285 84.378 167.081 83.583 166.673 83.025C166.271 82.461 165.656 82.179 164.828 82.179C163.988 82.179 163.364 82.461 162.956 83.025C162.548 83.583 162.344 84.378 162.344 85.41C162.344 86.442 162.548 87.237 162.956 87.795C163.364 88.347 163.988 88.623 164.828 88.623ZM172.969 82.521C173.257 81.939 173.605 81.483 174.013 81.153C174.421 80.817 174.91 80.649 175.48 80.649C175.678 80.649 175.864 80.673 176.038 80.721C176.212 80.763 176.368 80.829 176.506 80.919L176.371 82.377C176.347 82.479 176.308 82.551 176.254 82.593C176.206 82.629 176.14 82.647 176.056 82.647C175.966 82.647 175.837 82.632 175.669 82.602C175.501 82.566 175.324 82.548 175.138 82.548C174.868 82.548 174.628 82.587 174.418 82.665C174.214 82.743 174.028 82.857 173.86 83.007C173.698 83.157 173.554 83.34 173.428 83.556C173.302 83.772 173.185 84.018 173.077 84.294V90H171.142V80.82H172.267C172.471 80.82 172.612 80.859 172.69 80.937C172.768 81.009 172.822 81.138 172.852 81.324L172.969 82.521ZM179.802 80.82V90H177.867V80.82H179.802ZM180.126 78.048C180.126 78.222 180.09 78.387 180.018 78.543C179.952 78.699 179.859 78.837 179.739 78.957C179.619 79.071 179.478 79.164 179.316 79.236C179.16 79.302 178.992 79.335 178.812 79.335C178.638 79.335 178.473 79.302 178.317 79.236C178.167 79.164 178.035 79.071 177.921 78.957C177.807 78.837 177.714 78.699 177.642 78.543C177.576 78.387 177.543 78.222 177.543 78.048C177.543 77.868 177.576 77.7 177.642 77.544C177.714 77.388 177.807 77.253 177.921 77.139C178.035 77.019 178.167 76.926 178.317 76.86C178.473 76.788 178.638 76.752 178.812 76.752C178.992 76.752 179.16 76.788 179.316 76.86C179.478 76.926 179.619 77.019 179.739 77.139C179.859 77.253 179.952 77.388 180.018 77.544C180.09 77.7 180.126 77.868 180.126 78.048ZM184.043 82.035C184.241 81.831 184.445 81.648 184.655 81.486C184.871 81.318 185.099 81.174 185.339 81.054C185.579 80.934 185.834 80.841 186.104 80.775C186.374 80.709 186.668 80.676 186.986 80.676C187.49 80.676 187.931 80.76 188.309 80.928C188.693 81.096 189.014 81.333 189.272 81.639C189.536 81.945 189.734 82.314 189.866 82.746C189.998 83.172 190.064 83.643 190.064 84.159V90H188.138V84.159C188.138 83.541 187.994 83.061 187.706 82.719C187.424 82.377 186.992 82.206 186.41 82.206C185.978 82.206 185.576 82.305 185.204 82.503C184.838 82.701 184.493 82.971 184.169 83.313V90H182.234V80.82H183.404C183.668 80.82 183.836 80.943 183.908 81.189L184.043 82.035ZM195.6 85.329C196.2 85.329 196.65 85.176 196.95 84.87C197.25 84.564 197.4 84.165 197.4 83.673C197.4 83.169 197.25 82.77 196.95 82.476C196.65 82.182 196.2 82.035 195.6 82.035C195.006 82.035 194.556 82.182 194.25 82.476C193.95 82.77 193.8 83.169 193.8 83.673C193.8 83.913 193.839 84.135 193.917 84.339C193.995 84.543 194.109 84.72 194.259 84.87C194.409 85.014 194.595 85.128 194.817 85.212C195.045 85.29 195.306 85.329 195.6 85.329ZM198.291 90.45C198.291 90.246 198.231 90.084 198.111 89.964C197.997 89.838 197.841 89.742 197.643 89.676C197.445 89.604 197.214 89.553 196.95 89.523C196.686 89.487 196.404 89.463 196.104 89.451C195.81 89.433 195.507 89.418 195.195 89.406C194.889 89.388 194.592 89.358 194.304 89.316C194.016 89.466 193.779 89.646 193.593 89.856C193.413 90.066 193.323 90.309 193.323 90.585C193.323 90.765 193.368 90.933 193.458 91.089C193.554 91.245 193.698 91.38 193.89 91.494C194.088 91.608 194.337 91.698 194.637 91.764C194.943 91.83 195.309 91.863 195.735 91.863C196.587 91.863 197.226 91.731 197.652 91.467C198.078 91.203 198.291 90.864 198.291 90.45ZM200.235 81.153V81.873C200.235 82.113 200.091 82.26 199.803 82.314L198.885 82.467C199.041 82.815 199.119 83.202 199.119 83.628C199.119 84.078 199.029 84.486 198.849 84.852C198.675 85.218 198.432 85.53 198.12 85.788C197.808 86.046 197.436 86.244 197.004 86.382C196.572 86.52 196.104 86.589 195.6 86.589C195.408 86.589 195.219 86.58 195.033 86.562C194.853 86.538 194.676 86.508 194.502 86.472C194.328 86.574 194.199 86.682 194.115 86.796C194.031 86.91 193.989 87.027 193.989 87.147C193.989 87.345 194.076 87.492 194.25 87.588C194.424 87.684 194.652 87.753 194.934 87.795C195.222 87.837 195.549 87.864 195.915 87.876C196.281 87.888 196.653 87.909 197.031 87.939C197.409 87.969 197.781 88.02 198.147 88.092C198.513 88.158 198.837 88.272 199.119 88.434C199.407 88.59 199.638 88.803 199.812 89.073C199.986 89.343 200.073 89.694 200.073 90.126C200.073 90.522 199.974 90.909 199.776 91.287C199.578 91.665 199.29 92.001 198.912 92.295C198.54 92.589 198.084 92.823 197.544 92.997C197.004 93.177 196.389 93.267 195.699 93.267C195.015 93.267 194.418 93.201 193.908 93.069C193.404 92.937 192.981 92.757 192.639 92.529C192.303 92.307 192.051 92.049 191.883 91.755C191.721 91.461 191.64 91.155 191.64 90.837C191.64 90.405 191.775 90.036 192.045 89.73C192.321 89.424 192.693 89.184 193.161 89.01C192.909 88.89 192.705 88.725 192.549 88.515C192.399 88.305 192.324 88.029 192.324 87.687C192.324 87.417 192.423 87.135 192.621 86.841C192.819 86.547 193.116 86.298 193.512 86.094C193.056 85.842 192.696 85.509 192.432 85.095C192.168 84.675 192.036 84.186 192.036 83.628C192.036 83.172 192.123 82.761 192.297 82.395C192.477 82.029 192.726 81.717 193.044 81.459C193.362 81.201 193.737 81.003 194.169 80.865C194.607 80.727 195.084 80.658 195.6 80.658C196.392 80.658 197.082 80.823 197.67 81.153H200.235Z" fill="#625FFB"/>
<defs>
<filter id="filter0_b_1620_9495" x="31" y="49" width="194" height="67" filterUnits="userSpaceOnUse" color-interpolation-filters="sRGB">
<feFlood flood-opacity="0" result="BackgroundImageFix"/>
<feGaussianBlur in="BackgroundImageFix" stdDeviation="5"/>
<feComposite in2="SourceAlpha" operator="in" result="effect1_backgroundBlur_1620_9495"/>
<feBlend mode="normal" in="SourceGraphic" in2="effect1_backgroundBlur_1620_9495" result="shape"/>
</filter>
<clipPath id="clip0_1620_9495">
<rect width="76" height="76" fill="white" transform="translate(0.5)"/>
</clipPath>
</defs>
</svg>
