<svg width="272" height="82" viewBox="0 0 272 82" fill="none" xmlns="http://www.w3.org/2000/svg">
<path d="M19.8549 30.9341C19.8592 31.2738 19.7955 31.6109 19.6673 31.9256C19.5391 32.2403 19.3492 32.5262 19.1087 32.7664C18.8682 33.0067 18.582 33.1964 18.2669 33.3244C17.9519 33.4524 17.6144 33.5161 17.2743 33.5118H3.08074C2.60132 33.5079 2.13197 33.374 1.72288 33.1242C1.31378 32.8745 0.980325 32.5184 0.758163 32.0941C0.551575 31.6619 0.466462 31.1818 0.511917 30.7051C0.557372 30.2283 0.731685 29.7729 1.01623 29.3875C3.30005 26.3253 6.34755 23.9145 9.85493 22.3954C8.34781 21.0174 7.18986 19.3016 6.47638 17.3892C5.7629 15.4768 5.51429 13.4224 5.75101 11.3953C5.98772 9.36817 6.70301 7.42617 7.83798 5.72913C8.97295 4.03208 10.4952 2.62852 12.2793 1.63396C14.0635 0.639397 16.0586 0.0822749 18.1005 0.00843863C20.1424 -0.0653976 22.1726 0.346165 24.0241 1.20926C25.8756 2.07235 27.4954 3.36229 28.7503 4.97291C30.0051 6.58354 30.8591 8.4688 31.242 10.4735C31.3374 10.9957 31.2712 11.5344 31.0522 12.018C30.8332 12.5016 30.4718 12.907 30.0162 13.1801C25.844 15.6513 22.6709 19.505 21.0485 24.0709C20.2487 26.2705 19.8446 28.594 19.8549 30.9341ZM79.9839 29.3875C77.7001 26.3253 74.6525 23.9145 71.1452 22.3954C72.6523 21.0174 73.8103 19.3016 74.5237 17.3892C75.2372 15.4768 75.4858 13.4224 75.2491 11.3953C75.0124 9.36817 74.2971 7.42617 73.1621 5.72913C72.0271 4.03208 70.5049 2.62852 68.7208 1.63396C66.9366 0.639397 64.9415 0.0822749 62.8996 0.00843863C60.8577 -0.0653976 58.8275 0.346165 56.976 1.20926C55.1245 2.07235 53.5046 3.36229 52.2498 4.97291C50.9949 6.58354 50.1409 8.4688 49.7581 10.4735C49.6627 10.9957 49.7289 11.5344 49.9479 12.018C50.1669 12.5016 50.5283 12.907 50.9839 13.1801C55.1615 15.645 58.3365 19.5009 59.9516 24.0709C60.7514 26.2705 61.1555 28.594 61.1452 30.9341C61.1408 31.2738 61.2046 31.6109 61.3328 31.9256C61.461 32.2403 61.6509 32.5262 61.8914 32.7664C62.1319 33.0067 62.4181 33.1964 62.7331 33.3244C63.0482 33.4524 63.3857 33.5161 63.7258 33.5118H77.9194C78.3986 33.5118 78.8684 33.3785 79.2761 33.1268C79.6838 32.8751 80.0132 32.5151 80.2276 32.0869C80.4419 31.6587 80.5326 31.1794 80.4896 30.7026C80.4465 30.2258 80.2714 29.7704 79.9839 29.3875ZM49.9194 43.2104C52.4877 41.2441 54.3748 38.5235 55.3154 35.4308C56.256 32.338 56.2029 29.0287 55.1635 25.9676C54.1242 22.9066 52.1508 20.2478 49.5207 18.3647C46.8906 16.4816 43.736 15.4689 40.5 15.4689C37.2641 15.4689 34.1094 16.4816 31.4793 18.3647C28.8493 20.2478 26.8759 22.9066 25.8366 25.9676C24.7972 29.0287 24.7441 32.338 25.6847 35.4308C26.6253 38.5235 28.5124 41.2441 31.0807 43.2104C26.0631 45.4355 21.9952 49.3618 19.5968 54.2946C19.406 54.6866 19.3206 55.1214 19.3488 55.5564C19.3771 55.9914 19.5182 56.4115 19.7581 56.7756C19.9815 57.1491 20.2981 57.4583 20.6769 57.6729C21.0558 57.8875 21.4839 58.0002 21.9194 58H59.0807C59.5162 58.0002 59.9443 57.8875 60.3232 57.6729C60.702 57.4583 61.0186 57.1491 61.242 56.7756C61.4819 56.4115 61.623 55.9914 61.6513 55.5564C61.6795 55.1214 61.5941 54.6866 61.4033 54.2946C59.0049 49.3618 54.937 45.4355 49.9194 43.2104Z" fill="#625FFB"/>
<path d="M19.8549 30.9341C19.8592 31.2738 19.7955 31.6109 19.6673 31.9256C19.5391 32.2403 19.3492 32.5262 19.1087 32.7664C18.8682 33.0067 18.582 33.1964 18.2669 33.3244C17.9519 33.4524 17.6144 33.5161 17.2743 33.5118H3.08074C2.60132 33.5079 2.13197 33.3739 1.72288 33.1242C1.31378 32.8745 0.980329 32.5184 0.758167 32.0941C0.551579 31.6619 0.466461 31.1818 0.511916 30.705C0.557371 30.2283 0.731689 29.7729 1.01623 29.3875C3.30006 26.3252 6.34756 23.9145 9.85493 22.3954C8.34781 21.0174 7.18986 19.3016 6.47638 17.3892C5.7629 15.4768 5.51429 13.4225 5.75101 11.3953C5.98773 9.36818 6.70301 7.42617 7.83798 5.72913C8.97295 4.03208 10.4952 2.62852 12.2793 1.63396C14.0635 0.639399 16.0586 0.0822748 18.1005 0.00843861C20.1424 -0.0653976 22.1726 0.346166 24.0241 1.20926C25.8756 2.07235 27.4954 3.36229 28.7503 4.97291C30.0052 6.58354 30.8592 8.4688 31.242 10.4735C31.3374 10.9957 31.2712 11.5344 31.0522 12.018C30.8332 12.5016 30.4718 12.907 30.0162 13.1801C25.844 15.6514 22.6709 19.505 21.0485 24.0709C20.2487 26.2705 19.8446 28.594 19.8549 30.9341Z" fill="#FFB545"/>
<g filter="url(#filter0_b_1620_9382)">
<rect x="37.5" y="35" width="234" height="47" rx="10" fill="#EDEDFF" fill-opacity="0.5"/>
<rect x="38" y="35.5" width="233" height="46" rx="9.5" stroke="#EAEAF7" style="mix-blend-mode:multiply"/>
</g>
<path d="M60.668 58.12C60.608 58.198 60.551 58.258 60.497 58.3C60.443 58.342 60.365 58.363 60.263 58.363C60.161 58.363 60.053 58.327 59.939 58.255C59.831 58.183 59.699 58.105 59.543 58.021C59.393 57.931 59.21 57.85 58.994 57.778C58.778 57.706 58.508 57.67 58.184 57.67C57.764 57.67 57.395 57.745 57.077 57.895C56.765 58.045 56.501 58.261 56.285 58.543C56.075 58.819 55.916 59.158 55.808 59.56C55.706 59.956 55.655 60.403 55.655 60.901C55.655 61.417 55.712 61.876 55.826 62.278C55.94 62.68 56.102 63.019 56.312 63.295C56.528 63.571 56.786 63.781 57.086 63.925C57.392 64.069 57.734 64.141 58.112 64.141C58.484 64.141 58.787 64.096 59.021 64.006C59.255 63.916 59.45 63.817 59.606 63.709C59.762 63.601 59.894 63.502 60.002 63.412C60.116 63.322 60.236 63.277 60.362 63.277C60.518 63.277 60.638 63.337 60.722 63.457L61.271 64.168C61.049 64.438 60.803 64.666 60.533 64.852C60.263 65.038 59.978 65.191 59.678 65.311C59.378 65.425 59.066 65.506 58.742 65.554C58.418 65.608 58.091 65.635 57.761 65.635C57.191 65.635 56.657 65.53 56.159 65.32C55.667 65.104 55.235 64.795 54.863 64.393C54.497 63.985 54.206 63.49 53.99 62.908C53.78 62.32 53.675 61.651 53.675 60.901C53.675 60.223 53.771 59.596 53.963 59.02C54.155 58.438 54.434 57.937 54.8 57.517C55.172 57.097 55.631 56.77 56.177 56.536C56.723 56.296 57.353 56.176 58.067 56.176C58.733 56.176 59.318 56.284 59.822 56.5C60.332 56.716 60.785 57.022 61.181 57.418L60.668 58.12ZM70.5674 56.32V65.5H69.3974C69.1394 65.5 68.9744 65.377 68.9024 65.131L68.7584 64.276C68.5664 64.48 68.3624 64.666 68.1464 64.834C67.9364 65.002 67.7114 65.146 67.4714 65.266C67.2314 65.386 66.9734 65.479 66.6974 65.545C66.4274 65.611 66.1364 65.644 65.8244 65.644C65.3204 65.644 64.8764 65.56 64.4924 65.392C64.1084 65.224 63.7844 64.987 63.5204 64.681C63.2624 64.375 63.0674 64.009 62.9354 63.583C62.8034 63.151 62.7374 62.677 62.7374 62.161V56.32H64.6724V62.161C64.6724 62.779 64.8134 63.259 65.0954 63.601C65.3834 63.943 65.8184 64.114 66.4004 64.114C66.8264 64.114 67.2224 64.018 67.5884 63.826C67.9604 63.628 68.3084 63.358 68.6324 63.016V56.32H70.5674ZM78.3983 57.985C78.3503 58.069 78.2963 58.129 78.2363 58.165C78.1763 58.201 78.1013 58.219 78.0113 58.219C77.9093 58.219 77.7983 58.189 77.6783 58.129C77.5583 58.063 77.4173 57.991 77.2553 57.913C77.0933 57.835 76.9013 57.766 76.6793 57.706C76.4633 57.64 76.2083 57.607 75.9143 57.607C75.6743 57.607 75.4553 57.637 75.2573 57.697C75.0653 57.751 74.9003 57.832 74.7623 57.94C74.6303 58.042 74.5283 58.165 74.4563 58.309C74.3843 58.447 74.3483 58.597 74.3483 58.759C74.3483 58.975 74.4143 59.155 74.5463 59.299C74.6783 59.443 74.8523 59.569 75.0683 59.677C75.2843 59.779 75.5303 59.872 75.8063 59.956C76.0823 60.04 76.3643 60.13 76.6523 60.226C76.9403 60.322 77.2223 60.433 77.4983 60.559C77.7743 60.685 78.0203 60.841 78.2363 61.027C78.4523 61.207 78.6263 61.429 78.7583 61.693C78.8903 61.951 78.9563 62.266 78.9563 62.638C78.9563 63.07 78.8783 63.469 78.7223 63.835C78.5663 64.201 78.3383 64.519 78.0383 64.789C77.7383 65.059 77.3633 65.269 76.9133 65.419C76.4693 65.569 75.9593 65.644 75.3833 65.644C75.0653 65.644 74.7563 65.614 74.4563 65.554C74.1623 65.5 73.8803 65.425 73.6103 65.329C73.3463 65.227 73.0973 65.107 72.8633 64.969C72.6353 64.831 72.4313 64.681 72.2513 64.519L72.7013 63.781C72.7553 63.691 72.8213 63.622 72.8993 63.574C72.9833 63.52 73.0853 63.493 73.2053 63.493C73.3313 63.493 73.4543 63.535 73.5743 63.619C73.7003 63.697 73.8443 63.784 74.0063 63.88C74.1743 63.976 74.3753 64.066 74.6093 64.15C74.8433 64.228 75.1343 64.267 75.4823 64.267C75.7703 64.267 76.0193 64.234 76.2293 64.168C76.4393 64.096 76.6133 64 76.7513 63.88C76.8893 63.76 76.9913 63.625 77.0573 63.475C77.1233 63.319 77.1563 63.154 77.1563 62.98C77.1563 62.746 77.0903 62.554 76.9583 62.404C76.8263 62.254 76.6493 62.125 76.4273 62.017C76.2113 61.909 75.9623 61.813 75.6803 61.729C75.4043 61.645 75.1223 61.555 74.8343 61.459C74.5463 61.363 74.2613 61.252 73.9793 61.126C73.7033 61 73.4543 60.841 73.2323 60.649C73.0163 60.451 72.8423 60.214 72.7103 59.938C72.5783 59.656 72.5123 59.314 72.5123 58.912C72.5123 58.546 72.5843 58.198 72.7283 57.868C72.8783 57.538 73.0943 57.247 73.3763 56.995C73.6643 56.743 74.0153 56.545 74.4293 56.401C74.8493 56.251 75.3323 56.176 75.8783 56.176C76.4963 56.176 77.0573 56.275 77.5613 56.473C78.0653 56.671 78.4883 56.941 78.8303 57.283L78.3983 57.985ZM83.7177 65.644C82.9557 65.644 82.3677 65.431 81.9537 65.005C81.5457 64.573 81.3417 63.967 81.3417 63.187V57.841H80.3337C80.2257 57.841 80.1327 57.808 80.0547 57.742C79.9767 57.67 79.9377 57.565 79.9377 57.427V56.644L81.4227 56.428L81.8457 53.773C81.8757 53.671 81.9267 53.59 81.9987 53.53C82.0707 53.464 82.1667 53.431 82.2867 53.431H83.2767V56.446H85.8237V57.841H83.2767V63.052C83.2767 63.382 83.3577 63.634 83.5197 63.808C83.6817 63.982 83.8977 64.069 84.1677 64.069C84.3177 64.069 84.4467 64.051 84.5547 64.015C84.6627 63.973 84.7557 63.931 84.8337 63.889C84.9117 63.841 84.9777 63.799 85.0317 63.763C85.0917 63.721 85.1487 63.7 85.2027 63.7C85.3107 63.7 85.3977 63.76 85.4637 63.88L86.0397 64.825C85.7397 65.089 85.3857 65.293 84.9777 65.437C84.5697 65.575 84.1497 65.644 83.7177 65.644ZM91.2476 56.176C91.9256 56.176 92.5376 56.287 93.0836 56.509C93.6356 56.731 94.1036 57.046 94.4876 57.454C94.8776 57.862 95.1776 58.357 95.3876 58.939C95.5976 59.521 95.7026 60.175 95.7026 60.901C95.7026 61.627 95.5976 62.281 95.3876 62.863C95.1776 63.445 94.8776 63.943 94.4876 64.357C94.1036 64.765 93.6356 65.08 93.0836 65.302C92.5376 65.524 91.9256 65.635 91.2476 65.635C90.5636 65.635 89.9456 65.524 89.3936 65.302C88.8476 65.08 88.3796 64.765 87.9896 64.357C87.5996 63.943 87.2996 63.445 87.0896 62.863C86.8796 62.281 86.7746 61.627 86.7746 60.901C86.7746 60.175 86.8796 59.521 87.0896 58.939C87.2996 58.357 87.5996 57.862 87.9896 57.454C88.3796 57.046 88.8476 56.731 89.3936 56.509C89.9456 56.287 90.5636 56.176 91.2476 56.176ZM91.2476 64.123C92.0756 64.123 92.6906 63.847 93.0926 63.295C93.5006 62.737 93.7046 61.942 93.7046 60.91C93.7046 59.878 93.5006 59.083 93.0926 58.525C92.6906 57.961 92.0756 57.679 91.2476 57.679C90.4076 57.679 89.7836 57.961 89.3756 58.525C88.9676 59.083 88.7636 59.878 88.7636 60.91C88.7636 61.942 88.9676 62.737 89.3756 63.295C89.7836 63.847 90.4076 64.123 91.2476 64.123ZM97.5618 65.5V56.32H98.7318C98.9958 56.32 99.1638 56.443 99.2358 56.689L99.3618 57.49C99.5298 57.298 99.7038 57.124 99.8838 56.968C100.064 56.806 100.256 56.668 100.46 56.554C100.67 56.434 100.892 56.341 101.126 56.275C101.366 56.209 101.624 56.176 101.9 56.176C102.194 56.176 102.464 56.218 102.71 56.302C102.956 56.386 103.172 56.506 103.358 56.662C103.55 56.818 103.715 57.007 103.853 57.229C103.991 57.451 104.105 57.7 104.195 57.976C104.333 57.658 104.507 57.385 104.717 57.157C104.927 56.929 105.161 56.743 105.419 56.599C105.677 56.455 105.95 56.35 106.238 56.284C106.532 56.212 106.829 56.176 107.129 56.176C107.621 56.176 108.059 56.254 108.443 56.41C108.833 56.566 109.16 56.794 109.424 57.094C109.694 57.388 109.898 57.751 110.036 58.183C110.174 58.615 110.243 59.107 110.243 59.659V65.5H108.308V59.659C108.308 59.011 108.167 58.525 107.885 58.201C107.609 57.871 107.198 57.706 106.652 57.706C106.406 57.706 106.175 57.748 105.959 57.832C105.743 57.916 105.554 58.039 105.392 58.201C105.23 58.363 105.101 58.567 105.005 58.813C104.915 59.053 104.87 59.335 104.87 59.659V65.5H102.935V59.659C102.935 58.987 102.8 58.495 102.53 58.183C102.26 57.865 101.864 57.706 101.342 57.706C100.982 57.706 100.649 57.799 100.343 57.985C100.037 58.165 99.7548 58.414 99.4968 58.732V65.5H97.5618ZM118.524 59.875C118.524 59.551 118.476 59.251 118.38 58.975C118.29 58.693 118.155 58.45 117.975 58.246C117.795 58.036 117.57 57.874 117.3 57.76C117.036 57.64 116.73 57.58 116.382 57.58C115.68 57.58 115.128 57.781 114.726 58.183C114.324 58.585 114.069 59.149 113.961 59.875H118.524ZM113.907 61.063C113.931 61.585 114.012 62.038 114.15 62.422C114.288 62.8 114.471 63.115 114.699 63.367C114.933 63.619 115.209 63.808 115.527 63.934C115.851 64.054 116.211 64.114 116.607 64.114C116.985 64.114 117.312 64.072 117.588 63.988C117.864 63.898 118.104 63.802 118.308 63.7C118.512 63.592 118.686 63.496 118.83 63.412C118.974 63.322 119.106 63.277 119.226 63.277C119.382 63.277 119.502 63.337 119.586 63.457L120.135 64.168C119.907 64.438 119.649 64.666 119.361 64.852C119.073 65.038 118.767 65.191 118.443 65.311C118.119 65.425 117.786 65.506 117.444 65.554C117.102 65.608 116.769 65.635 116.445 65.635C115.809 65.635 115.218 65.53 114.672 65.32C114.132 65.104 113.661 64.789 113.259 64.375C112.863 63.961 112.551 63.448 112.323 62.836C112.101 62.224 111.99 61.519 111.99 60.721C111.99 60.085 112.089 59.491 112.287 58.939C112.491 58.387 112.779 57.907 113.151 57.499C113.529 57.091 113.985 56.77 114.519 56.536C115.059 56.296 115.668 56.176 116.346 56.176C116.91 56.176 117.432 56.269 117.912 56.455C118.392 56.635 118.806 56.902 119.154 57.256C119.502 57.61 119.772 58.045 119.964 58.561C120.162 59.071 120.261 59.653 120.261 60.307C120.261 60.607 120.228 60.808 120.162 60.91C120.096 61.012 119.976 61.063 119.802 61.063H113.907ZM123.893 58.021C124.181 57.439 124.529 56.983 124.937 56.653C125.345 56.317 125.834 56.149 126.404 56.149C126.602 56.149 126.788 56.173 126.962 56.221C127.136 56.263 127.292 56.329 127.43 56.419L127.295 57.877C127.271 57.979 127.232 58.051 127.178 58.093C127.13 58.129 127.064 58.147 126.98 58.147C126.89 58.147 126.761 58.132 126.593 58.102C126.425 58.066 126.248 58.048 126.062 58.048C125.792 58.048 125.552 58.087 125.342 58.165C125.138 58.243 124.952 58.357 124.784 58.507C124.622 58.657 124.478 58.84 124.352 59.056C124.226 59.272 124.109 59.518 124.001 59.794V65.5H122.066V56.32H123.191C123.395 56.32 123.536 56.359 123.614 56.437C123.692 56.509 123.746 56.638 123.776 56.824L123.893 58.021ZM134.777 52.18V65.5H132.842V52.18H134.777ZM139.181 56.32V65.5H137.246V56.32H139.181ZM139.505 53.548C139.505 53.722 139.469 53.887 139.397 54.043C139.331 54.199 139.238 54.337 139.118 54.457C138.998 54.571 138.857 54.664 138.695 54.736C138.539 54.802 138.371 54.835 138.191 54.835C138.017 54.835 137.852 54.802 137.696 54.736C137.546 54.664 137.414 54.571 137.3 54.457C137.186 54.337 137.093 54.199 137.021 54.043C136.955 53.887 136.922 53.722 136.922 53.548C136.922 53.368 136.955 53.2 137.021 53.044C137.093 52.888 137.186 52.753 137.3 52.639C137.414 52.519 137.546 52.426 137.696 52.36C137.852 52.288 138.017 52.252 138.191 52.252C138.371 52.252 138.539 52.288 138.695 52.36C138.857 52.426 138.998 52.519 139.118 52.639C139.238 52.753 139.331 52.888 139.397 53.044C139.469 53.2 139.505 53.368 139.505 53.548ZM143.422 57.535C143.62 57.331 143.824 57.148 144.034 56.986C144.25 56.818 144.478 56.674 144.718 56.554C144.958 56.434 145.213 56.341 145.483 56.275C145.753 56.209 146.047 56.176 146.365 56.176C146.869 56.176 147.31 56.26 147.688 56.428C148.072 56.596 148.393 56.833 148.651 57.139C148.915 57.445 149.113 57.814 149.245 58.246C149.377 58.672 149.443 59.143 149.443 59.659V65.5H147.517V59.659C147.517 59.041 147.373 58.561 147.085 58.219C146.803 57.877 146.371 57.706 145.789 57.706C145.357 57.706 144.955 57.805 144.583 58.003C144.217 58.201 143.872 58.471 143.548 58.813V65.5H141.613V56.32H142.783C143.047 56.32 143.215 56.443 143.287 56.689L143.422 57.535ZM153.637 52.18V59.902H154.051C154.183 59.902 154.291 59.884 154.375 59.848C154.459 59.812 154.546 59.737 154.636 59.623L157.21 56.68C157.3 56.56 157.399 56.47 157.507 56.41C157.615 56.35 157.753 56.32 157.921 56.32H159.676L156.58 59.812C156.4 60.046 156.202 60.232 155.986 60.37C156.106 60.454 156.211 60.55 156.301 60.658C156.391 60.76 156.478 60.877 156.562 61.009L159.865 65.5H158.137C157.981 65.5 157.846 65.476 157.732 65.428C157.624 65.374 157.528 65.278 157.444 65.14L154.789 61.54C154.699 61.402 154.609 61.315 154.519 61.279C154.429 61.237 154.294 61.216 154.114 61.216H153.637V65.5H151.702V52.18H153.637Z" fill="#625FFB"/>
<defs>
<filter id="filter0_b_1620_9382" x="27.5" y="25" width="254" height="67" filterUnits="userSpaceOnUse" color-interpolation-filters="sRGB">
<feFlood flood-opacity="0" result="BackgroundImageFix"/>
<feGaussianBlur in="BackgroundImageFix" stdDeviation="5"/>
<feComposite in2="SourceAlpha" operator="in" result="effect1_backgroundBlur_1620_9382"/>
<feBlend mode="normal" in="SourceGraphic" in2="effect1_backgroundBlur_1620_9382" result="shape"/>
</filter>
</defs>
</svg>
