<svg width="350" height="253" viewBox="0 0 350 253" fill="none" xmlns="http://www.w3.org/2000/svg">
<rect x="54.9126" y="41.6309" width="231.417" height="164.665" stroke="#C6C6C6" stroke-width="2" stroke-linejoin="round" stroke-dasharray="3 3"/>
<rect x="0.5" width="241.384" height="176.763" fill="#F1F1F1"/>
<rect x="6.41113" y="25.7988" width="229.561" height="147.143" fill="white"/>
<rect x="25.1311" y="44.9082" width="190.151" height="107.013" rx="8" fill="#F1F1F1"/>
<rect x="220.208" y="11.4668" width="14.7786" height="3.8219" rx="1.91095" fill="#C4C4C4"/>
<rect x="39.3772" y="78.7715" width="70.9656" height="4.14589" rx="2.07294" fill="white"/>
<rect x="39.3772" y="120.23" width="70.9656" height="4.14589" rx="2.07294" fill="white"/>
<rect x="124.878" y="78.7715" width="70.9656" height="4.14589" rx="2.07294" fill="#5236FF"/>
<rect x="39.3772" y="72.1387" width="70.9656" height="4.14589" rx="2.07294" fill="white"/>
<rect x="39.3772" y="113.598" width="70.9656" height="4.14589" rx="2.07294" fill="#FFB422"/>
<rect x="124.878" y="72.1387" width="70.9656" height="4.14589" rx="2.07294" fill="white"/>
<rect x="39.3772" y="85.4043" width="70.9656" height="4.14589" rx="2.07294" fill="white"/>
<rect x="39.3772" y="126.865" width="70.9656" height="4.14589" rx="2.07294" fill="#FFB422"/>
<rect x="124.878" y="85.4043" width="70.9656" height="4.14589" rx="2.07294" fill="white"/>
<rect x="39.3772" y="92.0391" width="40.1853" height="4.14589" rx="2.07294" fill="#5236FF"/>
<rect x="39.3772" y="133.498" width="40.1853" height="4.14589" rx="2.07294" fill="white"/>
<rect x="124.878" y="92.0391" width="40.1853" height="4.14589" rx="2.07294" fill="white"/>
<ellipse cx="8.87423" cy="12.8985" rx="2.4631" ry="2.38869" fill="#C4C4C4"/>
<ellipse cx="15.7714" cy="12.8985" rx="2.4631" ry="2.38869" fill="#C4C4C4"/>
<ellipse cx="22.6679" cy="12.8985" rx="2.4631" ry="2.38869" fill="#C4C4C4"/>
<g filter="url(#filter0_d_1620_9436)">
<rect x="144.543" y="104.477" width="178.957" height="117.523" rx="15" fill="white"/>
</g>
<line x1="181.983" y1="163.686" x2="289.039" y2="163.686" stroke="#F1F1F1"/>
<line x1="180.453" y1="183.742" x2="287.51" y2="183.742" stroke="#F1F1F1"/>
<line x1="180.453" y1="153.658" x2="287.51" y2="153.658" stroke="#F1F1F1"/>
<line x1="180.453" y1="173.713" x2="287.51" y2="173.713" stroke="#F1F1F1"/>
<line x1="180.453" y1="143.629" x2="287.51" y2="143.629" stroke="#F1F1F1"/>
<line x1="188.6" y1="134.102" x2="188.6" y2="189.882" stroke="#F1F1F1"/>
<line x1="225.305" y1="134.102" x2="225.305" y2="189.882" stroke="#F1F1F1"/>
<line x1="262.01" y1="134.102" x2="262.01" y2="189.882" stroke="#F1F1F1"/>
<line x1="200.835" y1="133.475" x2="200.835" y2="189.255" stroke="#F1F1F1"/>
<line x1="237.541" y1="133.475" x2="237.541" y2="189.255" stroke="#F1F1F1"/>
<line x1="274.246" y1="133.475" x2="274.246" y2="189.255" stroke="#F1F1F1"/>
<line x1="213.07" y1="133.475" x2="213.07" y2="189.255" stroke="#F1F1F1"/>
<line x1="249.775" y1="133.475" x2="249.775" y2="189.255" stroke="#F1F1F1"/>
<line x1="286.48" y1="133.475" x2="286.48" y2="189.255" stroke="#F1F1F1"/>
<rect x="166.774" y="135.156" width="5.13004" height="2.48753" rx="1.24377" fill="#E0DBFF"/>
<rect x="167.629" y="184.906" width="5.13004" height="2.48753" rx="1.24377" fill="#E0DBFF"/>
<rect x="166.774" y="160.031" width="5.13004" height="2.48753" rx="1.24377" fill="#E0DBFF"/>
<rect x="177.889" y="204.807" width="4.97507" height="2.56502" rx="1.28251" transform="rotate(-90 177.889 204.807)" fill="#E0DBFF"/>
<rect x="203.539" y="204.807" width="4.97507" height="2.56502" rx="1.28251" transform="rotate(-90 203.539 204.807)" fill="#E0DBFF"/>
<rect x="229.189" y="204.807" width="4.97507" height="2.56502" rx="1.28251" transform="rotate(-90 229.189 204.807)" fill="#E0DBFF"/>
<rect x="254.84" y="204.807" width="4.97507" height="2.56502" rx="1.28251" transform="rotate(-90 254.84 204.807)" fill="#E0DBFF"/>
<rect x="280.49" y="204.807" width="4.97507" height="2.56502" rx="1.28251" transform="rotate(-90 280.49 204.807)" fill="#E0DBFF"/>
<rect x="166.774" y="147.594" width="5.13004" height="2.48753" rx="1.24377" fill="#E0DBFF"/>
<rect x="167.629" y="197.344" width="5.13004" height="2.48753" rx="1.24377" fill="#E0DBFF"/>
<rect x="166.774" y="172.469" width="5.13004" height="2.48753" rx="1.24377" fill="#E0DBFF"/>
<rect x="190.714" y="204.807" width="4.97507" height="2.56502" rx="1.28251" transform="rotate(-90 190.714 204.807)" fill="#E0DBFF"/>
<rect x="216.364" y="204.807" width="4.97507" height="2.56502" rx="1.28251" transform="rotate(-90 216.364 204.807)" fill="#E0DBFF"/>
<rect x="242.014" y="204.807" width="4.97507" height="2.56502" rx="1.28251" transform="rotate(-90 242.014 204.807)" fill="#E0DBFF"/>
<rect x="267.665" y="204.807" width="4.97507" height="2.56502" rx="1.28251" transform="rotate(-90 267.665 204.807)" fill="#E0DBFF"/>
<rect x="293.315" y="204.807" width="4.97507" height="2.56502" rx="1.28251" transform="rotate(-90 293.315 204.807)" fill="#E0DBFF"/>
<path d="M237.609 169.567C207.302 159.018 187.321 179.712 180.332 192.607C179.98 193.258 180.463 194.027 181.203 194.027H288.895C289.447 194.027 289.895 193.58 289.895 193.027V137.777C289.895 136.593 287.846 136.287 287.439 137.399C280.789 155.549 264.769 179.019 237.609 169.567Z" fill="#FFB422"/>
<path d="M171.049 128.523V202.32H298.872" stroke="#E0DBFF" stroke-width="3"/>
<defs>
<filter id="filter0_d_1620_9436" x="128.543" y="93.4766" width="220.957" height="159.523" filterUnits="userSpaceOnUse" color-interpolation-filters="sRGB">
<feFlood flood-opacity="0" result="BackgroundImageFix"/>
<feColorMatrix in="SourceAlpha" type="matrix" values="0 0 0 0 0 0 0 0 0 0 0 0 0 0 0 0 0 0 127 0" result="hardAlpha"/>
<feOffset dx="5" dy="10"/>
<feGaussianBlur stdDeviation="10.5"/>
<feComposite in2="hardAlpha" operator="out"/>
<feColorMatrix type="matrix" values="0 0 0 0 0.700272 0 0 0 0 0.700272 0 0 0 0 0.700272 0 0 0 0.25 0"/>
<feBlend mode="normal" in2="BackgroundImageFix" result="effect1_dropShadow_1620_9436"/>
<feBlend mode="normal" in="SourceGraphic" in2="effect1_dropShadow_1620_9436" result="shape"/>
</filter>
</defs>
</svg>
