<svg width="310" height="195" viewBox="0 0 310 195" fill="none" xmlns="http://www.w3.org/2000/svg">
<rect width="309.991" height="195" fill="#F1F1F1"/>
<rect x="7.59131" y="28.459" width="294.808" height="162.324" fill="white"/>
<rect x="282.155" y="12.6484" width="18.9791" height="4.21622" rx="2.10811" fill="#C4C4C4"/>
<ellipse cx="10.7545" cy="14.2289" rx="3.16318" ry="2.63514" fill="#C4C4C4"/>
<ellipse cx="19.6117" cy="14.2289" rx="3.16318" ry="2.63514" fill="#C4C4C4"/>
<ellipse cx="28.4688" cy="14.2289" rx="3.16318" ry="2.63514" fill="#C4C4C4"/>
<rect x="23.1667" y="41.9199" width="259.245" height="60.6745" rx="8" fill="#F1F1F1"/>
<path d="M67.9235 86.8287C66.2816 85.9635 64.5678 85.2423 62.8014 84.6732L62.5762 82.1815L53.4411 81.1973L52.2801 84.3821L49.0018 85.6123C48.8845 85.6568 48.7728 85.715 48.6691 85.7856H48.6655C48.4826 85.9093 48.3268 86.0689 48.2076 86.2548C48.0884 86.4407 48.0084 86.649 47.9724 86.8668C47.9374 87.0835 47.9457 87.3049 47.9968 87.5184L48.1701 88.2288C48.4195 88.3778 48.676 88.5199 48.9324 88.655L49.0953 88.7382C49.4696 88.9323 49.8509 89.116 50.2424 89.2858C50.3222 89.3204 50.4088 89.3551 50.4885 89.3897C50.4954 89.3932 50.4988 89.3932 50.5058 89.3967C50.6895 89.4729 50.8731 89.5457 51.0603 89.615C51.675 89.8498 52.302 90.0511 52.9385 90.218C54.5631 90.651 56.2372 90.87 57.9185 90.8695C58.5319 90.8695 59.1384 90.8418 59.7379 90.7829C61.1078 90.6564 62.4602 90.3834 63.7718 89.9685C63.7752 89.9685 63.7787 89.965 63.7821 89.965C64.6107 89.701 65.4201 89.3803 66.2046 89.0051C66.208 89.0016 66.2149 89.0016 66.2185 88.9981C66.3951 88.915 66.565 88.8249 66.7383 88.7382L66.8214 88.6966C66.96 88.6239 67.0987 88.5511 67.2373 88.4748C67.5839 88.2842 67.9235 88.0832 68.2595 87.8684C68.3531 87.8129 68.4433 87.754 68.5369 87.6916C68.6685 87.605 68.8002 87.5149 68.9284 87.4213C68.6061 87.2134 68.27 87.0158 67.9235 86.8287Z" fill="#3F3D56"/>
<path d="M57.6497 79.6231C61.2832 79.6231 64.2288 76.6775 64.2288 73.044C64.2288 69.4104 61.2832 66.4648 57.6497 66.4648C54.0161 66.4648 51.0706 69.4104 51.0706 73.044C51.0706 76.6775 54.0161 79.6231 57.6497 79.6231Z" fill="#FFB8B8"/>
<path d="M53.2329 69.8372C53.9139 70.6431 55.0665 70.8706 56.1297 70.9638C58.6155 71.1011 61.1084 70.8976 63.5389 70.3588C63.6895 71.8185 63.2789 73.3925 64.1387 74.5932C64.5417 73.1395 64.7761 71.6442 64.8372 70.1369C64.9013 69.4902 64.8169 68.8374 64.5903 68.2283C64.4691 67.9231 64.2647 67.6579 64.0004 67.463C63.7361 67.2681 63.4223 67.1513 63.0949 67.1259C63.5851 66.754 64.1592 66.5085 64.7667 66.4111L62.6777 65.3613L63.2141 64.8106L59.4321 64.5791L60.5275 63.8832C58.8788 63.6567 57.2109 63.604 55.5512 63.7261C54.7805 63.7829 53.9747 63.8914 53.3502 64.3379C52.7258 64.7845 52.3649 65.672 52.7526 66.3276C52.2673 66.4073 51.8103 66.6096 51.425 66.9153C51.0397 67.221 50.7389 67.62 50.5509 68.0745C50.3133 68.797 50.2559 69.5666 50.3838 70.3163C50.5263 71.5192 50.8058 72.7018 51.217 73.8411L53.2329 69.8372Z" fill="#2F2E41"/>
<path d="M76.1502 65.9105C75.2271 63.2587 73.7367 60.8401 71.7828 58.8234C69.829 56.8067 67.4587 55.2406 64.8374 54.2341C62.216 53.2276 59.4067 52.805 56.6052 52.9958C53.8038 53.1866 51.0777 53.9862 48.617 55.3388C46.1564 56.6915 44.0204 58.5646 42.358 60.8276C40.6957 63.0905 39.5469 65.6889 38.9919 68.4414C38.437 71.1939 38.4891 74.0344 39.1446 76.7647C39.8002 79.4951 41.0435 82.0495 42.7878 84.25C42.961 84.4683 43.1412 84.6866 43.325 84.898C43.3389 84.9119 43.3492 84.9258 43.3631 84.9396C43.8148 85.4601 44.2949 85.9553 44.8012 86.4229C44.9331 86.5441 45.0716 86.6689 45.2102 86.7867C45.4735 87.0224 45.7439 87.2476 46.0247 87.4625C46.1355 87.5491 46.2429 87.6358 46.3573 87.7189C46.8009 88.0551 47.2618 88.367 47.7366 88.665L47.7574 88.6754C47.8925 88.7586 48.0312 88.8418 48.1698 88.9215C48.4192 89.0705 48.6758 89.2126 48.9321 89.3477L49.0951 89.4309C49.4694 89.625 49.8506 89.8086 50.2422 89.9785C50.3219 90.0131 50.4085 90.0478 50.4882 90.0824C50.4952 90.0859 50.4985 90.0859 50.5055 90.0894C50.6892 90.1656 50.8728 90.2384 51.06 90.3077C51.6747 90.5425 52.3017 90.7438 52.9383 90.9107C54.5628 91.3437 56.237 91.5627 57.9182 91.5622C58.5316 91.5622 59.1381 91.5345 59.7376 91.4756C61.1075 91.3491 62.4599 91.0761 63.7715 90.6612C63.7749 90.6612 63.7785 90.6577 63.7819 90.6577C64.6104 90.3937 65.4198 90.073 66.2043 89.6978C66.2077 89.6943 66.2147 89.6943 66.2182 89.6908C66.3949 89.6077 66.5647 89.5175 66.738 89.4309L66.8211 89.3893C66.9597 89.3166 67.0984 89.2438 67.237 89.1675C67.5836 88.9769 67.9232 88.7759 68.2593 88.5611C68.3528 88.5056 68.443 88.4467 68.5366 88.3843C68.6682 88.2977 68.7999 88.2076 68.9282 88.114C69.0979 87.9962 69.2678 87.8749 69.4341 87.7501C69.4861 87.712 69.5415 87.6739 69.5935 87.6323C72.8403 85.168 75.2234 81.7389 76.4012 77.8367C77.5791 73.9346 77.4912 69.7597 76.1502 65.9105ZM68.9559 86.7902C68.8415 86.8803 68.7237 86.9669 68.6058 87.0466C68.4914 87.1333 68.3772 87.2164 68.2592 87.2927C68.1587 87.3655 68.0582 87.4348 67.9543 87.5006L67.9232 87.5214C67.8469 87.5734 67.7707 87.6219 67.6944 87.6704C67.4067 87.8506 67.1156 88.0239 66.8211 88.1903C66.7899 88.2076 66.7586 88.2249 66.7275 88.2422C66.5959 88.315 66.4642 88.3843 66.3326 88.4537C66.3151 88.4641 66.2943 88.471 66.2771 88.4814L66.2562 88.4918C66.0899 88.5784 65.92 88.6616 65.7503 88.7413C65.095 89.0568 64.4201 89.33 63.7299 89.5592C63.6397 89.5903 63.5497 89.6215 63.4596 89.6493C62.2181 90.0441 60.9378 90.3044 59.6406 90.4255C59.0723 90.4775 58.4969 90.5052 57.9182 90.5052C56.328 90.5085 54.7444 90.3011 53.2086 89.8884C52.4205 89.6826 51.648 89.4209 50.8972 89.1052C50.8589 89.0878 50.8173 89.074 50.7792 89.0567C50.7378 89.0393 50.6995 89.0255 50.6615 89.0081C50.6198 88.9908 50.5818 88.9735 50.5401 88.9527C50.2144 88.8106 49.892 88.6546 49.5768 88.4918L49.4243 88.4121C49.0395 88.2111 48.6619 87.9962 48.2945 87.7675C48.187 87.7016 48.0762 87.6323 47.9721 87.5595C47.9446 87.5422 47.9202 87.5249 47.8924 87.5075C47.6464 87.3447 47.4004 87.1749 47.1613 86.9981C46.9985 86.8768 46.8355 86.7555 46.6761 86.6308C46.4093 86.4298 46.1527 86.2149 45.9033 85.9931C45.7717 85.8822 45.6434 85.7609 45.5187 85.6466C45.0273 85.1929 44.5622 84.7115 44.1256 84.2049C43.98 84.0386 43.8379 83.8722 43.7027 83.699C43.672 83.6647 43.643 83.6288 43.616 83.5915C41.3644 80.7502 40.0101 77.3026 39.7257 73.6885C39.4414 70.0743 40.24 66.4574 42.0197 63.2989C43.7993 60.1405 46.4794 57.5836 49.7181 55.9545C52.9567 54.3254 56.6073 53.6979 60.204 54.1519C63.8008 54.6059 67.1809 56.121 69.9131 58.5038C72.6454 60.8866 74.606 64.0292 75.5449 67.5308C76.4839 71.0325 76.3586 74.7344 75.1851 78.1645C74.0116 81.5947 71.843 84.5975 68.9559 86.7902Z" fill="#3F3D56"/>
<rect x="91.5632" y="65.0859" width="97.0792" height="4.41269" rx="2.20634" fill="white"/>
<rect x="91.5632" y="57.3633" width="133.484" height="4.41269" rx="2.20634" fill="white"/>
<rect x="91.5632" y="71.7051" width="65.0872" height="4.41269" rx="2.20634" fill="white"/>
<rect x="23.1665" y="115.834" width="259.245" height="60.6745" rx="8" fill="#F1F1F1"/>
<rect x="91.563" y="139.002" width="97.0792" height="4.41269" rx="2.20634" fill="white"/>
<rect x="91.5632" y="131.279" width="133.484" height="4.41269" rx="2.20634" fill="white"/>
<rect x="91.563" y="145.621" width="65.0872" height="4.41269" rx="2.20634" fill="white"/>
<circle cx="57.9168" cy="146.171" r="19.3055" fill="#625FFB"/>
<path d="M62.9823 146.287H58.4168V151.106H56.4043V146.287H51.8618V144.424H56.4043V139.617H58.4168V144.424H62.9823V146.287Z" fill="white"/>
</svg>
