<svg width="622" height="449" viewBox="0 0 622 449" fill="none" xmlns="http://www.w3.org/2000/svg">
<rect x="26" y="16.918" width="571" height="403" rx="12" fill="#9585F3" fill-opacity="0.05"/>
<g filter="url(#filter0_d_1620_9297)">
<rect x="41.5" y="32.332" width="539" height="367" rx="6.45022" fill="white"/>
</g>
<line opacity="0.2" x1="124.684" y1="323.236" x2="545.826" y2="323.236" stroke="#B4B6C4" stroke-width="1.07504" stroke-linecap="round"/>
<line opacity="0.2" x1="124.684" y1="274.662" x2="545.826" y2="274.662" stroke="#B4B6C4" stroke-width="1.07504" stroke-linecap="round"/>
<line opacity="0.2" x1="124.684" y1="226.087" x2="545.826" y2="226.087" stroke="#B4B6C4" stroke-width="1.07504" stroke-linecap="round"/>
<line opacity="0.2" x1="124.684" y1="177.515" x2="545.826" y2="177.515" stroke="#B4B6C4" stroke-width="1.07504" stroke-linecap="round"/>
<line opacity="0.2" x1="124.684" y1="128.943" x2="545.826" y2="128.943" stroke="#B4B6C4" stroke-width="1.07504" stroke-linecap="round"/>
<path d="M73.6529 177.367C73.3322 177.362 73.0115 177.3 72.6908 177.183C72.3701 177.066 72.0775 176.869 71.8128 176.592C71.5481 176.312 71.3356 175.934 71.1752 175.458C71.0149 174.979 70.9347 174.379 70.9347 173.656C70.9347 172.964 70.9996 172.35 71.1294 171.816C71.2592 171.279 71.4476 170.827 71.6944 170.461C71.9413 170.092 72.2391 169.812 72.5877 169.621C72.939 169.43 73.3347 169.334 73.775 169.334C74.2128 169.334 74.6022 169.422 74.9432 169.598C75.2868 169.771 75.5667 170.013 75.7831 170.323C75.9994 170.634 76.1394 170.991 76.203 171.396H75.2715C75.185 171.045 75.017 170.753 74.7676 170.522C74.5182 170.29 74.1873 170.174 73.775 170.174C73.1693 170.174 72.6921 170.438 72.3434 170.965C71.9973 171.491 71.823 172.231 71.8204 173.183H71.8815C72.024 172.966 72.1933 172.782 72.3892 172.629C72.5877 172.474 72.8066 172.354 73.0459 172.27C73.2851 172.186 73.5383 172.144 73.8056 172.144C74.2535 172.144 74.6633 172.256 75.0348 172.48C75.4064 172.702 75.7042 173.008 75.9281 173.4C76.1521 173.79 76.2641 174.236 76.2641 174.74C76.2641 175.224 76.1559 175.667 75.9396 176.069C75.7233 176.468 75.4191 176.786 75.0272 177.023C74.6378 177.257 74.1797 177.372 73.6529 177.367ZM73.6529 176.527C73.9735 176.527 74.2611 176.447 74.5156 176.286C74.7727 176.126 74.975 175.911 75.1226 175.641C75.2728 175.371 75.3479 175.071 75.3479 174.74C75.3479 174.417 75.2753 174.123 75.1303 173.858C74.9877 173.591 74.7905 173.379 74.5385 173.221C74.2891 173.063 74.0041 172.984 73.6834 172.984C73.4416 172.984 73.2164 173.032 73.0077 173.129C72.799 173.223 72.6157 173.353 72.4579 173.519C72.3027 173.684 72.1805 173.874 72.0915 174.087C72.0024 174.299 71.9578 174.521 71.9578 174.755C71.9578 175.066 72.0304 175.356 72.1754 175.626C72.3231 175.896 72.5241 176.113 72.7786 176.279C73.0357 176.444 73.3271 176.527 73.6529 176.527ZM80.3155 177.367C79.7403 177.367 79.2504 177.21 78.8458 176.897C78.4411 176.582 78.1319 176.125 77.9181 175.527C77.7043 174.926 77.5974 174.201 77.5974 173.351C77.5974 172.506 77.7043 171.784 77.9181 171.186C78.1344 170.585 78.4449 170.127 78.8496 169.812C79.2568 169.493 79.7454 169.334 80.3155 169.334C80.8856 169.334 81.373 169.493 81.7777 169.812C82.1849 170.127 82.4954 170.585 82.7092 171.186C82.9255 171.784 83.0337 172.506 83.0337 173.351C83.0337 174.201 82.9268 174.926 82.713 175.527C82.4992 176.125 82.19 176.582 81.7853 176.897C81.3806 177.21 80.8907 177.367 80.3155 177.367ZM80.3155 176.527C80.8856 176.527 81.3285 176.252 81.6441 175.702C81.9596 175.152 82.1174 174.369 82.1174 173.351C82.1174 172.674 82.0449 172.097 81.8998 171.621C81.7573 171.145 81.5512 170.783 81.2814 170.533C81.0141 170.284 80.6922 170.159 80.3155 170.159C79.7505 170.159 79.309 170.438 78.9908 170.995C78.6727 171.55 78.5136 172.335 78.5136 173.351C78.5136 174.028 78.5849 174.603 78.7274 175.076C78.8699 175.549 79.0748 175.91 79.342 176.156C79.6118 176.403 79.9363 176.527 80.3155 176.527ZM85.3395 175.122L85.3242 174.007H85.5075L88.0729 171.396H89.1876L86.4542 174.16H86.3779L85.3395 175.122ZM84.4996 177.26V169.441H85.4006V177.26H84.4996ZM88.2256 177.26L85.935 174.358L86.5764 173.732L89.3709 177.26H88.2256Z" fill="#5D6180"/>
<path d="M73.6987 225.941C73.1947 225.941 72.7455 225.854 72.3511 225.681C71.9591 225.508 71.6473 225.268 71.4157 224.96C71.1867 224.649 71.062 224.289 71.0416 223.879H72.0037C72.024 224.131 72.1105 224.349 72.2633 224.532C72.416 224.713 72.6157 224.853 72.8626 224.952C73.1095 225.051 73.3831 225.101 73.6834 225.101C74.0193 225.101 74.3171 225.042 74.5767 224.925C74.8363 224.808 75.0399 224.645 75.1875 224.437C75.3351 224.228 75.409 223.986 75.409 223.711C75.409 223.424 75.3377 223.171 75.1952 222.952C75.0526 222.73 74.844 222.557 74.5691 222.433C74.2942 222.308 73.9583 222.245 73.5612 222.245H72.9351V221.406H73.5612C73.8717 221.406 74.1441 221.35 74.3782 221.238C74.6149 221.126 74.7994 220.968 74.9318 220.764C75.0666 220.561 75.1341 220.321 75.1341 220.047C75.1341 219.782 75.0756 219.551 74.9585 219.356C74.8414 219.16 74.676 219.007 74.4622 218.897C74.2509 218.788 74.0015 218.733 73.7139 218.733C73.4442 218.733 73.1897 218.783 72.9504 218.882C72.7137 218.979 72.5203 219.12 72.3701 219.306C72.22 219.489 72.1385 219.711 72.1258 219.97H71.2096C71.2249 219.56 71.3483 219.202 71.5799 218.894C71.8115 218.583 72.1144 218.341 72.4885 218.168C72.8652 217.995 73.2787 217.909 73.7292 217.909C74.2128 217.909 74.6276 218.007 74.9737 218.203C75.3199 218.396 75.5858 218.652 75.7716 218.97C75.9574 219.288 76.0503 219.632 76.0503 220.001C76.0503 220.441 75.9345 220.816 75.7029 221.127C75.4739 221.437 75.1621 221.652 74.7676 221.772V221.833C75.2613 221.915 75.6469 222.125 75.9243 222.463C76.2017 222.799 76.3405 223.215 76.3405 223.711C76.3405 224.136 76.2246 224.518 75.993 224.857C75.764 225.193 75.4509 225.457 75.0539 225.651C74.6569 225.844 74.2051 225.941 73.6987 225.941ZM80.452 225.941C79.8768 225.941 79.3869 225.784 78.9822 225.471C78.5776 225.156 78.2683 224.699 78.0546 224.101C77.8408 223.5 77.7339 222.775 77.7339 221.925C77.7339 221.08 77.8408 220.358 78.0546 219.76C78.2709 219.16 78.5814 218.701 78.986 218.386C79.3933 218.068 79.8819 217.909 80.452 217.909C81.0221 217.909 81.5095 218.068 81.9141 218.386C82.3214 218.701 82.6319 219.16 82.8456 219.76C83.062 220.358 83.1701 221.08 83.1701 221.925C83.1701 222.775 83.0632 223.5 82.8495 224.101C82.6357 224.699 82.3264 225.156 81.9218 225.471C81.5171 225.784 81.0272 225.941 80.452 225.941ZM80.452 225.101C81.0221 225.101 81.4649 224.826 81.7805 224.276C82.0961 223.727 82.2539 222.943 82.2539 221.925C82.2539 221.248 82.1814 220.671 82.0363 220.195C81.8938 219.719 81.6876 219.357 81.4179 219.107C81.1506 218.858 80.8287 218.733 80.452 218.733C79.887 218.733 79.4454 219.012 79.1273 219.569C78.8092 220.124 78.6501 220.909 78.6501 221.925C78.6501 222.602 78.7214 223.177 78.8639 223.65C79.0064 224.124 79.2113 224.484 79.4785 224.731C79.7483 224.978 80.0728 225.101 80.452 225.101ZM85.476 223.696L85.4607 222.581H85.6439L88.2094 219.97H89.3241L86.5907 222.734H86.5144L85.476 223.696ZM84.6361 225.834V218.016H85.5371V225.834H84.6361ZM88.3621 225.834L86.0715 222.933L86.7129 222.307L89.5074 225.834H88.3621Z" fill="#5D6180"/>
<path d="M73.8056 266.586V274.404H72.8588V267.578H72.813L70.9042 268.846V267.884L72.8588 266.586H73.8056ZM78.6043 274.511C78.0291 274.511 77.5392 274.355 77.1345 274.042C76.7298 273.726 76.4206 273.269 76.2068 272.671C75.993 272.07 75.8862 271.345 75.8862 270.495C75.8862 269.65 75.993 268.929 76.2068 268.33C76.4232 267.73 76.7337 267.272 77.1383 266.956C77.5455 266.638 78.0342 266.479 78.6043 266.479C79.1744 266.479 79.6618 266.638 80.0664 266.956C80.4736 267.272 80.7841 267.73 80.9979 268.33C81.2143 268.929 81.3224 269.65 81.3224 270.495C81.3224 271.345 81.2155 272.07 81.0017 272.671C80.788 273.269 80.4787 273.726 80.0741 274.042C79.6694 274.355 79.1795 274.511 78.6043 274.511ZM78.6043 273.671C79.1744 273.671 79.6172 273.396 79.9328 272.847C80.2484 272.297 80.4062 271.513 80.4062 270.495C80.4062 269.818 80.3337 269.242 80.1886 268.766C80.0461 268.29 79.8399 267.927 79.5701 267.678C79.3029 267.428 78.981 267.304 78.6043 267.304C78.0393 267.304 77.5977 267.582 77.2796 268.14C76.9614 268.694 76.8024 269.48 76.8024 270.495C76.8024 271.172 76.8736 271.747 77.0162 272.221C77.1587 272.694 77.3636 273.054 77.6308 273.301C77.9006 273.548 78.2251 273.671 78.6043 273.671ZM83.6283 272.266L83.613 271.152H83.7962L86.3617 268.54H87.4764L84.743 271.304H84.6666L83.6283 272.266ZM82.7884 274.404V266.586H83.6893V274.404H82.7884ZM86.5144 274.404L84.2238 271.503L84.8652 270.877L87.6596 274.404H86.5144Z" fill="#5D6180"/>
<path d="M73.607 323.085C73.0319 323.085 72.5419 322.929 72.1373 322.616C71.7326 322.3 71.4234 321.843 71.2096 321.245C70.9958 320.645 70.8889 319.919 70.8889 319.069C70.8889 318.224 70.9958 317.503 71.2096 316.905C71.4259 316.304 71.7364 315.846 72.1411 315.53C72.5483 315.212 73.037 315.053 73.607 315.053C74.1771 315.053 74.6645 315.212 75.0692 315.53C75.4764 315.846 75.7869 316.304 76.0007 316.905C76.217 317.503 76.3252 318.224 76.3252 319.069C76.3252 319.919 76.2183 320.645 76.0045 321.245C75.7907 321.843 75.4815 322.3 75.0768 322.616C74.6722 322.929 74.1822 323.085 73.607 323.085ZM73.607 322.246C74.1771 322.246 74.62 321.971 74.9356 321.421C75.2512 320.871 75.409 320.087 75.409 319.069C75.409 318.392 75.3364 317.816 75.1914 317.34C75.0488 316.864 74.8427 316.501 74.5729 316.252C74.3057 316.002 73.9837 315.878 73.607 315.878C73.042 315.878 72.6005 316.156 72.2823 316.714C71.9642 317.269 71.8051 318.054 71.8051 319.069C71.8051 319.746 71.8764 320.321 72.0189 320.795C72.1614 321.268 72.3663 321.628 72.6336 321.875C72.9033 322.122 73.2278 322.246 73.607 322.246Z" fill="#5D6180"/>
<path d="M73.546 120.76C73.8666 120.763 74.1873 120.824 74.508 120.943C74.8287 121.063 75.1214 121.262 75.3861 121.539C75.6507 121.814 75.8633 122.189 76.0236 122.665C76.1839 123.141 76.2641 123.738 76.2641 124.456C76.2641 125.15 76.1979 125.768 76.0656 126.307C75.9358 126.844 75.7474 127.297 75.5006 127.666C75.2563 128.035 74.9585 128.315 74.6073 128.506C74.2586 128.697 73.8641 128.792 73.4238 128.792C72.9861 128.792 72.5954 128.706 72.2518 128.533C71.9108 128.357 71.6308 128.114 71.4119 127.804C71.1956 127.491 71.0569 127.128 70.9958 126.716H71.9273C72.0113 127.075 72.178 127.371 72.4274 127.605C72.6794 127.837 73.0115 127.953 73.4238 127.953C74.027 127.953 74.5029 127.689 74.8516 127.162C75.2028 126.635 75.3784 125.891 75.3784 124.929H75.3173C75.1748 125.143 75.0056 125.327 74.8096 125.483C74.6136 125.638 74.396 125.757 74.1568 125.841C73.9175 125.925 73.663 125.967 73.3933 125.967C72.9453 125.967 72.5343 125.857 72.1602 125.635C71.7886 125.411 71.4908 125.105 71.2669 124.715C71.0454 124.323 70.9347 123.875 70.9347 123.371C70.9347 122.893 71.0416 122.455 71.2554 122.058C71.4717 121.659 71.7746 121.34 72.164 121.104C72.5559 120.867 73.0166 120.753 73.546 120.76ZM73.546 121.6C73.2253 121.6 72.9364 121.68 72.6794 121.841C72.4249 121.998 72.2225 122.212 72.0724 122.482C71.9248 122.749 71.851 123.046 71.851 123.371C71.851 123.697 71.9222 123.994 72.0647 124.261C72.2098 124.526 72.407 124.737 72.6565 124.895C72.9084 125.05 73.1947 125.128 73.5154 125.128C73.7572 125.128 73.9824 125.08 74.1911 124.986C74.3998 124.89 74.5818 124.759 74.7371 124.593C74.8949 124.425 75.0183 124.235 75.1074 124.024C75.1964 123.81 75.241 123.588 75.241 123.356C75.241 123.051 75.1672 122.764 75.0196 122.497C74.8745 122.23 74.6734 122.014 74.4164 121.848C74.1619 121.683 73.8717 121.6 73.546 121.6ZM80.3155 128.792C79.7403 128.792 79.2504 128.636 78.8458 128.323C78.4411 128.007 78.1319 127.55 77.9181 126.952C77.7043 126.352 77.5974 125.626 77.5974 124.776C77.5974 123.931 77.7043 123.21 77.9181 122.612C78.1344 122.011 78.4449 121.553 78.8496 121.237C79.2568 120.919 79.7454 120.76 80.3155 120.76C80.8856 120.76 81.373 120.919 81.7777 121.237C82.1849 121.553 82.4954 122.011 82.7092 122.612C82.9255 123.21 83.0337 123.931 83.0337 124.776C83.0337 125.626 82.9268 126.352 82.713 126.952C82.4992 127.55 82.19 128.007 81.7853 128.323C81.3806 128.636 80.8907 128.792 80.3155 128.792ZM80.3155 127.953C80.8856 127.953 81.3285 127.678 81.6441 127.128C81.9596 126.578 82.1174 125.794 82.1174 124.776C82.1174 124.099 82.0449 123.523 81.8998 123.047C81.7573 122.571 81.5512 122.208 81.2814 121.959C81.0141 121.71 80.6922 121.585 80.3155 121.585C79.7505 121.585 79.309 121.863 78.9908 122.421C78.6727 122.976 78.5136 123.761 78.5136 124.776C78.5136 125.453 78.5849 126.028 78.7274 126.502C78.8699 126.975 79.0748 127.335 79.342 127.582C79.6118 127.829 79.9363 127.953 80.3155 127.953ZM85.3395 126.548L85.3242 125.433H85.5075L88.0729 122.822H89.1876L86.4542 125.586H86.3779L85.3395 126.548ZM84.4996 128.686V120.867H85.4006V128.686H84.4996ZM88.2256 128.686L85.935 125.784L86.5764 125.158L89.3709 128.686H88.2256Z" fill="#5D6180"/>
<path d="M125.093 351.141H126.224L128.881 357.63H128.972L131.629 351.141H132.759V358.959H131.874V353.019H131.797L129.354 358.959H128.499L126.056 353.019H125.979V358.959H125.093V351.141ZM136.261 359.096C135.889 359.096 135.552 359.026 135.249 358.886C134.946 358.744 134.706 358.539 134.528 358.272C134.35 358.002 134.261 357.676 134.261 357.295C134.261 356.959 134.327 356.686 134.459 356.478C134.591 356.266 134.768 356.101 134.99 355.981C135.211 355.862 135.455 355.773 135.723 355.714C135.992 355.653 136.263 355.605 136.536 355.569C136.892 355.523 137.181 355.489 137.402 355.466C137.626 355.44 137.789 355.398 137.891 355.34C137.995 355.281 138.048 355.18 138.048 355.034V355.004C138.048 354.627 137.944 354.335 137.738 354.126C137.535 353.917 137.226 353.813 136.811 353.813C136.381 353.813 136.043 353.907 135.799 354.095C135.555 354.284 135.383 354.485 135.284 354.699L134.428 354.393C134.581 354.037 134.785 353.759 135.039 353.561C135.296 353.36 135.576 353.22 135.879 353.141C136.185 353.06 136.485 353.019 136.78 353.019C136.968 353.019 137.185 353.042 137.429 353.088C137.676 353.131 137.914 353.221 138.143 353.359C138.375 353.496 138.567 353.703 138.719 353.981C138.872 354.258 138.949 354.63 138.949 355.096V358.959H138.048V358.165H138.002C137.941 358.292 137.839 358.428 137.696 358.573C137.554 358.718 137.364 358.842 137.128 358.944C136.891 359.046 136.602 359.096 136.261 359.096ZM136.398 358.287C136.755 358.287 137.055 358.217 137.299 358.077C137.546 357.937 137.732 357.756 137.857 357.535C137.984 357.314 138.048 357.081 138.048 356.836V356.012C138.009 356.058 137.925 356.1 137.796 356.138C137.668 356.173 137.521 356.205 137.353 356.233C137.187 356.259 137.026 356.282 136.868 356.302C136.713 356.32 136.587 356.335 136.49 356.348C136.256 356.378 136.037 356.428 135.833 356.497C135.632 356.563 135.469 356.663 135.345 356.798C135.223 356.931 135.161 357.111 135.161 357.34C135.161 357.653 135.277 357.89 135.509 358.05C135.743 358.208 136.04 358.287 136.398 358.287ZM140.593 358.959V353.095H141.463V353.981H141.524C141.631 353.691 141.825 353.455 142.105 353.275C142.385 353.094 142.7 353.004 143.051 353.004C143.118 353.004 143.2 353.005 143.3 353.007C143.399 353.01 143.474 353.014 143.525 353.019V353.935C143.494 353.927 143.424 353.916 143.315 353.901C143.208 353.883 143.095 353.874 142.975 353.874C142.69 353.874 142.436 353.934 142.212 354.053C141.99 354.17 141.815 354.333 141.685 354.542C141.558 354.748 141.494 354.984 141.494 355.248V358.959H140.593Z" fill="#5D6180"/>
<path d="M224.231 358.959H223.238L226.109 351.141H227.086L229.957 358.959H228.965L226.628 352.377H226.567L224.231 358.959ZM224.597 355.905H228.598V356.745H224.597V355.905ZM231.053 361.158V353.095H231.923V354.027H232.03C232.096 353.925 232.188 353.795 232.305 353.637C232.425 353.477 232.595 353.334 232.817 353.21C233.041 353.082 233.343 353.019 233.725 353.019C234.219 353.019 234.654 353.142 235.031 353.389C235.407 353.636 235.701 353.986 235.913 354.439C236.124 354.892 236.23 355.426 236.23 356.042C236.23 356.663 236.124 357.202 235.913 357.657C235.701 358.11 235.409 358.461 235.035 358.711C234.661 358.958 234.229 359.081 233.74 359.081C233.364 359.081 233.062 359.019 232.836 358.894C232.609 358.767 232.435 358.623 232.313 358.463C232.191 358.3 232.096 358.165 232.03 358.058H231.954V361.158H231.053ZM231.939 356.027C231.939 356.47 232.003 356.861 232.133 357.199C232.263 357.535 232.453 357.798 232.702 357.989C232.951 358.178 233.257 358.272 233.618 358.272C233.995 358.272 234.309 358.173 234.561 357.974C234.816 357.773 235.007 357.503 235.134 357.165C235.264 356.824 235.329 356.444 235.329 356.027C235.329 355.615 235.265 355.243 235.138 354.912C235.013 354.579 234.823 354.316 234.569 354.122C234.317 353.926 234 353.828 233.618 353.828C233.252 353.828 232.944 353.921 232.694 354.107C232.445 354.29 232.257 354.547 232.129 354.878C232.002 355.206 231.939 355.589 231.939 356.027ZM237.604 358.959V353.095H238.474V353.981H238.535C238.642 353.691 238.836 353.455 239.116 353.275C239.396 353.094 239.711 353.004 240.062 353.004C240.129 353.004 240.211 353.005 240.311 353.007C240.41 353.01 240.485 353.014 240.536 353.019V353.935C240.505 353.927 240.435 353.916 240.326 353.901C240.219 353.883 240.106 353.874 239.986 353.874C239.701 353.874 239.447 353.934 239.223 354.053C239.001 354.17 238.826 354.333 238.696 354.542C238.568 354.748 238.505 354.984 238.505 355.248V358.959H237.604Z" fill="#5D6180"/>
<path d="M317.337 351.141H318.467L321.124 357.63H321.215L323.872 351.141H325.002V358.959H324.117V353.019H324.04L321.597 358.959H320.742L318.299 353.019H318.222V358.959H317.337V351.141ZM328.504 359.096C328.133 359.096 327.795 359.026 327.492 358.886C327.19 358.744 326.949 358.539 326.771 358.272C326.593 358.002 326.504 357.676 326.504 357.295C326.504 356.959 326.57 356.686 326.702 356.478C326.835 356.266 327.011 356.101 327.233 355.981C327.454 355.862 327.699 355.773 327.966 355.714C328.236 355.653 328.507 355.605 328.779 355.569C329.135 355.523 329.424 355.489 329.646 355.466C329.87 355.44 330.032 355.398 330.134 355.34C330.239 355.281 330.291 355.18 330.291 355.034V355.004C330.291 354.627 330.188 354.335 329.982 354.126C329.778 353.917 329.469 353.813 329.054 353.813C328.624 353.813 328.286 353.907 328.042 354.095C327.798 354.284 327.626 354.485 327.527 354.699L326.672 354.393C326.824 354.037 327.028 353.759 327.282 353.561C327.54 353.36 327.819 353.22 328.122 353.141C328.428 353.06 328.728 353.019 329.023 353.019C329.212 353.019 329.428 353.042 329.672 353.088C329.919 353.131 330.157 353.221 330.386 353.359C330.618 353.496 330.81 353.703 330.963 353.981C331.115 354.258 331.192 354.63 331.192 355.096V358.959H330.291V358.165H330.245C330.184 358.292 330.082 358.428 329.94 358.573C329.797 358.718 329.607 358.842 329.371 358.944C329.134 359.046 328.845 359.096 328.504 359.096ZM328.642 358.287C328.998 358.287 329.298 358.217 329.542 358.077C329.789 357.937 329.975 357.756 330.1 357.535C330.227 357.314 330.291 357.081 330.291 356.836V356.012C330.253 356.058 330.169 356.1 330.039 356.138C329.912 356.173 329.764 356.205 329.596 356.233C329.431 356.259 329.269 356.282 329.111 356.302C328.956 356.32 328.83 356.335 328.733 356.348C328.499 356.378 328.28 356.428 328.077 356.497C327.875 356.563 327.713 356.663 327.588 356.798C327.466 356.931 327.405 357.111 327.405 357.34C327.405 357.653 327.52 357.89 327.752 358.05C327.986 358.208 328.283 358.287 328.642 358.287ZM333.206 361.158C333.054 361.158 332.918 361.145 332.798 361.12C332.678 361.097 332.596 361.074 332.55 361.051L332.779 360.257C332.998 360.313 333.191 360.333 333.359 360.318C333.527 360.303 333.676 360.228 333.806 360.093C333.938 359.96 334.059 359.745 334.168 359.448L334.336 358.99L332.168 353.095H333.145L334.764 357.768H334.825L336.444 353.095H337.421L334.932 359.814C334.82 360.117 334.681 360.368 334.516 360.566C334.35 360.767 334.158 360.916 333.939 361.013C333.723 361.11 333.479 361.158 333.206 361.158Z" fill="#5D6180"/>
<path d="M419.147 351.141H420.094V356.73C420.094 357.228 420.002 357.652 419.819 358.001C419.636 358.349 419.377 358.614 419.044 358.795C418.711 358.976 418.317 359.066 417.864 359.066C417.437 359.066 417.056 358.988 416.723 358.833C416.389 358.675 416.127 358.451 415.936 358.161C415.746 357.871 415.65 357.526 415.65 357.127H416.582C416.582 357.348 416.636 357.541 416.746 357.707C416.858 357.87 417.01 357.997 417.204 358.089C417.397 358.18 417.617 358.226 417.864 358.226C418.137 358.226 418.368 358.169 418.559 358.054C418.75 357.94 418.895 357.772 418.994 357.55C419.096 357.326 419.147 357.053 419.147 356.73V351.141ZM425.564 356.562V353.095H426.465V358.959H425.564V357.966H425.503C425.366 358.264 425.152 358.517 424.862 358.726C424.572 358.932 424.205 359.035 423.763 359.035C423.396 359.035 423.07 358.955 422.785 358.795C422.5 358.632 422.276 358.388 422.113 358.062C421.95 357.734 421.869 357.32 421.869 356.821V353.095H422.77V356.76C422.77 357.188 422.89 357.529 423.129 357.783C423.371 358.038 423.679 358.165 424.053 358.165C424.277 358.165 424.504 358.108 424.736 357.993C424.97 357.879 425.166 357.703 425.324 357.466C425.484 357.23 425.564 356.928 425.564 356.562ZM429.016 355.432V358.959H428.116V353.095H428.986V354.011H429.062C429.2 353.714 429.408 353.474 429.688 353.294C429.968 353.11 430.33 353.019 430.773 353.019C431.17 353.019 431.517 353.1 431.815 353.263C432.113 353.423 432.344 353.668 432.51 353.996C432.675 354.322 432.758 354.734 432.758 355.233V358.959H431.857V355.294C431.857 354.833 431.737 354.475 431.498 354.218C431.259 353.958 430.93 353.828 430.513 353.828C430.225 353.828 429.968 353.89 429.742 354.015C429.518 354.14 429.341 354.322 429.211 354.561C429.081 354.8 429.016 355.09 429.016 355.432Z" fill="#5D6180"/>
<path d="M512.574 351.141H513.52V356.73C513.52 357.228 513.429 357.652 513.245 358.001C513.062 358.349 512.804 358.614 512.47 358.795C512.137 358.976 511.744 359.066 511.291 359.066C510.863 359.066 510.483 358.988 510.149 358.833C509.816 358.675 509.554 358.451 509.363 358.161C509.172 357.871 509.077 357.526 509.077 357.127H510.008C510.008 357.348 510.063 357.541 510.172 357.707C510.284 357.87 510.437 357.997 510.63 358.089C510.824 358.18 511.044 358.226 511.291 358.226C511.563 358.226 511.795 358.169 511.986 358.054C512.177 357.94 512.322 357.772 512.421 357.55C512.523 357.326 512.574 357.053 512.574 356.73V351.141ZM518.991 356.562V353.095H519.892V358.959H518.991V357.966H518.93C518.792 358.264 518.579 358.517 518.289 358.726C517.998 358.932 517.632 359.035 517.189 359.035C516.823 359.035 516.497 358.955 516.212 358.795C515.927 358.632 515.703 358.388 515.54 358.062C515.377 357.734 515.296 357.32 515.296 356.821V353.095H516.196V356.76C516.196 357.188 516.316 357.529 516.555 357.783C516.797 358.038 517.105 358.165 517.479 358.165C517.703 358.165 517.931 358.108 518.163 357.993C518.397 357.879 518.593 357.703 518.75 357.466C518.911 357.23 518.991 356.928 518.991 356.562ZM522.443 351.141V358.959H521.542V351.141H522.443Z" fill="#5D6180"/>
<path opacity="0.4" d="M181.088 284.592C162.015 284.592 144.602 294.924 129.537 334.568H551.754V152.867C533.461 152.867 516.097 186.444 496.675 186.444C478.782 186.444 473.679 207.272 466.343 207.272C459.709 207.272 456.392 202.802 451.417 202.802C446.442 202.802 446.442 226.048 436.491 226.048C429.857 226.048 423.223 219.16 412.443 219.16C401.663 219.16 394.969 238.101 385.908 238.101C361.86 238.101 372.64 199.358 356.885 199.358C343.617 199.358 341.129 222.604 326.203 222.604C307.131 222.604 312.106 190.749 299.668 190.749C283.912 190.749 293.037 244.989 267.328 244.989C246.597 244.989 245.311 262.094 234.159 262.208C223.007 262.321 211.769 251.908 201.819 251.908C186.892 251.908 197.672 284.592 181.088 284.592Z" fill="url(#paint0_linear_1620_9297)"/>
<path d="M130 322.916C145.056 285.824 162.461 276.158 181.524 276.158C198.1 276.158 187.325 245.579 202.244 245.579C212.19 245.579 223.421 255.321 234.567 255.215C245.713 255.109 246.999 239.105 267.719 239.105C293.415 239.105 284.296 188.358 300.043 188.358C312.475 188.358 307.502 218.162 326.565 218.162C341.483 218.162 343.97 196.413 357.23 196.413C372.978 196.413 362.203 232.661 386.239 232.661C395.296 232.661 401.986 214.94 412.76 214.94C423.535 214.94 430.165 221.384 436.796 221.384C446.741 221.384 446.741 199.635 451.714 199.635C456.687 199.635 460.002 203.817 466.633 203.817C473.964 203.817 479.065 184.331 496.949 184.331C516.361 184.331 533.717 152.916 552 152.916" stroke="#6241D4" stroke-width="2.15007" stroke-linecap="round" stroke-linejoin="round"/>
<path d="M130 322.916C145.05 285.909 163.674 292.224 182.729 292.224C199.299 292.224 198.785 267.186 213.698 267.186C223.639 267.186 235.198 271.33 246.34 271.224C257.482 271.119 259.944 247.802 280.656 247.802C306.342 247.802 295.046 219.533 310.787 219.533C323.214 219.533 319.352 225.994 338.407 225.994C353.32 225.994 363.653 199.916 376.908 199.916C392.65 199.916 373.807 247.802 397.833 247.802C406.886 247.802 417.194 271.224 427.964 271.224C438.734 271.224 436.402 236.494 443.03 236.494C452.971 236.494 448.888 216.302 458.932 216.302C468.976 216.302 469.881 216.302 476.509 216.302C483.837 216.302 480.393 209.841 498.27 209.841C517.675 209.841 532.724 225.994 551 225.994" stroke="#FFD43D" stroke-width="2.15007" stroke-linecap="round" stroke-linejoin="round"/>
<path d="M354.81 184.675C354.411 185.008 353.831 185.008 353.432 184.675L337.116 171.061C335.573 169.773 336.484 167.26 338.494 167.26L369.749 167.26C371.759 167.26 372.67 169.773 371.126 171.061L354.81 184.675Z" fill="#9374FF"/>
<rect x="291.238" y="118.686" width="125.767" height="59.3676" rx="4.30015" fill="#9374FF"/>
<path d="M306.936 138.4V137.255L310.99 130.85H311.893V132.536H311.32L308.42 137.126V137.2H313.977V138.4H306.936ZM311.384 140.232V138.052L311.394 137.53V130.85H312.736V140.232H311.384ZM318.744 140.361C318.087 140.361 317.507 140.248 317.003 140.022C316.502 139.796 316.11 139.484 315.826 139.087C315.542 138.69 315.401 138.238 315.404 137.731C315.401 137.334 315.482 136.969 315.647 136.636C315.815 136.3 316.043 136.021 316.33 135.798C316.617 135.572 316.938 135.428 317.292 135.367V135.312C316.825 135.199 316.45 134.949 316.169 134.561C315.888 134.173 315.75 133.727 315.753 133.223C315.75 132.744 315.876 132.316 316.133 131.941C316.392 131.562 316.748 131.264 317.2 131.047C317.652 130.83 318.167 130.722 318.744 130.722C319.315 130.722 319.825 130.832 320.274 131.052C320.726 131.269 321.082 131.566 321.342 131.945C321.601 132.321 321.732 132.747 321.736 133.223C321.732 133.727 321.589 134.173 321.305 134.561C321.021 134.949 320.651 135.199 320.196 135.312V135.367C320.547 135.428 320.864 135.572 321.145 135.798C321.429 136.021 321.655 136.3 321.823 136.636C321.994 136.969 322.081 137.334 322.084 137.731C322.081 138.238 321.937 138.69 321.653 139.087C321.369 139.484 320.975 139.796 320.471 140.022C319.97 140.248 319.395 140.361 318.744 140.361ZM318.744 139.202C319.132 139.202 319.468 139.138 319.752 139.009C320.036 138.878 320.256 138.696 320.412 138.464C320.567 138.229 320.647 137.954 320.65 137.64C320.647 137.313 320.561 137.024 320.393 136.774C320.228 136.523 320.004 136.326 319.72 136.183C319.436 136.039 319.111 135.967 318.744 135.967C318.375 135.967 318.046 136.039 317.759 136.183C317.472 136.326 317.246 136.523 317.081 136.774C316.916 137.024 316.835 137.313 316.838 137.64C316.835 137.954 316.91 138.229 317.063 138.464C317.219 138.696 317.44 138.878 317.727 139.009C318.014 139.138 318.353 139.202 318.744 139.202ZM318.744 134.836C319.056 134.836 319.332 134.773 319.573 134.648C319.815 134.523 320.004 134.349 320.141 134.126C320.282 133.903 320.354 133.642 320.357 133.342C320.354 133.049 320.283 132.793 320.146 132.573C320.011 132.353 319.824 132.183 319.582 132.064C319.341 131.942 319.062 131.881 318.744 131.881C318.42 131.881 318.136 131.942 317.892 132.064C317.651 132.183 317.463 132.353 317.328 132.573C317.194 132.793 317.128 133.049 317.131 133.342C317.128 133.642 317.196 133.903 317.333 134.126C317.47 134.349 317.66 134.523 317.901 134.648C318.145 134.773 318.426 134.836 318.744 134.836ZM328.622 138.473V137.979C328.622 137.624 328.695 137.301 328.842 137.007C328.992 136.711 329.208 136.474 329.493 136.297C329.78 136.117 330.126 136.027 330.532 136.027C330.948 136.027 331.296 136.116 331.577 136.293C331.858 136.47 332.07 136.706 332.214 137.003C332.36 137.299 332.434 137.624 332.434 137.979V138.473C332.434 138.828 332.36 139.153 332.214 139.449C332.067 139.742 331.852 139.979 331.568 140.159C331.287 140.336 330.942 140.425 330.532 140.425C330.12 140.425 329.772 140.336 329.488 140.159C329.204 139.979 328.989 139.742 328.842 139.449C328.695 139.153 328.622 138.828 328.622 138.473ZM329.689 137.979V138.473C329.689 138.736 329.752 138.974 329.877 139.188C330.003 139.402 330.221 139.509 330.532 139.509C330.841 139.509 331.056 139.402 331.178 139.188C331.301 138.974 331.362 138.736 331.362 138.473V137.979C331.362 137.716 331.302 137.478 331.183 137.264C331.067 137.05 330.85 136.943 330.532 136.943C330.227 136.943 330.01 137.05 329.882 137.264C329.754 137.478 329.689 137.716 329.689 137.979ZM323.904 133.104V132.609C323.904 132.255 323.977 131.93 324.123 131.634C324.273 131.337 324.49 131.101 324.774 130.924C325.061 130.746 325.408 130.658 325.814 130.658C326.229 130.658 326.577 130.746 326.858 130.924C327.139 131.101 327.352 131.337 327.495 131.634C327.639 131.93 327.71 132.255 327.71 132.609V133.104C327.71 133.458 327.637 133.784 327.491 134.08C327.347 134.373 327.133 134.61 326.849 134.79C326.568 134.967 326.223 135.056 325.814 135.056C325.399 135.056 325.049 134.967 324.765 134.79C324.484 134.61 324.27 134.373 324.123 134.08C323.977 133.784 323.904 133.458 323.904 133.104ZM324.976 132.609V133.104C324.976 133.367 325.037 133.605 325.159 133.819C325.284 134.033 325.502 134.14 325.814 134.14C326.119 134.14 326.333 134.033 326.455 133.819C326.58 133.605 326.643 133.367 326.643 133.104V132.609C326.643 132.347 326.583 132.109 326.464 131.895C326.345 131.681 326.128 131.574 325.814 131.574C325.508 131.574 325.292 131.681 325.163 131.895C325.038 132.109 324.976 132.347 324.976 132.609ZM324.339 140.232L330.789 130.85H331.884L325.434 140.232H324.339Z" fill="white"/>
<path opacity="0.8" d="M306.369 160.865V154.61H308.482C308.973 154.61 309.374 154.699 309.685 154.876C309.999 155.051 310.231 155.288 310.382 155.588C310.532 155.887 310.608 156.221 310.608 156.59C310.608 156.958 310.532 157.293 310.382 157.594C310.233 157.896 310.003 158.136 309.692 158.315C309.38 158.492 308.981 158.581 308.494 158.581H306.98V157.909H308.47C308.806 157.909 309.076 157.851 309.279 157.735C309.483 157.619 309.63 157.462 309.722 157.264C309.816 157.065 309.863 156.84 309.863 156.59C309.863 156.339 309.816 156.115 309.722 155.918C309.63 155.72 309.482 155.565 309.276 155.453C309.071 155.339 308.798 155.282 308.458 155.282H307.126V160.865H306.369ZM311.73 160.865V156.174H312.427V156.883H312.475C312.561 156.651 312.716 156.462 312.94 156.318C313.164 156.173 313.416 156.101 313.697 156.101C313.75 156.101 313.816 156.102 313.896 156.104C313.975 156.106 314.035 156.109 314.076 156.113V156.846C314.051 156.84 313.995 156.831 313.908 156.819C313.822 156.804 313.732 156.797 313.636 156.797C313.408 156.797 313.204 156.845 313.025 156.941C312.848 157.034 312.707 157.165 312.604 157.332C312.502 157.497 312.451 157.685 312.451 157.897V160.865H311.73ZM316.693 160.963C316.27 160.963 315.898 160.862 315.578 160.661C315.261 160.459 315.012 160.177 314.833 159.815C314.656 159.452 314.567 159.029 314.567 158.544C314.567 158.055 314.656 157.629 314.833 157.264C315.012 156.9 315.261 156.617 315.578 156.415C315.898 156.214 316.27 156.113 316.693 156.113C317.117 156.113 317.487 156.214 317.805 156.415C318.124 156.617 318.373 156.9 318.55 157.264C318.729 157.629 318.819 158.055 318.819 158.544C318.819 159.029 318.729 159.452 318.55 159.815C318.373 160.177 318.124 160.459 317.805 160.661C317.487 160.862 317.117 160.963 316.693 160.963ZM316.693 160.315C317.015 160.315 317.279 160.233 317.487 160.068C317.695 159.903 317.849 159.686 317.948 159.418C318.048 159.149 318.098 158.858 318.098 158.544C318.098 158.231 318.048 157.938 317.948 157.668C317.849 157.397 317.695 157.178 317.487 157.011C317.279 156.844 317.015 156.761 316.693 156.761C316.371 156.761 316.107 156.844 315.899 157.011C315.691 157.178 315.538 157.397 315.438 157.668C315.338 157.938 315.288 158.231 315.288 158.544C315.288 158.858 315.338 159.149 315.438 159.418C315.538 159.686 315.691 159.903 315.899 160.068C316.107 160.233 316.371 160.315 316.693 160.315ZM321.69 160.963C321.299 160.963 320.954 160.864 320.655 160.667C320.356 160.467 320.122 160.186 319.953 159.824C319.784 159.459 319.699 159.029 319.699 158.532C319.699 158.039 319.784 157.612 319.953 157.249C320.122 156.887 320.357 156.607 320.658 156.409C320.959 156.212 321.308 156.113 321.703 156.113C322.008 156.113 322.249 156.164 322.426 156.266C322.606 156.366 322.742 156.48 322.836 156.608C322.931 156.734 323.006 156.838 323.059 156.919H323.12V154.61H323.84V160.865H323.144V160.144H323.059C323.006 160.23 322.93 160.338 322.833 160.468C322.735 160.596 322.595 160.712 322.414 160.813C322.233 160.913 321.992 160.963 321.69 160.963ZM321.788 160.315C322.077 160.315 322.321 160.24 322.521 160.089C322.721 159.937 322.872 159.726 322.976 159.457C323.08 159.187 323.132 158.874 323.132 158.52C323.132 158.169 323.081 157.863 322.979 157.6C322.877 157.336 322.727 157.13 322.527 156.983C322.328 156.835 322.081 156.761 321.788 156.761C321.483 156.761 321.228 156.839 321.025 156.996C320.823 157.15 320.671 157.361 320.569 157.628C320.47 157.893 320.42 158.19 320.42 158.52C320.42 158.854 320.471 159.157 320.573 159.43C320.676 159.701 320.829 159.916 321.031 160.077C321.234 160.236 321.487 160.315 321.788 160.315ZM328.217 158.947V156.174H328.938V160.865H328.217V160.071H328.168C328.058 160.309 327.887 160.512 327.655 160.679C327.423 160.844 327.13 160.926 326.775 160.926C326.482 160.926 326.222 160.862 325.994 160.734C325.765 160.604 325.586 160.408 325.456 160.148C325.326 159.885 325.261 159.554 325.261 159.155V156.174H325.981V159.106C325.981 159.448 326.077 159.721 326.268 159.925C326.462 160.128 326.708 160.23 327.007 160.23C327.187 160.23 327.369 160.184 327.554 160.093C327.741 160.001 327.898 159.86 328.024 159.671C328.153 159.482 328.217 159.24 328.217 158.947ZM332.164 160.963C331.724 160.963 331.345 160.859 331.027 160.651C330.71 160.444 330.465 160.158 330.294 159.793C330.123 159.429 330.038 159.012 330.038 158.544C330.038 158.068 330.125 157.647 330.301 157.283C330.478 156.916 330.724 156.63 331.04 156.425C331.357 156.217 331.728 156.113 332.151 156.113C332.481 156.113 332.778 156.174 333.043 156.296C333.308 156.418 333.525 156.59 333.694 156.809C333.863 157.029 333.967 157.286 334.008 157.579H333.287C333.232 157.365 333.11 157.176 332.921 157.011C332.734 156.844 332.481 156.761 332.164 156.761C331.883 156.761 331.636 156.834 331.424 156.98C331.215 157.125 331.051 157.33 330.933 157.594C330.817 157.857 330.759 158.165 330.759 158.52C330.759 158.882 330.816 159.198 330.93 159.466C331.046 159.735 331.209 159.944 331.418 160.093C331.63 160.241 331.878 160.315 332.164 160.315C332.351 160.315 332.521 160.283 332.674 160.218C332.826 160.153 332.956 160.059 333.061 159.937C333.167 159.815 333.243 159.668 333.287 159.497H334.008C333.967 159.774 333.867 160.023 333.706 160.245C333.547 160.465 333.336 160.64 333.074 160.771C332.813 160.899 332.51 160.963 332.164 160.963ZM337.102 156.174V156.785H334.671V156.174H337.102ZM335.379 155.05H336.1V159.521C336.1 159.725 336.13 159.878 336.189 159.98C336.25 160.079 336.327 160.147 336.421 160.181C336.517 160.214 336.617 160.23 336.723 160.23C336.803 160.23 336.868 160.226 336.919 160.218C336.97 160.208 337.01 160.199 337.041 160.193L337.187 160.841C337.139 160.859 337.07 160.877 336.983 160.896C336.895 160.916 336.784 160.926 336.65 160.926C336.446 160.926 336.247 160.883 336.051 160.795C335.858 160.707 335.697 160.574 335.569 160.395C335.443 160.216 335.379 159.99 335.379 159.717V155.05ZM338.186 160.865V156.174H338.907V160.865H338.186ZM338.553 155.392C338.412 155.392 338.291 155.344 338.189 155.249C338.089 155.153 338.04 155.038 338.04 154.904C338.04 154.769 338.089 154.654 338.189 154.559C338.291 154.463 338.412 154.415 338.553 154.415C338.693 154.415 338.813 154.463 338.913 154.559C339.015 154.654 339.066 154.769 339.066 154.904C339.066 155.038 339.015 155.153 338.913 155.249C338.813 155.344 338.693 155.392 338.553 155.392ZM344.063 156.174L342.328 160.865H341.595L339.861 156.174H340.642L341.937 159.912H341.986L343.281 156.174H344.063ZM345.014 160.865V156.174H345.735V160.865H345.014ZM345.381 155.392C345.24 155.392 345.119 155.344 345.017 155.249C344.918 155.153 344.868 155.038 344.868 154.904C344.868 154.769 344.918 154.654 345.017 154.559C345.119 154.463 345.24 154.415 345.381 154.415C345.521 154.415 345.641 154.463 345.741 154.559C345.843 154.654 345.894 154.769 345.894 154.904C345.894 155.038 345.843 155.153 345.741 155.249C345.641 155.344 345.521 155.392 345.381 155.392ZM349.095 156.174V156.785H346.664V156.174H349.095ZM347.373 155.05H348.094V159.521C348.094 159.725 348.123 159.878 348.182 159.98C348.243 160.079 348.321 160.147 348.414 160.181C348.51 160.214 348.611 160.23 348.717 160.23C348.796 160.23 348.861 160.226 348.912 160.218C348.963 160.208 349.004 160.199 349.034 160.193L349.181 160.841C349.132 160.859 349.064 160.877 348.976 160.896C348.889 160.916 348.778 160.926 348.643 160.926C348.44 160.926 348.24 160.883 348.045 160.795C347.851 160.707 347.69 160.574 347.562 160.395C347.436 160.216 347.373 159.99 347.373 159.717V155.05ZM350.644 162.624C350.522 162.624 350.413 162.614 350.317 162.594C350.221 162.576 350.155 162.557 350.118 162.539L350.302 161.904C350.477 161.948 350.632 161.965 350.766 161.952C350.9 161.94 351.019 161.88 351.123 161.772C351.229 161.666 351.326 161.494 351.413 161.256L351.548 160.89L349.813 156.174H350.595L351.89 159.912H351.939L353.234 156.174H354.015L352.024 161.549C351.935 161.792 351.824 161.992 351.691 162.151C351.559 162.312 351.405 162.431 351.23 162.508C351.057 162.586 350.862 162.624 350.644 162.624Z" fill="white"/>
<ellipse cx="390.054" cy="147.47" rx="12.5767" ry="12.5931" fill="white"/>
<path d="M390.976 144.31C390.501 143.803 389.606 143.803 389.131 144.31L384.424 149.344C383.797 150.014 384.349 151.013 385.347 151.013L394.76 151.013C395.758 151.013 396.31 150.014 395.683 149.344L390.976 144.31Z" fill="#38E7B2"/>
<path d="M360.77 199.641C360.77 203.319 357.792 206.3 354.121 206.3C350.449 206.3 347.472 203.319 347.472 199.641C347.472 195.963 350.449 192.983 354.121 192.983C357.792 192.983 360.77 195.963 360.77 199.641Z" fill="#9374FF" stroke="#6241D4" stroke-width="1.07504"/>
<rect x="70" y="75.918" width="218" height="12" rx="6" fill="#E6E6E6"/>
<rect x="70" y="57.918" width="111" height="12" rx="6" fill="#CCCBCB"/>
<defs>
<filter id="filter0_d_1620_9297" x="0.648612" y="0.0809355" width="620.703" height="448.703" filterUnits="userSpaceOnUse" color-interpolation-filters="sRGB">
<feFlood flood-opacity="0" result="BackgroundImageFix"/>
<feColorMatrix in="SourceAlpha" type="matrix" values="0 0 0 0 0 0 0 0 0 0 0 0 0 0 0 0 0 0 127 0" result="hardAlpha"/>
<feMorphology radius="2.15007" operator="erode" in="SourceAlpha" result="effect1_dropShadow_1620_9297"/>
<feOffset dy="8.60029"/>
<feGaussianBlur stdDeviation="21.5007"/>
<feColorMatrix type="matrix" values="0 0 0 0 0.0235294 0 0 0 0 0.0470588 0 0 0 0 0.231373 0 0 0 0.08 0"/>
<feBlend mode="normal" in2="BackgroundImageFix" result="effect1_dropShadow_1620_9297"/>
<feBlend mode="normal" in="SourceGraphic" in2="effect1_dropShadow_1620_9297" result="shape"/>
</filter>
<linearGradient id="paint0_linear_1620_9297" x1="340.646" y1="99.2221" x2="340.646" y2="334.568" gradientUnits="userSpaceOnUse">
<stop stop-color="#9374FF"/>
<stop offset="1" stop-color="#9374FF" stop-opacity="0"/>
</linearGradient>
</defs>
</svg>
