<svg width="36" height="37" viewBox="0 0 36 37" fill="none" xmlns="http://www.w3.org/2000/svg">
<g clip-path="url(#clip0_836_6697)">
<path opacity="0.3" d="M33 23.4111C33 20.9211 30.99 18.9111 28.5 18.9111H26.25V18.1611C26.25 13.6011 22.56 9.91113 18 9.91113C16.845 9.91113 15.765 10.1661 14.76 10.6011L31.185 27.0111C32.28 26.1861 33 24.8961 33 23.4111ZM3 21.9111C3 25.2261 5.685 27.9111 9 27.9111H23.595L11.595 15.9111H9C5.685 15.9111 3 18.5961 3 21.9111Z" fill="#5B70AF"/>
<path d="M29.025 15.9712C28.005 10.7962 23.46 6.91117 18 6.91117C16.005 6.91117 14.145 7.45117 12.525 8.36617L14.76 10.6012C15.765 10.1662 16.845 9.91117 18 9.91117C22.56 9.91117 26.25 13.6012 26.25 18.1612V18.9112H28.5C30.99 18.9112 33 20.9212 33 23.4112C33 24.8962 32.28 26.1862 31.185 27.0112L33.3 29.1262C34.935 27.7462 36 25.7212 36 23.4112C36 19.4512 32.925 16.2412 29.025 15.9712ZM4.5 8.81617L8.655 12.9712H8.025C3.51 13.4512 0 17.2762 0 21.9112C0 26.8762 4.035 30.9112 9 30.9112H26.595L29.595 33.9112L31.71 31.7962L6.615 6.70117L4.5 8.81617ZM11.595 15.9112L23.595 27.9112H9C5.685 27.9112 3 25.2262 3 21.9112C3 18.5962 5.685 15.9112 9 15.9112H11.595Z" fill="#5B70AF"/>
</g>
<defs>
<clipPath id="clip0_836_6697">
<rect width="36" height="36" fill="white" transform="translate(0 0.911133)"/>
</clipPath>
</defs>
</svg>
