<svg width="24" height="24" viewBox="0 0 24 24" fill="none" xmlns="http://www.w3.org/2000/svg">
<rect width="24" height="24" rx="3" fill="#FFE5E9"/>
<g clip-path="url(#clip0_1242_3650)">
<path d="M14.2393 9.19609C14.2393 10.4278 13.2417 11.4254 12.01 11.4254C10.7784 11.4254 9.78076 10.4278 9.78076 9.19609C9.78076 7.96441 10.7784 6.9668 12.01 6.9668C13.2417 6.9668 14.2393 7.96441 14.2393 9.19609ZM9.22343 12.54C7.99175 12.54 6.99414 13.5376 6.99414 14.7693C6.99414 16.001 7.99175 16.9986 9.22343 16.9986C10.4551 16.9986 11.4527 16.001 11.4527 14.7693C11.4527 13.5376 10.4551 12.54 9.22343 12.54ZM14.7967 12.54C13.565 12.54 12.5674 13.5376 12.5674 14.7693C12.5674 16.001 13.565 16.9986 14.7967 16.9986C16.0283 16.9986 17.026 16.001 17.026 14.7693C17.026 13.5376 16.0283 12.54 14.7967 12.54Z" fill="#FF5F85"/>
</g>
<defs>
<clipPath id="clip0_1242_3650">
<rect width="13.3758" height="13.3758" fill="white" transform="translate(5.32227 5.29492)"/>
</clipPath>
</defs>
</svg>
