<svg width="504" height="392" viewBox="0 0 504 392" fill="none" xmlns="http://www.w3.org/2000/svg">
<path d="M412.152 290.877C412.632 283.945 412.58 276.603 412.205 269.665C412.191 269.387 411.789 269.387 411.773 269.665C411.4 276.603 411.347 283.945 411.828 290.877C411.843 291.084 412.136 291.084 412.152 290.877Z" fill="#DADBD8"/>
<path d="M455.316 280.271C455.316 281.477 454.338 282.455 453.131 282.455C451.924 282.455 450.946 281.477 450.946 280.271C450.946 279.064 451.924 278.086 453.131 278.086C454.338 278.086 455.316 279.064 455.316 280.271Z" fill="#DADBD8"/>
<path d="M371.156 280.271C371.156 281.477 370.177 282.455 368.971 282.455C367.765 282.455 366.786 281.477 366.786 280.271C366.786 279.064 367.765 278.086 368.971 278.086C370.177 278.086 371.156 279.064 371.156 280.271Z" fill="#DADBD8"/>
<path d="M413.811 304.484C413.811 305.691 412.833 306.669 411.627 306.669C410.42 306.669 409.442 305.691 409.442 304.484C409.442 303.277 410.42 302.299 411.627 302.299C412.833 302.299 413.811 303.277 413.811 304.484Z" fill="#DADBD8"/>
<path d="M413.665 326.585C413.665 327.791 412.687 328.77 411.481 328.77C410.275 328.77 409.296 327.791 409.296 326.585C409.296 325.378 410.275 324.399 411.481 324.399C412.687 324.399 413.665 325.378 413.665 326.585Z" fill="#DADBD8"/>
<path d="M394.067 238.995L394.012 228.574L445.208 228.296L445.263 238.718L394.067 238.995Z" fill="#DADBD8"/>
<path d="M394.351 265.312L394.267 249.119L451.327 248.81L451.413 265.003L394.351 265.312Z" fill="#F3F2F1"/>
<path d="M440.421 264.895C440.268 264.895 440.145 261.269 440.145 256.798C440.145 252.325 440.268 248.7 440.421 248.7C440.575 248.7 440.698 252.325 440.698 256.798C440.698 261.269 440.575 264.895 440.421 264.895Z" fill="#DADBD8"/>
<path d="M442.817 264.895C442.664 264.895 442.54 261.269 442.54 256.798C442.54 252.325 442.664 248.7 442.817 248.7C442.969 248.7 443.094 252.325 443.094 256.798C443.094 261.269 442.969 264.895 442.817 264.895Z" fill="#DADBD8"/>
<path d="M402.938 264.895C402.785 264.895 402.661 261.269 402.661 256.798C402.661 252.325 402.785 248.7 402.938 248.7C403.091 248.7 403.215 252.325 403.215 256.798C403.215 261.269 403.091 264.895 402.938 264.895Z" fill="#DADBD8"/>
<path d="M405.335 264.895C405.182 264.895 405.058 261.269 405.058 256.798C405.058 252.325 405.182 248.7 405.335 248.7C405.488 248.7 405.612 252.325 405.612 256.798C405.612 261.269 405.488 264.895 405.335 264.895Z" fill="#DADBD8"/>
<path d="M410.565 257.059C410.565 256.904 416.322 256.778 423.422 256.778C430.525 256.778 436.28 256.904 436.28 257.059C436.28 257.214 430.525 257.34 423.422 257.34C416.322 257.34 410.565 257.214 410.565 257.059Z" fill="#DADBD8"/>
<path d="M402.429 249.097L402.374 238.676L472.786 238.293L472.841 248.715L402.429 249.097Z" fill="#E7E8E5"/>
<path d="M462.761 247.428C460.922 247.428 459.433 245.919 459.433 244.057C459.433 242.197 460.922 240.687 462.761 240.687C464.598 240.687 466.088 242.197 466.088 244.057C466.088 245.919 464.598 247.428 462.761 247.428Z" fill="#DADBD8"/>
<path d="M406.476 245.101V243.016H453.608V245.101H406.476Z" fill="#DADBD8"/>
<path d="M61.0751 30.1408L23.4855 30.3418L23.3896 12.4577L60.9793 12.2557L61.0751 30.1408Z" fill="#F3F2F1"/>
<path d="M18.6283 60.4279L14.715 66.0536C14.715 66.0536 23.5195 68.4997 23.5195 76.3263C23.5195 84.1529 18.1389 85.6201 12.269 85.6201C6.39902 85.6201 0.773305 83.9086 1.01847 76.0811C1.2627 68.2545 8.5999 65.32 8.5999 65.32L4.93177 60.4279H18.6283Z" fill="#F3F2F1"/>
<path d="M458.81 16.5414L458.657 303.806C458.653 312.688 451.448 319.886 442.566 319.881L16.32 319.656C7.43668 319.651 0.239446 312.446 0.244143 303.563L0.396316 16.299C0.401012 7.41568 7.60577 0.218475 16.4882 0.223175L442.733 0.447632C451.616 0.452332 458.815 7.65802 458.81 16.5414Z" fill="#DADBD8"/>
<path d="M458.81 16.5414C458.81 16.5414 458.784 16.2079 458.747 15.5494C458.734 15.2188 458.714 14.8083 458.621 14.3245C458.542 13.8389 458.478 13.2696 458.29 12.644C458.004 11.3759 457.413 9.8429 456.417 8.19528C455.414 6.55612 453.934 4.81741 451.853 3.35767C450.8 2.65692 449.625 1.98065 448.286 1.51474C446.965 0.996216 445.487 0.697479 443.932 0.570648C443.541 0.550934 443.145 0.531219 442.745 0.511505C442.343 0.511505 441.937 0.511505 441.526 0.511505C440.705 0.511505 439.865 0.512421 439.007 0.513367C437.29 0.514313 435.501 0.515228 433.641 0.516174C426.199 0.518982 417.613 0.520905 407.948 0.524658C369.282 0.522766 313.337 0.519928 244.209 0.516174C209.643 0.506775 171.782 0.497406 131.138 0.486115C110.815 0.479553 89.7963 0.472961 68.1464 0.465454C57.3205 0.4617 46.3377 0.457947 35.2046 0.453247C29.6381 0.451355 24.034 0.449493 18.3932 0.446686C18.1866 0.447632 17.9809 0.446686 17.7752 0.446686C16.569 0.443878 15.3733 0.441956 14.1981 0.629822C12.8098 0.791382 11.4712 1.23663 10.1768 1.75705C7.61899 2.88989 5.3317 4.67468 3.68503 6.96478C3.23603 7.51053 2.92229 8.1474 2.53998 8.7392C2.25254 9.38263 1.88432 9.99225 1.67297 10.6686C1.13097 11.9771 0.879219 13.3833 0.699805 14.7838C0.597416 16.19 0.625601 17.6385 0.621843 19.0785C0.620904 20.5194 0.620902 21.9632 0.619963 23.4089C0.617145 29.1915 0.61527 35.0088 0.612452 40.8581C0.607756 52.5594 0.603057 64.3951 0.59836 76.3548C0.587088 100.277 0.576757 124.703 0.565485 149.568C0.541062 199.3 0.514755 250.789 0.489393 303.526C0.515695 305.152 0.74865 306.767 1.21644 308.322C1.71523 309.865 2.44886 311.324 3.3666 312.658C4.274 314.002 5.4463 315.148 6.71535 316.14C7.98628 317.138 9.42629 317.918 10.9461 318.452C13.4063 319.444 16.0562 319.428 18.707 319.411C19.3269 319.408 19.9469 319.404 20.565 319.413C23.8311 319.415 27.0925 319.417 30.3492 319.419C43.3731 319.426 56.3116 319.433 69.1562 319.441C94.8443 319.456 120.157 319.47 145.028 319.484C194.771 319.515 242.752 319.546 288.459 319.574C334.166 319.606 377.598 319.636 418.247 319.664C423.328 319.669 428.365 319.672 433.358 319.676C435.854 319.678 438.341 319.68 440.814 319.682C442.056 319.691 443.283 319.694 444.488 319.557C445.691 319.392 446.889 319.148 448.017 318.707C452.604 317.087 456.213 313.23 457.681 308.712C457.866 308.149 457.989 307.566 458.144 306.994C458.225 306.407 458.343 305.826 458.393 305.237C458.477 304.061 458.472 302.867 458.468 301.674C458.47 299.292 458.472 296.921 458.474 294.563C458.49 275.696 458.504 257.589 458.519 240.307C458.587 171.178 458.644 115.238 458.682 76.5765C458.712 57.2487 458.737 42.2408 458.752 32.0621C458.766 26.9756 458.775 23.0961 458.782 20.4847C458.792 17.8771 458.81 16.5414 458.81 16.5414C458.81 16.5414 458.825 17.8771 458.832 20.4847C458.836 23.0961 458.843 26.9756 458.851 32.0621C458.856 42.2408 458.863 57.2487 458.873 76.5765C458.871 115.238 458.868 171.179 458.864 240.307C458.86 257.589 458.856 275.696 458.852 294.564C458.851 296.923 458.85 299.292 458.849 301.674C458.853 302.864 458.861 304.057 458.775 305.27C458.723 305.873 458.603 306.471 458.52 307.071C458.363 307.657 458.236 308.254 458.047 308.831C456.545 313.461 452.851 317.412 448.152 319.075C446.995 319.527 445.767 319.78 444.535 319.948C443.293 320.09 442.045 320.087 440.813 320.077C438.34 320.076 435.854 320.075 433.358 320.075C428.365 320.074 423.327 320.072 418.246 320.071C377.598 320.056 334.165 320.04 288.459 320.025C242.751 320.005 194.771 319.984 145.028 319.963C120.157 319.951 94.8443 319.938 69.1562 319.927C56.3116 319.92 43.3731 319.914 30.3492 319.907C27.0925 319.905 23.8311 319.904 20.5641 319.901C19.9854 319.896 19.4077 319.899 18.831 319.901C17.7761 319.905 16.7203 319.91 15.6513 319.866C13.9905 319.827 12.3411 319.479 10.7799 318.913C9.21212 318.361 7.7289 317.556 6.41851 316.527C5.11001 315.506 3.90202 314.324 2.96644 312.938C2.01864 311.565 1.26341 310.06 0.748652 308.468C0.26677 306.866 0.0263016 305.199 0 303.526C0.0291196 250.789 0.0582433 199.3 0.0864235 149.568C0.101453 124.703 0.11648 100.277 0.13057 76.3548C0.138085 64.3942 0.145598 52.5594 0.153113 40.8581C0.15687 35.0079 0.160627 29.1915 0.164385 23.4079C0.165324 21.9632 0.166266 20.5194 0.167205 19.0785C0.171902 17.6357 0.141843 16.2041 0.248928 14.7416C0.432099 13.2997 0.694168 11.854 1.2512 10.507C1.47006 9.81284 1.8458 9.18445 2.14357 8.52408C2.53528 7.91351 2.86029 7.25974 3.32151 6.69894C5.01608 4.34402 7.36726 2.50946 9.99741 1.34561C11.3294 0.810181 12.7065 0.353668 14.1343 0.187408C15.3451 -0.00515747 16.5672 -0.00231934 17.7676 0.000488281C17.9771 0.00143433 18.1856 0.00140381 18.3942 0.00140381C24.0349 0.00424194 29.6381 0.00799561 35.2056 0.0126953C46.3377 0.0202026 57.3205 0.0277405 68.1464 0.0352783C89.7963 0.051239 110.815 0.0662537 131.138 0.0803528C171.782 0.112274 209.643 0.14328 244.209 0.170532C313.337 0.240021 369.282 0.295441 407.948 0.333954C417.613 0.348022 426.2 0.36026 433.641 0.370605C435.501 0.373413 437.29 0.376221 439.007 0.379028C439.865 0.379974 440.705 0.381866 441.527 0.383759C441.937 0.383759 442.343 0.385651 442.745 0.385651C443.148 0.407227 443.547 0.427887 443.939 0.448578C445.508 0.580078 446.995 0.886261 448.323 1.41043C449.672 1.8848 450.852 2.56772 451.91 3.27692C453.999 4.75168 455.481 6.50543 456.48 8.15585C457.475 9.81564 458.059 11.3581 458.339 12.6318C458.523 13.2602 458.584 13.8323 458.658 14.3198C458.747 14.8055 458.763 15.2169 458.771 15.5475C458.801 16.2079 458.81 16.5414 458.81 16.5414Z" fill="#17282F"/>
<path d="M424.354 18.1512L424.197 317.438L41.3662 317.236L41.524 17.9492L424.354 18.1512Z" fill="white"/>
<path d="M435.704 147.905C442.473 147.908 447.958 153.399 447.954 160.167C447.951 166.937 442.46 172.422 435.691 172.418C428.922 172.414 423.438 166.924 423.441 160.154C423.445 153.386 428.936 147.901 435.704 147.905Z" fill="#17282F"/>
<path d="M18.6108 112.979L18.561 206.905C18.561 207.535 18.0491 208.046 17.4188 208.045L14.6384 208.044C14.0081 208.044 13.4971 207.532 13.4971 206.903L13.5468 112.977C13.5468 112.346 14.0588 111.835 14.6891 111.836L17.4695 111.837C18.0998 111.837 18.6108 112.349 18.6108 112.979Z" fill="#17282F"/>
<path d="M205.836 289.79H66.3369C63.5199 289.79 61.2363 287.506 61.2363 284.689V270.088C61.2363 267.271 63.5199 264.988 66.3369 264.988H205.836C208.652 264.988 210.935 267.271 210.935 270.088V284.689C210.935 287.506 208.652 289.79 205.836 289.79Z" fill="#F3F2F1"/>
<path d="M204.559 236.673H65.0606C62.2435 236.673 59.96 234.389 59.96 231.572V216.972C59.96 214.155 62.2435 211.872 65.0606 211.872H204.559C207.376 211.872 209.659 214.155 209.659 216.972V231.572C209.659 234.389 207.376 236.673 204.559 236.673Z" fill="#F3F2F1"/>
<path d="M365.434 236.673H225.936C223.119 236.673 220.836 234.389 220.836 231.572V216.972C220.836 214.155 223.119 211.872 225.936 211.872H365.434C368.251 211.872 370.535 214.155 370.535 216.972V231.572C370.535 234.389 368.251 236.673 365.434 236.673Z" fill="#F3F2F1"/>
<path d="M363.869 85.7412H229.94C227.122 85.7412 224.84 83.4577 224.84 80.6406V66.0395C224.84 63.2233 227.122 60.9388 229.94 60.9388H363.869C366.686 60.9388 368.97 63.2233 368.97 66.0395V80.6406C368.97 83.4577 366.686 85.7412 363.869 85.7412Z" fill="#F3F2F1"/>
<path d="M367.271 134.99H66.3369C63.5199 134.99 61.2363 132.707 61.2363 129.89V115.288C61.2363 112.472 63.5199 110.189 66.3369 110.189H367.271C370.088 110.189 372.371 112.472 372.371 115.288V129.89C372.371 132.707 370.088 134.99 367.271 134.99Z" fill="#F3F2F1"/>
<path d="M205.607 85.7412H66.1094C63.2923 85.7412 61.0088 83.4577 61.0088 80.6406V66.0395C61.0088 63.2233 63.2923 60.9388 66.1094 60.9388H205.607C208.424 60.9388 210.708 63.2233 210.708 66.0395V80.6406C210.708 83.4577 208.424 85.7412 205.607 85.7412Z" fill="#F3F2F1"/>
<path d="M367.271 187.608H65.8809C63.0638 187.608 60.7803 185.326 60.7803 182.509V167.908C60.7803 165.091 63.0638 162.808 65.8809 162.808H367.271C370.088 162.808 372.372 165.091 372.372 167.908V182.509C372.372 185.326 370.088 187.608 367.271 187.608Z" fill="#F3F2F1"/>
<path d="M349.968 289.79C349.966 289.754 350.498 289.8 351.438 289.523C352.332 289.227 353.745 288.484 354.514 286.775C354.928 285.934 354.998 284.911 354.953 283.766C354.946 282.625 354.939 281.387 354.933 280.059C354.922 277.395 354.909 274.367 354.897 271.022C354.893 270.178 354.928 269.34 354.634 268.538C354.364 267.738 353.882 266.988 353.216 266.41C352.56 265.825 351.72 265.417 350.822 265.263C349.934 265.127 348.936 265.213 347.959 265.191C344.021 265.198 339.814 265.206 335.389 265.214C326.532 265.22 316.8 265.226 306.585 265.233C305.365 265.232 304.167 265.708 303.288 266.528C302.402 267.341 301.847 268.484 301.746 269.666C301.702 272.11 301.731 274.594 301.72 276.994C301.718 279.402 301.716 281.769 301.714 284.087C301.665 285.242 301.848 286.331 302.449 287.258C303.016 288.18 303.892 288.894 304.886 289.255C305.871 289.666 306.961 289.548 308.047 289.57C309.126 289.571 310.19 289.573 311.238 289.574C313.335 289.579 315.372 289.583 317.34 289.588C321.276 289.598 324.943 289.607 328.294 289.617C334.971 289.65 340.382 289.677 344.154 289.695C346.005 289.715 347.454 289.729 348.465 289.741C348.94 289.751 349.311 289.759 349.587 289.765C349.84 289.774 349.968 289.782 349.968 289.79C349.968 289.799 349.84 289.806 349.587 289.815C349.311 289.821 348.94 289.829 348.465 289.839C347.454 289.85 346.006 289.866 344.154 289.885C340.382 289.904 334.971 289.93 328.294 289.962C324.943 289.972 321.276 289.982 317.34 289.993C315.372 289.996 313.335 290.001 311.238 290.005C310.19 290.007 309.126 290.008 308.047 290.01C307.505 290.007 306.972 290.021 306.411 290.005C305.842 289.996 305.271 289.878 304.729 289.679C303.641 289.286 302.684 288.508 302.059 287.501C301.399 286.513 301.193 285.237 301.247 284.087C301.245 281.769 301.243 279.402 301.241 276.994C301.249 274.575 301.215 272.152 301.261 269.624C301.371 268.324 301.983 267.064 302.956 266.169C303.922 265.266 305.245 264.743 306.585 264.745C316.8 264.75 326.532 264.757 335.389 264.763C339.814 264.771 344.021 264.779 347.959 264.786C348.948 264.814 349.896 264.725 350.89 264.877C351.859 265.048 352.763 265.494 353.466 266.128C354.18 266.753 354.692 267.563 354.978 268.424C355.288 269.287 355.246 270.202 355.243 271.022C355.229 274.367 355.217 277.395 355.206 280.059C355.199 281.387 355.192 282.625 355.186 283.766C355.218 284.89 355.131 286.002 354.688 286.855C353.859 288.616 352.387 289.345 351.466 289.617C350.498 289.869 349.968 289.79 349.968 289.79Z" fill="#9FB4F3"/>
<path d="M286.872 289.79H243.483C240.666 289.79 238.383 287.506 238.383 284.689V270.088C238.383 267.271 240.666 264.988 243.483 264.988H286.872C289.689 264.988 291.971 267.271 291.971 270.088V284.689C291.971 287.506 289.689 289.79 286.872 289.79Z" fill="#5B70AF"/>
<path d="M423.208 33.4482H31.5029V10.1995H423.208V33.4482Z" fill="#5B70AF"/>
<path d="M414.912 11.1035C412.984 11.1035 259.366 11.1111 32.0817 11.1214L32.3015 10.9016C32.2621 100.221 32.217 202.265 32.1691 310.155V310.189L31.9239 309.944C173.883 310.035 305.7 310.118 414.754 310.188L414.552 310.39C414.769 129.739 414.91 12.7878 414.912 11.1035C414.912 12.7859 414.93 129.739 414.957 310.39V310.593H414.754C305.7 310.547 173.883 310.492 31.9239 310.433L31.6797 310.432V310.189V310.155C31.7454 202.265 31.8084 100.22 31.8629 10.9016V10.6818H32.0817C259.366 10.9317 412.986 11.1017 414.912 11.1035Z" fill="#17282F"/>
<path d="M435.508 98.6813C435.508 98.6813 427.981 97.4668 423.606 100.967C419.232 104.466 417.263 108.84 416.716 113.653C416.17 118.465 412.693 137.06 412.693 137.06L405.889 127.869L398.393 134.45C398.393 134.45 404.722 164.791 410.665 166.836C416.607 168.88 423.06 162.209 424.591 161.006C426.122 159.803 435.508 98.6813 435.508 98.6813Z" fill="#F2575D"/>
<path d="M432.96 98.4823C432.96 98.4823 423.083 112.576 421.939 116.173C420.795 119.769 412.464 126.282 412.621 134.813C412.71 139.688 413.231 143.795 413.661 146.42C414.018 148.603 413.984 150.833 413.534 152.999L409.678 171.592C409.678 171.592 412.129 175.843 418.179 176.497C424.227 177.15 439.646 180.79 449.894 176.497L457.251 172.9V144.128L462.318 132.357L476.742 108.979C476.742 108.979 469.377 103.88 462.504 101.675C455.284 99.3578 443.598 99.1521 432.96 98.4823Z" fill="#F2575D"/>
<path d="M410.447 167.881C410.432 167.878 410.463 167.654 410.535 167.231C410.621 166.765 410.734 166.151 410.874 165.383C411.199 163.733 411.652 161.43 412.206 158.605C412.452 157.166 412.918 155.635 413.152 153.945C413.218 153.523 413.285 153.096 413.351 152.66C413.389 152.222 413.428 151.777 413.466 151.326C413.571 150.424 413.534 149.489 413.537 148.536C413.471 146.624 413.105 144.648 412.537 142.637C412.002 140.631 411.301 138.488 411.433 136.202C411.532 133.931 412.233 131.804 413.054 129.868C413.884 127.925 414.882 126.146 415.895 124.5C417.939 121.215 420.003 118.419 421.702 116.05C423.386 113.717 424.758 111.814 425.741 110.451C426.197 109.819 426.562 109.313 426.839 108.93C427.093 108.584 427.233 108.406 427.246 108.415C427.26 108.424 427.146 108.619 426.915 108.981C426.655 109.378 426.313 109.9 425.887 110.553C424.981 111.909 423.64 113.852 421.964 116.238C420.3 118.628 418.264 121.444 416.254 124.72C415.256 126.36 414.278 128.126 413.464 130.044C412.658 131.959 411.984 134.033 411.889 136.218C411.759 138.413 412.434 140.497 412.969 142.52C413.535 144.544 413.903 146.575 413.957 148.521C413.95 149.491 413.979 150.443 413.867 151.357C413.824 151.814 413.781 152.265 413.739 152.709C413.667 153.148 413.596 153.58 413.526 154.006C413.274 155.712 412.786 157.245 412.521 158.677C411.908 161.488 411.407 163.779 411.048 165.421C410.873 166.18 410.732 166.788 410.626 167.25C410.523 167.667 410.463 167.885 410.447 167.881Z" fill="#17282F"/>
<path d="M471.914 105.993C471.914 105.993 489.904 112.429 483.076 134.86C477.638 152.721 466.463 174.035 459.395 174.458C455.724 174.677 451.724 174.54 449.227 172.573C439.116 164.605 432.96 143.241 432.96 143.241L442.632 132.433L454.356 149.807C455.676 149.242 463.477 125.188 463.477 125.188C463.477 125.188 469.088 106.747 471.914 105.993Z" fill="#F2575D"/>
<path d="M463.367 127.196C463.377 127.2 463.334 127.346 463.24 127.627C463.132 127.938 462.99 128.347 462.81 128.86C462.407 129.972 461.837 131.538 461.122 133.511C459.625 137.543 457.514 143.231 454.992 150.028L454.849 150.416L454.615 150.072C451.152 144.957 447.14 139.03 442.865 132.715L443.242 132.749C442.866 133.134 442.461 133.549 442.054 133.966C438.938 137.147 435.925 140.227 433.128 143.083L433.184 142.846C434.665 147.567 436.145 151.93 437.86 155.686C439.53 159.46 441.359 162.633 443.066 165.138C444.75 167.665 446.38 169.46 447.465 170.713C448.022 171.288 448.462 171.742 448.789 172.08C449.087 172.394 449.238 172.562 449.228 172.573C449.219 172.583 449.049 172.435 448.732 172.139C448.392 171.815 447.932 171.376 447.349 170.822C446.223 169.601 444.549 167.825 442.82 165.306C441.069 162.811 439.198 159.634 437.491 155.852C435.742 152.089 434.23 147.706 432.737 142.991L432.693 142.855L432.791 142.754C435.584 139.893 438.593 136.81 441.704 133.624C442.111 133.207 442.517 132.793 442.893 132.407L443.103 132.192L443.271 132.441C447.527 138.769 451.522 144.708 454.97 149.832L454.591 149.876C457.182 143.106 459.35 137.439 460.887 133.422C461.649 131.466 462.256 129.915 462.687 128.813C462.89 128.309 463.053 127.908 463.177 127.603C463.291 127.33 463.356 127.192 463.367 127.196Z" fill="#17282F"/>
<path d="M419.608 362.762L420.807 381.038C420.807 381.038 402.632 388.394 402.525 391.794L438.046 390.743L437.347 362.19L419.608 362.762Z" fill="#F2575D"/>
<path d="M431.744 379.176C432.438 379.343 432.935 380.102 432.796 380.801C432.658 381.501 431.89 382.014 431.194 381.858C430.499 381.702 429.873 380.809 430.089 380.131C430.306 379.451 431.24 378.898 431.879 379.216" fill="#DADBD8"/>
<path d="M438.105 392L438.029 388.723L403.875 389.951C403.875 389.951 402.313 390.685 402.526 391.794L438.105 392Z" fill="#17282F"/>
<path d="M420.226 380.876C420.237 381.049 421.107 381.103 421.977 381.635C422.861 382.145 423.323 382.883 423.48 382.809C423.639 382.771 423.35 381.741 422.285 381.115C421.226 380.48 420.184 380.719 420.226 380.876Z" fill="#17282F"/>
<path d="M416.545 382.526C416.51 382.695 417.271 382.968 417.882 383.685C418.514 384.383 418.686 385.172 418.858 385.159C419.022 385.182 419.112 384.162 418.335 383.286C417.567 382.404 416.545 382.362 416.545 382.526Z" fill="#17282F"/>
<path d="M414.561 387.048C414.72 387.08 414.937 386.207 414.463 385.27C413.996 384.33 413.167 383.979 413.098 384.126C413.004 384.271 413.546 384.766 413.923 385.541C414.317 386.306 414.389 387.036 414.561 387.048Z" fill="#17282F"/>
<path d="M420.415 376.68C420.492 376.837 421.281 376.573 422.263 376.611C423.246 376.628 424.019 376.935 424.105 376.783C424.202 376.655 423.438 376.034 422.28 376.007C421.123 375.971 420.326 376.547 420.415 376.68Z" fill="#17282F"/>
<path d="M452.336 363.115L453.377 381.401C453.377 381.401 435.14 388.602 435.005 392L470.533 391.253L470.078 362.694L452.336 363.115Z" fill="#F2575D"/>
<path d="M464.331 379.631C465.022 379.805 465.513 380.568 465.368 381.266C465.224 381.965 464.452 382.471 463.757 382.31C463.063 382.148 462.445 381.25 462.667 380.572C462.889 379.896 463.828 379.351 464.463 379.673" fill="#DADBD8"/>
<path d="M470.574 392L470.532 389.234L436.369 390.169C436.369 390.169 434.802 390.89 435.004 392H470.574Z" fill="#17282F"/>
<path d="M452.797 381.234C452.806 381.408 453.676 381.467 454.541 382.008C455.421 382.525 455.877 383.267 456.035 383.195C456.194 383.158 455.914 382.127 454.854 381.491C453.801 380.846 452.756 381.075 452.797 381.234Z" fill="#17282F"/>
<path d="M449.104 382.853C449.067 383.022 449.824 383.302 450.43 384.022C451.056 384.726 451.221 385.517 451.393 385.505C451.557 385.53 451.655 384.511 450.887 383.627C450.127 382.739 449.104 382.687 449.104 382.853Z" fill="#17282F"/>
<path d="M447.08 387.358C447.239 387.391 447.462 386.52 446.996 385.578C446.537 384.635 445.711 384.277 445.641 384.423C445.547 384.568 446.084 385.067 446.453 385.845C446.842 386.615 446.908 387.345 447.08 387.358Z" fill="#17282F"/>
<path d="M453.022 377.041C453.098 377.198 453.888 376.941 454.871 376.987C455.853 377.013 456.624 377.326 456.711 377.175C456.809 377.047 456.05 376.421 454.893 376.383C453.736 376.337 452.934 376.906 453.022 377.041Z" fill="#17282F"/>
<path d="M457.756 172.276C457.756 172.276 466.806 181.775 471.556 193.465C476.305 205.155 474.219 261.435 474.219 261.435L473.224 290.942C473.224 290.942 474.657 316.309 473.56 334.385C472.465 352.46 471.235 372.5 471.235 372.5L451.507 373.446L430.574 220.108L435.81 290.824C439.143 308.862 438.75 340.675 438.105 373.423L417.207 373.446C417.207 373.446 410.01 324.5 408.369 312.874C406.515 299.734 401.048 263.594 401.048 263.594C401.048 263.594 396.837 229.011 398.298 210.38C399.759 191.749 410.863 165.701 411.228 164.604L455.847 172.641L457.756 172.276Z" fill="#17282F"/>
<path d="M460.033 167.323L465.269 181.247C465.269 181.247 504.169 235.518 503.038 240.041C501.907 244.563 480.707 262.089 474.489 259.263C468.271 256.436 452.159 244.847 446.788 233.257C441.417 221.667 426.152 189.161 426.152 189.161L421.348 180.116L426.718 176.44L460.033 167.323Z" fill="#33535F"/>
<path d="M410.875 165.384C415.588 167.913 415.088 175.82 419.8 178.35C411.935 189.363 409.246 203.231 408.173 216.723C407.102 230.212 407.435 243.878 404.729 257.138C398.998 256.735 400.696 256.854 394.965 256.451C393.301 230.426 396.141 204.12 403.29 179.041C404.738 173.965 407.312 169.279 410.875 165.384Z" fill="#33535F"/>
<path d="M448.929 188.22C448.945 188.279 449.892 188.089 451.389 187.653C452.886 187.219 454.929 186.519 457.116 185.579C459.304 184.638 461.217 183.637 462.563 182.85C463.909 182.063 464.698 181.506 464.666 181.454C464.629 181.392 463.78 181.844 462.398 182.55C461.017 183.256 459.096 184.201 456.926 185.136C454.754 186.068 452.747 186.813 451.284 187.328C449.821 187.844 448.91 188.151 448.929 188.22Z" fill="#17282F"/>
<path d="M446.275 232.152C444.873 230.854 443.9 229.22 443.976 227.345C444 227.354 444.026 227.363 444.05 227.371C444.878 229.147 445.631 230.763 446.275 232.152Z" fill="#111D23"/>
<path d="M458.775 236.308C455.593 236.308 452.42 235.656 449.532 234.301C448.378 233.761 447.228 233.034 446.275 232.152C445.631 230.763 444.877 229.147 444.05 227.371C450.155 229.527 456.63 230.619 463.105 230.619C466.813 230.619 470.519 230.261 474.157 229.54L475.098 229.607C470.886 233.958 464.815 236.308 458.775 236.308Z" fill="#263F48"/>
<path d="M425.576 180.152C429.211 179.485 436.193 181.387 438.748 184.059C441.303 186.731 442.838 190.205 444.097 193.681C446.826 201.215 448.766 209.557 454.688 214.954C460.259 220.032 468.175 221.393 475.626 222.539C475.829 225.291 475.796 228.568 473.532 230.146C472.863 230.612 472.069 230.862 471.284 231.079C469.07 231.689 466.8 232.092 464.512 232.28C453.906 233.15 442.672 228.881 436.446 220.249C428.571 209.332 427.95 196.215 423.496 183.513" fill="#33535F"/>
<path d="M423.495 183.513C423.487 183.516 423.524 183.652 423.602 183.914C423.69 184.197 423.81 184.582 423.963 185.075C424.292 186.092 424.735 187.604 425.261 189.563C425.797 191.52 426.381 193.933 427.061 196.735C427.747 199.536 428.51 202.735 429.581 206.211C430.657 209.68 432.05 213.451 434.222 217.158C435.283 219.018 436.545 220.861 438.071 222.573C439.598 224.279 441.386 225.846 443.399 227.187C447.429 229.86 452.299 231.687 457.517 232.345C460.125 232.682 462.818 232.696 465.519 232.425C466.868 232.278 468.219 232.056 469.563 231.757C470.236 231.607 470.904 231.437 471.572 231.249C472.24 231.058 472.923 230.827 473.542 230.429C474.176 230.009 474.707 229.436 475.063 228.777C475.422 228.119 475.634 227.406 475.762 226.697C476.012 225.273 475.959 223.863 475.865 222.521L475.85 222.33L475.662 222.301C470.679 221.536 465.807 220.709 461.465 218.89C459.306 217.981 457.282 216.847 455.564 215.404C453.836 213.975 452.403 212.286 451.233 210.496C448.892 206.897 447.526 203.01 446.272 199.424C445.024 195.826 443.964 192.427 442.554 189.501C441.855 188.039 441.06 186.706 440.185 185.535C439.741 184.954 439.28 184.415 438.799 183.922C438.298 183.435 437.761 183.028 437.208 182.698C434.988 181.379 432.835 180.775 431.09 180.394C429.334 180.017 427.934 179.946 426.994 179.977C426.053 180.015 425.575 180.152 425.575 180.152C425.58 180.184 426.062 180.076 426.996 180.068C427.93 180.068 429.315 180.166 431.052 180.566C432.777 180.97 434.91 181.6 437.073 182.914C437.612 183.243 438.128 183.645 438.603 184.112C439.069 184.599 439.52 185.135 439.95 185.71C440.805 186.868 441.579 188.189 442.261 189.641C443.637 192.545 444.677 195.939 445.909 199.548C447.151 203.146 448.506 207.063 450.872 210.73C452.056 212.553 453.514 214.283 455.278 215.749C457.031 217.23 459.094 218.391 461.286 219.317C465.693 221.172 470.602 222.006 475.588 222.777L475.385 222.557C475.479 223.883 475.526 225.26 475.287 226.611C475.062 227.95 474.444 229.285 473.279 230.024C472.164 230.709 470.764 230.956 469.458 231.285C468.132 231.581 466.799 231.801 465.467 231.947C462.803 232.215 460.149 232.204 457.576 231.875C452.43 231.233 447.621 229.439 443.646 226.816C441.659 225.5 439.896 223.962 438.386 222.288C436.883 220.612 435.627 218.796 434.568 216.956C432.403 213.295 431 209.558 429.908 206.109C428.82 202.653 428.034 199.465 427.324 196.67C426.619 193.874 426.007 191.465 425.443 189.513C424.888 187.559 424.414 186.052 424.056 185.045C423.882 184.557 423.747 184.177 423.649 183.898C423.555 183.641 423.504 183.51 423.495 183.513Z" fill="#17282F"/>
<path d="M467.322 231.771C467.472 231.727 466.305 229.423 466.648 226.398C466.934 223.366 468.549 221.35 468.411 221.277C468.371 221.242 467.909 221.682 467.386 222.563C466.863 223.439 466.331 224.785 466.167 226.349C466.008 227.912 466.251 229.338 466.583 230.302C466.914 231.272 467.275 231.796 467.322 231.771Z" fill="#17282F"/>
<path d="M467.056 225C467.046 225.133 468.908 225.367 471.212 225.521C473.517 225.676 475.392 225.692 475.401 225.56C475.41 225.427 473.549 225.193 471.244 225.039C468.94 224.884 467.065 224.868 467.056 225Z" fill="#17282F"/>
<path d="M466.272 228.033C466.27 228.165 468.206 228.314 470.595 228.364C472.985 228.414 474.925 228.347 474.928 228.213C474.93 228.08 472.994 227.931 470.605 227.882C468.215 227.831 466.275 227.898 466.272 228.033Z" fill="#17282F"/>
<path d="M416.637 182.512C410.123 188.392 407.689 197.713 407.928 206.484C408.167 215.255 410.715 223.772 412.674 232.325C414.634 240.877 416.008 249.854 413.902 258.372C416.686 258.771 419.47 259.169 422.254 259.568C429.071 252.35 432.542 242.093 431.507 232.218C430.651 224.041 426.937 216.486 424.274 208.706C421.61 200.926 420.032 192.151 423.389 184.645L416.637 182.512Z" fill="#33535F"/>
<path d="M423.389 184.644C423.382 184.64 423.323 184.764 423.216 185.009C423.104 185.275 422.951 185.639 422.754 186.105C422.415 187.091 421.923 188.565 421.638 190.54C421.346 192.511 421.271 194.967 421.561 197.789C421.852 200.611 422.537 203.784 423.602 207.195C424.674 210.606 426.128 214.243 427.585 218.179C429.022 222.115 430.501 226.386 431.141 231.063C431.787 235.726 431.447 240.777 429.948 245.699C428.461 250.615 425.829 255.411 422.078 259.402L422.289 259.329C420.988 259.142 419.591 258.942 418.185 258.74C416.73 258.532 415.284 258.325 413.938 258.132L414.138 258.429C415.459 253.026 415.389 247.544 414.754 242.411C414.124 237.259 412.944 232.403 411.827 227.807C410.7 223.212 409.631 218.853 408.954 214.722C408.268 210.593 407.972 206.695 408.135 203.155C408.463 196.046 410.648 190.551 412.775 187.251C413.811 185.566 414.854 184.431 415.535 183.65C415.888 183.292 416.163 183.014 416.365 182.81C416.55 182.618 416.643 182.517 416.637 182.512C416.632 182.505 416.529 182.594 416.333 182.775C416.122 182.971 415.835 183.24 415.467 183.584C414.76 184.347 413.689 185.471 412.621 187.151C410.431 190.446 408.175 195.974 407.803 203.138C407.616 206.707 407.895 210.634 408.566 214.785C409.229 218.939 410.287 223.313 411.402 227.911C412.506 232.508 413.671 237.35 414.289 242.467C414.912 247.568 414.973 252.991 413.669 258.314L413.605 258.572L413.869 258.61C415.215 258.803 416.662 259.011 418.116 259.219C419.521 259.421 420.92 259.62 422.22 259.807L422.344 259.824L422.429 259.734C426.235 255.682 428.898 250.817 430.398 245.836C431.908 240.847 432.242 235.725 431.576 231.004C430.914 226.272 429.409 221.981 427.953 218.043C426.476 214.105 425.007 210.482 423.92 207.094C422.841 203.707 422.136 200.56 421.823 197.761C421.51 194.963 421.558 192.525 421.82 190.565C422.074 188.601 422.535 187.129 422.844 186.136C423.021 185.664 423.158 185.298 423.26 185.027C423.353 184.777 423.389 184.644 423.389 184.644Z" fill="#17282F"/>
<path d="M415.267 251.65C415.288 251.802 417.903 251.308 421.098 251.752C424.298 252.164 426.691 253.33 426.752 253.188C426.777 253.136 426.216 252.775 425.223 252.357C424.232 251.939 422.797 251.494 421.163 251.273C419.528 251.055 418.027 251.107 416.961 251.25C415.893 251.392 415.255 251.592 415.267 251.65Z" fill="#17282F"/>
<path d="M420.127 259.349C420.245 259.409 421.123 257.929 422.086 256.042C423.05 254.154 423.735 252.576 423.615 252.515C423.497 252.455 422.619 253.934 421.656 255.823C420.693 257.709 420.007 259.288 420.127 259.349Z" fill="#17282F"/>
<path d="M415.764 258.728C415.886 258.782 416.694 257.19 417.565 255.174C418.438 253.157 419.046 251.48 418.924 251.427C418.801 251.373 417.994 252.965 417.122 254.982C416.249 256.998 415.642 258.676 415.764 258.728Z" fill="#17282F"/>
<path d="M427.748 179.783C427.806 179.802 427.943 179.602 428.011 179.224C428.082 178.85 428.051 178.3 427.818 177.758C427.583 177.217 427.202 176.817 426.882 176.612C426.561 176.403 426.322 176.365 426.295 176.419C426.23 176.542 426.981 177.003 427.373 177.949C427.793 178.883 427.615 179.746 427.748 179.783Z" fill="#17282F"/>
<path d="M416.892 177.748C418.019 175.976 420.688 175.377 422.774 175.127C425.33 174.908 427.8 177.085 428.048 179.638C428.295 182.192 426.417 184.738 423.94 185.405C421.462 186.073 418.651 184.908 417.233 182.769C416.252 181.29 415.938 179.244 416.892 177.748Z" fill="#33535F"/>
<path d="M421.575 176.116C421.545 176.077 420.985 176.476 420.464 177.429C419.945 178.358 419.539 179.913 419.972 181.548C420.415 183.18 421.544 184.324 422.458 184.868C423.387 185.433 424.071 185.499 424.078 185.45C424.104 185.372 423.473 185.187 422.649 184.586C421.833 184 420.842 182.909 420.44 181.423C420.045 179.936 420.357 178.494 420.771 177.579C421.183 176.646 421.637 176.171 421.575 176.116Z" fill="#17282F"/>
<path d="M417.416 177.08C417.374 177.045 417.051 177.337 416.743 177.957C416.434 178.57 416.199 179.533 416.308 180.59C416.423 181.648 416.855 182.54 417.286 183.075C417.716 183.617 418.092 183.834 418.126 183.792C418.179 183.734 417.897 183.433 417.567 182.882C417.236 182.334 416.895 181.506 416.789 180.539C416.691 179.571 416.851 178.691 417.06 178.086C417.266 177.478 417.48 177.125 417.416 177.08Z" fill="#17282F"/>
<path d="M416.84 182.576L416.744 182.546C416.754 182.53 416.763 182.515 416.773 182.5C416.795 182.525 416.818 182.551 416.84 182.576Z" fill="#263F48"/>
<path d="M419.638 187.668C418.472 187.668 417.322 187.024 416.725 186.019C416.104 184.973 416.114 183.585 416.745 182.546L416.841 182.576C416.952 182.703 417.067 182.825 417.184 182.941C417.218 182.988 417.252 183.032 417.287 183.075C417.656 183.541 417.986 183.766 418.093 183.793C419.269 184.919 420.884 185.592 422.498 185.592C422.659 185.592 422.819 185.585 422.979 185.572C422.942 185.66 422.903 185.753 422.861 185.851C422.208 186.797 420.9 187.594 419.837 187.661C419.77 187.666 419.705 187.668 419.638 187.668Z" fill="#263F48"/>
<path d="M422.86 185.852C422.903 185.753 422.941 185.659 422.979 185.572C422.998 185.57 423.017 185.568 423.035 185.566C422.984 185.662 422.925 185.758 422.86 185.852Z" fill="#111D23"/>
<path d="M422.497 185.593C420.884 185.593 419.268 184.92 418.092 183.794C418.099 183.796 418.106 183.797 418.111 183.797C418.118 183.797 418.123 183.796 418.126 183.792C418.133 183.784 418.134 183.77 418.128 183.752C419.551 184.787 421.235 185.275 423.118 185.392C423.094 185.451 423.065 185.509 423.034 185.567C423.016 185.569 422.997 185.571 422.978 185.573C422.819 185.586 422.658 185.593 422.497 185.593Z" fill="#263F48"/>
<path d="M418.111 183.796C418.106 183.796 418.099 183.795 418.092 183.793C417.985 183.766 417.655 183.54 417.286 183.074C417.251 183.032 417.217 182.988 417.184 182.941C417.484 183.242 417.799 183.511 418.129 183.751C418.134 183.77 418.133 183.783 418.126 183.791C418.123 183.795 418.118 183.796 418.111 183.796Z" fill="#111D23"/>
<path d="M447.872 194.702C447.434 194.702 447.015 194.594 446.64 194.327C445.532 193.535 445.637 191.741 446.495 190.682C447.352 189.622 448.701 189.114 449.982 188.651C452.148 187.869 454.389 186.839 456.638 185.783C456.796 185.716 456.955 185.649 457.116 185.58C458.337 185.055 459.473 184.511 460.471 183.996C461.96 183.32 463.437 182.69 464.878 182.169C460.464 186.084 455.684 190.701 450.621 193.728C449.794 194.223 448.792 194.702 447.872 194.702Z" fill="#263F48"/>
<path d="M456.638 185.783C457.917 185.182 459.199 184.572 460.471 183.996C459.473 184.511 458.337 185.055 457.116 185.58C456.955 185.649 456.796 185.717 456.638 185.783Z" fill="#111D23"/>
<path d="M408.316 215.03C408.351 214.645 408.387 214.261 408.424 213.875C408.44 213.986 408.457 214.097 408.474 214.207L408.316 215.03Z" fill="#111D23"/>
<path d="M408.041 216.46C406.461 210.818 405.664 205.193 406.42 199.383C407.174 193.572 409.86 187.838 414.548 184.323C414.411 184.574 414.274 184.825 414.135 185.076C413.658 185.651 413.139 186.336 412.62 187.152C410.75 189.966 408.832 194.408 408.08 200.106C407.782 201.89 407.703 203.485 407.746 205.05C407.727 207.822 407.964 210.782 408.424 213.874C408.387 214.26 408.351 214.644 408.316 215.029L408.041 216.46Z" fill="#263F48"/>
<path d="M409.398 195.061C410.297 191.799 411.546 189.159 412.774 187.252C413.084 186.748 413.394 186.294 413.696 185.883C412.077 188.859 410.514 191.886 409.398 195.061Z" fill="#263F48"/>
<path d="M408.474 214.207C408.457 214.096 408.44 213.985 408.424 213.875C407.964 210.782 407.727 207.822 407.746 205.05C407.822 207.735 408.261 210.33 408.584 213.637L408.474 214.207ZM408.08 200.107C408.832 194.409 410.75 189.966 412.62 187.152C413.139 186.337 413.658 185.652 414.136 185.076C413.989 185.345 413.842 185.613 413.696 185.883C413.394 186.294 413.084 186.748 412.774 187.252C411.546 189.159 410.297 191.799 409.398 195.06C408.98 196.251 408.624 197.462 408.353 198.699C408.247 199.182 408.156 199.651 408.08 200.107Z" fill="#111D23"/>
<path d="M449.109 194.702C449.125 194.731 449.391 194.599 449.858 194.335C450.327 194.072 450.988 193.666 451.791 193.139C453.397 192.09 455.546 190.527 457.765 188.612C459.983 186.695 461.842 184.796 463.115 183.36C463.751 182.643 464.251 182.048 464.578 181.623C464.907 181.199 465.077 180.955 465.051 180.933C464.996 180.885 464.196 181.759 462.864 183.128C461.534 184.496 459.651 186.343 457.449 188.246C455.245 190.147 453.145 191.741 451.597 192.858C450.049 193.976 449.069 194.64 449.109 194.702Z" fill="#17282F"/>
<path d="M425.212 54.1476C423.808 51.6386 424.678 48.271 426.757 46.2843C428.835 44.2967 431.848 43.5358 434.723 43.6156C437.597 43.6955 440.39 44.5287 443.145 45.3553C445.197 42.6763 448.813 41.2936 452.13 41.9202C455.447 42.5458 458.309 45.1515 459.244 48.395C461.205 47.6173 463.582 48.0127 465.186 49.3842C466.788 50.7565 467.546 53.0429 467.082 55.101L454.908 61.2358L444.158 87.5477C440.535 91.5521 433.862 92.3224 429.424 89.2479C424.986 86.1744 423.36 79.6563 425.835 74.8581C424.959 74.272 424.205 73.5262 423.564 72.692C421.178 71.6137 419.175 69.7077 418.272 67.2391C416.361 62.0098 419.812 55.5021 425.212 54.1476Z" fill="#17282F"/>
<path d="M440.366 101.635C440.641 97.5434 440.756 97.2475 440.752 97.2767C440.752 97.2767 432.852 95.3247 432.006 84.7515C431.586 79.494 432.512 70.9995 433.492 64.0728C434.375 57.8384 439.125 50.4749 445.316 51.6219L464.425 58.0676C466.305 58.4161 466.842 60.0703 466.656 61.9734L466.744 62.8789L463.505 92.7152L462.504 101.676C461.91 107.346 456.817 113.116 451.115 113.031C444.807 112.937 439.945 107.931 440.366 101.635Z" fill="#A26257"/>
<path d="M440.753 97.2766C440.753 97.2766 447.742 98.277 455.029 94.6361C455.029 94.6361 450.927 101.732 440.551 99.9406L440.753 97.2766Z" fill="#603531"/>
<path d="M459.128 51.881C458.977 53.972 457.856 55.9738 456.152 57.1949C454.446 58.4151 452.191 58.8312 450.163 58.2996C448.589 57.8872 446.901 56.9479 445.455 57.6937C443.935 58.478 443.709 60.663 442.336 61.684C440.374 63.1438 437.56 61.4219 435.169 61.9386C433.323 62.3369 432.065 63.9769 430.756 65.338C429.447 66.6992 427.545 67.9428 425.782 67.2712C426.019 65.6565 426.261 64.0258 426.862 62.5088C427.464 60.9917 428.464 59.5761 429.894 58.7918C430.678 58.3616 431.569 58.1305 432.305 57.6232C433.894 56.527 434.401 54.4473 435.454 52.8279C436.812 50.7416 439.232 49.388 441.72 49.3223C443.79 49.2669 445.861 50.0446 447.902 49.6905C449.411 49.4303 450.777 48.5661 452.299 48.3952C455.262 48.0608 457.818 50.3621 459.778 52.61" fill="#17282F"/>
<path d="M449.465 55.3309C450.802 55.0548 453.546 54.4104 454.334 53.3273C456.047 50.9752 458.864 49.4948 461.6 49.8536C464.336 50.2115 466.81 52.5805 467.152 55.5254C470.476 55.8015 473.562 58.1349 474.919 61.3991C476.276 64.6614 475.851 68.7222 473.847 71.6172C473.324 72.3753 472.59 74.0605 472.59 74.0605C472.59 74.0605 474.001 75.4178 474.6 76.3881C477.374 80.8829 471.759 83.4708 471.759 83.4708C472.159 86.6824 469.199 87.0506 467.301 87.2873C465.474 87.5156 465.008 92.7205 463.506 92.7148L462.978 76.8926C462.806 76.9884 462.587 77.0654 462.303 77.1067C458.734 77.6356 458.789 70.7474 459.72 68.8462C458.537 67.6231 457.339 66.3823 456.479 64.8775C455.619 63.3717 455.061 59.403 455.401 57.6605C454.13 57.6389 448.877 55.4512 449.465 55.3309Z" fill="#17282F"/>
<path d="M462.551 77.7905C462.83 75.5765 465.362 74.2765 467.204 75.5361C468.216 76.2275 468.932 77.5172 468.656 79.8693C467.921 86.1413 461.776 84.1095 461.786 83.9291C461.792 83.8164 462.223 80.3831 462.551 77.7905Z" fill="#A26257"/>
<path d="M463.98 81.7756C464.01 81.7596 464.081 81.8658 464.255 81.9719C464.425 82.0753 464.728 82.1683 465.07 82.0847C465.761 81.9193 466.442 80.933 466.605 79.8058C466.687 79.2366 466.633 78.6786 466.483 78.2052C466.345 77.7243 466.086 77.3682 465.759 77.2705C465.436 77.155 465.177 77.3269 465.079 77.4941C464.974 77.6594 464.999 77.7891 464.964 77.7966C464.946 77.8097 464.842 77.6754 464.923 77.4227C464.964 77.3006 465.056 77.1616 465.216 77.0582C465.382 76.954 465.61 76.9174 465.839 76.97C466.319 77.0592 466.702 77.5552 466.868 78.0756C467.058 78.6016 467.134 79.2291 467.04 79.8688C466.853 81.1275 466.066 82.234 465.129 82.3899C464.675 82.4538 464.322 82.2772 464.149 82.1072C463.974 81.9297 463.957 81.785 463.98 81.7756Z" fill="#603531"/>
<path d="M428.865 73.5313C428.897 73.4806 428.261 73.1791 427.363 72.3308C426.482 71.4901 425.35 70.0088 424.854 67.8586C424.609 66.7953 424.506 65.576 424.738 64.3154C424.971 63.0624 425.509 61.7614 426.46 60.683C428.308 58.5075 431.661 57.1755 434.915 57.8687C435.212 57.9232 435.493 58.0312 435.776 58.1073C436.051 58.2088 436.314 58.329 436.573 58.4333L436.975 58.5949L436.926 58.1787C436.84 57.4451 437.023 56.7011 437.431 56.0962C437.836 55.4884 438.396 54.9934 439.012 54.6243C440.262 53.869 441.686 53.6746 443.025 53.8023C445.706 54.056 448.07 54.9596 450.189 54.9286C452.288 54.9248 453.938 54.1893 454.772 53.3721C455.206 52.9776 455.425 52.5708 455.572 52.3088C455.69 52.0279 455.744 51.8795 455.729 51.8739C455.675 51.84 455.5 52.4929 454.649 53.235C453.814 53.9733 452.218 54.6289 450.189 54.5904C449.183 54.5735 448.081 54.3575 446.903 54.087C445.723 53.8221 444.455 53.4848 443.062 53.358C442.368 53.3017 441.642 53.2876 440.901 53.4219C440.167 53.5562 439.442 53.8211 438.769 54.2128C438.1 54.6092 437.482 55.1437 437.023 55.8294C436.559 56.5076 436.332 57.3878 436.436 58.2435L436.788 57.989C436.513 57.8762 436.232 57.7476 435.939 57.6395C435.637 57.5569 435.336 57.4432 435.021 57.385C431.56 56.6523 428.054 58.0688 426.113 60.3862C425.117 61.5359 424.558 62.9271 424.333 64.2459C424.107 65.5742 424.238 66.8432 424.513 67.9413C425.074 70.1619 426.29 71.6564 427.232 72.4736C427.709 72.886 428.116 73.164 428.411 73.3134C428.702 73.4712 428.858 73.5463 428.865 73.5313Z" fill="#33535F"/>
<path d="M427.333 52.0411C427.377 52.1049 427.916 51.4793 429.201 51.1158C429.835 50.9486 430.652 50.8453 431.551 51.0247C432.445 51.1797 433.426 51.6315 434.168 52.4534L434.442 52.7568L434.536 52.3604C435.035 50.2263 437.013 48.001 439.737 47.3387C441.782 46.8315 443.79 47.5209 445.477 48.2208C447.179 48.9412 448.741 49.6598 450.158 49.921C451.564 50.2187 452.762 50.1164 453.529 49.8806C453.913 49.7603 454.197 49.6298 454.378 49.5246C454.559 49.4156 454.649 49.3527 454.64 49.3376C454.619 49.2963 454.236 49.518 453.481 49.6937C452.726 49.8637 451.585 49.9097 450.233 49.5791C448.87 49.2832 447.372 48.5542 445.655 47.7999C444.792 47.4345 443.865 47.0654 442.843 46.8521C441.829 46.6286 440.709 46.5976 439.622 46.8568C436.698 47.5698 434.616 49.9604 434.119 52.2599L434.486 52.1679C433.647 51.2717 432.568 50.8162 431.611 50.68C430.645 50.5193 429.785 50.6649 429.129 50.8763C428.469 51.0961 428.008 51.4014 427.723 51.6324C427.445 51.8757 427.319 52.027 427.333 52.0411Z" fill="#33535F"/>
<path d="M471.87 64.8411C471.878 64.8496 471.973 64.7791 472.148 64.6344C472.317 64.4841 472.567 64.2606 472.853 63.9365C473.414 63.2949 474.195 62.2495 474.548 60.7165C474.715 59.9556 474.752 59.0745 474.542 58.1727C474.335 57.2766 473.889 56.3476 473.136 55.6121C472.397 54.8709 471.302 54.3844 470.153 54.4069C469.017 54.406 467.787 54.8756 467.04 55.8807L467.331 56.0329L467.353 55.9653C468.128 53.7203 468.125 51.2676 467.175 49.389C466.254 47.5065 464.519 46.3314 462.943 46.1585C461.352 45.9782 460.111 46.5935 459.456 47.1458C459.115 47.422 458.914 47.701 458.778 47.8841C458.659 48.0805 458.603 48.1847 458.612 48.1913C458.645 48.2167 458.859 47.7667 459.537 47.2473C460.193 46.7409 461.404 46.1895 462.913 46.3906C464.4 46.5831 466.036 47.7188 466.901 49.5242C467.791 51.3184 467.792 53.6761 467.039 55.8591L467.018 55.9249L466.699 56.899L467.308 56.0771C467.975 55.1762 469.1 54.7338 470.156 54.7319C471.225 54.7084 472.225 55.1452 472.924 55.8309C473.633 56.511 474.067 57.3856 474.276 58.2366C474.486 59.0933 474.467 59.9312 474.318 60.6676C474.008 62.1508 473.278 63.1963 472.754 63.8529C472.216 64.5133 471.849 64.8186 471.87 64.8411Z" fill="#17282F"/>
<path d="M381.844 122.51L387.934 145.512C388.271 146.787 389.436 147.666 390.755 147.64L422.285 147.021C424.079 146.985 425.398 145.326 425.027 143.571L420.384 121.541C420.105 120.218 418.937 119.27 417.585 119.27H384.338C382.645 119.27 381.411 120.874 381.844 122.51Z" fill="#17282F"/>
<path d="M379.193 127.705C378.5 126.942 378.56 125.676 379.178 124.851C379.796 124.025 380.853 123.611 381.884 123.572C382.916 123.534 383.93 123.829 384.894 124.197C386.083 124.652 387.228 125.223 388.306 125.9C389.069 126.378 389.857 127.001 390.008 127.888C390.156 128.775 389.191 129.787 388.41 129.343C389.425 129.77 390.45 130.845 390.613 131.967C390.776 133.09 390.177 133.693 389.089 134.016C389.917 134.338 390.444 135.377 390.066 136.179C389.669 137.023 388.505 137.255 387.633 136.921C386.761 136.589 386.119 135.851 385.512 135.142C386.133 136.207 386.352 137.498 386.117 138.707C383.717 137.887 381.876 135.625 381.558 133.11C380.381 132.225 379.988 130.446 380.683 129.146C379.714 128.844 378.618 127.368 378.694 126.357" fill="#A26257"/>
<path d="M389.068 134.027C389.04 134.057 388.663 133.728 388.03 133.234C387.396 132.753 386.476 132.088 385.294 131.834C384.708 131.71 384.128 131.71 383.629 131.836C383.129 131.96 382.716 132.195 382.415 132.443C381.805 132.95 381.669 133.464 381.623 133.439C381.61 133.437 381.625 133.307 381.715 133.094C381.806 132.881 381.986 132.589 382.292 132.303C382.597 132.019 383.031 131.749 383.568 131.601C384.104 131.452 384.728 131.444 385.349 131.577C386.602 131.847 387.538 132.568 388.147 133.089C388.758 133.627 389.09 134.004 389.068 134.027Z" fill="#603531"/>
<path d="M388.803 129.451C388.789 129.487 388.298 129.296 387.542 128.926C387.163 128.744 386.716 128.526 386.201 128.339C385.688 128.16 385.093 128.002 384.475 127.892C383.854 127.785 383.249 127.772 382.722 127.875C382.193 127.977 381.748 128.196 381.423 128.439C380.758 128.933 380.619 129.477 380.574 129.451C380.561 129.447 380.576 129.314 380.675 129.092C380.774 128.874 380.972 128.572 381.307 128.293C381.639 128.014 382.107 127.76 382.672 127.637C383.236 127.513 383.874 127.522 384.518 127.632C385.162 127.748 385.752 127.911 386.286 128.112C386.813 128.317 387.258 128.558 387.627 128.76C388.362 129.173 388.817 129.419 388.803 129.451Z" fill="#603531"/>
<path d="M402.579 130.393L402.755 130.366C403.547 130.289 404.338 130.924 404.437 131.713C404.535 132.502 403.925 133.312 403.138 133.434C402.353 133.556 401.526 132.967 401.382 132.186C401.238 131.403 401.802 130.56 402.579 130.393Z" fill="white"/>
<path d="M433.216 122.486C433.216 122.486 429.872 115.961 428.882 116.343C427.894 116.725 426.599 116.748 427.232 119.216C427.865 121.683 429.506 123.382 429.411 125.318C429.315 127.254 427.797 131.599 429.481 133.622C431.166 135.647 434.014 141.736 434.014 141.736L441.423 134.189L439.766 131.758C439.766 131.758 442.544 127.905 443.085 125.668C443.628 123.43 442.813 120.264 442.813 120.264C442.813 120.264 443.013 118.399 442.005 116.969C442.005 116.969 442.185 115.489 442.152 113.978C442.119 112.467 438.222 106.238 438.222 106.238C438.222 106.238 436.243 107.002 436.896 109.083C437.547 111.164 438.43 112.932 438.43 112.932L433.88 111.198C433.88 111.198 432.693 113.404 435.108 114.71C437.524 116.014 437.902 117.111 437.902 117.111L434.438 117.372C434.438 117.372 434.117 119.296 435.504 119.688C436.893 120.08 436.893 120.08 436.893 120.08L433.216 122.486Z" fill="#A26257"/>
<path d="M435.236 119.583C435.874 119.72 436.773 119.914 438.356 120.255L438.405 120.265L438.426 120.311C438.776 121.05 439.115 122.001 439.037 123.085C438.962 124.167 438.439 125.279 437.597 126.167C436.649 127.117 435.481 127.628 434.502 128.153C433.511 128.664 432.664 129.217 432.125 129.855C431.58 130.486 431.333 131.138 431.257 131.595C431.175 132.055 431.229 132.32 431.2 132.322C431.191 132.324 431.176 132.259 431.154 132.134C431.139 132.009 431.123 131.821 431.151 131.58C431.197 131.101 431.426 130.405 431.976 129.73C432.521 129.045 433.39 128.458 434.383 127.929C435.365 127.391 436.506 126.876 437.402 125.975C438.194 125.139 438.704 124.074 438.782 123.065C438.867 122.048 438.562 121.129 438.24 120.398L438.31 120.456C436.397 119.995 435.213 119.652 435.236 119.583Z" fill="#603531"/>
<path d="M442.073 119.998C442.026 120.007 441.962 119.702 441.751 119.266C441.54 118.832 441.12 118.298 440.474 117.938C439.835 117.572 439.166 117.414 438.687 117.305C438.204 117.202 437.899 117.152 437.902 117.11C437.904 117.076 438.216 117.058 438.719 117.113C439.216 117.176 439.922 117.308 440.612 117.699C440.953 117.897 441.245 118.145 441.468 118.407C441.691 118.671 441.834 118.95 441.927 119.188C442.106 119.673 442.1 119.995 442.073 119.998Z" fill="#603531"/>
<path d="M441.675 116.152C441.603 116.193 441.084 115.32 440.198 114.457C439.32 113.588 438.438 113.084 438.478 113.012C438.503 112.948 439.477 113.358 440.39 114.262C441.31 115.159 441.738 116.126 441.675 116.152Z" fill="#603531"/>
<path d="M258.181 276.204C258.152 276.252 258.121 276.288 258.089 276.312C258.057 276.334 258.017 276.344 257.969 276.344C257.919 276.344 257.861 276.323 257.797 276.28C257.736 276.238 257.659 276.191 257.565 276.14C257.475 276.087 257.367 276.039 257.241 275.996C257.116 275.951 256.967 275.928 256.793 275.928C256.633 275.928 256.492 275.948 256.369 275.988C256.249 276.028 256.148 276.084 256.065 276.156C255.983 276.228 255.92 276.314 255.877 276.412C255.837 276.508 255.817 276.614 255.817 276.728C255.817 276.875 255.856 276.998 255.933 277.096C256.011 277.192 256.112 277.275 256.237 277.344C256.365 277.414 256.511 277.475 256.673 277.528C256.836 277.579 257.001 277.634 257.169 277.692C257.34 277.751 257.507 277.818 257.669 277.892C257.832 277.967 257.976 278.062 258.101 278.176C258.229 278.291 258.332 278.431 258.409 278.596C258.487 278.762 258.525 278.963 258.525 279.2C258.525 279.456 258.481 279.696 258.393 279.92C258.305 280.144 258.177 280.34 258.009 280.508C257.844 280.674 257.639 280.804 257.393 280.9C257.151 280.996 256.873 281.044 256.561 281.044C256.377 281.044 256.197 281.026 256.021 280.988C255.848 280.954 255.681 280.904 255.521 280.84C255.364 280.774 255.216 280.694 255.077 280.6C254.939 280.507 254.815 280.403 254.705 280.288L254.977 279.84C255.001 279.803 255.032 279.774 255.069 279.752C255.107 279.731 255.148 279.72 255.193 279.72C255.255 279.72 255.323 279.75 255.397 279.808C255.472 279.864 255.561 279.927 255.665 279.996C255.772 280.063 255.9 280.126 256.049 280.184C256.199 280.24 256.377 280.268 256.585 280.268C256.924 280.268 257.185 280.186 257.369 280.02C257.556 279.855 257.649 279.627 257.649 279.336C257.649 279.174 257.611 279.042 257.533 278.94C257.456 278.836 257.353 278.75 257.225 278.68C257.1 278.611 256.956 278.552 256.793 278.504C256.631 278.456 256.465 278.406 256.297 278.352C256.129 278.296 255.964 278.232 255.801 278.16C255.639 278.086 255.493 277.99 255.365 277.872C255.24 277.752 255.139 277.606 255.061 277.432C254.984 277.256 254.945 277.038 254.945 276.776C254.945 276.568 254.985 276.367 255.065 276.172C255.148 275.978 255.267 275.806 255.421 275.656C255.579 275.504 255.772 275.383 256.001 275.292C256.231 275.202 256.492 275.156 256.785 275.156C257.116 275.156 257.419 275.208 257.693 275.312C257.971 275.416 258.209 275.564 258.409 275.756L258.181 276.204ZM262.085 279.196C261.779 279.207 261.52 279.232 261.309 279.272C261.099 279.31 260.928 279.359 260.797 279.42C260.667 279.479 260.572 279.55 260.513 279.632C260.457 279.715 260.429 279.806 260.429 279.904C260.429 280 260.444 280.083 260.473 280.152C260.505 280.219 260.548 280.275 260.601 280.32C260.657 280.363 260.721 280.395 260.793 280.416C260.868 280.435 260.949 280.444 261.037 280.444C261.261 280.444 261.453 280.403 261.613 280.32C261.776 280.235 261.933 280.112 262.085 279.952V279.196ZM259.805 277.468C260.267 277.039 260.816 276.824 261.453 276.824C261.688 276.824 261.896 276.863 262.077 276.94C262.261 277.015 262.415 277.122 262.537 277.26C262.663 277.399 262.757 277.564 262.821 277.756C262.888 277.946 262.921 278.156 262.921 278.388V280.98H262.537C262.455 280.98 262.392 280.968 262.349 280.944C262.307 280.918 262.271 280.866 262.241 280.788L262.157 280.456C262.053 280.55 261.951 280.634 261.849 280.708C261.748 280.78 261.643 280.842 261.533 280.892C261.427 280.943 261.311 280.98 261.185 281.004C261.063 281.031 260.927 281.044 260.777 281.044C260.612 281.044 260.457 281.022 260.313 280.976C260.172 280.931 260.049 280.863 259.945 280.772C259.841 280.679 259.759 280.564 259.697 280.428C259.639 280.292 259.609 280.132 259.609 279.948C259.609 279.791 259.651 279.638 259.733 279.488C259.819 279.339 259.957 279.206 260.149 279.088C260.344 278.968 260.599 278.87 260.913 278.792C261.231 278.715 261.621 278.671 262.085 278.66V278.388C262.085 278.095 262.023 277.876 261.897 277.732C261.772 277.588 261.588 277.516 261.345 277.516C261.18 277.516 261.041 277.538 260.929 277.58C260.817 277.62 260.72 277.664 260.637 277.712C260.555 277.76 260.481 277.806 260.417 277.848C260.353 277.888 260.285 277.908 260.213 277.908C260.155 277.908 260.104 277.894 260.061 277.864C260.021 277.832 259.988 277.794 259.961 277.748L259.805 277.468ZM268.01 276.9L266.37 280.98H265.594L263.954 276.9H264.662C264.729 276.9 264.784 276.918 264.826 276.952C264.872 276.984 264.901 277.023 264.914 277.068L265.818 279.444C265.856 279.556 265.889 279.667 265.918 279.776C265.948 279.886 265.973 279.996 265.994 280.108C266.016 279.996 266.041 279.887 266.07 279.78C266.102 279.671 266.137 279.559 266.174 279.444L267.094 277.068C267.11 277.02 267.14 276.98 267.182 276.948C267.225 276.916 267.277 276.9 267.338 276.9H268.01ZM271.74 278.48C271.74 278.336 271.719 278.203 271.676 278.08C271.636 277.955 271.576 277.847 271.496 277.756C271.416 277.663 271.316 277.591 271.196 277.54C271.079 277.487 270.943 277.46 270.788 277.46C270.476 277.46 270.231 277.55 270.052 277.728C269.873 277.907 269.76 278.158 269.712 278.48H271.74ZM269.688 279.008C269.699 279.24 269.735 279.442 269.796 279.612C269.857 279.78 269.939 279.92 270.04 280.032C270.144 280.144 270.267 280.228 270.408 280.284C270.552 280.338 270.712 280.364 270.888 280.364C271.056 280.364 271.201 280.346 271.324 280.308C271.447 280.268 271.553 280.226 271.644 280.18C271.735 280.132 271.812 280.09 271.876 280.052C271.94 280.012 271.999 279.992 272.052 279.992C272.121 279.992 272.175 280.019 272.212 280.072L272.456 280.388C272.355 280.508 272.24 280.61 272.112 280.692C271.984 280.775 271.848 280.843 271.704 280.896C271.56 280.947 271.412 280.983 271.26 281.004C271.108 281.028 270.96 281.04 270.816 281.04C270.533 281.04 270.271 280.994 270.028 280.9C269.788 280.804 269.579 280.664 269.4 280.48C269.224 280.296 269.085 280.068 268.984 279.796C268.885 279.524 268.836 279.211 268.836 278.856C268.836 278.574 268.88 278.31 268.968 278.064C269.059 277.819 269.187 277.606 269.352 277.424C269.52 277.243 269.723 277.1 269.96 276.996C270.2 276.89 270.471 276.836 270.772 276.836C271.023 276.836 271.255 276.878 271.468 276.96C271.681 277.04 271.865 277.159 272.02 277.316C272.175 277.474 272.295 277.667 272.38 277.896C272.468 278.123 272.512 278.382 272.512 278.672C272.512 278.806 272.497 278.895 272.468 278.94C272.439 278.986 272.385 279.008 272.308 279.008H269.688Z" fill="white"/>
<path d="M320.492 278.287C320.543 278.287 320.587 278.307 320.624 278.347L320.996 278.751C320.761 279.034 320.473 279.253 320.132 279.407C319.791 279.559 319.383 279.635 318.908 279.635C318.487 279.635 318.105 279.563 317.764 279.419C317.425 279.273 317.136 279.07 316.896 278.811C316.656 278.55 316.471 278.239 316.34 277.879C316.212 277.519 316.148 277.123 316.148 276.691C316.148 276.259 316.216 275.863 316.352 275.503C316.491 275.141 316.684 274.83 316.932 274.571C317.183 274.31 317.481 274.107 317.828 273.963C318.177 273.819 318.561 273.747 318.98 273.747C319.396 273.747 319.763 273.815 320.08 273.951C320.4 274.085 320.677 274.263 320.912 274.487L320.604 274.923C320.583 274.953 320.557 274.978 320.528 274.999C320.499 275.021 320.459 275.031 320.408 275.031C320.355 275.031 320.293 275.007 320.224 274.959C320.157 274.909 320.071 274.854 319.964 274.795C319.86 274.734 319.728 274.679 319.568 274.631C319.411 274.581 319.213 274.555 318.976 274.555C318.701 274.555 318.449 274.603 318.22 274.699C317.991 274.795 317.793 274.935 317.628 275.119C317.463 275.303 317.333 275.527 317.24 275.791C317.149 276.055 317.104 276.355 317.104 276.691C317.104 277.03 317.152 277.333 317.248 277.599C317.344 277.863 317.476 278.087 317.644 278.271C317.812 278.453 318.009 278.591 318.236 278.687C318.463 278.783 318.707 278.831 318.968 278.831C319.128 278.831 319.271 278.823 319.396 278.807C319.524 278.789 319.641 278.761 319.748 278.723C319.855 278.683 319.955 278.634 320.048 278.575C320.144 278.517 320.239 278.445 320.332 278.359C320.385 278.311 320.439 278.287 320.492 278.287ZM324.408 277.787C324.101 277.798 323.843 277.823 323.632 277.863C323.421 277.901 323.251 277.95 323.12 278.011C322.989 278.07 322.895 278.141 322.836 278.223C322.78 278.306 322.752 278.397 322.752 278.495C322.752 278.591 322.767 278.674 322.796 278.743C322.828 278.81 322.871 278.866 322.924 278.911C322.98 278.954 323.044 278.986 323.116 279.007C323.191 279.026 323.272 279.035 323.36 279.035C323.584 279.035 323.776 278.994 323.936 278.911C324.099 278.826 324.256 278.703 324.408 278.543V277.787ZM322.128 276.059C322.589 275.63 323.139 275.415 323.776 275.415C324.011 275.415 324.219 275.454 324.4 275.531C324.584 275.606 324.737 275.713 324.86 275.851C324.985 275.99 325.08 276.155 325.144 276.347C325.211 276.537 325.244 276.747 325.244 276.979V279.571H324.86C324.777 279.571 324.715 279.559 324.672 279.535C324.629 279.509 324.593 279.457 324.564 279.379L324.48 279.047C324.376 279.141 324.273 279.225 324.172 279.299C324.071 279.371 323.965 279.433 323.856 279.483C323.749 279.534 323.633 279.571 323.508 279.595C323.385 279.622 323.249 279.635 323.1 279.635C322.935 279.635 322.78 279.613 322.636 279.567C322.495 279.522 322.372 279.454 322.268 279.363C322.164 279.27 322.081 279.155 322.02 279.019C321.961 278.883 321.932 278.723 321.932 278.539C321.932 278.382 321.973 278.229 322.056 278.079C322.141 277.93 322.28 277.797 322.472 277.679C322.667 277.559 322.921 277.461 323.236 277.383C323.553 277.306 323.944 277.262 324.408 277.251V276.979C324.408 276.686 324.345 276.467 324.22 276.323C324.095 276.179 323.911 276.107 323.668 276.107C323.503 276.107 323.364 276.129 323.252 276.171C323.14 276.211 323.043 276.255 322.96 276.303C322.877 276.351 322.804 276.397 322.74 276.439C322.676 276.479 322.608 276.499 322.536 276.499C322.477 276.499 322.427 276.485 322.384 276.455C322.344 276.423 322.311 276.385 322.284 276.339L322.128 276.059ZM327.639 276.031C327.727 275.941 327.817 275.859 327.911 275.787C328.007 275.713 328.108 275.649 328.215 275.595C328.321 275.542 328.435 275.501 328.555 275.471C328.675 275.442 328.805 275.427 328.947 275.427C329.171 275.427 329.367 275.465 329.535 275.539C329.705 275.614 329.848 275.719 329.963 275.855C330.08 275.991 330.168 276.155 330.227 276.347C330.285 276.537 330.315 276.746 330.315 276.975V279.571H329.459V276.975C329.459 276.701 329.395 276.487 329.267 276.335C329.141 276.183 328.949 276.107 328.691 276.107C328.499 276.107 328.32 276.151 328.155 276.239C327.992 276.327 327.839 276.447 327.695 276.599V279.571H326.835V275.491H327.355C327.472 275.491 327.547 275.546 327.579 275.655L327.639 276.031ZM334.786 276.291C334.76 276.326 334.734 276.353 334.71 276.371C334.686 276.39 334.652 276.399 334.606 276.399C334.561 276.399 334.513 276.383 334.462 276.351C334.414 276.319 334.356 276.285 334.286 276.247C334.22 276.207 334.138 276.171 334.042 276.139C333.946 276.107 333.826 276.091 333.682 276.091C333.496 276.091 333.332 276.125 333.19 276.191C333.052 276.258 332.934 276.354 332.838 276.479C332.745 276.602 332.674 276.753 332.626 276.931C332.581 277.107 332.558 277.306 332.558 277.527C332.558 277.757 332.584 277.961 332.634 278.139C332.685 278.318 332.757 278.469 332.85 278.591C332.946 278.714 333.061 278.807 333.194 278.871C333.33 278.935 333.482 278.967 333.65 278.967C333.816 278.967 333.95 278.947 334.054 278.907C334.158 278.867 334.245 278.823 334.314 278.775C334.384 278.727 334.442 278.683 334.49 278.643C334.541 278.603 334.594 278.583 334.65 278.583C334.72 278.583 334.773 278.61 334.81 278.663L335.054 278.979C334.956 279.099 334.846 279.201 334.726 279.283C334.606 279.366 334.48 279.434 334.346 279.487C334.213 279.538 334.074 279.574 333.93 279.595C333.786 279.619 333.641 279.631 333.494 279.631C333.241 279.631 333.004 279.585 332.782 279.491C332.564 279.395 332.372 279.258 332.206 279.079C332.044 278.898 331.914 278.678 331.818 278.419C331.725 278.158 331.678 277.861 331.678 277.527C331.678 277.226 331.721 276.947 331.806 276.691C331.892 276.433 332.016 276.21 332.178 276.023C332.344 275.837 332.548 275.691 332.79 275.587C333.033 275.481 333.313 275.427 333.63 275.427C333.926 275.427 334.186 275.475 334.41 275.571C334.637 275.667 334.838 275.803 335.014 275.979L334.786 276.291ZM338.935 277.071C338.935 276.927 338.914 276.794 338.871 276.671C338.831 276.546 338.771 276.438 338.691 276.347C338.611 276.254 338.511 276.182 338.391 276.131C338.274 276.078 338.138 276.051 337.983 276.051C337.671 276.051 337.426 276.141 337.247 276.319C337.069 276.498 336.955 276.749 336.907 277.071H338.935ZM336.883 277.599C336.894 277.831 336.93 278.033 336.991 278.203C337.053 278.371 337.134 278.511 337.235 278.623C337.339 278.735 337.462 278.819 337.603 278.875C337.747 278.929 337.907 278.955 338.083 278.955C338.251 278.955 338.397 278.937 338.519 278.899C338.642 278.859 338.749 278.817 338.839 278.771C338.93 278.723 339.007 278.681 339.071 278.643C339.135 278.603 339.194 278.583 339.247 278.583C339.317 278.583 339.37 278.61 339.407 278.663L339.651 278.979C339.55 279.099 339.435 279.201 339.307 279.283C339.179 279.366 339.043 279.434 338.899 279.487C338.755 279.538 338.607 279.574 338.455 279.595C338.303 279.619 338.155 279.631 338.011 279.631C337.729 279.631 337.466 279.585 337.223 279.491C336.983 279.395 336.774 279.255 336.595 279.071C336.419 278.887 336.281 278.659 336.179 278.387C336.081 278.115 336.031 277.802 336.031 277.447C336.031 277.165 336.075 276.901 336.163 276.655C336.254 276.41 336.382 276.197 336.547 276.015C336.715 275.834 336.918 275.691 337.155 275.587C337.395 275.481 337.666 275.427 337.967 275.427C338.218 275.427 338.45 275.469 338.663 275.551C338.877 275.631 339.061 275.75 339.215 275.907C339.37 276.065 339.49 276.258 339.575 276.487C339.663 276.714 339.707 276.973 339.707 277.263C339.707 277.397 339.693 277.486 339.663 277.531C339.634 277.577 339.581 277.599 339.503 277.599H336.883ZM341.969 273.651V279.571H341.109V273.651H341.969Z" fill="#040404"/>
<path d="M52.2913 21.627C52.2583 21.681 52.2238 21.7215 52.1878 21.7485C52.1518 21.7725 52.1068 21.7845 52.0528 21.7845C51.9958 21.7845 51.9313 21.7605 51.8593 21.7125C51.7903 21.6645 51.7033 21.612 51.5983 21.555C51.4963 21.495 51.3748 21.441 51.2338 21.393C51.0928 21.342 50.9248 21.3165 50.7298 21.3165C50.5498 21.3165 50.3908 21.339 50.2528 21.384C50.1178 21.429 50.0038 21.492 49.9108 21.573C49.8178 21.654 49.7473 21.75 49.6993 21.861C49.6543 21.969 49.6318 22.0875 49.6318 22.2165C49.6318 22.3815 49.6753 22.5195 49.7623 22.6305C49.8493 22.7385 49.9633 22.8315 50.1043 22.9095C50.2483 22.9875 50.4118 23.0565 50.5948 23.1165C50.7778 23.1735 50.9638 23.235 51.1528 23.301C51.3448 23.367 51.5323 23.442 51.7153 23.526C51.8983 23.61 52.0603 23.7165 52.2013 23.8455C52.3453 23.9745 52.4608 24.132 52.5478 24.318C52.6348 24.504 52.6783 24.7305 52.6783 24.9975C52.6783 25.2855 52.6288 25.5555 52.5298 25.8075C52.4308 26.0595 52.2868 26.28 52.0978 26.469C51.9118 26.655 51.6808 26.802 51.4048 26.91C51.1318 27.018 50.8198 27.072 50.4688 27.072C50.2618 27.072 50.0593 27.051 49.8613 27.009C49.6663 26.97 49.4788 26.9145 49.2988 26.8425C49.1218 26.7675 48.9553 26.6775 48.7993 26.5725C48.6433 26.4675 48.5038 26.3505 48.3808 26.2215L48.6868 25.7175C48.7138 25.6755 48.7483 25.6425 48.7903 25.6185C48.8323 25.5945 48.8788 25.5825 48.9298 25.5825C48.9988 25.5825 49.0753 25.6155 49.1593 25.6815C49.2433 25.7445 49.3438 25.815 49.4608 25.893C49.5808 25.968 49.7248 26.0385 49.8928 26.1045C50.0608 26.1675 50.2618 26.199 50.4958 26.199C50.8768 26.199 51.1708 26.106 51.3778 25.92C51.5878 25.734 51.6928 25.4775 51.6928 25.1505C51.6928 24.9675 51.6493 24.819 51.5623 24.705C51.4753 24.588 51.3598 24.4905 51.2158 24.4125C51.0748 24.3345 50.9128 24.2685 50.7298 24.2145C50.5468 24.1605 50.3608 24.1035 50.1718 24.0435C49.9828 23.9805 49.7968 23.9085 49.6138 23.8275C49.4308 23.7435 49.2673 23.6355 49.1233 23.5035C48.9823 23.3685 48.8683 23.2035 48.7813 23.0085C48.6943 22.8105 48.6508 22.5645 48.6508 22.2705C48.6508 22.0365 48.6958 21.81 48.7858 21.591C48.8788 21.372 49.0123 21.1785 49.1863 21.0105C49.3633 20.8395 49.5808 20.703 49.8388 20.601C50.0968 20.499 50.3908 20.448 50.7208 20.448C51.0928 20.448 51.4333 20.5065 51.7423 20.6235C52.0543 20.7405 52.3228 20.907 52.5478 21.123L52.2913 21.627ZM58.4447 26.1495L58.4402 27H54.3992V20.52H58.4402V21.3705H55.4567V23.3235H57.8417V24.147H55.4567V26.1495H58.4447ZM64.6276 21.3975H62.6071V27H61.5586V21.3975H59.5336V20.52H64.6276V21.3975ZM68.6688 26.1495C68.9178 26.1495 69.1398 26.1075 69.3348 26.0235C69.5328 25.9395 69.6993 25.8225 69.8343 25.6725C69.9723 25.5225 70.0773 25.3425 70.1493 25.1325C70.2213 24.9195 70.2573 24.684 70.2573 24.426V20.52H71.3058V24.426C71.3058 24.807 71.2443 25.1595 71.1213 25.4835C71.0013 25.8075 70.8273 26.088 70.5993 26.325C70.3713 26.559 70.0938 26.7435 69.7668 26.8785C69.4428 27.0105 69.0768 27.0765 68.6688 27.0765C68.2608 27.0765 67.8933 27.0105 67.5663 26.8785C67.2423 26.7435 66.9663 26.559 66.7383 26.325C66.5103 26.088 66.3348 25.8075 66.2118 25.4835C66.0918 25.1595 66.0318 24.807 66.0318 24.426V20.52H67.0848V24.4215C67.0848 24.6795 67.1208 24.915 67.1928 25.128C67.2648 25.338 67.3683 25.5195 67.5033 25.6725C67.6383 25.8225 67.8033 25.9395 67.9983 26.0235C68.1963 26.1075 68.4198 26.1495 68.6688 26.1495ZM75.3654 23.823C75.5994 23.823 75.8049 23.793 75.9819 23.733C76.1619 23.673 76.3104 23.589 76.4274 23.481C76.5474 23.37 76.6374 23.2365 76.6974 23.0805C76.7574 22.9245 76.7874 22.7505 76.7874 22.5585C76.7874 22.3695 76.7574 22.2 76.6974 22.05C76.6404 21.9 76.5534 21.7725 76.4364 21.6675C76.3194 21.5625 76.1709 21.483 75.9909 21.429C75.8139 21.372 75.6054 21.3435 75.3654 21.3435H74.4024V23.823H75.3654ZM75.3654 20.52C75.7884 20.52 76.1544 20.5695 76.4634 20.6685C76.7754 20.7675 77.0319 20.907 77.2329 21.087C77.4369 21.264 77.5884 21.4785 77.6874 21.7305C77.7864 21.9795 77.8359 22.2555 77.8359 22.5585C77.8359 22.8675 77.7834 23.151 77.6784 23.409C77.5734 23.664 77.4174 23.8845 77.2104 24.0705C77.0034 24.2535 76.7454 24.3975 76.4364 24.5025C76.1304 24.6045 75.7734 24.6555 75.3654 24.6555H74.4024V27H73.3494V20.52H75.3654ZM86.1914 21.3975H84.1709V27H83.1224V21.3975H81.0974V20.52H86.1914V21.3975ZM91.7221 26.1495L91.7176 27H87.6766V20.52H91.7176V21.3705H88.7341V23.3235H91.1191V24.147H88.7341V26.1495H91.7221ZM96.8744 24.57L95.9834 22.203C95.9114 22.02 95.8379 21.7875 95.7629 21.5055C95.7299 21.6465 95.6939 21.777 95.6549 21.897C95.6159 22.014 95.5799 22.1175 95.5469 22.2075L94.6559 24.57H96.8744ZM98.8679 27H98.0534C97.9604 27 97.8854 26.9775 97.8284 26.9325C97.7714 26.8845 97.7279 26.826 97.6979 26.757L97.1579 25.326H94.3679L93.8279 26.757C93.8039 26.817 93.7619 26.8725 93.7019 26.9235C93.6419 26.9745 93.5669 27 93.4769 27H92.6624L95.2319 20.52H96.2984L98.8679 27ZM107.101 20.52V27H106.174V22.5585C106.174 22.4865 106.176 22.4085 106.179 22.3245C106.185 22.2375 106.192 22.1505 106.201 22.0635L104.118 25.911C104.037 26.07 103.912 26.1495 103.744 26.1495H103.596C103.425 26.1495 103.3 26.07 103.222 25.911L101.107 22.0545C101.116 22.1415 101.122 22.2285 101.125 22.3155C101.131 22.4025 101.134 22.4835 101.134 22.5585V27H100.207V20.52H100.995C101.088 20.52 101.16 20.529 101.211 20.547C101.262 20.562 101.308 20.6115 101.35 20.6955L103.429 24.462C103.474 24.549 103.516 24.639 103.555 24.732C103.597 24.822 103.635 24.915 103.668 25.011C103.704 24.915 103.741 24.8205 103.78 24.7275C103.822 24.6315 103.866 24.54 103.911 24.453L105.958 20.6955C106 20.6115 106.047 20.562 106.098 20.547C106.149 20.529 106.221 20.52 106.314 20.52H107.101Z" fill="white"/>
<rect x="61.7969" y="51.7656" width="80.3137" height="5.63605" rx="2.81802" fill="#BBBABA"/>
<rect x="229.47" y="51.7656" width="64.8145" height="5.63605" rx="2.81802" fill="#BBBABA"/>
<rect x="64.6152" y="98.2627" width="133.856" height="5.63605" rx="2.81802" fill="#BBBABA"/>
<rect x="61.7969" y="154.623" width="167.672" height="5.63605" rx="2.81802" fill="#BBBABA"/>
<rect x="59.6836" y="202.529" width="95.8128" height="5.63605" rx="2.81802" fill="#BBBABA"/>
<rect x="223.129" y="202.529" width="95.8128" height="5.63605" rx="2.81802" fill="#BBBABA"/>
<rect x="64.6152" y="256.072" width="95.8128" height="5.63605" rx="2.81802" fill="#BBBABA"/>
</svg>
