<svg width="36" height="37" viewBox="0 0 36 37" fill="none" xmlns="http://www.w3.org/2000/svg">
<g clip-path="url(#clip0_906_6840)">
<path opacity="0.3" d="M7.62 12.4996H12.045C12.525 10.6246 13.215 8.82457 14.115 7.15957C11.355 8.10457 9.06 10.0096 7.62 12.4996ZM11.25 18.4996C11.25 17.4796 11.34 16.4896 11.46 15.4996H6.39C6.15 16.4596 6 17.4646 6 18.4996C6 19.5346 6.15 20.5396 6.39 21.4996H11.46C11.34 20.5096 11.25 19.5196 11.25 18.4996ZM7.62 24.4996C9.06 26.9896 11.355 28.8946 14.115 29.8396C13.215 28.1746 12.525 26.3746 12.045 24.4996H7.62ZM18 6.55957C16.755 8.35957 15.78 10.3546 15.135 12.4996H20.865C20.22 10.3546 19.245 8.35957 18 6.55957ZM28.38 12.4996C26.94 10.0246 24.645 8.10457 21.885 7.15957C22.785 8.82457 23.475 10.6246 23.955 12.4996H28.38ZM18 30.4396C19.245 28.6396 20.22 26.6446 20.865 24.4996H15.135C15.78 26.6446 16.755 28.6396 18 30.4396ZM21.885 29.8396C24.645 28.8946 26.94 26.9746 28.38 24.4996H23.955C23.475 26.3746 22.785 28.1746 21.885 29.8396ZM29.61 15.4996H24.54C24.66 16.4896 24.75 17.4796 24.75 18.4996C24.75 19.5196 24.66 20.5096 24.54 21.4996H29.61C29.85 20.5396 30 19.5346 30 18.4996C30 17.4646 29.85 16.4596 29.61 15.4996ZM14.49 15.4996C14.355 16.4746 14.25 17.4796 14.25 18.4996C14.25 19.5196 14.355 20.5096 14.49 21.4996H21.51C21.645 20.5096 21.75 19.5196 21.75 18.4996C21.75 17.4796 21.645 16.4746 21.51 15.4996H14.49Z" fill="#5B70AF"/>
<path d="M17.985 3.5C9.705 3.5 3 10.22 3 18.5C3 26.78 9.705 33.5 17.985 33.5C26.28 33.5 33 26.78 33 18.5C33 10.22 26.28 3.5 17.985 3.5ZM28.38 12.5H23.955C23.475 10.625 22.785 8.825 21.885 7.16C24.645 8.105 26.94 10.025 28.38 12.5ZM18 6.56C19.245 8.36 20.22 10.355 20.865 12.5H15.135C15.78 10.355 16.755 8.36 18 6.56ZM6.39 21.5C6.15 20.54 6 19.535 6 18.5C6 17.465 6.15 16.46 6.39 15.5H11.46C11.34 16.49 11.25 17.48 11.25 18.5C11.25 19.52 11.34 20.51 11.46 21.5H6.39ZM7.62 24.5H12.045C12.525 26.375 13.215 28.175 14.115 29.84C11.355 28.895 9.06 26.99 7.62 24.5ZM12.045 12.5H7.62C9.06 10.01 11.355 8.105 14.115 7.16C13.215 8.825 12.525 10.625 12.045 12.5ZM18 30.44C16.755 28.64 15.78 26.645 15.135 24.5H20.865C20.22 26.645 19.245 28.64 18 30.44ZM21.51 21.5H14.49C14.355 20.51 14.25 19.52 14.25 18.5C14.25 17.48 14.355 16.475 14.49 15.5H21.51C21.645 16.475 21.75 17.48 21.75 18.5C21.75 19.52 21.645 20.51 21.51 21.5ZM21.885 29.84C22.785 28.175 23.475 26.375 23.955 24.5H28.38C26.94 26.975 24.645 28.895 21.885 29.84ZM24.54 21.5C24.66 20.51 24.75 19.52 24.75 18.5C24.75 17.48 24.66 16.49 24.54 15.5H29.61C29.85 16.46 30 17.465 30 18.5C30 19.535 29.85 20.54 29.61 21.5H24.54Z" fill="#5B70AF"/>
</g>
<defs>
<clipPath id="clip0_906_6840">
<rect width="36" height="36" fill="white" transform="translate(0 0.5)"/>
</clipPath>
</defs>
</svg>
