<svg width="158" height="39" viewBox="0 0 158 39" fill="none" xmlns="http://www.w3.org/2000/svg">
<path d="M6.97949 25.1388L8.66561 21.2031L10.6548 22.056C11.4799 22.4098 12.3303 22.5824 13.206 22.574C14.0395 22.5824 14.8563 22.4267 15.6561 22.1066C16.4139 21.8034 17.1128 21.3527 17.7527 20.7547C18.3505 20.1735 18.8262 19.4702 19.1799 18.6447L21.6353 12.9132L25.6136 14.6189L23.1582 20.3505C22.5646 21.7361 21.7647 22.9111 20.7585 23.8755C19.7102 24.8568 18.5398 25.5938 17.2474 26.0865C15.9423 26.6087 14.5783 26.8614 13.1554 26.8445C11.7198 26.8571 10.3242 26.5728 8.96864 25.9916L6.97949 25.1388Z" fill="#5B70AF"/>
<path d="M21.6797 8.09436L19.9936 12.03L16.7661 10.3245C15.9409 9.97074 15.0905 9.79802 14.2149 9.80644C13.3813 9.79802 12.5646 9.95385 11.7647 10.2739C11.0069 10.5771 10.3081 11.0277 9.66815 11.6258C9.07032 12.2069 8.59459 12.9103 8.24097 13.7357L3.9783 23.6854L0 21.9797L4.26267 12.03C4.85627 10.6444 5.65614 9.46937 6.66233 8.50498C7.7106 7.52371 8.88098 6.78669 10.1734 6.29399C11.4785 5.77174 12.8425 5.51906 14.2655 5.53595C15.701 5.52334 17.0966 5.80763 18.4522 6.38886L21.6797 8.09436Z" fill="#343434"/>
<path d="M49.1978 8.66V12.9419H47.0337C46.1358 12.9419 45.286 13.1183 44.4848 13.4711C43.7153 13.7919 43.0257 14.2569 42.4168 14.8663C41.8397 15.4437 41.3746 16.1332 41.0221 16.9351C40.7014 17.7049 40.5412 18.5388 40.5412 19.4369V30.2619H36.2129V19.4369C36.2129 17.9294 36.4851 16.5342 37.0305 15.2512C37.6076 13.9362 38.3929 12.7976 39.387 11.8353C40.3806 10.841 41.5348 10.0712 42.8496 9.526C44.164 8.94867 45.5587 8.66 47.0337 8.66H49.1978ZM67.3715 22.6603L70.4013 25.6913L68.9104 27.1828C67.8846 28.2091 66.7145 28.995 65.3997 29.5402C64.0853 30.0855 62.7065 30.3581 61.2637 30.3581C59.821 30.3581 58.4426 30.0855 57.1278 29.5402C55.8134 28.995 54.6433 28.2091 53.617 27.1828C52.559 26.1243 51.7737 24.9376 51.2605 23.6226C50.7479 22.2754 50.491 20.9123 50.491 19.5331C50.491 18.1539 50.7479 16.8068 51.2605 15.4918C51.7737 14.1768 52.559 12.99 53.617 11.9316C54.6751 10.8731 55.8615 10.0873 57.1759 9.57411C58.5225 9.02887 59.8854 8.75622 61.2637 8.75622C62.6425 8.75622 63.9891 9.02887 65.3035 9.57411C66.6501 10.0873 67.8524 10.8731 68.9104 11.9316L70.4013 13.423L58.4263 25.4027C59.6449 26.0121 60.9271 26.2206 62.2737 26.0281C63.6525 25.8036 64.8548 25.1781 65.8806 24.1518L67.3715 22.6603ZM56.6469 14.9144C55.3647 16.1974 54.7232 17.737 54.7232 19.5331C54.7232 20.5274 54.9478 21.4736 55.3965 22.3717C55.7812 21.9868 56.3583 21.4094 57.1278 20.6397C57.9295 19.8378 58.7629 19.0039 59.6286 18.1379C60.5265 17.2398 61.3763 16.3899 62.1775 15.588C63.0114 14.7861 63.6525 14.1607 64.1012 13.7117C62.883 13.1022 61.5845 12.8938 60.2057 13.0862C58.8591 13.2787 57.6732 13.8881 56.6469 14.9144ZM82.6321 8.66C84.1389 8.66 85.5335 8.94867 86.8162 9.526C88.1305 10.0712 89.2689 10.841 90.2307 11.8353C91.2243 12.7976 91.9938 13.9362 92.5392 15.2512C93.1163 16.5342 93.4048 17.9294 93.4048 19.4369V28.0969C93.4048 29.6044 93.1163 30.9996 92.5392 32.2826C91.9938 33.5974 91.2243 34.7521 90.2307 35.7466C89.2689 36.741 88.1305 37.5108 86.8162 38.0559C85.5335 38.6332 84.1389 38.9219 82.6321 38.9219H80.468V34.64H82.6321C84.0749 34.64 85.3412 34.2229 86.4314 33.3891C87.5534 32.5871 88.3388 31.5449 88.788 30.2619H82.6321C81.1571 30.2619 79.7625 29.9892 78.4481 29.444C77.1333 28.8667 75.979 28.0809 74.9854 27.0866C73.9914 26.0922 73.206 24.9376 72.6289 23.6226C72.0836 22.3075 71.8114 20.9123 71.8114 19.4369C71.8114 17.9294 72.0836 16.5342 72.6289 15.2512C73.206 13.9362 73.9914 12.7976 74.9854 11.8353C75.979 10.841 77.1333 10.0712 78.4481 9.526C79.7625 8.94867 81.1571 8.66 82.6321 8.66ZM76.0916 19.4369C76.0916 20.335 76.2517 21.1849 76.5725 21.9868C76.925 22.7886 77.3901 23.4942 77.9672 24.1037C78.576 24.681 79.2815 25.1461 80.0832 25.4989C80.8845 25.8196 81.7343 25.98 82.6321 25.98H89.1727V19.4369C89.1727 18.5388 88.9962 17.7049 88.6437 16.9351C88.3229 16.1332 87.8578 15.4437 87.249 14.8663C86.6719 14.2569 85.9823 13.7919 85.181 13.4711C84.3793 13.1183 83.5295 12.9419 82.6321 12.9419C81.7343 12.9419 80.8845 13.1183 80.0832 13.4711C79.2815 13.7919 78.576 14.2569 77.9672 14.8663C77.3901 15.4437 76.925 16.1332 76.5725 16.9351C76.2517 17.7049 76.0916 18.5388 76.0916 19.4369ZM111.66 22.6603L114.69 25.6913L113.199 27.1828C112.173 28.2091 111.003 28.995 109.688 29.5402C108.374 30.0855 106.995 30.3581 105.552 30.3581C104.109 30.3581 102.731 30.0855 101.416 29.5402C100.102 28.995 98.9316 28.2091 97.9053 27.1828C96.8473 26.1243 96.0619 24.9376 95.5488 23.6226C95.0361 22.2754 94.7793 20.9123 94.7793 19.5331C94.7793 18.1539 95.0361 16.8068 95.5488 15.4918C96.0619 14.1768 96.8473 12.99 97.9053 11.9316C98.9633 10.8731 100.15 10.0873 101.464 9.57411C102.811 9.02887 104.174 8.75622 105.552 8.75622C106.931 8.75622 108.277 9.02887 109.592 9.57411C110.938 10.0873 112.141 10.8731 113.199 11.9316L114.69 13.423L102.715 25.4027C103.933 26.0121 105.215 26.2206 106.562 26.0281C107.941 25.8036 109.143 25.1781 110.169 24.1518L111.66 22.6603ZM100.935 14.9144C99.653 16.1974 99.0114 17.737 99.0114 19.5331C99.0114 20.5274 99.236 21.4736 99.6847 22.3717C100.069 21.9868 100.647 21.4094 101.416 20.6397C102.218 19.8378 103.051 19.0039 103.917 18.1379C104.815 17.2398 105.665 16.3899 106.466 15.588C107.3 14.7861 107.941 14.1607 108.389 13.7117C107.171 13.1022 105.873 12.8938 104.494 13.0862C103.147 13.2787 101.961 13.8881 100.935 14.9144ZM116.148 19.485C116.148 17.9775 116.42 16.5823 116.965 15.2993C117.542 13.9843 118.312 12.8457 119.274 11.8834C120.267 10.8891 121.422 10.1194 122.736 9.57411C124.051 8.99678 125.445 8.70811 126.92 8.70811C128.427 8.70811 129.822 8.99678 131.104 9.57411C132.419 10.1194 133.573 10.8891 134.567 11.8834C135.561 12.8457 136.33 13.9843 136.876 15.2993C137.453 16.5823 137.741 17.9775 137.741 19.485V30.31H133.461V19.485C133.461 18.5869 133.284 17.753 132.932 16.9832C132.611 16.1814 132.146 15.4918 131.537 14.9144C130.96 14.305 130.271 13.84 129.469 13.5192C128.668 13.1664 127.818 12.99 126.92 12.99C126.023 12.99 125.173 13.1664 124.372 13.5192C123.602 13.84 122.912 14.305 122.304 14.9144C121.726 15.4918 121.261 16.1814 120.909 16.9832C120.588 17.753 120.428 18.5869 120.428 19.485V30.31H116.148V19.485ZM150.029 4.28189C149.131 4.28189 148.282 4.45831 147.48 4.81111C146.679 5.13187 145.974 5.59691 145.364 6.20633C144.787 6.78367 144.322 7.47324 143.97 8.27511C143.649 9.04489 143.489 9.8788 143.489 10.7769V12.99H152.145V17.2719H143.489V30.2619H139.208V10.7769C139.208 9.26942 139.481 7.8742 140.026 6.59122C140.603 5.2762 141.389 4.13755 142.383 3.17533C143.377 2.18102 144.531 1.41124 145.845 0.866C147.16 0.288666 148.554 0 150.029 0H152.145V4.28189H150.029ZM153.768 8.66H158V30.2619H153.768V8.66Z" fill="#343434"/>
<path d="M155.665 6.22618C156.594 6.22618 157.348 5.47227 157.348 4.54229C157.348 3.6123 156.594 2.8584 155.665 2.8584C154.735 2.8584 153.981 3.6123 153.981 4.54229C153.981 5.47227 154.735 6.22618 155.665 6.22618Z" fill="#5B70AF"/>
<ellipse cx="24.5624" cy="11.1256" rx="1.9237" ry="1.92444" fill="#5B70AF"/>
</svg>
