<svg width="24" height="24" viewBox="0 0 24 24" fill="none" xmlns="http://www.w3.org/2000/svg">
<rect width="24" height="24" rx="5" fill="#FEDC56" fill-opacity="0.18"/>
<g clip-path="url(#clip0_1242_4250)">
<path d="M7.55146 12.54H10.8954C11.2019 12.54 11.4527 12.2892 11.4527 11.9827V7.52412C11.4527 7.21759 11.2019 6.9668 10.8954 6.9668H7.55146C7.24494 6.9668 6.99414 7.21759 6.99414 7.52412V11.9827C6.99414 12.2892 7.24494 12.54 7.55146 12.54ZM7.55146 16.9986H10.8954C11.2019 16.9986 11.4527 16.7478 11.4527 16.4413V14.212C11.4527 13.9055 11.2019 13.6547 10.8954 13.6547H7.55146C7.24494 13.6547 6.99414 13.9055 6.99414 14.212V16.4413C6.99414 16.7478 7.24494 16.9986 7.55146 16.9986ZM13.1247 16.9986H16.4686C16.7752 16.9986 17.026 16.7478 17.026 16.4413V11.9827C17.026 11.6762 16.7752 11.4254 16.4686 11.4254H13.1247C12.8182 11.4254 12.5674 11.6762 12.5674 11.9827V16.4413C12.5674 16.7478 12.8182 16.9986 13.1247 16.9986ZM12.5674 7.52412V9.75341C12.5674 10.0599 12.8182 10.3107 13.1247 10.3107H16.4686C16.7752 10.3107 17.026 10.0599 17.026 9.75341V7.52412C17.026 7.21759 16.7752 6.9668 16.4686 6.9668H13.1247C12.8182 6.9668 12.5674 7.21759 12.5674 7.52412Z" fill="#FEDC56"/>
</g>
<defs>
<clipPath id="clip0_1242_4250">
<rect width="13.3758" height="13.3758" fill="white" transform="translate(5.32227 5.29492)"/>
</clipPath>
</defs>
</svg>
