<svg width="24" height="24" viewBox="0 0 24 24" fill="none" xmlns="http://www.w3.org/2000/svg">
<rect width="24" height="24" rx="5" fill="#3CA1FF" fill-opacity="0.15"/>
<g clip-path="url(#clip0_1242_650)">
<path d="M11.0461 11.9826H12.9745C13.4928 11.9826 13.8829 11.52 13.7993 11.0073L13.6321 10.0097C13.4983 9.21829 12.8128 8.63867 12.0103 8.63867C11.2077 8.63867 10.5222 9.21829 10.3885 10.0153L10.2213 11.0129C10.1377 11.52 10.5278 11.9826 11.0461 11.9826Z" fill="#3CA1FF"/>
<path d="M6.24711 11.4862C6.17466 11.6311 6.14679 11.8039 6.19138 11.9766C6.28055 12.3612 6.61494 12.5507 7.04408 12.534C7.04408 12.534 7.87449 12.534 8.13086 12.534C8.59344 12.534 8.97242 12.2107 8.97242 11.815C8.97242 11.737 8.9557 11.6645 8.93341 11.5921C8.92783 11.5754 8.92783 11.5642 8.93898 11.5475C8.98914 11.4583 9.017 11.358 9.017 11.2521C9.017 11.0794 8.93898 10.9177 8.81637 10.7951C8.79965 10.7784 8.79965 10.7617 8.80522 10.7394C8.84423 10.6279 8.84423 10.4997 8.8108 10.3771C8.72162 10.1375 8.50427 9.97586 8.25905 9.96471C8.24233 9.96471 8.23118 9.95914 8.22003 9.94799C8.12529 9.83096 7.95252 9.75293 7.75745 9.75293C7.59026 9.75293 7.43978 9.80866 7.33946 9.89783C7.32274 9.91455 7.30602 9.91455 7.2893 9.90898C7.21128 9.87554 7.12211 9.85882 7.03293 9.85882C6.67067 9.85882 6.37529 10.1319 6.34185 10.483C6.34185 10.4942 6.33628 10.5053 6.32513 10.5165C6.16351 10.6614 6.06877 10.8787 6.09663 11.1017C6.11335 11.2243 6.16351 11.3413 6.23596 11.436C6.25268 11.4472 6.25268 11.4695 6.24711 11.4862Z" fill="#3CA1FF"/>
<path d="M14.373 12.902C13.7209 12.6122 12.9184 12.4004 12.01 12.4004C11.1015 12.4004 10.299 12.6177 9.6469 12.902C9.045 13.1695 8.66602 13.7714 8.66602 14.429V14.769C8.66602 15.0755 8.91681 15.3263 9.22334 15.3263H14.7966C15.1031 15.3263 15.3539 15.0755 15.3539 14.769V14.429C15.3539 13.7714 14.9749 13.1695 14.373 12.902Z" fill="#3CA1FF"/>
<path d="M6.0022 13.4209C5.58978 13.5992 5.32227 14.0005 5.32227 14.452V14.7696C5.32227 15.0762 5.57306 15.3269 5.87959 15.3269H7.83022V14.4297C7.83022 13.9671 7.9584 13.5324 8.18133 13.1534C7.97512 13.1199 7.76891 13.0977 7.55156 13.0977C6.99981 13.0977 6.47592 13.2147 6.0022 13.4209Z" fill="#3CA1FF"/>
<path d="M18.018 13.4209C17.5443 13.2147 17.0204 13.0977 16.4686 13.0977C16.2513 13.0977 16.0451 13.1199 15.8389 13.1534C16.0618 13.5324 16.19 13.9671 16.19 14.4297V15.3269H18.1406C18.4471 15.3269 18.6979 15.0762 18.6979 14.7696V14.452C18.6979 14.0005 18.4304 13.5992 18.018 13.4209Z" fill="#3CA1FF"/>
<path d="M17.5831 11.4255V11.1469C17.5831 10.5338 17.0815 10.0322 16.4684 10.0322H15.3538C15.1197 10.0322 14.9915 10.2997 15.1364 10.4837L15.5266 10.8348C15.4207 11.0075 15.3538 11.2082 15.3538 11.4255C15.3538 12.0386 15.8554 12.5402 16.4684 12.5402C17.0815 12.5402 17.5831 12.0386 17.5831 11.4255Z" fill="#3CA1FF"/>
</g>
<defs>
<clipPath id="clip0_1242_650">
<rect width="13.3758" height="13.3758" fill="white" transform="translate(5.32227 5.29492)"/>
</clipPath>
</defs>
</svg>
